M48
INCH,LZ
;FILE_FORMAT=2:4
;TYPE=PLATED
;Layer: Drill PTH
;EasyEDA v6.4.25, 2022-01-21T19:56:56+01:00
;10
;Gerber Generator version 0.2
;Holesize 1 = 0.0120 inch
T01C0.0120
;Holesize 2 = 0.0120 inch
T02C0.0120
;Holesize 3 = 0.0240 inch
T03C0.0240
;Holesize 4 = 0.0320 inch
T04C0.0320
;Holesize 5 = 0.0350 inch
T05C0.0350
;Holesize 6 = 0.0360 inch
T06C0.0360
;Holesize 7 = 0.0370 inch
T07C0.0370
;Holesize 8 = 0.0390 inch
T08C0.0390
;Holesize 9 = 0.0400 inch
T09C0.0400
;Holesize 10 = 0.0430 inch
T10C0.0430
%
G05
G90
T01
X035000Y-002250
X031400Y-002100
X028650Y-002200
X030850Y-004950
X027650Y-005100
X024550Y-005600
X026100Y-002350
X022700Y-016650
X028150Y-005600
X029250Y-006000
X031100Y-006000
X034950Y-003850
X035150Y-004400
X033950Y-002100
X033950Y-002600
X033950Y-003100
X024550Y-002100
X024550Y-002600
X024650Y-003250
X025600Y-002800
X030900Y-002150
X030850Y-002450
X031900Y-002950
X031650Y-003250
X026750Y-005800
X028750Y-004850
X030956Y-004466
X030800Y-004100
X031400Y-003950
X024550Y-005100
X028600Y-003050
X029800Y-003200
X028200Y-002100
X027750Y-002450
X026650Y-002800
X025250Y-002250
X027800Y-003900
X024800Y-003600
X027750Y-004500
X024750Y-004100
X025585Y-003600
X034300Y-002100
X026550Y-002350
X026500Y-003850
X029800Y-002700
X028000Y-003050
X030472Y-006750
X028250Y-006550
X032450Y-005250
X032050Y-003650
X010800Y-005600
X008900Y-003100
X008900Y-004500
X022703Y-004494
X022703Y-003084
X021850Y-002350
X019826Y-005600
X017200Y-004950
X018300Y-001950
X014300Y-002150
X013900Y-004950
X014000Y-006000
X015500Y-006000
X022321Y-003629
X019250Y-004100
X022150Y-005850
X019300Y-004650
X011900Y-002100
X011900Y-002600
X021100Y-002200
X010800Y-003150
X010800Y-004600
X010800Y-005100
X014950Y-002450
X014950Y-002950
X018300Y-003450
X018250Y-004900
X017200Y-003450
X017200Y-001950
X015850Y-004750
X016050Y-003450
X012900Y-003300
X013950Y-001950
X011900Y-004100
X017150Y-005650
X018400Y-005650
X017950Y-003450
X017600Y-002750
X019350Y-002400
X014600Y-006250
X017250Y-004450
X013350Y-005950
X017250Y-003950
X018100Y-002750
X011700Y-003200
X033950Y-015550
X033950Y-015900
X025650Y-005600
X018000Y-006550
X025650Y-015550
X027950Y-015850
X029600Y-015500
X032150Y-015500
X028750Y-016200
X031950Y-016200
X035550Y-015200
X030850Y-019150
X028050Y-019150
X024550Y-018550
X024550Y-019050
X033950Y-018550
X033950Y-019050
X027900Y-016650
X027700Y-017150
X025650Y-016550
X025100Y-014900
X024550Y-016550
X024550Y-017050
X024600Y-017550
X027650Y-018650
X027650Y-018200
X026600Y-018400
X035000Y-018050
X031100Y-017600
X032950Y-017650
X030850Y-016400
X032950Y-019150
X027700Y-017650
X028750Y-019150
X028750Y-017500
X026650Y-016000
X033950Y-018050
X035950Y-003100
X012750Y-002900
X024500Y-018050
X025550Y-017300
X026550Y-017600
X026550Y-017100
X023800Y-013500
X024800Y-013550
X032950Y-013350
X032500Y-013400
X031650Y-016350
X031350Y-016500
X030000Y-015450
X028550Y-018400
X031900Y-017850
X030800Y-015500
X031100Y-016750
X030050Y-016850
X028800Y-014000
X021850Y-015250
X020300Y-018000
X020300Y-018550
X020300Y-019050
X017250Y-019150
X019000Y-015850
X015100Y-016350
X013950Y-019150
X012300Y-015300
X010800Y-019050
X010800Y-018550
X010800Y-018050
X014000Y-015150
X015200Y-014750
X011950Y-018100
X023800Y-002900
X021450Y-004900
X005100Y-006150
X005950Y-004200
X005950Y-001750
X004950Y-001800
X003350Y-000700
X003350Y-001050
X005500Y-000650
X002600Y-001600
X001300Y-003050
X001250Y-003750
X001400Y-005250
X003450Y-006000
X005350Y-006500
X004000Y-002800
X005126Y-004296
X033050Y-016300
X039250Y-016250
X039450Y-017500
X039600Y-018950
X039250Y-015250
X034200Y-021800
X038850Y-022000
X037450Y-021950
X037024Y-019501
X034850Y-021400
X032650Y-021100
X034050Y-021500
X034100Y-021150
X037600Y-020250
X018650Y-006500
X024650Y-006800
X035650Y-021850
X021450Y-017950
X030250Y-021300
X029650Y-021700
X031320Y-020863
X028150Y-021650
X029550Y-021350
X027250Y-021250
X024700Y-020950
X027450Y-019650
X025650Y-019100
X021400Y-019050
X019400Y-002000
X008750Y-016700
X008900Y-015950
X008900Y-018750
X013700Y-016350
X015900Y-014800
X013000Y-018450
X011650Y-017000
X021650Y-017250
X022250Y-016350
X019300Y-018500
X019300Y-018000
X017950Y-015750
X017500Y-015700
X017800Y-014150
X016250Y-014850
X014900Y-017150
X013900Y-018400
X014950Y-019150
X015000Y-017750
X016350Y-015900
X017250Y-018150
X017250Y-017500
X017250Y-018650
X018250Y-017750
X018250Y-016650
X018250Y-017150
X011900Y-017700
X011950Y-017250
X013403Y-015500
X014600Y-015150
X036500Y000150
X035250Y-000250
X037600Y001700
X035800Y001900
X035850Y001200
X038850Y000900
X036057Y-002570
X036700Y-001550
X033500Y-001350
X018200Y-019150
X007900Y-015700
X001600Y-019750
X006250Y-020200
X004650Y-021250
X006050Y-021250
X007400Y-021750
X006750Y-019300
X002100Y-019750
X007250Y-020150
X008700Y-020750
X001450Y-018600
X001900Y-018600
X002400Y-018600
X009400Y-021950
X003100Y-021850
X010150Y-020600
X011100Y-022000
X012300Y-021950
X001600Y-021850
X013700Y-021850
X009750Y-021250
X003450Y-020800
X020350Y-016550
X012800Y-012650
X034200Y-012450
X033250Y-006100
X007600Y-014200
X014650Y-012150
X014100Y-011850
X014600Y-011550
X014200Y-011200
X014300Y-010450
X014600Y-010850
X014800Y-010150
X014400Y-009850
X012500Y-020500
X008200Y-021950
X014800Y-009500
X017000Y-009050
X027550Y-000100
X038950Y-014150
X038950Y-011150
X039050Y001600
T02
X006850Y-009600
X008785Y-013099
X008750Y-014200
X003400Y-013350
X008450Y-018050
X008400Y-017700
X006000Y-012050
X010805Y-002100
X010800Y-002550
X006800Y-018600
X007250Y-019500
X008450Y-019550
X006400Y-018550
X006400Y-019050
X006400Y-019550
X006400Y-016050
X001950Y000850
X002900Y000850
X001850Y-000350
X001900Y000200
X002650Y-000350
X001900Y-012150
X002400Y-012150
X007000Y-012050
X006500Y-012050
X004450Y-014300
X001450Y-017600
X001900Y-016550
X005200Y-018200
X006550Y000350
X010600Y002050
X010650Y000500
X006100Y001400
X003600Y-014250
X003150Y-014150
X003350Y-011800
X003350Y-011450
X004450Y-012050
X009600Y-012750
X008200Y-011700
X009650Y-012350
X004750Y-013150
X006000Y-014150
X006450Y-013800
X006000Y-015300
X003400Y-015600
X002900Y-015600
X002800Y-014350
X002400Y-014300
X001900Y-015450
X001500Y-013800
X008450Y-017350
X005400Y-015200
X005600Y-014800
X008000Y-015250
X008400Y-014200
X004700Y-017600
X003150Y-017200
X003400Y-018600
X002900Y-018600
X002450Y-015550
X002150Y-020900
X010350Y-019800
X038900Y-005950
X038600Y-005150
X038950Y-006550
X005512Y-019845
X024350Y-021300
X004596Y-006180
X001250Y-002350
X009750Y-007950
X010200Y-007950
X011150Y-017700
X010950Y-017300
X025269Y-015313
X022350Y-017750
X033850Y-005400
X011592Y-016050
T03
X008700Y-009900
X009350Y-011600
X004750Y-008000
X008100Y-010250
X007150Y-017300
T04
X003489Y-010650
X002111Y-010650
T05
X005300Y-010650
X006300Y-010650
T06
X021050Y-021250
X022200Y-021250
X022000Y-001050
T07
X026009Y001838
X026009Y000838
X026009Y-000162
X026009Y-001162
T08
X031300Y-007550
X030300Y-007550
X029300Y-007550
X028300Y-007550
X027300Y-007550
X026300Y-007550
X025300Y-007550
X024300Y-007550
X023300Y-007550
X022300Y-007550
X021300Y-007550
X020300Y-007550
X019300Y-007550
X018300Y-007550
X017300Y-007550
X016300Y-007550
X015300Y-007550
X014300Y-007550
X013300Y-007550
X012300Y-007550
X031300Y-013550
X030300Y-013550
X029300Y-013550
X028300Y-013550
X027300Y-013550
X026300Y-013550
X025300Y-013550
X024300Y-013550
X023300Y-013550
X022300Y-013550
X021300Y-013550
X020300Y-013550
X019300Y-013550
X018300Y-013550
X017300Y-013550
X016300Y-013550
X015300Y-013550
X014300Y-013550
X013300Y-013550
X012300Y-013550
X018494Y-021518
T09
X007500Y-001050
X008500Y-001050
X009500Y-001050
X010500Y-001050
X011500Y-001050
X012500Y-001050
X013500Y-001050
X014500Y-001050
X015500Y-001050
X016500Y-001050
X018000Y-001050
X019000Y-001050
X020000Y-001050
X021000Y-001050
X023000Y-001050
X024000Y-001050
X025000Y-001050
X027000Y-001050
X028000Y-001050
X029000Y-001050
X030000Y-001050
X031000Y-001050
X032000Y-001050
X033000Y-001050
X034000Y-001050
X038000Y-001050
X037000Y-001050
X038000Y-002050
X038000Y-003050
X037000Y-002050
X037000Y-003050
X037000Y-004050
X038000Y-004050
X038000Y-005050
X037000Y-005050
X037000Y-006050
X038000Y-006050
X037000Y-007050
X038000Y-007050
X037000Y-008050
X038000Y-008050
X037000Y-009050
X038000Y-009050
X037000Y-010050
X038000Y-010050
X037000Y-011050
X038000Y-011050
X038000Y-012050
X037000Y-012050
X037000Y-013050
X038000Y-013050
X038000Y-014050
X037000Y-014050
X037000Y-015050
X038000Y-015050
X038000Y-016050
X037000Y-016050
X037000Y-017050
X038000Y-017050
X038000Y-018050
X037000Y-018050
X036000Y-020050
X035000Y-020050
X034000Y-020050
X033000Y-020050
X032000Y-020050
X031000Y-020050
X030000Y-020050
X029000Y-020050
X027000Y-020050
X026000Y-020050
X025000Y-020050
X024000Y-020050
X023000Y-020050
X022000Y-020050
X021000Y-020050
X020000Y-020050
X018000Y-020050
X017000Y-020050
X016000Y-020050
X015000Y-020050
X014000Y-020050
X013000Y-020050
X012000Y-020050
X011000Y-020050
T10
X039100Y-000950
X039100Y-001950
X039100Y-002950
X039100Y-003950
M30
