G04 Layer: BottomLayer*
G04 EasyEDA v6.4.25, 2022-01-21T19:56:56+01:00*
G04 Gerber Generator version 0.2*
G04 Scale: 100 percent, Rotated: No, Reflected: No *
G04 Dimensions in inches *
G04 leading zeros omitted , absolute positions ,3 integer and 6 decimal *
%FSLAX36Y36*%
%MOIN*%

%ADD10C,0.0100*%
%ADD12C,0.0200*%
%ADD16C,0.0244*%
%ADD17C,0.0240*%
%ADD18C,0.0480*%
%ADD19C,0.0240*%
%ADD20C,0.0787*%
%ADD34R,0.0669X0.0669*%
%ADD35C,0.0669*%
%ADD36C,0.0740*%
%ADD37C,0.0600*%
%ADD38C,0.0700*%
%ADD39R,0.0591X0.0591*%
%ADD40C,0.0750*%
%ADD41C,0.0591*%

%LPD*%
D10*
X2780000Y-25000D02*
G01*
X2770000Y-25000D01*
X3900000Y-705000D02*
G01*
X3800000Y-705000D01*
X3925000Y-515000D02*
G01*
X3925000Y-680000D01*
X3855000Y-110000D02*
G01*
X3855000Y-445000D01*
X3855000Y-60000D02*
G01*
X3855000Y-110000D01*
X3570000Y60000D02*
G01*
X3570000Y20000D01*
X3440000Y100000D02*
G01*
X3530000Y100000D01*
X3390000Y5000D02*
G01*
X3390000Y50000D01*
X2940000Y-25000D02*
G01*
X3360000Y-25000D01*
X3121199Y-2088800D02*
G01*
X3131999Y-2086300D01*
X1990000Y-2090000D02*
G01*
X2070000Y-2090000D01*
X1400000Y-2090000D02*
G01*
X1990000Y-2090000D01*
X1385000Y-2090000D02*
G01*
X1400000Y-2090000D01*
X1080000Y-1715000D02*
G01*
X1080000Y-1675000D01*
X3270000Y-1725000D02*
G01*
X3270000Y-1745000D01*
X3295000Y-1715000D02*
G01*
X3280000Y-1715000D01*
X547500Y-2095000D02*
G01*
X605000Y-2095000D01*
X1080000Y-1855000D02*
G01*
X1080000Y-1905000D01*
X2355000Y-1745000D02*
G01*
X2355000Y-1810000D01*
X2240000Y-1735000D02*
G01*
X2345000Y-1735000D01*
X2145000Y-1795000D02*
G01*
X2180250Y-1759749D01*
X1080000Y-945000D02*
G01*
X1080000Y-1675000D01*
X1080000Y-940000D02*
G01*
X1080000Y-945000D01*
X1020000Y-795000D02*
G01*
X1020000Y-880000D01*
X1115000Y-1770000D02*
G01*
X1095000Y-1770000D01*
X1060000Y-1630000D02*
G01*
X1060000Y-1735000D01*
X1180000Y-1845000D02*
G01*
X1185000Y-1845000D01*
X1160000Y-1705000D02*
G01*
X1160000Y-1825000D01*
X1060000Y-970000D02*
G01*
X1060000Y-1630000D01*
X1010000Y-925000D02*
G01*
X1015000Y-925000D01*
X975000Y-795000D02*
G01*
X975000Y-890000D01*
X1330000Y-820000D02*
G01*
X1330000Y-755000D01*
X1220000Y-855000D02*
G01*
X1295000Y-855000D01*
X1205000Y-855000D02*
G01*
X1220000Y-855000D01*
X965000Y-740000D02*
G01*
X1090000Y-740000D01*
X920000Y-920000D02*
G01*
X920000Y-785000D01*
X1015000Y-955000D02*
G01*
X955000Y-955000D01*
X1040000Y-1335000D02*
G01*
X1040000Y-980000D01*
X985000Y-700000D02*
G01*
X1175000Y-700000D01*
X895000Y-910000D02*
G01*
X895000Y-790000D01*
X985000Y-980000D02*
G01*
X965000Y-980000D01*
X1020000Y-1334225D02*
G01*
X1020000Y-1015000D01*
X1350000Y-1985000D02*
G01*
X1350000Y-2020000D01*
X1085000Y-1945000D02*
G01*
X1310000Y-1945000D01*
X985000Y-1945000D02*
G01*
X1085000Y-1945000D01*
X551201Y-1984490D02*
G01*
X945510Y-1984490D01*
X2455000Y-1545000D02*
G01*
X2455000Y-1550000D01*
X1950000Y-90000D02*
G01*
X1950000Y-60972D01*
X1555000Y-45000D02*
G01*
X2305000Y-45000D01*
X1545000Y-45000D02*
G01*
X1555000Y-45000D01*
X700000Y-25000D02*
G01*
X545000Y-25000D01*
X2535000Y-50000D02*
G01*
X2535000Y-45000D01*
X915000Y-2170000D02*
G01*
X910000Y-2170000D01*
X655000Y-2150000D02*
G01*
X655000Y-2157411D01*
X790000Y-2135000D02*
G01*
X670000Y-2135000D01*
X805000Y-2155000D02*
G01*
X805000Y-2150000D01*
X840000Y-2170000D02*
G01*
X820000Y-2170000D01*
X910000Y-2170000D02*
G01*
X840000Y-2170000D01*
X620000Y-2150000D02*
G01*
X454519Y-2150000D01*
X795000Y-2115000D02*
G01*
X655000Y-2115000D01*
X805000Y-2115000D02*
G01*
X795000Y-2115000D01*
X1185000Y-2150000D02*
G01*
X840000Y-2150000D01*
X865000Y-2125000D02*
G01*
X975000Y-2125000D01*
X605000Y-2095000D02*
G01*
X835000Y-2095000D01*
X315000Y-2175000D02*
G01*
X315000Y-2180000D01*
X160000Y-2185000D02*
G01*
X160000Y-2175000D01*
X1030104Y-1984895D02*
G01*
X1035000Y-1980000D01*
X260000Y-2045000D02*
G01*
X885000Y-2045000D01*
X1360000Y-1245000D02*
G01*
X3420000Y-1245000D01*
X630000Y-2095000D02*
G01*
X605000Y-2095000D01*
X454519Y-2150000D02*
G01*
X185000Y-2150000D01*
X625000Y-1880000D02*
G01*
X660000Y-1880000D01*
X725000Y-1870000D02*
G01*
X725000Y-1950000D01*
X140000Y-1810000D02*
G01*
X145000Y-1860000D01*
X215000Y-1780000D02*
G01*
X170000Y-1780000D01*
X230000Y-1725000D02*
G01*
X230000Y-1765000D01*
X515000Y-1665000D02*
G01*
X290000Y-1665000D01*
X570000Y-1780000D02*
G01*
X570000Y-1720000D01*
X715000Y-1805000D02*
G01*
X595000Y-1805000D01*
X750000Y-1915000D02*
G01*
X750000Y-1840000D01*
X845000Y-1955000D02*
G01*
X790000Y-1955000D01*
X190000Y-1840000D02*
G01*
X190000Y-1860000D01*
X260000Y-1730000D02*
G01*
X260000Y-1770000D01*
X515000Y-1690000D02*
G01*
X300000Y-1690000D01*
X545000Y-1790000D02*
G01*
X545000Y-1720000D01*
X685000Y-1830000D02*
G01*
X585000Y-1830000D01*
X625000Y-1880000D02*
G01*
X610000Y-1880000D01*
X485000Y-1910000D02*
G01*
X580000Y-1910000D01*
X345000Y-1890000D02*
G01*
X425000Y-1890000D01*
X320000Y-1890000D02*
G01*
X345000Y-1890000D01*
X290000Y-1910000D02*
G01*
X485000Y-1910000D01*
X470000Y-1760000D02*
G01*
X470000Y-1845000D01*
X315000Y-1720000D02*
G01*
X315000Y-1835000D01*
X255000Y-1930000D02*
G01*
X275000Y-1930000D01*
X675000Y-1930000D02*
G01*
X275000Y-1930000D01*
X560000Y-1480000D02*
G01*
X780000Y-1480000D01*
X630000Y-1505000D02*
G01*
X780000Y-1505000D01*
X555000Y-1505000D02*
G01*
X630000Y-1505000D01*
X810000Y-1675000D02*
G01*
X810000Y-1740000D01*
X625000Y-1655000D02*
G01*
X790000Y-1655000D01*
X620000Y-1655000D02*
G01*
X625000Y-1655000D01*
X225000Y-1605000D02*
G01*
X570000Y-1605000D01*
X165000Y-1460000D02*
G01*
X165000Y-1545000D01*
X240000Y-1430000D02*
G01*
X195000Y-1430000D01*
X845000Y-1650000D02*
G01*
X845000Y-1735000D01*
X685000Y-1635000D02*
G01*
X830000Y-1635000D01*
X630000Y-1635000D02*
G01*
X685000Y-1635000D01*
X310000Y-1585000D02*
G01*
X580000Y-1585000D01*
X230000Y-1585000D02*
G01*
X310000Y-1585000D01*
X340000Y-1495000D02*
G01*
X340000Y-1560000D01*
X375000Y-1480000D02*
G01*
X355000Y-1480000D01*
X405000Y-1415000D02*
G01*
X405000Y-1450000D01*
X435000Y-1400000D02*
G01*
X420000Y-1400000D01*
X585000Y-1400000D02*
G01*
X435000Y-1400000D01*
X290000Y-1560000D02*
G01*
X290000Y-1480000D01*
X365000Y-1460000D02*
G01*
X310000Y-1460000D01*
X385000Y-1415000D02*
G01*
X385000Y-1440000D01*
X385000Y-1400000D02*
G01*
X385000Y-1415000D01*
X640000Y-1375000D02*
G01*
X410000Y-1375000D01*
X705000Y-1235000D02*
G01*
X965000Y-1235000D01*
X475000Y-1235000D02*
G01*
X705000Y-1235000D01*
X315000Y-1295000D02*
G01*
X315000Y-1365000D01*
X190000Y-1260000D02*
G01*
X280000Y-1260000D01*
X160000Y-1200000D02*
G01*
X160000Y-1230000D01*
X290000Y-1320000D02*
G01*
X290000Y-1375000D01*
X150000Y-1280000D02*
G01*
X250000Y-1280000D01*
X135000Y-1030000D02*
G01*
X135000Y-1265000D01*
X290000Y-1375000D02*
G01*
X290000Y-1390000D01*
X225000Y-1005000D02*
G01*
X160000Y-1005000D01*
X245000Y-265000D02*
G01*
X245000Y-985000D01*
X220000Y-245000D02*
G01*
X225000Y-245000D01*
X130000Y85000D02*
G01*
X130000Y-155000D01*
X610000Y140000D02*
G01*
X185000Y140000D01*
X360000Y-1425000D02*
G01*
X360000Y-1385000D01*
X330000Y-1380000D02*
G01*
X355000Y-1380000D01*
X260000Y-1160000D02*
G01*
X200000Y-1160000D01*
X270000Y-240000D02*
G01*
X270000Y-1150000D01*
X235000Y-215000D02*
G01*
X245000Y-215000D01*
X155000Y-155000D02*
G01*
X200857Y-200857D01*
X155000Y85000D02*
G01*
X155000Y-155000D01*
X265000Y115000D02*
G01*
X185000Y115000D01*
X995000Y115000D02*
G01*
X265000Y115000D01*
X385000Y60000D02*
G01*
X385000Y30000D01*
X295000Y90000D02*
G01*
X355000Y90000D01*
X275000Y-1185000D02*
G01*
X220000Y-1185000D01*
X295000Y-270000D02*
G01*
X295000Y-1165000D01*
X295000Y-240000D02*
G01*
X295000Y-270000D01*
X185000Y-35000D02*
G01*
X185000Y-130000D01*
X375000Y-1215000D02*
G01*
X240000Y-1215000D01*
X425000Y-725000D02*
G01*
X425000Y-1165000D01*
X340000Y-675000D02*
G01*
X375000Y-675000D01*
X315000Y-155000D02*
G01*
X315000Y-650000D01*
X265000Y-135000D02*
G01*
X295000Y-135000D01*
X230000Y-55000D02*
G01*
X230000Y-100000D01*
X230000Y-20000D02*
G01*
X230000Y-55000D01*
X650000Y-1180000D02*
G01*
X650000Y-1205000D01*
X685000Y-1030000D02*
G01*
X685000Y-1145000D01*
X600000Y-1000000D02*
G01*
X655000Y-1000000D01*
X570000Y-945000D02*
G01*
X570000Y-970000D01*
X595000Y-880000D02*
G01*
X595000Y-555000D01*
X700000Y-910000D02*
G01*
X625000Y-910000D01*
X715000Y-970000D02*
G01*
X715000Y-925000D01*
X715000Y-1190000D02*
G01*
X715000Y-970000D01*
X570000Y-555000D02*
G01*
X570000Y-945000D01*
X380000Y-540000D02*
G01*
X555000Y-540000D01*
X340000Y-235000D02*
G01*
X340000Y-500000D01*
X340000Y-230000D02*
G01*
X340000Y-235000D01*
X365000Y-65000D02*
G01*
X365000Y-205000D01*
X265000Y-35000D02*
G01*
X335000Y-35000D01*
X400000Y-515000D02*
G01*
X555000Y-515000D01*
X365000Y-280000D02*
G01*
X365000Y-480000D01*
X365000Y-245000D02*
G01*
X365000Y-280000D01*
X385000Y30000D02*
G01*
X385000Y-225000D01*
X420000Y-280000D02*
G01*
X400000Y-280000D01*
X455000Y-115000D02*
G01*
X455000Y-245000D01*
X735000Y-1605000D02*
G01*
X640000Y-1605000D01*
X900000Y-1331372D02*
G01*
X900000Y-1440000D01*
X810000Y-1355000D02*
G01*
X380000Y-1355000D01*
X905000Y-1770000D02*
G01*
X840000Y-1770000D01*
X970000Y-1710000D02*
G01*
X965000Y-1710000D01*
X1020000Y-1350000D02*
G01*
X1020000Y-1660000D01*
X1015000Y-1725000D02*
G01*
X1000000Y-1725000D01*
X1040000Y-1335000D02*
G01*
X1040000Y-1700000D01*
X1020000Y-1330000D02*
G01*
X1020000Y-1350000D01*
X920000Y-1805000D02*
G01*
X845000Y-1805000D01*
X380000Y-1355000D02*
G01*
X360000Y-1355000D01*
X3643334Y-555000D02*
G01*
X3659259Y-555000D01*
X3650000Y-165000D02*
G01*
X3660000Y-165000D01*
X3505000Y-255000D02*
G01*
X3605699Y-256999D01*
X2639488Y-65511D02*
G01*
X2572602Y-65511D01*
X2820000Y-185000D02*
G01*
X2480000Y-185000D01*
X3070000Y-185000D02*
G01*
X2820000Y-185000D01*
X2505000Y-165000D02*
G01*
X3405000Y-165000D01*
X3455000Y-217500D02*
G01*
X3455000Y-242500D01*
X2440000Y-1880000D02*
G01*
X2165000Y-1880000D01*
X2535000Y-1880000D02*
G01*
X2440000Y-1880000D01*
X2410000Y-1830000D02*
G01*
X2375000Y-1830000D01*
X2480000Y-1830000D02*
G01*
X2410000Y-1830000D01*
X2660000Y-1840000D02*
G01*
X2490000Y-1840000D01*
X2635000Y-1910000D02*
G01*
X2615000Y-1910000D01*
X2695000Y-1940000D02*
G01*
X2665000Y-1940000D01*
X2720000Y-1940000D02*
G01*
X2695000Y-1940000D01*
X2790000Y-1940000D02*
G01*
X2920000Y-1940000D01*
X2745000Y-1910000D02*
G01*
X2760000Y-1910000D01*
X2660000Y-1840000D02*
G01*
X2675000Y-1840000D01*
X2920000Y-1940000D02*
G01*
X3480000Y-1940000D01*
X2565000Y-1910000D02*
G01*
X2615000Y-1910000D01*
X3040000Y-2170000D02*
G01*
X2965000Y-2170000D01*
X3420000Y-2180000D02*
G01*
X3490000Y-2180000D01*
X3670000Y-2115000D02*
G01*
X3410000Y-2115000D01*
X3830000Y-2155000D02*
G01*
X3515000Y-2155000D01*
X3875000Y-1560000D02*
G01*
X3875000Y-2110000D01*
X3925000Y-1525000D02*
G01*
X3910000Y-1525000D01*
X582202Y-265000D02*
G01*
X995000Y-265000D01*
X1130000Y-265000D02*
G01*
X1130000Y-285000D01*
X1170000Y-235000D02*
G01*
X1160000Y-235000D01*
X1295000Y-235000D02*
G01*
X1170000Y-235000D01*
X1430000Y-170000D02*
G01*
X1360000Y-170000D01*
X1430000Y-170000D02*
G01*
X1460000Y-170000D01*
X1100000Y-315000D02*
G01*
X1080000Y-315000D01*
X1040000Y-650000D02*
G01*
X1040000Y-310000D01*
X1685000Y-675000D02*
G01*
X1065000Y-675000D01*
X1750000Y-675000D02*
G01*
X1685000Y-675000D01*
X1190000Y-614828D02*
G01*
X1190000Y-590000D01*
X1305000Y-655000D02*
G01*
X1230171Y-655000D01*
X1710000Y-655000D02*
G01*
X1305000Y-655000D01*
X1590000Y-625000D02*
G01*
X1460000Y-625000D01*
X2105000Y-625000D02*
G01*
X1800000Y-625000D01*
X2145000Y-490000D02*
G01*
X2145000Y-585000D01*
X1955000Y-680000D02*
G01*
X1825000Y-680000D01*
X1760000Y-605000D02*
G01*
X1825000Y-605000D01*
X3750000Y-285000D02*
G01*
X3750000Y-75000D01*
X3750000Y-311739D02*
G01*
X3750000Y-285000D01*
X3682618Y-355275D02*
G01*
X3706463Y-355275D01*
X3608891Y-401109D02*
G01*
X3635000Y-375000D01*
X3505000Y-415000D02*
G01*
X3435000Y-415000D01*
X3525000Y-390000D02*
G01*
X3525000Y-395000D01*
X3580000Y-365000D02*
G01*
X3550000Y-365000D01*
X3465000Y-375000D02*
G01*
X3485000Y-375000D01*
X2525000Y-395000D02*
G01*
X2525000Y-385000D01*
X2350000Y-90000D02*
G01*
X2350000Y-260000D01*
X3030000Y-1480000D02*
G01*
X2960000Y-1480000D01*
X3045000Y-1570000D02*
G01*
X3045000Y-1495000D01*
X3045000Y-1645000D02*
G01*
X3045000Y-1570000D01*
X3095000Y-1700000D02*
G01*
X3140000Y-1700000D01*
X3085000Y-1640000D02*
G01*
X3085000Y-1690000D01*
X3135000Y-1615000D02*
G01*
X3135000Y-1582820D01*
X3110000Y-1675000D02*
G01*
X3110000Y-1640000D01*
X3035000Y-1425000D02*
G01*
X3000000Y-1425000D01*
X3135000Y-1550000D02*
G01*
X3135000Y-1525000D01*
X3135000Y-1590000D02*
G01*
X3135000Y-1550000D01*
X3135000Y-1670000D02*
G01*
X3135000Y-1650000D01*
X3160000Y-1630000D02*
G01*
X3160000Y-1610000D01*
X2935000Y-1520000D02*
G01*
X2975000Y-1520000D01*
X2910000Y-1600000D02*
G01*
X2910000Y-1545000D01*
X2635000Y-1640000D02*
G01*
X2635000Y-1640376D01*
X2630000Y-1625000D02*
G01*
X2630000Y-1635000D01*
X2630000Y-1565000D02*
G01*
X2630000Y-1625000D01*
X2665000Y-1545000D02*
G01*
X2650000Y-1545000D01*
X2685000Y-1575000D02*
G01*
X2685000Y-1565000D01*
X2630000Y-1515000D02*
G01*
X2685000Y-1515000D01*
X2605000Y-1585000D02*
G01*
X2605000Y-1540000D01*
X2605000Y-1585000D02*
G01*
X2605000Y-1645000D01*
X3410000Y-1590000D02*
G01*
X3395000Y-1590000D01*
X3585000Y-1430000D02*
G01*
X3676300Y-1430000D01*
X3500000Y-1580000D02*
G01*
X3500000Y-1515000D01*
X3415000Y-1615000D02*
G01*
X3465000Y-1615000D01*
X3350000Y-1615000D02*
G01*
X3415000Y-1615000D01*
X3300000Y-1655000D02*
G01*
X3310000Y-1655000D01*
X3265000Y-1655000D02*
G01*
X3300000Y-1655000D01*
X3240000Y-1655000D02*
G01*
X3265000Y-1655000D01*
X3235000Y-1605000D02*
G01*
X3280000Y-1605000D01*
X3225000Y-1620000D02*
G01*
X3225000Y-1615000D01*
X3160000Y-1700000D02*
G01*
X3195000Y-1700000D01*
X3140000Y-1700000D02*
G01*
X3160000Y-1700000D01*
X3170000Y-1675000D02*
G01*
X3150000Y-1675000D01*
X3190000Y-1720000D02*
G01*
X2905000Y-1720000D01*
X3220000Y-1720000D02*
G01*
X3190000Y-1720000D01*
X3230000Y-1695000D02*
G01*
X3230000Y-1710000D01*
X3150000Y-1675000D02*
G01*
X3140000Y-1675000D01*
X3205046Y-1741105D02*
G01*
X3227722Y-1741105D01*
X3128894Y-1741105D02*
G01*
X3205046Y-1741105D01*
X3190000Y-1760000D02*
G01*
X3255000Y-1760000D01*
X3160000Y-1825000D02*
G01*
X3160000Y-1790000D01*
X3635000Y-1505000D02*
G01*
X3700000Y-1505000D01*
X3580000Y-1635000D02*
G01*
X3580000Y-1560000D01*
X3400000Y-1655000D02*
G01*
X3560000Y-1655000D01*
X3290000Y-1695000D02*
G01*
X3360000Y-1695000D01*
X3273828Y-1695000D02*
G01*
X3290000Y-1695000D01*
X3350000Y-1780000D02*
G01*
X3395000Y-1780000D01*
X3290000Y-1810000D02*
G01*
X3320000Y-1810000D01*
X3715000Y-1555000D02*
G01*
X3751300Y-1555000D01*
X3685000Y-1555000D02*
G01*
X3715000Y-1555000D01*
X3515000Y-1675000D02*
G01*
X3565000Y-1675000D01*
X3400000Y-1675000D02*
G01*
X3515000Y-1675000D01*
X3355000Y-1715000D02*
G01*
X3360000Y-1715000D01*
X3305000Y-1715000D02*
G01*
X3355000Y-1715000D01*
X3085000Y-1840000D02*
G01*
X3145000Y-1840000D01*
X3030000Y-1840000D02*
G01*
X3085000Y-1840000D01*
X2970000Y-1865000D02*
G01*
X3005000Y-1865000D01*
X2910000Y-1600000D02*
G01*
X2910000Y-1660000D01*
X2910000Y-1660000D02*
G01*
X2910000Y-1650000D01*
X2850000Y-1685000D02*
G01*
X2885000Y-1685000D01*
X2835000Y-1750000D02*
G01*
X2834142Y-1749142D01*
X2855000Y-1840000D02*
G01*
X2855000Y-1798283D01*
X2840000Y-1865000D02*
G01*
X2970000Y-1865000D01*
X2830000Y-1805000D02*
G01*
X2830000Y-1855000D01*
X2830000Y-1885000D02*
G01*
X2910000Y-1885000D01*
X2810000Y-1815000D02*
G01*
X2810000Y-1865000D01*
X2810000Y-1805000D02*
G01*
X2810000Y-1815000D01*
X2790000Y-1820000D02*
G01*
X2790000Y-1860000D01*
X2736382Y-1788980D02*
G01*
X2758980Y-1788980D01*
X2520000Y-1815000D02*
G01*
X2760000Y-1815000D01*
X3290000Y-1810000D02*
G01*
X3245000Y-1810000D01*
X3290000Y-1595000D02*
G01*
X3290000Y-1555000D01*
X3250000Y-1560000D02*
G01*
X3250000Y-1410000D01*
X3200000Y-1580000D02*
G01*
X3230000Y-1580000D01*
X3190000Y-1580000D02*
G01*
X3200000Y-1580000D01*
X3295000Y-1365000D02*
G01*
X3295000Y-1335000D01*
X3250000Y-1325000D02*
G01*
X3250000Y-1340000D01*
X3310000Y-1310000D02*
G01*
X3265000Y-1310000D01*
X3325000Y-1310000D02*
G01*
X3310000Y-1310000D01*
X3360000Y-1370000D02*
G01*
X3360000Y-1345000D01*
X3290000Y-1555000D02*
G01*
X3290000Y-1440000D01*
X2380000Y-1420000D02*
G01*
X2380000Y-1350000D01*
X2670000Y-1465000D02*
G01*
X2425000Y-1465000D01*
X2705000Y-1540000D02*
G01*
X2705000Y-1500000D01*
X2705000Y-1545000D02*
G01*
X2705000Y-1540000D01*
X2605000Y-1720000D02*
G01*
X2605000Y-1645000D01*
X2655000Y-1760000D02*
G01*
X2645000Y-1760000D01*
X2480000Y-1405000D02*
G01*
X2480000Y-1355000D01*
X2695000Y-1445000D02*
G01*
X2520000Y-1445000D01*
X2725000Y-1570000D02*
G01*
X2725000Y-1475000D01*
X2700000Y-1590000D02*
G01*
X2705000Y-1590000D01*
X2680000Y-1785000D02*
G01*
X2675000Y-1785000D01*
X2736382Y-1788980D02*
G01*
X2683980Y-1788980D01*
X2555000Y-1730000D02*
G01*
X2555000Y-1665000D01*
X2875000Y-1915000D02*
G01*
X2927629Y-1915000D01*
X3665000Y-1735000D02*
G01*
X3671300Y-1735000D01*
X3683699Y-1606300D02*
G01*
X3700000Y-1605000D01*
X3515000Y-1695000D02*
G01*
X3595000Y-1695000D01*
X3450000Y-1695000D02*
G01*
X3515000Y-1695000D01*
X3295000Y-1765000D02*
G01*
X3390000Y-1755000D01*
X3700000Y-1655000D02*
G01*
X3751300Y-1655000D01*
X3680000Y-1655000D02*
G01*
X3700000Y-1655000D01*
X3560000Y-1715000D02*
G01*
X3620000Y-1715000D01*
X3475000Y-1715000D02*
G01*
X3560000Y-1715000D01*
X3395000Y-1780000D02*
G01*
X3410000Y-1780000D01*
X3220000Y-1810000D02*
G01*
X3245000Y-1810000D01*
X3105000Y-1860000D02*
G01*
X3170000Y-1860000D01*
X3045000Y-1860000D02*
G01*
X3105000Y-1860000D01*
X2910000Y-1885000D02*
G01*
X3020000Y-1885000D01*
X2665000Y-1600000D02*
G01*
X2712399Y-1687399D01*
X3500000Y-1805000D02*
G01*
X3500000Y-1920000D01*
X2785000Y-1865000D02*
G01*
X2765000Y-1865000D01*
X2560000Y-1785000D02*
G01*
X2675000Y-1785000D01*
X2455000Y-1705000D02*
G01*
X2480000Y-1705000D01*
X2455000Y-1550000D02*
G01*
X2455000Y-1655000D01*
X2530000Y-1395000D02*
G01*
X2530000Y-1355000D01*
X2695000Y-1425000D02*
G01*
X2560000Y-1425000D01*
X2745000Y-1580000D02*
G01*
X2745000Y-1475000D01*
X2745000Y-1690000D02*
G01*
X2745000Y-1580000D01*
X2815000Y-1640000D02*
G01*
X2815000Y-1615000D01*
X2781060Y-1411060D02*
G01*
X2781060Y-1290000D01*
X2820000Y-1580000D02*
G01*
X2820000Y-1450000D01*
X2820000Y-1615000D02*
G01*
X2820000Y-1580000D01*
X1690000Y-525000D02*
G01*
X1690000Y-480000D01*
X1840000Y-565000D02*
G01*
X1840000Y-590000D01*
X3420000Y-1370000D02*
G01*
X3420000Y-1580000D01*
X3420000Y-1320000D02*
G01*
X3420000Y-1370000D01*
X2415000Y-1270000D02*
G01*
X3370000Y-1270000D01*
X2315000Y-1270000D02*
G01*
X2415000Y-1270000D01*
X3395000Y-1325000D02*
G01*
X3395000Y-1555000D01*
X2475000Y-1290000D02*
G01*
X3360000Y-1290000D01*
X2395000Y-1290000D02*
G01*
X2475000Y-1290000D01*
X1790000Y-245000D02*
G01*
X1795000Y-245000D01*
X1841893Y-302363D02*
G01*
X2112637Y-302363D01*
X1757362Y-302363D02*
G01*
X1841893Y-302363D01*
X1780354Y-320000D02*
G01*
X1860000Y-320000D01*
X1795000Y-245000D02*
G01*
X1820000Y-245000D01*
X1725000Y-395000D02*
G01*
X1535000Y-395000D01*
X1695000Y-295000D02*
G01*
X1695000Y-185000D01*
X1695000Y-350000D02*
G01*
X1695000Y-295000D01*
X1720000Y-370000D02*
G01*
X1715000Y-370000D01*
X1740000Y-370000D02*
G01*
X1720000Y-370000D01*
X1760000Y-400000D02*
G01*
X1760000Y-390000D01*
X1690000Y-420000D02*
G01*
X1740000Y-420000D01*
X1630000Y-475000D02*
G01*
X1635000Y-475000D01*
X1490000Y-495000D02*
G01*
X1490000Y-440000D01*
X1395000Y-535000D02*
G01*
X1450000Y-535000D01*
X1815000Y-245000D02*
G01*
X1935000Y-240000D01*
X1795000Y-500000D02*
G01*
X1795000Y-345000D01*
X1795000Y-520000D02*
G01*
X1795000Y-500000D01*
X1190000Y-410000D02*
G01*
X1190000Y-590000D01*
X1160000Y-405000D02*
G01*
X1160000Y-430000D01*
X1385000Y-375000D02*
G01*
X1190000Y-375000D01*
X1430000Y-375000D02*
G01*
X1385000Y-375000D01*
X1475000Y-315000D02*
G01*
X1475000Y-330000D01*
X1390857Y-285000D02*
G01*
X1335000Y-285000D01*
X1463716Y-226284D02*
G01*
X1415000Y-275000D01*
X1455000Y-315000D02*
G01*
X1455000Y-285000D01*
X1320000Y-355000D02*
G01*
X1415000Y-355000D01*
X1180000Y-355000D02*
G01*
X1320000Y-355000D01*
X1140000Y-400000D02*
G01*
X1140000Y-395000D01*
X1950000Y-90000D02*
G01*
X1950000Y-115000D01*
X1545000Y-155000D02*
G01*
X1550000Y-105000D01*
X1475000Y-190000D02*
G01*
X1510000Y-190000D01*
X1400000Y-190000D02*
G01*
X1475000Y-190000D01*
X1340000Y-285000D02*
G01*
X1335000Y-285000D01*
X1524412Y-219212D02*
G01*
X1480787Y-219212D01*
X1550000Y-135000D02*
G01*
X1550000Y-105000D01*
X1650000Y-185000D02*
G01*
X1650000Y-105000D01*
X1524412Y-219212D02*
G01*
X1615787Y-219212D01*
X1705000Y-150000D02*
G01*
X1756300Y-150000D01*
X1675000Y-210000D02*
G01*
X1675000Y-180000D01*
X1675000Y-275000D02*
G01*
X1675000Y-210000D01*
X1710000Y-170000D02*
G01*
X1836300Y-170000D01*
X1585000Y-475000D02*
G01*
X1630000Y-475000D01*
X2040100Y-146399D02*
G01*
X2000000Y-105000D01*
X2140000Y-275000D02*
G01*
X2140000Y-220000D01*
X1720000Y-195000D02*
G01*
X1720000Y-265000D01*
X2160000Y-305000D02*
G01*
X2160000Y-166300D01*
X1860000Y-320000D02*
G01*
X2145000Y-320000D01*
X2235000Y-285000D02*
G01*
X2235000Y-171300D01*
X1875000Y-365000D02*
G01*
X2155000Y-365000D01*
X1825000Y-490000D02*
G01*
X1825000Y-415000D01*
X2210000Y-195000D02*
G01*
X2200000Y-105000D01*
X2210000Y-290000D02*
G01*
X2210000Y-195000D01*
X1830000Y-345000D02*
G01*
X2155000Y-345000D01*
X2025000Y-190000D02*
G01*
X2110000Y-220000D01*
X2215000Y-500000D02*
G01*
X2215000Y-585000D01*
X1930000Y-465000D02*
G01*
X2180000Y-465000D01*
X2184992Y-410000D02*
G01*
X1925000Y-410000D01*
X2715000Y-680000D02*
G01*
X2701568Y-680000D01*
X2785000Y-215000D02*
G01*
X2735000Y-215000D01*
X3220000Y-220000D02*
G01*
X3285000Y-220000D01*
X3220000Y-220000D02*
G01*
X3185000Y-220000D01*
X3185000Y-220000D02*
G01*
X3180000Y-220000D01*
X3155000Y-245000D02*
G01*
X3130000Y-245000D01*
X3120000Y-235000D02*
G01*
X3120000Y-230000D01*
X3105000Y-215000D02*
G01*
X3090000Y-215000D01*
X3370000Y-185000D02*
G01*
X3070000Y-185000D01*
X2425000Y-230000D02*
G01*
X2425000Y-225000D01*
X2425000Y-225000D02*
G01*
X2425000Y-195000D01*
X2455000Y-165000D02*
G01*
X2505000Y-165000D01*
X3435000Y-260000D02*
G01*
X3395000Y-260000D01*
X3285000Y-220000D02*
G01*
X3290000Y-220000D01*
X3305000Y-235000D02*
G01*
X3400000Y-235000D01*
X3400000Y-235000D02*
G01*
X3405000Y-235000D01*
X3210000Y-265000D02*
G01*
X3115000Y-265000D01*
X3115000Y-265000D02*
G01*
X3105000Y-265000D01*
X3095554Y-446628D02*
G01*
X3058370Y-446628D01*
X3025000Y-480000D02*
G01*
X3025000Y-585000D01*
X2705000Y-610000D02*
G01*
X2820000Y-610000D01*
X2820000Y-610000D02*
G01*
X2850000Y-610000D01*
X2905000Y-555000D02*
G01*
X2945000Y-555000D01*
X2945000Y-555000D02*
G01*
X2960000Y-555000D01*
X3000000Y-515000D02*
G01*
X3000000Y-435000D01*
X3025000Y-410000D02*
G01*
X3080000Y-410000D01*
X2875000Y-485000D02*
G01*
X2940000Y-485000D01*
X2980000Y-445000D02*
G01*
X2980000Y-440000D01*
X3220000Y-475000D02*
G01*
X3310000Y-475000D01*
X2570000Y-450000D02*
G01*
X2775000Y-450000D01*
X2455000Y-510000D02*
G01*
X2710000Y-510000D01*
X2735000Y-535000D02*
G01*
X2780000Y-535000D01*
X2780000Y-535000D02*
G01*
X2790000Y-535000D01*
X2820000Y-505000D02*
G01*
X2820000Y-345000D01*
X2930000Y-680000D02*
G01*
X2715000Y-680000D01*
X2660000Y-545000D02*
G01*
X2690000Y-545000D01*
X2735000Y-590000D02*
G01*
X2770000Y-590000D01*
X2770000Y-590000D02*
G01*
X2825000Y-590000D01*
X2845000Y-570000D02*
G01*
X2845000Y-425000D01*
X2915000Y-355000D02*
G01*
X2915000Y-295000D01*
X2800000Y-270000D02*
G01*
X2815000Y-270000D01*
X2815000Y-270000D02*
G01*
X2890000Y-270000D01*
X3190000Y-295000D02*
G01*
X3085000Y-295000D01*
X2725000Y-205000D02*
G01*
X2595000Y-205000D01*
X2505000Y-385000D02*
G01*
X2505000Y-415000D01*
X2540000Y-450000D02*
G01*
X2570000Y-450000D01*
X2550000Y-420000D02*
G01*
X2560000Y-420000D01*
X3395000Y-310000D02*
G01*
X3450000Y-310000D01*
X2475000Y-410000D02*
G01*
X2475000Y-450000D01*
X2505000Y-480000D02*
G01*
X2775000Y-480000D01*
X2775000Y-480000D02*
G01*
X2785000Y-480000D01*
X2800000Y-465000D02*
G01*
X2800000Y-410000D01*
X2610000Y-295000D02*
G01*
X2610000Y-315000D01*
X2610000Y-315000D02*
G01*
X2610000Y-370000D01*
X3060000Y-270000D02*
G01*
X3060000Y-265000D01*
X3025000Y-230000D02*
G01*
X2910000Y-230000D01*
X2895000Y-245000D02*
G01*
X2815000Y-245000D01*
X2750000Y-355000D02*
G01*
X2740000Y-355000D01*
X2740000Y-355000D02*
G01*
X2715000Y-355000D01*
X2685000Y-385000D02*
G01*
X2650000Y-385000D01*
X2655000Y-235000D02*
G01*
X2620607Y-269393D01*
X2530000Y-331554D02*
G01*
X2530000Y-315000D01*
X2530000Y-315000D02*
G01*
X2530000Y-270000D01*
X2550000Y-250000D02*
G01*
X2565000Y-250000D01*
X2580000Y-235000D02*
G01*
X2580000Y-228164D01*
X2525000Y-225000D02*
G01*
X2525000Y-220000D01*
X2500000Y-245000D02*
G01*
X2500000Y-270000D01*
X2485000Y-285000D02*
G01*
X2435000Y-285000D01*
X2425000Y-295000D02*
G01*
X2425000Y-595000D01*
X2425000Y-595000D02*
G01*
X2425000Y-610000D01*
X2465000Y-650000D02*
G01*
X2549645Y-650000D01*
X2622070Y-680000D02*
G01*
X2630000Y-680000D01*
X2640607Y-600607D02*
G01*
X2670000Y-630000D01*
X2730354Y-655000D02*
G01*
X2825000Y-655000D01*
X2665857Y-660857D02*
G01*
X2630000Y-625000D01*
X2673284Y-668283D02*
G01*
X2657785Y-652786D01*
X2630000Y-625000D02*
G01*
X2565000Y-560000D01*
X2630000Y-680000D02*
G01*
X2633787Y-680000D01*
X2680000Y-705000D02*
G01*
X2680000Y-805000D01*
X2700000Y-825000D02*
G01*
X3060000Y-825000D01*
X3060000Y-825000D02*
G01*
X3260000Y-825000D01*
X3465000Y-375000D02*
G01*
X3320000Y-375000D01*
X2980000Y-270000D02*
G01*
X3010000Y-270000D01*
X3055000Y-315000D02*
G01*
X3085000Y-315000D01*
X3085000Y-315000D02*
G01*
X3155000Y-315000D01*
X3491298Y-506298D02*
G01*
X3426298Y-506298D01*
X3395000Y-475000D02*
G01*
X3310000Y-475000D01*
X3230000Y-450000D02*
G01*
X3235000Y-450000D01*
X3235000Y-450000D02*
G01*
X3415000Y-450000D01*
X3015000Y-355000D02*
G01*
X3070000Y-355000D01*
X3220000Y-475000D02*
G01*
X3150000Y-475000D01*
X3120000Y-445000D02*
G01*
X3120000Y-430000D01*
X3105000Y-415000D02*
G01*
X3105000Y-405000D01*
X3085000Y-385000D02*
G01*
X3035000Y-385000D01*
X3260000Y-415000D02*
G01*
X3355000Y-415000D01*
X3355000Y-415000D02*
G01*
X3435000Y-415000D01*
X3683699Y-406300D02*
G01*
X3700000Y-405000D01*
X3638699Y-306300D02*
G01*
X3700000Y-305000D01*
X3700000Y-405000D02*
G01*
X3663699Y-406300D01*
X3610000Y-460000D02*
G01*
X3605000Y-460000D01*
X3580000Y-485000D02*
G01*
X3450000Y-485000D01*
X3491298Y-506298D02*
G01*
X3613701Y-506298D01*
X3630000Y-490000D02*
G01*
X3650857Y-469142D01*
X3685000Y-455000D02*
G01*
X3735000Y-455000D01*
X3783699Y-406300D02*
G01*
X3800000Y-405000D01*
X3290000Y-570000D02*
G01*
X3370000Y-570000D01*
X3370000Y-570000D02*
G01*
X3430000Y-570000D01*
X3470000Y-530000D02*
G01*
X3615000Y-530000D01*
X3676298Y-530000D02*
G01*
X3615000Y-530000D01*
X3749448Y-556851D02*
G01*
X3661109Y-556851D01*
X3655000Y-555000D02*
G01*
X3515000Y-555000D01*
X3465000Y-605000D02*
G01*
X3465000Y-765000D01*
X3405000Y-825000D02*
G01*
X3260000Y-825000D01*
X3170000Y-425000D02*
G01*
X3170000Y-430000D01*
X3190000Y-450000D02*
G01*
X3230000Y-450000D01*
X3260000Y-415000D02*
G01*
X3200000Y-415000D01*
X3155000Y-370000D02*
G01*
X3145000Y-370000D01*
X3145000Y-370000D02*
G01*
X3115000Y-370000D01*
X3100000Y-355000D02*
G01*
X3070000Y-355000D01*
X3330000Y-1880000D02*
G01*
X3455000Y-1880000D01*
X3620000Y-1755000D02*
G01*
X3751300Y-1755000D01*
X3520000Y-1755000D02*
G01*
X3620000Y-1755000D01*
X3470000Y-1840000D02*
G01*
X3470000Y-1805000D01*
X3470000Y-1865000D02*
G01*
X3470000Y-1840000D01*
X3515000Y-1735000D02*
G01*
X3665000Y-1735000D01*
X3450000Y-1800000D02*
G01*
X3450000Y-1815000D01*
X3420000Y-1830000D02*
G01*
X3435000Y-1830000D01*
X3240000Y-1830000D02*
G01*
X3415000Y-1830000D01*
X3415000Y-1830000D02*
G01*
X3420000Y-1830000D01*
X3065000Y-1885000D02*
G01*
X3185000Y-1885000D01*
X2927629Y-1915000D02*
G01*
X3035000Y-1915000D01*
X3250000Y-1675000D02*
G01*
X3290000Y-1675000D01*
X3290000Y-1675000D02*
G01*
X3330000Y-1675000D01*
X3370000Y-1635000D02*
G01*
X3410000Y-1635000D01*
X3410000Y-1635000D02*
G01*
X3480000Y-1635000D01*
X3520000Y-1595000D02*
G01*
X3520000Y-1520000D01*
X3585000Y-1455000D02*
G01*
X3751300Y-1455000D01*
X1500000Y-90000D02*
G01*
X1500000Y-130000D01*
X1615000Y-1280000D02*
G01*
X1695000Y-1280000D01*
X1730000Y-1315000D02*
G01*
X1730000Y-1355000D01*
X1195000Y-1810000D02*
G01*
X1305000Y-1810000D01*
X1335000Y-1840000D02*
G01*
X1335000Y-1905000D01*
X1375000Y-1945000D02*
G01*
X2080000Y-1945000D01*
X2110000Y-1915000D02*
G01*
X2110000Y-1825000D01*
X2000000Y-1725000D02*
G01*
X2165000Y-1725000D01*
X1995000Y-1695000D02*
G01*
X2035000Y-1695000D01*
X2035000Y-1695000D02*
G01*
X2165000Y-1695000D01*
X1750000Y-1570000D02*
G01*
X1750000Y-1500000D01*
X1830000Y-1420000D02*
G01*
X1830000Y-1355000D01*
X1770000Y-1600000D02*
G01*
X1745000Y-1600000D01*
X1720000Y-1575000D02*
G01*
X1720000Y-1565000D01*
X1720000Y-1565000D02*
G01*
X1720000Y-1475000D01*
X1395000Y-1715000D02*
G01*
X1490000Y-1715000D01*
X1215000Y-1745000D02*
G01*
X1540000Y-1745000D01*
X1540000Y-1745000D02*
G01*
X1640000Y-1745000D01*
X1670000Y-1715000D02*
G01*
X1825000Y-1715000D01*
X1855000Y-1695000D02*
G01*
X1855000Y-1700000D01*
X1855000Y-1700000D02*
G01*
X1855000Y-1720000D01*
X1830000Y-1745000D02*
G01*
X1785000Y-1745000D01*
X1745000Y-1785000D02*
G01*
X1695000Y-1785000D01*
X1695000Y-1785000D02*
G01*
X1575000Y-1785000D01*
X1535000Y-1825000D02*
G01*
X1445000Y-1825000D01*
X1445000Y-1825000D02*
G01*
X1435000Y-1825000D01*
X1380000Y-1770000D02*
G01*
X1190000Y-1770000D01*
X1930000Y-1800000D02*
G01*
X1940000Y-1800000D01*
X1965000Y-1775000D02*
G01*
X1965000Y-1760000D01*
X1905000Y-1825000D02*
G01*
X1905000Y-1805000D01*
X1905000Y-1805000D02*
G01*
X1905000Y-1785000D01*
X1920000Y-1770000D02*
G01*
X1930000Y-1770000D01*
X1945000Y-1755000D02*
G01*
X1945000Y-1745000D01*
X1725000Y-1815000D02*
G01*
X1815000Y-1815000D01*
X1875000Y-1726716D02*
G01*
X1875000Y-1680000D01*
X1725000Y-1865000D02*
G01*
X1794645Y-1865000D01*
X1855000Y-1840000D02*
G01*
X1862322Y-1832678D01*
X1894142Y-1755857D02*
G01*
X1900000Y-1750000D01*
X1910000Y-1725857D02*
G01*
X1910000Y-1680000D01*
X1875000Y-1680000D02*
G01*
X1875000Y-1675000D01*
X1840000Y-1640000D02*
G01*
X1750000Y-1640000D01*
X1735000Y-1655000D02*
G01*
X1695000Y-1655000D01*
X1695000Y-1655000D02*
G01*
X1620000Y-1655000D01*
X1585000Y-1620000D02*
G01*
X1585000Y-1570000D01*
X1565000Y-1550000D02*
G01*
X1340339Y-1550000D01*
X1580000Y-1470000D02*
G01*
X1580000Y-1380000D01*
X1580000Y-1380000D02*
G01*
X1580000Y-1315000D01*
X1605000Y-1505000D02*
G01*
X1595000Y-1505000D01*
X1595000Y-1505000D02*
G01*
X1575000Y-1505000D01*
X1555000Y-1485000D02*
G01*
X1555000Y-1455000D01*
X1555000Y-1455000D02*
G01*
X1555000Y-1380000D01*
X1470000Y-1525000D02*
G01*
X1570000Y-1525000D01*
X1570000Y-1525000D02*
G01*
X1645000Y-1525000D01*
X1740000Y-1620000D02*
G01*
X1765000Y-1620000D01*
X1765000Y-1620000D02*
G01*
X1850000Y-1620000D01*
X3725000Y-50000D02*
G01*
X2680000Y-50000D01*
X2680000Y-50000D02*
G01*
X2655000Y-50000D01*
X2572602Y-65511D02*
G01*
X2550511Y-65511D01*
X512629Y-429569D02*
G01*
X512629Y-334573D01*
X3390600Y-165000D02*
G01*
X3650000Y-165000D01*
X637411Y-2175000D02*
G01*
X315000Y-2175000D01*
X1865000Y-650000D02*
G01*
X2350000Y-650000D01*
X2380000Y-680000D02*
G01*
X2465000Y-680000D01*
X700000Y-25000D02*
G01*
X2520000Y-25000D01*
X1300000Y-1845000D02*
G01*
X1185000Y-1845000D01*
X547500Y-2095000D02*
G01*
X302500Y-2095000D01*
X3295000Y-1715000D02*
G01*
X3305000Y-1715000D01*
X2645699Y-1650700D02*
G01*
X2655000Y-1710000D01*
X1160000Y-1605000D02*
G01*
X1285000Y-1605000D01*
X1395000Y-2065000D02*
G01*
X2040000Y-2065000D01*
X3150000Y-2068279D02*
G01*
X3150000Y-2000000D01*
X3150000Y-2000000D02*
G01*
X3150000Y-1940019D01*
X1465000Y-1215000D02*
G01*
X3415000Y-1215000D01*
X3460000Y-1260000D02*
G01*
X3460000Y-1265000D01*
X3500000Y-1305000D02*
G01*
X3700000Y-1305000D01*
X1410000Y-1185000D02*
G01*
X3450000Y-1185000D01*
X3520000Y-1255000D02*
G01*
X3740000Y-1255000D01*
X3740000Y-1255000D02*
G01*
X3750000Y-1255000D01*
X1460000Y-1155000D02*
G01*
X3475000Y-1155000D01*
X3525000Y-1205000D02*
G01*
X3700000Y-1205000D01*
X1420000Y-1120000D02*
G01*
X3510000Y-1120000D01*
X3545000Y-1155000D02*
G01*
X3735000Y-1155000D01*
X3735000Y-1155000D02*
G01*
X3750000Y-1155000D01*
X1460000Y-1085000D02*
G01*
X3680000Y-1085000D01*
X1430000Y-1045000D02*
G01*
X3555000Y-1045000D01*
X3565000Y-1055000D02*
G01*
X3740000Y-1055000D01*
X3740000Y-1055000D02*
G01*
X3750000Y-1055000D01*
X1480000Y-1015000D02*
G01*
X3690000Y-1015000D01*
X1440000Y-985000D02*
G01*
X3605000Y-985000D01*
X3620000Y-970000D02*
G01*
X3620000Y-945000D01*
X3660000Y-905000D02*
G01*
X3700000Y-905000D01*
X1360000Y-1245000D02*
G01*
X1300000Y-1245000D01*
X1480000Y-950000D02*
G01*
X3585000Y-950000D01*
X3595000Y-940000D02*
G01*
X3595000Y-890000D01*
X3630000Y-855000D02*
G01*
X3650000Y-855000D01*
X1700000Y-905000D02*
G01*
X3520000Y-905000D01*
X3550000Y-875000D02*
G01*
X3550000Y-740000D01*
X3585000Y-705000D02*
G01*
X3700000Y-705000D01*
X995000Y115000D02*
G01*
X1000000Y115000D01*
D12*
X870000Y-2075000D02*
G01*
X1000000Y-2075000D01*
X1245000Y-1515000D02*
G01*
X1400000Y-1515000D01*
D10*
X3615000Y-25000D02*
G01*
X3820000Y-25000D01*
X2780000Y-25000D02*
G01*
X2962500Y-27500D01*
G75*
G01*
X2770000Y-25000D02*
G02*
X2755000Y-10000I0J15000D01*
G75*
G01*
X3925000Y-680000D02*
G02*
X3900000Y-705000I-25000J0D01*
G75*
G01*
X3885000Y-475000D02*
G02*
X3925000Y-515000I0J-40000D01*
G75*
G01*
X3855000Y-445000D02*
G03*
X3885000Y-475000I30000J0D01*
G75*
G01*
X3820000Y-25000D02*
G02*
X3855000Y-60000I0J-35000D01*
G75*
G01*
X3570000Y20000D02*
G03*
X3615000Y-25000I45000J0D01*
G75*
G01*
X3530000Y100000D02*
G02*
X3570000Y60000I0J-40000D01*
G75*
G01*
X3390000Y50000D02*
G02*
X3440000Y100000I50000J0D01*
G75*
G01*
X3360000Y-25000D02*
G03*
X3390000Y5000I0J30000D01*
G75*
G01*
X3075000Y-2135000D02*
G02*
X3121177Y-2088823I46177J0D01*
G75*
G01*
X2070000Y-2090000D02*
G02*
X2105000Y-2125000I0J-35000D01*
G75*
G01*
X1300000Y-2005000D02*
G03*
X1385000Y-2090000I85000J0D01*
G75*
G01*
X1095000Y-1730000D02*
G02*
X1080000Y-1715000I0J15000D01*
G75*
G01*
X3270000Y-1745000D02*
G02*
X3255000Y-1760000I-15000J0D01*
G75*
G01*
X3280000Y-1715000D02*
G03*
X3270000Y-1725000I0J-10000D01*
G75*
G01*
X2345000Y-1735000D02*
G02*
X2355000Y-1745000I0J-10000D01*
G75*
G01*
X2180251Y-1759749D02*
G02*
X2240000Y-1735000I59749J-59748D01*
G75*
G01*
X1045000Y-905000D02*
G02*
X1080000Y-940000I0J-35000D01*
G75*
G01*
X1020000Y-880000D02*
G03*
X1045000Y-905000I25000J0D01*
G75*
G01*
X1095000Y-1770000D02*
G02*
X1060000Y-1735000I0J35000D01*
G75*
G01*
X1160000Y-1825000D02*
G03*
X1180000Y-1845000I20000J0D01*
G75*
G01*
X1165000Y-1700000D02*
G03*
X1160000Y-1705000I0J-5000D01*
G75*
G01*
X1015000Y-925000D02*
G02*
X1060000Y-970000I0J-45000D01*
G75*
G01*
X975000Y-890000D02*
G03*
X1010000Y-925000I35000J0D01*
G75*
G01*
X1295000Y-855000D02*
G03*
X1330000Y-820000I0J35000D01*
G75*
G01*
X1165000Y-815000D02*
G03*
X1205000Y-855000I40000J0D01*
G75*
G01*
X1090000Y-740000D02*
G02*
X1165000Y-815000I0J-75000D01*
G75*
G01*
X920000Y-785000D02*
G02*
X965000Y-740000I45000J0D01*
G75*
G01*
X955000Y-955000D02*
G02*
X920000Y-920000I0J35000D01*
G75*
G01*
X1040000Y-980000D02*
G03*
X1015000Y-955000I-25000J0D01*
G75*
G01*
X1175000Y-700000D02*
G02*
X1230000Y-755000I0J-55000D01*
G75*
G01*
X895000Y-790000D02*
G02*
X985000Y-700000I90000J0D01*
G75*
G01*
X965000Y-980000D02*
G02*
X895000Y-910000I0J70000D01*
G75*
G01*
X1020000Y-1015000D02*
G03*
X985000Y-980000I-35000J0D01*
G75*
G01*
X2040000Y-2065000D02*
G03*
X2100000Y-2005000I0J60000D01*
G75*
G01*
X1350000Y-2020000D02*
G03*
X1395000Y-2065000I45000J0D01*
G75*
G01*
X1310000Y-1945000D02*
G02*
X1350000Y-1985000I0J-40000D01*
G75*
G01*
X960000Y-1970000D02*
G02*
X985000Y-1945000I25000J0D01*
G75*
G01*
X945510Y-1984490D02*
G03*
X960000Y-1970000I0J14490D01*
G75*
G01*
X2510000Y-1490000D02*
G03*
X2455000Y-1545000I0J-55000D01*
G75*
G01*
X1950000Y-60973D02*
G03*
X1934027Y-45000I-15973J0D01*
G75*
G01*
X2305000Y-45000D02*
G02*
X2350000Y-90000I0J-45000D01*
G75*
G01*
X1500000Y-90000D02*
G02*
X1545000Y-45000I45000J0D01*
G75*
G01*
X545000Y-25000D02*
G03*
X455000Y-115000I0J-90000D01*
G75*
G01*
X2535000Y-45000D02*
G03*
X2520000Y-30000I-15000J0D01*
G75*
G01*
X2365000Y-665000D02*
G03*
X2380000Y-680000I15000J0D01*
G75*
G01*
X2350000Y-650000D02*
G02*
X2365000Y-665000I0J-15000D01*
G75*
G01*
X940000Y-2195000D02*
G03*
X915000Y-2170000I-25000J0D01*
G75*
G01*
X655000Y-2157411D02*
G02*
X637411Y-2175000I-17589J0D01*
G75*
G01*
X670000Y-2135000D02*
G03*
X655000Y-2150000I0J-15000D01*
G75*
G01*
X805000Y-2150000D02*
G03*
X790000Y-2135000I-15000J0D01*
G75*
G01*
X820000Y-2170000D02*
G02*
X805000Y-2155000I0J15000D01*
G75*
G01*
X635000Y-2135000D02*
G02*
X620000Y-2150000I-15000J0D01*
G75*
G01*
X655000Y-2115000D02*
G03*
X635000Y-2135000I0J-20000D01*
G75*
G01*
X825000Y-2135000D02*
G03*
X805000Y-2115000I-20000J0D01*
G75*
G01*
X840000Y-2150000D02*
G02*
X825000Y-2135000I0J15000D01*
G75*
G01*
X850000Y-2110000D02*
G03*
X865000Y-2125000I15000J0D01*
G75*
G01*
X835000Y-2095000D02*
G02*
X850000Y-2110000I0J-15000D01*
G75*
G01*
X315000Y-2180000D02*
G02*
X310000Y-2185000I-5000J0D01*
G75*
G01*
X160000Y-2175000D02*
G02*
X185000Y-2150000I25000J0D01*
G75*
G01*
X885000Y-2045000D02*
G03*
X1030104Y-1984896I0J205208D01*
G75*
G01*
X215000Y-2090000D02*
G02*
X260000Y-2045000I45000J0D01*
G75*
G01*
X360000Y-2095000D02*
G02*
X345000Y-2080000I0J15000D01*
G75*
G01*
X1185000Y-2150000D02*
G02*
X1230000Y-2195000I0J-45000D01*
G75*
G01*
X660000Y-1880000D02*
G03*
X680000Y-1860000I0J20000D01*
G75*
G01*
X685000Y-1830000D02*
G02*
X725000Y-1870000I0J-40000D01*
G75*
G01*
X170000Y-1780000D02*
G03*
X140000Y-1810000I0J-30000D01*
G75*
G01*
X230000Y-1765000D02*
G02*
X215000Y-1780000I-15000J0D01*
G75*
G01*
X290000Y-1665000D02*
G03*
X230000Y-1725000I0J-60000D01*
G75*
G01*
X570000Y-1720000D02*
G03*
X515000Y-1665000I-55000J0D01*
G75*
G01*
X595000Y-1805000D02*
G02*
X570000Y-1780000I0J25000D01*
G75*
G01*
X750000Y-1840000D02*
G03*
X715000Y-1805000I-35000J0D01*
G75*
G01*
X790000Y-1955000D02*
G02*
X750000Y-1915000I0J40000D01*
G75*
G01*
X225000Y-1805000D02*
G03*
X190000Y-1840000I0J-35000D01*
G75*
G01*
X260000Y-1770000D02*
G02*
X225000Y-1805000I-35000J0D01*
G75*
G01*
X300000Y-1690000D02*
G03*
X260000Y-1730000I0J-40000D01*
G75*
G01*
X545000Y-1720000D02*
G03*
X515000Y-1690000I-30000J0D01*
G75*
G01*
X585000Y-1830000D02*
G02*
X545000Y-1790000I0J40000D01*
G75*
G01*
X610000Y-1880000D02*
G03*
X590000Y-1900000I0J-20000D01*
G75*
G01*
X580000Y-1910000D02*
G03*
X590000Y-1900000I0J10000D01*
G75*
G01*
X425000Y-1890000D02*
G03*
X470000Y-1845000I0J45000D01*
G75*
G01*
X290000Y-1860000D02*
G03*
X320000Y-1890000I30000J0D01*
G75*
G01*
X240000Y-1860000D02*
G03*
X290000Y-1910000I50000J0D01*
G75*
G01*
X315000Y-1835000D02*
G03*
X340000Y-1860000I25000J0D01*
G75*
G01*
X210000Y-1975000D02*
G02*
X255000Y-1930000I45000J0D01*
G75*
G01*
X285000Y-1855000D02*
G03*
X290000Y-1860000I5000J0D01*
G75*
G01*
X780000Y-1480000D02*
G03*
X840000Y-1420000I0J60000D01*
G75*
G01*
X780000Y-1505000D02*
G02*
X800000Y-1525000I0J-20000D01*
G75*
G01*
X540000Y-1520000D02*
G02*
X555000Y-1505000I15000J0D01*
G75*
G01*
X810000Y-1740000D02*
G03*
X840000Y-1770000I30000J0D01*
G75*
G01*
X790000Y-1655000D02*
G02*
X810000Y-1675000I0J-20000D01*
G75*
G01*
X590000Y-1625000D02*
G03*
X620000Y-1655000I30000J0D01*
G75*
G01*
X570000Y-1605000D02*
G02*
X590000Y-1625000I0J-20000D01*
G75*
G01*
X165000Y-1545000D02*
G03*
X225000Y-1605000I60000J0D01*
G75*
G01*
X195000Y-1430000D02*
G03*
X165000Y-1460000I0J-30000D01*
G75*
G01*
X830000Y-1635000D02*
G02*
X845000Y-1650000I0J-15000D01*
G75*
G01*
X610000Y-1615000D02*
G03*
X630000Y-1635000I20000J0D01*
G75*
G01*
X580000Y-1585000D02*
G02*
X610000Y-1615000I0J-30000D01*
G75*
G01*
X190000Y-1545000D02*
G03*
X230000Y-1585000I40000J0D01*
G75*
G01*
X355000Y-1480000D02*
G03*
X340000Y-1495000I0J-15000D01*
G75*
G01*
X405000Y-1450000D02*
G02*
X375000Y-1480000I-30000J0D01*
G75*
G01*
X420000Y-1400000D02*
G03*
X405000Y-1415000I0J-15000D01*
G75*
G01*
X600000Y-1415000D02*
G03*
X585000Y-1400000I-15000J0D01*
G75*
G01*
X310000Y-1460000D02*
G03*
X290000Y-1480000I0J-20000D01*
G75*
G01*
X385000Y-1440000D02*
G02*
X365000Y-1460000I-20000J0D01*
G75*
G01*
X410000Y-1375000D02*
G03*
X385000Y-1400000I0J-25000D01*
G75*
G01*
X645000Y-1380000D02*
G03*
X640000Y-1375000I-5000J0D01*
G75*
G01*
X445000Y-1205000D02*
G03*
X475000Y-1235000I30000J0D01*
G75*
G01*
X280000Y-1260000D02*
G02*
X315000Y-1295000I0J-35000D01*
G75*
G01*
X160000Y-1230000D02*
G03*
X190000Y-1260000I30000J0D01*
G75*
G01*
X250000Y-1280000D02*
G02*
X290000Y-1320000I0J-40000D01*
G75*
G01*
X135000Y-1265000D02*
G03*
X150000Y-1280000I15000J0D01*
G75*
G01*
X290000Y-1390000D02*
G03*
X315000Y-1415000I25000J0D01*
G75*
G01*
X160000Y-1005000D02*
G03*
X135000Y-1030000I0J-25000D01*
G75*
G01*
X245000Y-985000D02*
G02*
X225000Y-1005000I-20000J0D01*
G75*
G01*
X225000Y-245000D02*
G02*
X245000Y-265000I0J-20000D01*
G75*
G01*
X130000Y-155000D02*
G03*
X220000Y-245000I90000J0D01*
G75*
G01*
X185000Y140000D02*
G03*
X130000Y85000I0J-55000D01*
G75*
G01*
X360000Y-1385000D02*
G03*
X355000Y-1380000I-5000J0D01*
G75*
G01*
X315000Y-1365000D02*
G03*
X330000Y-1380000I15000J0D01*
G75*
G01*
X200000Y-1160000D02*
G03*
X160000Y-1200000I0J-40000D01*
G75*
G01*
X270000Y-1150000D02*
G02*
X260000Y-1160000I-10000J0D01*
G75*
G01*
X245000Y-215000D02*
G02*
X270000Y-240000I0J-25000D01*
G75*
G01*
X200858Y-200858D02*
G03*
X235000Y-215000I34142J34142D01*
G75*
G01*
X185000Y115000D02*
G03*
X155000Y85000I0J-30000D01*
G75*
G01*
X355000Y90000D02*
G02*
X385000Y60000I0J-30000D01*
G75*
G01*
X290000Y85000D02*
G02*
X295000Y90000I5000J0D01*
G75*
G01*
X220000Y-1185000D02*
G03*
X190000Y-1215000I0J-30000D01*
G75*
G01*
X295000Y-1165000D02*
G02*
X275000Y-1185000I-20000J0D01*
G75*
G01*
X245000Y-190000D02*
G02*
X295000Y-240000I0J-50000D01*
G75*
G01*
X185000Y-130000D02*
G03*
X245000Y-190000I60000J0D01*
G75*
G01*
X425000Y-1165000D02*
G02*
X375000Y-1215000I-50000J0D01*
G75*
G01*
X375000Y-675000D02*
G02*
X425000Y-725000I0J-50000D01*
G75*
G01*
X315000Y-650000D02*
G03*
X340000Y-675000I25000J0D01*
G75*
G01*
X295000Y-135000D02*
G02*
X315000Y-155000I0J-20000D01*
G75*
G01*
X230000Y-100000D02*
G03*
X265000Y-135000I35000J0D01*
G75*
G01*
X190000Y20000D02*
G02*
X230000Y-20000I0J-40000D01*
G75*
G01*
X670000Y-1160000D02*
G03*
X650000Y-1180000I0J-20000D01*
G75*
G01*
X685000Y-1145000D02*
G02*
X670000Y-1160000I-15000J0D01*
G75*
G01*
X655000Y-1000000D02*
G02*
X685000Y-1030000I0J-30000D01*
G75*
G01*
X570000Y-970000D02*
G03*
X600000Y-1000000I30000J0D01*
G75*
G01*
X625000Y-910000D02*
G02*
X595000Y-880000I0J30000D01*
G75*
G01*
X715000Y-925000D02*
G03*
X700000Y-910000I-15000J0D01*
G75*
G01*
X700000Y-1205000D02*
G03*
X715000Y-1190000I0J15000D01*
G75*
G01*
X555000Y-540000D02*
G02*
X570000Y-555000I0J-15000D01*
G75*
G01*
X340000Y-500000D02*
G03*
X380000Y-540000I40000J0D01*
G75*
G01*
X355000Y-215000D02*
G03*
X340000Y-230000I0J-15000D01*
G75*
G01*
X365000Y-205000D02*
G02*
X355000Y-215000I-10000J0D01*
G75*
G01*
X335000Y-35000D02*
G02*
X365000Y-65000I0J-30000D01*
G75*
G01*
X555000Y-515000D02*
G02*
X595000Y-555000I0J-40000D01*
G75*
G01*
X365000Y-480000D02*
G03*
X400000Y-515000I35000J0D01*
G75*
G01*
X375000Y-235000D02*
G03*
X365000Y-245000I0J-10000D01*
G75*
G01*
X385000Y-225000D02*
G02*
X375000Y-235000I-10000J0D01*
G75*
G01*
X455000Y-245000D02*
G02*
X420000Y-280000I-35000J0D01*
G75*
G01*
X900000Y-1440000D02*
G02*
X735000Y-1605000I-165000J0D01*
G75*
G01*
X878529Y-1309902D02*
G02*
X900000Y-1331373I0J-21471D01*
G75*
G01*
X875000Y-1420000D02*
G03*
X810000Y-1355000I-65000J0D01*
G75*
G01*
X945000Y-1730000D02*
G02*
X905000Y-1770000I-40000J0D01*
G75*
G01*
X965000Y-1710000D02*
G03*
X945000Y-1730000I0J-20000D01*
G75*
G01*
X1020000Y-1660000D02*
G02*
X970000Y-1710000I-50000J0D01*
G75*
G01*
X1000000Y-1725000D02*
G03*
X965000Y-1760000I0J-35000D01*
G75*
G01*
X1040000Y-1700000D02*
G02*
X1015000Y-1725000I-25000J0D01*
G75*
G01*
X965000Y-1760000D02*
G02*
X920000Y-1805000I-45000J0D01*
G75*
G01*
X360000Y-1355000D02*
G02*
X340000Y-1335000I0J20000D01*
G75*
G01*
X3659259Y-555000D02*
G02*
X3661110Y-556851I0J-1851D01*
G75*
G01*
X3661110Y-556851D02*
G03*
X3659259Y-555000I-1851J0D01*
G75*
G01*
X3655000Y-555000D02*
G03*
X3656851Y-556851I1851J0D01*
G75*
G01*
X3660000Y-165000D02*
G03*
X3670000Y-155000I0J10000D01*
G75*
G01*
X3480000Y-280000D02*
G02*
X3505000Y-255000I25000J0D01*
G75*
G01*
X1840000Y-565000D02*
G03*
X1810000Y-535000I-30000J0D01*
G75*
G01*
X2165000Y-1880000D02*
G03*
X2140000Y-1905000I0J-25000D01*
G75*
G01*
X2565000Y-1910000D02*
G03*
X2535000Y-1880000I-30000J0D01*
G75*
G01*
X2375000Y-1830000D02*
G02*
X2355000Y-1810000I0J20000D01*
G75*
G01*
X2485000Y-1835000D02*
G03*
X2480000Y-1830000I-5000J0D01*
G75*
G01*
X2490000Y-1840000D02*
G02*
X2485000Y-1835000I0J5000D01*
G75*
G01*
X2650000Y-1925000D02*
G03*
X2635000Y-1910000I-15000J0D01*
G75*
G01*
X2665000Y-1940000D02*
G02*
X2650000Y-1925000I0J15000D01*
G75*
G01*
X2745000Y-1965000D02*
G03*
X2720000Y-1940000I-25000J0D01*
G75*
G01*
X2780000Y-1930000D02*
G03*
X2790000Y-1940000I10000J0D01*
G75*
G01*
X2760000Y-1910000D02*
G02*
X2780000Y-1930000I0J-20000D01*
G75*
G01*
X2715000Y-1880000D02*
G03*
X2745000Y-1910000I30000J0D01*
G75*
G01*
X2675000Y-1840000D02*
G02*
X2715000Y-1880000I0J-40000D01*
G75*
G01*
X3490000Y-2180000D02*
G03*
X3515000Y-2155000I0J25000D01*
G75*
G01*
X3760000Y-2025000D02*
G02*
X3670000Y-2115000I-90000J0D01*
G75*
G01*
X3875000Y-2110000D02*
G02*
X3830000Y-2155000I-45000J0D01*
G75*
G01*
X3910000Y-1525000D02*
G03*
X3875000Y-1560000I0J-35000D01*
G75*
G01*
X1160000Y-235000D02*
G03*
X1130000Y-265000I0J-30000D01*
G75*
G01*
X1345000Y-185000D02*
G02*
X1295000Y-235000I-50000J0D01*
G75*
G01*
X1360000Y-170000D02*
G03*
X1345000Y-185000I0J-15000D01*
G75*
G01*
X1130000Y-285000D02*
G02*
X1100000Y-315000I-30000J0D01*
G75*
G01*
X1040000Y-310000D02*
G03*
X995000Y-265000I-45000J0D01*
G75*
G01*
X1065000Y-675000D02*
G02*
X1040000Y-650000I0J25000D01*
G75*
G01*
X1770000Y-655000D02*
G02*
X1750000Y-675000I-20000J0D01*
G75*
G01*
X1230171Y-655000D02*
G02*
X1190000Y-614829I0J40171D01*
G75*
G01*
X1725000Y-640000D02*
G02*
X1710000Y-655000I-15000J0D01*
G75*
G01*
X1690000Y-525000D02*
G02*
X1590000Y-625000I-100000J0D01*
G75*
G01*
X1800000Y-625000D02*
G03*
X1770000Y-655000I0J-30000D01*
G75*
G01*
X2145000Y-585000D02*
G02*
X2105000Y-625000I-40000J0D01*
G75*
G01*
X1825000Y-680000D02*
G02*
X1800000Y-655000I0J25000D01*
G75*
G01*
X1825000Y-605000D02*
G03*
X1840000Y-590000I0J15000D01*
G75*
G01*
X1725000Y-640000D02*
G02*
X1760000Y-605000I35000J0D01*
G75*
G01*
X3706464Y-355276D02*
G03*
X3750000Y-311740I0J43536D01*
G75*
G01*
X3635000Y-375000D02*
G02*
X3682618Y-355276I47618J-47618D01*
G75*
G01*
X3515000Y-440000D02*
G03*
X3608891Y-401109I0J132782D01*
G75*
G01*
X3525000Y-395000D02*
G02*
X3505000Y-415000I-20000J0D01*
G75*
G01*
X3550000Y-365000D02*
G03*
X3525000Y-390000I0J-25000D01*
G75*
G01*
X3615000Y-330000D02*
G02*
X3580000Y-365000I-35000J0D01*
G75*
G01*
X3485000Y-375000D02*
G02*
X3495000Y-385000I0J-10000D01*
G75*
G01*
X2525000Y-220000D02*
G03*
X2500000Y-245000I0J-25000D01*
G75*
G01*
X2525000Y-385000D02*
G03*
X2465000Y-325000I-60000J0D01*
G75*
G01*
X2350000Y-260000D02*
G03*
X2380000Y-290000I30000J0D01*
G75*
G01*
X2960000Y-1480000D02*
G02*
X2880000Y-1400000I0J80000D01*
G75*
G01*
X3045000Y-1495000D02*
G03*
X3030000Y-1480000I-15000J0D01*
G75*
G01*
X3005000Y-1685000D02*
G03*
X3045000Y-1645000I0J40000D01*
G75*
G01*
X3085000Y-1690000D02*
G03*
X3095000Y-1700000I10000J0D01*
G75*
G01*
X3125000Y-1625000D02*
G03*
X3135000Y-1615000I0J10000D01*
G75*
G01*
X3110000Y-1640000D02*
G02*
X3125000Y-1625000I15000J0D01*
G75*
G01*
X3000000Y-1425000D02*
G02*
X2930000Y-1355000I0J70000D01*
G75*
G01*
X3135000Y-1525000D02*
G03*
X3035000Y-1425000I-100000J0D01*
G75*
G01*
X3140000Y-1675000D02*
G02*
X3135000Y-1670000I0J5000D01*
G75*
G01*
X3165000Y-1635000D02*
G02*
X3160000Y-1630000I0J5000D01*
G75*
G01*
X2975000Y-1520000D02*
G02*
X3000000Y-1545000I0J-25000D01*
G75*
G01*
X2910000Y-1545000D02*
G02*
X2935000Y-1520000I25000J0D01*
G75*
G01*
X2635000Y-1640000D02*
G02*
X2645675Y-1650675I0J-10675D01*
G75*
G01*
X2630000Y-1635000D02*
G03*
X2635000Y-1640000I5000J0D01*
G75*
G01*
X2650000Y-1545000D02*
G03*
X2630000Y-1565000I0J-20000D01*
G75*
G01*
X2685000Y-1565000D02*
G03*
X2665000Y-1545000I-20000J0D01*
G75*
G01*
X2700000Y-1590000D02*
G02*
X2685000Y-1575000I0J15000D01*
G75*
G01*
X2685000Y-1515000D02*
G02*
X2705000Y-1535000I0J-20000D01*
G75*
G01*
X2605000Y-1540000D02*
G02*
X2630000Y-1515000I25000J0D01*
G75*
G01*
X3420000Y-1580000D02*
G02*
X3410000Y-1590000I-10000J0D01*
G75*
G01*
X3676300Y-1430000D02*
G03*
X3700000Y-1406300I0J23700D01*
G75*
G01*
X3500000Y-1515000D02*
G02*
X3585000Y-1430000I85000J0D01*
G75*
G01*
X3465000Y-1615000D02*
G03*
X3500000Y-1580000I0J35000D01*
G75*
G01*
X3335000Y-1630000D02*
G02*
X3350000Y-1615000I15000J0D01*
G75*
G01*
X3310000Y-1655000D02*
G03*
X3335000Y-1630000I0J25000D01*
G75*
G01*
X3210000Y-1685000D02*
G02*
X3240000Y-1655000I30000J0D01*
G75*
G01*
X3225000Y-1615000D02*
G02*
X3235000Y-1605000I10000J0D01*
G75*
G01*
X3200000Y-1645000D02*
G03*
X3225000Y-1620000I0J25000D01*
G75*
G01*
X3195000Y-1700000D02*
G03*
X3210000Y-1685000I0J15000D01*
G75*
G01*
X3185000Y-1660000D02*
G02*
X3170000Y-1675000I-15000J0D01*
G75*
G01*
X3200000Y-1645000D02*
G03*
X3185000Y-1660000I0J-15000D01*
G75*
G01*
X2905000Y-1720000D02*
G03*
X2875000Y-1750000I0J-30000D01*
G75*
G01*
X3230000Y-1710000D02*
G02*
X3220000Y-1720000I-10000J0D01*
G75*
G01*
X3250000Y-1675000D02*
G03*
X3230000Y-1695000I0J-20000D01*
G75*
G01*
X3751300Y-1455000D02*
G03*
X3800000Y-1406300I0J48700D01*
G75*
G01*
X3520000Y-1520000D02*
G02*
X3585000Y-1455000I65000J0D01*
G75*
G01*
X3480000Y-1635000D02*
G03*
X3520000Y-1595000I0J40000D01*
G75*
G01*
X3355000Y-1650000D02*
G02*
X3370000Y-1635000I15000J0D01*
G75*
G01*
X3330000Y-1675000D02*
G03*
X3355000Y-1650000I0J25000D01*
G75*
G01*
X3227723Y-1741106D02*
G03*
X3250400Y-1718429I0J22677D01*
G75*
G01*
X3110000Y-1760000D02*
G02*
X3128894Y-1741106I18894J0D01*
G75*
G01*
X3160000Y-1790000D02*
G02*
X3190000Y-1760000I30000J0D01*
G75*
G01*
X3698700Y-1505000D02*
G02*
X3700000Y-1506300I0J-1300D01*
G75*
G01*
X3580000Y-1560000D02*
G02*
X3635000Y-1505000I55000J0D01*
G75*
G01*
X3560000Y-1655000D02*
G03*
X3580000Y-1635000I0J20000D01*
G75*
G01*
X3370000Y-1685000D02*
G02*
X3400000Y-1655000I30000J0D01*
G75*
G01*
X3360000Y-1695000D02*
G03*
X3370000Y-1685000I0J10000D01*
G75*
G01*
X3250400Y-1718429D02*
G02*
X3273829Y-1695000I23429J0D01*
G75*
G01*
X3335000Y-1795000D02*
G02*
X3350000Y-1780000I15000J0D01*
G75*
G01*
X3320000Y-1810000D02*
G03*
X3335000Y-1795000I0J15000D01*
G75*
G01*
X3751300Y-1555000D02*
G03*
X3800000Y-1506300I0J48700D01*
G75*
G01*
X3600000Y-1640000D02*
G02*
X3685000Y-1555000I85000J0D01*
G75*
G01*
X3565000Y-1675000D02*
G03*
X3600000Y-1640000I0J35000D01*
G75*
G01*
X3390000Y-1685000D02*
G02*
X3400000Y-1675000I10000J0D01*
G75*
G01*
X3360000Y-1715000D02*
G03*
X3390000Y-1685000I0J30000D01*
G75*
G01*
X3145000Y-1840000D02*
G03*
X3160000Y-1825000I0J15000D01*
G75*
G01*
X3020000Y-1850000D02*
G02*
X3030000Y-1840000I10000J0D01*
G75*
G01*
X3005000Y-1865000D02*
G03*
X3020000Y-1850000I0J15000D01*
G75*
G01*
X2885000Y-1685000D02*
G03*
X2910000Y-1660000I0J25000D01*
G75*
G01*
X2820000Y-1715000D02*
G02*
X2850000Y-1685000I30000J0D01*
G75*
G01*
X2834142Y-1749142D02*
G02*
X2820000Y-1715000I34142J34142D01*
G75*
G01*
X2855000Y-1798284D02*
G03*
X2835000Y-1750000I-68284J0D01*
G75*
G01*
X2830000Y-1855000D02*
G03*
X2840000Y-1865000I10000J0D01*
G75*
G01*
X2810000Y-1865000D02*
G03*
X2830000Y-1885000I20000J0D01*
G75*
G01*
X2765000Y-1740000D02*
G02*
X2830000Y-1805000I0J-65000D01*
G75*
G01*
X2770000Y-1765000D02*
G02*
X2810000Y-1805000I0J-40000D01*
G75*
G01*
X2790000Y-1860000D02*
G02*
X2785000Y-1865000I-5000J0D01*
G75*
G01*
X2758980Y-1788980D02*
G02*
X2790000Y-1820000I0J-31020D01*
G75*
G01*
X2760000Y-1815000D02*
G02*
X2765000Y-1820000I0J-5000D01*
G75*
G01*
X3280000Y-1605000D02*
G03*
X3290000Y-1595000I0J10000D01*
G75*
G01*
X3230000Y-1580000D02*
G03*
X3250000Y-1560000I0J20000D01*
G75*
G01*
X3160000Y-1610000D02*
G02*
X3190000Y-1580000I30000J0D01*
G75*
G01*
X3275000Y-1385000D02*
G03*
X3295000Y-1365000I0J20000D01*
G75*
G01*
X3250000Y-1410000D02*
G02*
X3275000Y-1385000I25000J0D01*
G75*
G01*
X3265000Y-1310000D02*
G03*
X3250000Y-1325000I0J-15000D01*
G75*
G01*
X3360000Y-1345000D02*
G03*
X3325000Y-1310000I-35000J0D01*
G75*
G01*
X3335000Y-1395000D02*
G03*
X3360000Y-1370000I0J25000D01*
G75*
G01*
X3290000Y-1440000D02*
G02*
X3335000Y-1395000I45000J0D01*
G75*
G01*
X2425000Y-1465000D02*
G02*
X2380000Y-1420000I0J45000D01*
G75*
G01*
X2705000Y-1500000D02*
G03*
X2670000Y-1465000I-35000J0D01*
G75*
G01*
X2645000Y-1760000D02*
G02*
X2605000Y-1720000I0J40000D01*
G75*
G01*
X2520000Y-1445000D02*
G02*
X2480000Y-1405000I0J40000D01*
G75*
G01*
X2725000Y-1475000D02*
G03*
X2695000Y-1445000I-30000J0D01*
G75*
G01*
X2705000Y-1590000D02*
G03*
X2725000Y-1570000I0J20000D01*
G75*
G01*
X2683980Y-1788980D02*
G02*
X2680000Y-1785000I0J3980D01*
G75*
G01*
X2555000Y-1665000D02*
G02*
X2565000Y-1655000I10000J0D01*
G75*
G01*
X3035000Y-1915000D02*
G03*
X3050000Y-1900000I0J15000D01*
G75*
G01*
X3050000Y-1900000D02*
G02*
X3065000Y-1885000I15000J0D01*
G75*
G01*
X3185000Y-1885000D02*
G03*
X3195000Y-1875000I0J10000D01*
G75*
G01*
X3195000Y-1875000D02*
G02*
X3240000Y-1830000I45000J0D01*
G75*
G01*
X3435000Y-1830000D02*
G03*
X3450000Y-1815000I0J15000D01*
G75*
G01*
X3515000Y-1735000D02*
G03*
X3450000Y-1800000I0J-65000D01*
G75*
G01*
X3671300Y-1735000D02*
G03*
X3700000Y-1706300I0J28700D01*
G75*
G01*
X3455000Y-1880000D02*
G03*
X3470000Y-1865000I0J15000D01*
G75*
G01*
X3470000Y-1805000D02*
G02*
X3520000Y-1755000I50000J0D01*
G75*
G01*
X3800000Y-1706300D02*
G02*
X3751300Y-1755000I-48700J0D01*
G75*
G01*
X3620000Y-1670000D02*
G02*
X3683700Y-1606300I63700J0D01*
G75*
G01*
X3595000Y-1695000D02*
G03*
X3620000Y-1670000I0J25000D01*
G75*
G01*
X3415000Y-1730000D02*
G02*
X3450000Y-1695000I35000J0D01*
G75*
G01*
X3390000Y-1755000D02*
G03*
X3415000Y-1730000I0J25000D01*
G75*
G01*
X3295000Y-1915000D02*
G02*
X3330000Y-1880000I35000J0D01*
G75*
G01*
X3751300Y-1655000D02*
G03*
X3800000Y-1606300I0J48700D01*
G75*
G01*
X3640000Y-1695000D02*
G02*
X3680000Y-1655000I40000J0D01*
G75*
G01*
X3620000Y-1715000D02*
G03*
X3640000Y-1695000I0J20000D01*
G75*
G01*
X3435000Y-1755000D02*
G02*
X3475000Y-1715000I40000J0D01*
G75*
G01*
X3410000Y-1780000D02*
G03*
X3435000Y-1755000I0J25000D01*
G75*
G01*
X3180000Y-1850000D02*
G02*
X3220000Y-1810000I40000J0D01*
G75*
G01*
X3170000Y-1860000D02*
G03*
X3180000Y-1850000I0J10000D01*
G75*
G01*
X3035000Y-1870000D02*
G02*
X3045000Y-1860000I10000J0D01*
G75*
G01*
X3020000Y-1885000D02*
G03*
X3035000Y-1870000I0J15000D01*
G75*
G01*
X2712370Y-1687370D02*
G03*
X2765000Y-1740000I52630J0D01*
G75*
G01*
X3500000Y-1920000D02*
G02*
X3480000Y-1940000I-20000J0D01*
G75*
G01*
X2525000Y-1750000D02*
G03*
X2560000Y-1785000I35000J0D01*
G75*
G01*
X2480000Y-1705000D02*
G02*
X2525000Y-1750000I0J-45000D01*
G75*
G01*
X2460000Y-1755000D02*
G03*
X2520000Y-1815000I60000J0D01*
G75*
G01*
X2560000Y-1425000D02*
G02*
X2530000Y-1395000I0J30000D01*
G75*
G01*
X2745000Y-1475000D02*
G03*
X2695000Y-1425000I-50000J0D01*
G75*
G01*
X2770000Y-1715000D02*
G02*
X2745000Y-1690000I0J25000D01*
G75*
G01*
X2790000Y-1665000D02*
G03*
X2815000Y-1640000I0J25000D01*
G75*
G01*
X2795000Y-1425000D02*
G02*
X2781061Y-1411061I0J13939D01*
G75*
G01*
X2820000Y-1450000D02*
G03*
X2795000Y-1425000I-25000J0D01*
G75*
G01*
X1955000Y-680000D02*
G02*
X2030000Y-755000I0J-75000D01*
G75*
G01*
X3370000Y-1270000D02*
G02*
X3420000Y-1320000I0J-50000D01*
G75*
G01*
X2230000Y-1355000D02*
G02*
X2315000Y-1270000I85000J0D01*
G75*
G01*
X3360000Y-1290000D02*
G02*
X3395000Y-1325000I0J-35000D01*
G75*
G01*
X2330000Y-1355000D02*
G02*
X2395000Y-1290000I65000J0D01*
G75*
G01*
X1760000Y-275000D02*
G02*
X1790000Y-245000I30000J0D01*
G75*
G01*
X2112637Y-302363D02*
G03*
X2140000Y-275000I0J27363D01*
G75*
G01*
X1720000Y-265000D02*
G03*
X1757363Y-302363I37363J0D01*
G75*
G01*
X1720000Y-345000D02*
G02*
X1780355Y-320000I60355J-60355D01*
G75*
G01*
X1715000Y-370000D02*
G02*
X1695000Y-350000I0J20000D01*
G75*
G01*
X1760000Y-390000D02*
G03*
X1740000Y-370000I-20000J0D01*
G75*
G01*
X1740000Y-420000D02*
G03*
X1760000Y-400000I0J20000D01*
G75*
G01*
X1650000Y-460000D02*
G02*
X1690000Y-420000I40000J0D01*
G75*
G01*
X1635000Y-475000D02*
G03*
X1650000Y-460000I0J15000D01*
G75*
G01*
X1490000Y-440000D02*
G02*
X1535000Y-395000I45000J0D01*
G75*
G01*
X1450000Y-535000D02*
G03*
X1490000Y-495000I0J40000D01*
G75*
G01*
X1335000Y-595000D02*
G02*
X1395000Y-535000I60000J0D01*
G75*
G01*
X1725000Y-445000D02*
G03*
X1690000Y-480000I0J-35000D01*
G75*
G01*
X1810000Y-535000D02*
G02*
X1795000Y-520000I0J15000D01*
G75*
G01*
X1160000Y-430000D02*
G02*
X1080000Y-510000I-80000J0D01*
G75*
G01*
X1190000Y-375000D02*
G03*
X1160000Y-405000I0J-30000D01*
G75*
G01*
X1475000Y-330000D02*
G02*
X1430000Y-375000I-45000J0D01*
G75*
G01*
X1495000Y-295000D02*
G03*
X1475000Y-315000I0J-20000D01*
G75*
G01*
X1415000Y-275000D02*
G02*
X1390858Y-285000I-24142J24142D01*
G75*
G01*
X1480787Y-219213D02*
G03*
X1463716Y-226284I0J-24142D01*
G75*
G01*
X1455000Y-285000D02*
G02*
X1495000Y-245000I40000J0D01*
G75*
G01*
X1415000Y-355000D02*
G03*
X1455000Y-315000I0J40000D01*
G75*
G01*
X1140000Y-395000D02*
G02*
X1180000Y-355000I40000J0D01*
G75*
G01*
X1080000Y-460000D02*
G03*
X1140000Y-400000I0J60000D01*
G75*
G01*
X1950000Y-115000D02*
G03*
X2005000Y-170000I55000J0D01*
G75*
G01*
X1460000Y-170000D02*
G03*
X1500000Y-130000I0J40000D01*
G75*
G01*
X1545000Y-111300D02*
G02*
X1550000Y-106300I5000J0D01*
G75*
G01*
X1510000Y-190000D02*
G03*
X1545000Y-155000I0J35000D01*
G75*
G01*
X1395000Y-195000D02*
G02*
X1400000Y-190000I5000J0D01*
G75*
G01*
X1335000Y-285000D02*
G03*
X1290000Y-330000I0J-45000D01*
G75*
G01*
X1615787Y-219213D02*
G03*
X1650000Y-185000I0J34213D01*
G75*
G01*
X1756300Y-150000D02*
G03*
X1800000Y-106300I0J43700D01*
G75*
G01*
X1675000Y-180000D02*
G02*
X1705000Y-150000I30000J0D01*
G75*
G01*
X1605000Y-345000D02*
G03*
X1675000Y-275000I0J70000D01*
G75*
G01*
X1836300Y-170000D02*
G03*
X1900000Y-106300I0J63700D01*
G75*
G01*
X1695000Y-185000D02*
G02*
X1710000Y-170000I15000J0D01*
G75*
G01*
X2085000Y-165000D02*
G02*
X2040103Y-146403I0J63494D01*
G75*
G01*
X2140000Y-220000D02*
G03*
X2085000Y-165000I-55000J0D01*
G75*
G01*
X2160000Y-166300D02*
G03*
X2100000Y-106300I-60000J0D01*
G75*
G01*
X2145000Y-320000D02*
G03*
X2160000Y-305000I0J15000D01*
G75*
G01*
X2235000Y-171300D02*
G02*
X2300000Y-106300I65000J0D01*
G75*
G01*
X2155000Y-365000D02*
G03*
X2235000Y-285000I0J80000D01*
G75*
G01*
X1825000Y-415000D02*
G02*
X1875000Y-365000I50000J0D01*
G75*
G01*
X2210000Y-116300D02*
G03*
X2200000Y-106300I-10000J0D01*
G75*
G01*
X2155000Y-345000D02*
G03*
X2210000Y-290000I0J55000D01*
G75*
G01*
X2005000Y-170000D02*
G02*
X2025000Y-190000I0J-20000D01*
G75*
G01*
X2180000Y-465000D02*
G02*
X2215000Y-500000I0J-35000D01*
G75*
G01*
X2232067Y-362925D02*
G02*
X2184992Y-410000I-47075J0D01*
G75*
G01*
X3095000Y-220000D02*
G02*
X3090000Y-215000I0J5000D01*
G75*
G01*
X3180000Y-220000D02*
G03*
X3165000Y-235000I0J-15000D01*
G75*
G01*
X3165000Y-235000D02*
G02*
X3155000Y-245000I-10000J0D01*
G75*
G01*
X3130000Y-245000D02*
G02*
X3120000Y-235000I0J10000D01*
G75*
G01*
X3120000Y-230000D02*
G03*
X3105000Y-215000I-15000J0D01*
G75*
G01*
X3395000Y-210000D02*
G03*
X3370000Y-185000I-25000J0D01*
G75*
G01*
X2480000Y-185000D02*
G03*
X2455000Y-210000I0J-25000D01*
G75*
G01*
X2455000Y-260000D02*
G02*
X2425000Y-230000I0J30000D01*
G75*
G01*
X2425000Y-195000D02*
G02*
X2455000Y-165000I30000J0D01*
G75*
G01*
X3455000Y-240000D02*
G02*
X3435000Y-260000I-20000J0D01*
G75*
G01*
X3290000Y-220000D02*
G02*
X3300000Y-230000I0J-10000D01*
G75*
G01*
X3300000Y-230000D02*
G03*
X3305000Y-235000I5000J0D01*
G75*
G01*
X3405000Y-235000D02*
G03*
X3430000Y-210000I0J25000D01*
G75*
G01*
X3220000Y-275000D02*
G03*
X3210000Y-265000I-10000J0D01*
G75*
G01*
X3105000Y-265000D02*
G02*
X3085000Y-245000I0J20000D01*
G75*
G01*
X3058371Y-446629D02*
G03*
X3025000Y-480000I0J-33371D01*
G75*
G01*
X2675000Y-580000D02*
G03*
X2705000Y-610000I30000J0D01*
G75*
G01*
X2850000Y-610000D02*
G03*
X2875000Y-585000I0J25000D01*
G75*
G01*
X2875000Y-585000D02*
G02*
X2905000Y-555000I30000J0D01*
G75*
G01*
X2960000Y-555000D02*
G03*
X3000000Y-515000I0J40000D01*
G75*
G01*
X3000000Y-435000D02*
G02*
X3025000Y-410000I25000J0D01*
G75*
G01*
X2940000Y-485000D02*
G03*
X2980000Y-445000I0J40000D01*
G75*
G01*
X2710000Y-510000D02*
G02*
X2720000Y-520000I0J-10000D01*
G75*
G01*
X2720000Y-520000D02*
G03*
X2735000Y-535000I15000J0D01*
G75*
G01*
X2790000Y-535000D02*
G03*
X2820000Y-505000I0J30000D01*
G75*
G01*
X3025000Y-585000D02*
G02*
X2930000Y-680000I-95000J0D01*
G75*
G01*
X2630000Y-575000D02*
G02*
X2660000Y-545000I30000J0D01*
G75*
G01*
X2690000Y-545000D02*
G02*
X2715000Y-570000I0J-25000D01*
G75*
G01*
X2715000Y-570000D02*
G03*
X2735000Y-590000I20000J0D01*
G75*
G01*
X2825000Y-590000D02*
G03*
X2845000Y-570000I0J20000D01*
G75*
G01*
X2845000Y-425000D02*
G02*
X2890000Y-380000I45000J0D01*
G75*
G01*
X2890000Y-380000D02*
G03*
X2915000Y-355000I0J25000D01*
G75*
G01*
X2775000Y-245000D02*
G03*
X2800000Y-270000I25000J0D01*
G75*
G01*
X2890000Y-270000D02*
G02*
X2915000Y-295000I0J-25000D01*
G75*
G01*
X3085000Y-295000D02*
G02*
X3060000Y-270000I0J25000D01*
G75*
G01*
X2795000Y-225000D02*
G03*
X2785000Y-215000I-10000J0D01*
G75*
G01*
X2735000Y-215000D02*
G03*
X2725000Y-205000I-10000J0D01*
G75*
G01*
X2480000Y-360000D02*
G02*
X2505000Y-385000I0J-25000D01*
G75*
G01*
X2505000Y-415000D02*
G03*
X2540000Y-450000I35000J0D01*
G75*
G01*
X2525000Y-395000D02*
G03*
X2550000Y-420000I25000J0D01*
G75*
G01*
X3450000Y-310000D02*
G03*
X3480000Y-280000I0J30000D01*
G75*
G01*
X2475000Y-450000D02*
G03*
X2505000Y-480000I30000J0D01*
G75*
G01*
X2785000Y-480000D02*
G03*
X2800000Y-465000I0J15000D01*
G75*
G01*
X2800000Y-410000D02*
G03*
X2780000Y-390000I-20000J0D01*
G75*
G01*
X2610000Y-370000D02*
G02*
X2560000Y-420000I-50000J0D01*
G75*
G01*
X3165000Y-325000D02*
G03*
X3160000Y-320000I-5000J0D01*
G75*
G01*
X3060000Y-265000D02*
G03*
X3025000Y-230000I-35000J0D01*
G75*
G01*
X2910000Y-230000D02*
G03*
X2905000Y-235000I0J-5000D01*
G75*
G01*
X2905000Y-235000D02*
G02*
X2895000Y-245000I-10000J0D01*
G75*
G01*
X2815000Y-245000D02*
G02*
X2795000Y-225000I0J20000D01*
G75*
G01*
X2820000Y-345000D02*
G02*
X2860000Y-305000I40000J0D01*
G75*
G01*
X2800000Y-305000D02*
G02*
X2750000Y-355000I-50000J0D01*
G75*
G01*
X2715000Y-355000D02*
G03*
X2700000Y-370000I0J-15000D01*
G75*
G01*
X2700000Y-370000D02*
G02*
X2685000Y-385000I-15000J0D01*
G75*
G01*
X2620607Y-269393D02*
G03*
X2610000Y-295000I25606J-25607D01*
G75*
G01*
X2820000Y-650000D02*
G02*
X2825000Y-655000I0J-5000D01*
G75*
G01*
X2558445Y-360000D02*
G02*
X2530000Y-331555I0J28445D01*
G75*
G01*
X2530000Y-270000D02*
G02*
X2550000Y-250000I20000J0D01*
G75*
G01*
X2565000Y-250000D02*
G03*
X2580000Y-235000I0J15000D01*
G75*
G01*
X2580000Y-228165D02*
G02*
X2603165Y-205000I23165J0D01*
G75*
G01*
X2500000Y-270000D02*
G02*
X2485000Y-285000I-15000J0D01*
G75*
G01*
X2435000Y-285000D02*
G03*
X2425000Y-295000I0J-10000D01*
G75*
G01*
X2425000Y-610000D02*
G03*
X2465000Y-650000I40000J0D01*
G75*
G01*
X2549645Y-650000D02*
G02*
X2610000Y-675000I0J-85355D01*
G75*
G01*
X2610000Y-675000D02*
G03*
X2622071Y-680000I12071J12071D01*
G75*
G01*
X2630000Y-575000D02*
G03*
X2640607Y-600607I36213J0D01*
G75*
G01*
X2670000Y-630000D02*
G03*
X2730355Y-655000I60355J60355D01*
G75*
G01*
X2701569Y-680000D02*
G02*
X2673284Y-668284I0J40001D01*
G75*
G01*
X2633787Y-680000D02*
G02*
X2670000Y-695000I0J-51213D01*
G75*
G01*
X2670000Y-695000D02*
G02*
X2680000Y-705000I0J-10000D01*
G75*
G01*
X2680000Y-805000D02*
G03*
X2700000Y-825000I20000J0D01*
G75*
G01*
X3320000Y-375000D02*
G02*
X3220000Y-275000I0J100000D01*
G75*
G01*
X3010000Y-270000D02*
G02*
X3030000Y-290000I0J-20000D01*
G75*
G01*
X3030000Y-290000D02*
G03*
X3055000Y-315000I25000J0D01*
G75*
G01*
X3155000Y-315000D02*
G02*
X3165000Y-325000I0J-10000D01*
G75*
G01*
X3426299Y-506299D02*
G02*
X3415000Y-495000I0J11299D01*
G75*
G01*
X3415000Y-495000D02*
G03*
X3395000Y-475000I-20000J0D01*
G75*
G01*
X3415000Y-450000D02*
G02*
X3440000Y-475000I0J-25000D01*
G75*
G01*
X3440000Y-475000D02*
G03*
X3450000Y-485000I10000J0D01*
G75*
G01*
X2980000Y-320000D02*
G03*
X3015000Y-355000I35000J0D01*
G75*
G01*
X2980000Y-440000D02*
G02*
X3035000Y-385000I55000J0D01*
G75*
G01*
X3150000Y-475000D02*
G02*
X3120000Y-445000I0J30000D01*
G75*
G01*
X3120000Y-430000D02*
G03*
X3115000Y-425000I-5000J0D01*
G75*
G01*
X3115000Y-425000D02*
G02*
X3105000Y-415000I0J10000D01*
G75*
G01*
X3105000Y-405000D02*
G03*
X3085000Y-385000I-20000J0D01*
G75*
G01*
X3615000Y-330000D02*
G02*
X3638701Y-306299I23701J0D01*
G75*
G01*
X3663701Y-406299D02*
G03*
X3640000Y-430000I0J-23701D01*
G75*
G01*
X3640000Y-430000D02*
G02*
X3610000Y-460000I-30000J0D01*
G75*
G01*
X3605000Y-460000D02*
G03*
X3590000Y-475000I0J-15000D01*
G75*
G01*
X3590000Y-475000D02*
G02*
X3580000Y-485000I-10000J0D01*
G75*
G01*
X3613701Y-506299D02*
G03*
X3630000Y-490000I0J16299D01*
G75*
G01*
X3650858Y-469142D02*
G02*
X3685000Y-455000I34142J-34142D01*
G75*
G01*
X3735000Y-455000D02*
G03*
X3750000Y-440000I0J15000D01*
G75*
G01*
X3750000Y-440000D02*
G02*
X3783701Y-406299I33701J0D01*
G75*
G01*
X3245000Y-525000D02*
G03*
X3290000Y-570000I45000J0D01*
G75*
G01*
X3430000Y-570000D02*
G03*
X3445000Y-555000I0J15000D01*
G75*
G01*
X3445000Y-555000D02*
G02*
X3470000Y-530000I25000J0D01*
G75*
G01*
X3700000Y-506299D02*
G02*
X3676299Y-530000I-23701J0D01*
G75*
G01*
X3800000Y-506299D02*
G02*
X3749448Y-556851I-50552J0D01*
G75*
G01*
X3515000Y-555000D02*
G03*
X3465000Y-605000I0J-50000D01*
G75*
G01*
X3465000Y-765000D02*
G02*
X3405000Y-825000I-60000J0D01*
G75*
G01*
X3140000Y-395000D02*
G02*
X3170000Y-425000I0J-30000D01*
G75*
G01*
X3170000Y-430000D02*
G03*
X3190000Y-450000I20000J0D01*
G75*
G01*
X3200000Y-415000D02*
G02*
X3185000Y-400000I0J15000D01*
G75*
G01*
X3185000Y-400000D02*
G03*
X3155000Y-370000I-30000J0D01*
G75*
G01*
X3115000Y-370000D02*
G02*
X3110000Y-365000I0J5000D01*
G75*
G01*
X3110000Y-365000D02*
G03*
X3100000Y-355000I-10000J0D01*
G75*
G01*
X3405000Y-165000D02*
G02*
X3455000Y-215000I0J-50000D01*
G75*
G01*
X1580000Y-1315000D02*
G02*
X1615000Y-1280000I35000J0D01*
G75*
G01*
X1695000Y-1280000D02*
G02*
X1730000Y-1315000I0J-35000D01*
G75*
G01*
X1305000Y-1810000D02*
G02*
X1335000Y-1840000I0J-30000D01*
G75*
G01*
X1335000Y-1905000D02*
G03*
X1375000Y-1945000I40000J0D01*
G75*
G01*
X2080000Y-1945000D02*
G03*
X2110000Y-1915000I0J30000D01*
G75*
G01*
X2110000Y-1825000D02*
G02*
X2150000Y-1785000I40000J0D01*
G75*
G01*
X2165000Y-1695000D02*
G03*
X2225000Y-1635000I0J60000D01*
G75*
G01*
X1750000Y-1500000D02*
G02*
X1790000Y-1460000I40000J0D01*
G75*
G01*
X1790000Y-1460000D02*
G03*
X1830000Y-1420000I0J40000D01*
G75*
G01*
X1795000Y-1575000D02*
G02*
X1770000Y-1600000I-25000J0D01*
G75*
G01*
X1745000Y-1600000D02*
G02*
X1720000Y-1575000I0J25000D01*
G75*
G01*
X1720000Y-1475000D02*
G02*
X1755000Y-1440000I35000J0D01*
G75*
G01*
X1755000Y-1440000D02*
G03*
X1780000Y-1415000I0J25000D01*
G75*
G01*
X1285000Y-1605000D02*
G02*
X1330000Y-1650000I0J-45000D01*
G75*
G01*
X1330000Y-1650000D02*
G03*
X1395000Y-1715000I65000J0D01*
G75*
G01*
X1195000Y-1725000D02*
G03*
X1215000Y-1745000I20000J0D01*
G75*
G01*
X1640000Y-1745000D02*
G03*
X1650000Y-1735000I0J10000D01*
G75*
G01*
X1650000Y-1735000D02*
G02*
X1670000Y-1715000I20000J0D01*
G75*
G01*
X1825000Y-1665000D02*
G02*
X1855000Y-1695000I0J-30000D01*
G75*
G01*
X1855000Y-1720000D02*
G02*
X1830000Y-1745000I-25000J0D01*
G75*
G01*
X1785000Y-1745000D02*
G03*
X1765000Y-1765000I0J-20000D01*
G75*
G01*
X1765000Y-1765000D02*
G02*
X1745000Y-1785000I-20000J0D01*
G75*
G01*
X1575000Y-1785000D02*
G03*
X1555000Y-1805000I0J-20000D01*
G75*
G01*
X1555000Y-1805000D02*
G02*
X1535000Y-1825000I-20000J0D01*
G75*
G01*
X1435000Y-1825000D02*
G02*
X1420000Y-1810000I0J15000D01*
G75*
G01*
X1420000Y-1810000D02*
G03*
X1380000Y-1770000I-40000J0D01*
G75*
G01*
X1940000Y-1800000D02*
G03*
X1965000Y-1775000I0J25000D01*
G75*
G01*
X1965000Y-1760000D02*
G02*
X2000000Y-1725000I35000J0D01*
G75*
G01*
X1930000Y-1850000D02*
G02*
X1905000Y-1825000I0J25000D01*
G75*
G01*
X1905000Y-1785000D02*
G02*
X1920000Y-1770000I15000J0D01*
G75*
G01*
X1930000Y-1770000D02*
G03*
X1945000Y-1755000I0J15000D01*
G75*
G01*
X1945000Y-1745000D02*
G02*
X1995000Y-1695000I50000J0D01*
G75*
G01*
X1815000Y-1815000D02*
G03*
X1855000Y-1775000I0J40000D01*
G75*
G01*
X1855000Y-1775000D02*
G03*
X1875000Y-1726716I-48284J48284D01*
G75*
G01*
X1794645Y-1865000D02*
G03*
X1855000Y-1840000I0J85355D01*
G75*
G01*
X1862322Y-1832678D02*
G03*
X1880000Y-1790000I-42677J42678D01*
G75*
G01*
X1880000Y-1790000D02*
G02*
X1894142Y-1755858I48284J0D01*
G75*
G01*
X1900000Y-1750000D02*
G03*
X1910000Y-1725858I-24142J24142D01*
G75*
G01*
X1875000Y-1675000D02*
G03*
X1840000Y-1640000I-35000J0D01*
G75*
G01*
X1750000Y-1640000D02*
G03*
X1745000Y-1645000I0J-5000D01*
G75*
G01*
X1745000Y-1645000D02*
G02*
X1735000Y-1655000I-10000J0D01*
G75*
G01*
X1620000Y-1655000D02*
G02*
X1585000Y-1620000I0J35000D01*
G75*
G01*
X1585000Y-1570000D02*
G03*
X1565000Y-1550000I-20000J0D01*
G75*
G01*
X1590000Y-1480000D02*
G02*
X1580000Y-1470000I0J10000D01*
G75*
G01*
X1625000Y-1485000D02*
G02*
X1605000Y-1505000I-20000J0D01*
G75*
G01*
X1575000Y-1505000D02*
G02*
X1555000Y-1485000I0J20000D01*
G75*
G01*
X1555000Y-1380000D02*
G03*
X1530000Y-1355000I-25000J0D01*
G75*
G01*
X1460000Y-1515000D02*
G03*
X1470000Y-1525000I10000J0D01*
G75*
G01*
X1645000Y-1525000D02*
G02*
X1695000Y-1575000I0J-50000D01*
G75*
G01*
X1695000Y-1575000D02*
G03*
X1740000Y-1620000I45000J0D01*
G75*
G01*
X1850000Y-1620000D02*
G02*
X1910000Y-1680000I0J-60000D01*
G75*
G01*
X3750000Y-75000D02*
G03*
X3725000Y-50000I-25000J0D01*
G75*
G01*
X2655000Y-50000D02*
G03*
X2650000Y-55000I0J-5000D01*
G75*
G01*
X2650000Y-55000D02*
G02*
X2639488Y-65512I-10512J0D01*
G75*
G01*
X2535000Y-50000D02*
G03*
X2550512Y-65512I15512J0D01*
G75*
G01*
X512630Y-334573D02*
G02*
X582203Y-265000I69573J0D01*
G75*
G01*
X3075000Y-2135000D02*
G02*
X3040000Y-2170000I-35000J0D01*
G75*
G01*
X3131980Y-2086300D02*
G03*
X3150000Y-2068280I0J18020D01*
G75*
G01*
X3150000Y-1940020D02*
G02*
X3150020Y-1940000I20J0D01*
G75*
G01*
X3415000Y-1215000D02*
G02*
X3460000Y-1260000I0J-45000D01*
G75*
G01*
X3460000Y-1265000D02*
G03*
X3500000Y-1305000I40000J0D01*
G75*
G01*
X3450000Y-1185000D02*
G02*
X3490000Y-1225000I0J-40000D01*
G75*
G01*
X3490000Y-1225000D02*
G03*
X3520000Y-1255000I30000J0D01*
G75*
G01*
X3750000Y-1255000D02*
G03*
X3800000Y-1205000I0J50000D01*
G75*
G01*
X3475000Y-1155000D02*
G02*
X3515000Y-1195000I0J-40000D01*
G75*
G01*
X3515000Y-1195000D02*
G03*
X3525000Y-1205000I10000J0D01*
G75*
G01*
X3510000Y-1120000D02*
G02*
X3530000Y-1140000I0J-20000D01*
G75*
G01*
X3530000Y-1140000D02*
G03*
X3545000Y-1155000I15000J0D01*
G75*
G01*
X3750000Y-1155000D02*
G03*
X3800000Y-1105000I0J50000D01*
G75*
G01*
X3680000Y-1085000D02*
G02*
X3700000Y-1105000I0J-20000D01*
G75*
G01*
X3555000Y-1045000D02*
G02*
X3560000Y-1050000I0J-5000D01*
G75*
G01*
X3560000Y-1050000D02*
G03*
X3565000Y-1055000I5000J0D01*
G75*
G01*
X3750000Y-1055000D02*
G03*
X3800000Y-1005000I0J50000D01*
G75*
G01*
X3690000Y-1015000D02*
G03*
X3700000Y-1005000I0J10000D01*
G75*
G01*
X3605000Y-985000D02*
G03*
X3620000Y-970000I0J15000D01*
G75*
G01*
X3620000Y-945000D02*
G02*
X3660000Y-905000I40000J0D01*
G75*
G01*
X1300000Y-1245000D02*
G03*
X1280000Y-1265000I0J-20000D01*
G75*
G01*
X3585000Y-950000D02*
G03*
X3595000Y-940000I0J10000D01*
G75*
G01*
X3595000Y-890000D02*
G02*
X3630000Y-855000I35000J0D01*
G75*
G01*
X3650000Y-855000D02*
G03*
X3700000Y-805000I0J50000D01*
G75*
G01*
X3520000Y-905000D02*
G03*
X3550000Y-875000I0J30000D01*
G75*
G01*
X3550000Y-740000D02*
G02*
X3585000Y-705000I35000J0D01*
G75*
G01*
X1000000Y115000D02*
G02*
X1065000Y50000I0J-65000D01*
D12*
G75*
G01*
X1000000Y-2075000D02*
G03*
X1015000Y-2060000I0J15000D01*
G75*
G01*
X1230000Y-1530000D02*
G02*
X1245000Y-1515000I15000J0D01*
D34*
G01*
X3910000Y-95000D03*
D35*
G01*
X3910000Y-195000D03*
G01*
X3910000Y-295000D03*
G01*
X3910000Y-395000D03*
D36*
G01*
X726999Y209000D03*
G01*
X983000Y209000D03*
G01*
X726999Y30999D03*
G01*
X983000Y30999D03*
G01*
X326999Y209000D03*
G01*
X583000Y209000D03*
G01*
X326999Y30999D03*
G01*
X583000Y30999D03*
D37*
G01*
X2105000Y-2125000D03*
G01*
X2220000Y-2125000D03*
D38*
G01*
X750000Y-105000D03*
G01*
X850000Y-105000D03*
G01*
X950000Y-105000D03*
G01*
X1050000Y-105000D03*
G01*
X1150000Y-105000D03*
G01*
X1250000Y-105000D03*
G01*
X1350000Y-105000D03*
G01*
X1450000Y-105000D03*
G01*
X1550000Y-105000D03*
G01*
X1650000Y-105000D03*
G01*
X1800000Y-105000D03*
G01*
X1900000Y-105000D03*
G01*
X2000000Y-105000D03*
G01*
X2100000Y-105000D03*
G01*
X2200000Y-105000D03*
G01*
X2300000Y-105000D03*
G01*
X2400000Y-105000D03*
G01*
X2500000Y-105000D03*
G01*
X2700000Y-105000D03*
G01*
X2800000Y-105000D03*
G01*
X2900000Y-105000D03*
G01*
X3000000Y-105000D03*
G01*
X3100000Y-105000D03*
G01*
X3200000Y-105000D03*
G01*
X3300000Y-105000D03*
G01*
X3400000Y-105000D03*
G01*
X3800000Y-105000D03*
G01*
X3700000Y-105000D03*
G01*
X3800000Y-205000D03*
G01*
X3800000Y-305000D03*
G01*
X3700000Y-205000D03*
G01*
X3700000Y-305000D03*
G01*
X3700000Y-405000D03*
G01*
X3800000Y-405000D03*
G01*
X3800000Y-505000D03*
G01*
X3700000Y-505000D03*
G01*
X3700000Y-605000D03*
G01*
X3800000Y-605000D03*
G01*
X3700000Y-705000D03*
G01*
X3800000Y-705000D03*
G01*
X3700000Y-805000D03*
G01*
X3800000Y-805000D03*
G01*
X3700000Y-905000D03*
G01*
X3800000Y-905000D03*
G01*
X3700000Y-1005000D03*
G01*
X3800000Y-1005000D03*
G01*
X3700000Y-1105000D03*
G01*
X3800000Y-1105000D03*
G01*
X3800000Y-1205000D03*
G01*
X3700000Y-1205000D03*
G01*
X3700000Y-1305000D03*
G01*
X3800000Y-1305000D03*
G01*
X3800000Y-1405000D03*
G01*
X3700000Y-1405000D03*
G01*
X3700000Y-1505000D03*
G01*
X3800000Y-1505000D03*
G01*
X3800000Y-1605000D03*
G01*
X3700000Y-1605000D03*
G01*
X3700000Y-1705000D03*
G01*
X3800000Y-1705000D03*
G01*
X3800000Y-1805000D03*
G01*
X3700000Y-1805000D03*
G01*
X3600000Y-2005000D03*
G01*
X3500000Y-2005000D03*
G01*
X3400000Y-2005000D03*
G01*
X3300000Y-2005000D03*
G01*
X3200000Y-2005000D03*
G01*
X3100000Y-2005000D03*
G01*
X3000000Y-2005000D03*
G01*
X2900000Y-2005000D03*
G01*
X2700000Y-2005000D03*
G01*
X2600000Y-2005000D03*
G01*
X2500000Y-2005000D03*
G01*
X2400000Y-2005000D03*
G01*
X2300000Y-2005000D03*
G01*
X2200000Y-2005000D03*
G01*
X2100000Y-2005000D03*
G01*
X2000000Y-2005000D03*
G01*
X1800000Y-2005000D03*
G01*
X1700000Y-2005000D03*
G01*
X1600000Y-2005000D03*
G01*
X1500000Y-2005000D03*
G01*
X1400000Y-2005000D03*
G01*
X1300000Y-2005000D03*
G01*
X1200000Y-2005000D03*
G01*
X1100000Y-2005000D03*
D39*
G01*
X348899Y-1065000D03*
G01*
X211100Y-1065000D03*
D40*
G01*
X530000Y-1065000D03*
G01*
X630000Y-1065000D03*
D34*
G01*
X2600940Y183780D03*
D35*
G01*
X2600950Y83780D03*
G01*
X2600950Y-16219D03*
G01*
X2600950Y-116219D03*
D36*
G01*
X3211999Y209000D03*
G01*
X3468000Y209000D03*
G01*
X3211999Y30999D03*
G01*
X3468000Y30999D03*
G01*
X2811999Y209000D03*
G01*
X3068000Y209000D03*
G01*
X2811999Y30999D03*
G01*
X3068000Y30999D03*
D16*
G01*
X3500000Y-225000D03*
G01*
X3140000Y-210000D03*
G01*
X2865000Y-220000D03*
G01*
X3085000Y-495000D03*
G01*
X2765000Y-510000D03*
G01*
X2455000Y-560000D03*
G01*
X2610000Y-235000D03*
G01*
X2270000Y-1665000D03*
G01*
X2815000Y-560000D03*
G01*
X2925000Y-600000D03*
G01*
X3110000Y-600000D03*
G01*
X3495000Y-385000D03*
G01*
X3515000Y-440000D03*
G01*
X3395000Y-210000D03*
G01*
X3395000Y-260000D03*
G01*
X3395000Y-310000D03*
G01*
X2455000Y-210000D03*
G01*
X2455000Y-260000D03*
G01*
X2465000Y-325000D03*
G01*
X2560000Y-280000D03*
G01*
X3090000Y-215000D03*
G01*
X3085000Y-245000D03*
G01*
X3190000Y-295000D03*
G01*
X3165000Y-325000D03*
G01*
X2675000Y-580000D03*
G01*
X2875000Y-485000D03*
G01*
X3095550Y-446630D03*
G01*
X3080000Y-410000D03*
G01*
X3140000Y-395000D03*
G01*
X2455000Y-510000D03*
G01*
X2860000Y-305000D03*
G01*
X2980000Y-320000D03*
G01*
X2820000Y-210000D03*
G01*
X2775000Y-245000D03*
G01*
X2665000Y-280000D03*
G01*
X2525000Y-225000D03*
G01*
X2780000Y-390000D03*
G01*
X2480000Y-360000D03*
G01*
X2775000Y-450000D03*
G01*
X2475000Y-410000D03*
G01*
X2558450Y-360000D03*
G01*
X3430000Y-210000D03*
G01*
X2655000Y-235000D03*
G01*
X2650000Y-385000D03*
G01*
X2980000Y-270000D03*
G01*
X2800000Y-305000D03*
G01*
X3047229Y-675000D03*
G01*
X2825000Y-655000D03*
G01*
X3245000Y-525000D03*
G01*
X3205000Y-365000D03*
G01*
X1080000Y-560000D03*
G01*
X890000Y-310000D03*
G01*
X890000Y-450000D03*
G01*
X2270339Y-449400D03*
G01*
X2270339Y-308400D03*
G01*
X2185000Y-235000D03*
G01*
X1982640Y-560000D03*
G01*
X1720000Y-495000D03*
G01*
X1830000Y-195000D03*
G01*
X1430000Y-215000D03*
G01*
X1390000Y-495000D03*
G01*
X1400000Y-600000D03*
G01*
X1550000Y-600000D03*
G01*
X2232070Y-362930D03*
G01*
X1925000Y-410000D03*
G01*
X2215000Y-585000D03*
G01*
X1930000Y-465000D03*
G01*
X1190000Y-210000D03*
G01*
X1190000Y-260000D03*
G01*
X2110000Y-220000D03*
G01*
X1080000Y-315000D03*
G01*
X1080000Y-460000D03*
G01*
X1080000Y-510000D03*
G01*
X1495000Y-245000D03*
G01*
X1495000Y-295000D03*
G01*
X1830000Y-345000D03*
G01*
X1825000Y-490000D03*
G01*
X1720000Y-345000D03*
G01*
X1720000Y-195000D03*
G01*
X1585000Y-475000D03*
G01*
X1605000Y-345000D03*
G01*
X1290000Y-330000D03*
G01*
X1395000Y-195000D03*
G01*
X1190000Y-410000D03*
G01*
X1715000Y-565000D03*
G01*
X1840000Y-565000D03*
G01*
X1795000Y-345000D03*
G01*
X1760000Y-275000D03*
G01*
X1935000Y-240000D03*
G01*
X1460000Y-625000D03*
G01*
X1725000Y-445000D03*
G01*
X1335000Y-595000D03*
G01*
X1725000Y-395000D03*
G01*
X1810000Y-275000D03*
G01*
X1170000Y-320000D03*
G01*
X3395000Y-1555000D03*
G01*
X3395000Y-1590000D03*
G01*
X2565000Y-560000D03*
G01*
X1800000Y-655000D03*
G01*
X2565000Y-1555000D03*
G01*
X2795000Y-1585000D03*
G01*
X2960000Y-1550000D03*
G01*
X3215000Y-1550000D03*
G01*
X2875000Y-1620000D03*
G01*
X3195000Y-1620000D03*
G01*
X3555000Y-1520000D03*
G01*
X3085000Y-1915000D03*
G01*
X2805000Y-1915000D03*
G01*
X2455000Y-1855000D03*
G01*
X2455000Y-1905000D03*
G01*
X3395000Y-1855000D03*
G01*
X3395000Y-1905000D03*
G01*
X2790000Y-1665000D03*
G01*
X2770000Y-1715000D03*
G01*
X2565000Y-1655000D03*
G01*
X2510000Y-1490000D03*
G01*
X2455000Y-1655000D03*
G01*
X2455000Y-1705000D03*
G01*
X2460000Y-1755000D03*
G01*
X2765000Y-1865000D03*
G01*
X2765000Y-1820000D03*
G01*
X2660000Y-1840000D03*
G01*
X3500000Y-1805000D03*
G01*
X3110000Y-1760000D03*
G01*
X3295000Y-1765000D03*
G01*
X3085000Y-1640000D03*
G01*
X3295000Y-1915000D03*
G01*
X2770000Y-1765000D03*
G01*
X2875000Y-1915000D03*
G01*
X2875000Y-1750000D03*
G01*
X2665000Y-1600000D03*
G01*
X3395000Y-1805000D03*
G01*
X3595000Y-310000D03*
G01*
X1275000Y-290000D03*
G01*
X2450000Y-1805000D03*
G01*
X2555000Y-1730000D03*
G01*
X2655000Y-1760000D03*
G01*
X2655000Y-1710000D03*
G01*
X2380000Y-1350000D03*
G01*
X2480000Y-1355000D03*
G01*
X3295000Y-1335000D03*
G01*
X3250000Y-1340000D03*
G01*
X3165000Y-1635000D03*
G01*
X3135000Y-1650000D03*
G01*
X3000000Y-1545000D03*
G01*
X2855000Y-1840000D03*
G01*
X3190000Y-1785000D03*
G01*
X3080000Y-1550000D03*
G01*
X3110000Y-1675000D03*
G01*
X3005000Y-1685000D03*
G01*
X2880000Y-1400000D03*
G01*
X2185000Y-1525000D03*
G01*
X2030000Y-1800000D03*
G01*
X2030000Y-1855000D03*
G01*
X2030000Y-1905000D03*
G01*
X1725000Y-1915000D03*
G01*
X1900000Y-1585000D03*
G01*
X1510000Y-1635000D03*
G01*
X1395000Y-1915000D03*
G01*
X1230000Y-1530000D03*
G01*
X1080000Y-1905000D03*
G01*
X1080000Y-1855000D03*
G01*
X1080000Y-1805000D03*
G01*
X1400000Y-1515000D03*
G01*
X1520000Y-1475000D03*
G01*
X1195000Y-1810000D03*
G01*
X2380000Y-290000D03*
G01*
X2145000Y-490000D03*
G01*
X510000Y-615000D03*
G01*
X595000Y-420000D03*
G01*
X595000Y-175000D03*
G01*
X495000Y-180000D03*
G01*
X335000Y-70000D03*
G01*
X335000Y-105000D03*
G01*
X550000Y-65000D03*
G01*
X260000Y-160000D03*
G01*
X130000Y-305000D03*
G01*
X125000Y-375000D03*
G01*
X140000Y-525000D03*
G01*
X345000Y-600000D03*
G01*
X535000Y-650000D03*
G01*
X400000Y-280000D03*
G01*
X512629Y-429569D03*
G01*
X3305000Y-1630000D03*
G01*
X3925000Y-1625000D03*
G01*
X3945000Y-1750000D03*
G01*
X3960000Y-1895000D03*
G01*
X3925000Y-1525000D03*
G01*
X3420000Y-2180000D03*
G01*
X3885000Y-2200000D03*
G01*
X3745000Y-2195000D03*
G01*
X3702370Y-1950079D03*
G01*
X3485000Y-2140000D03*
G01*
X3265000Y-2110000D03*
G01*
X3405000Y-2150000D03*
G01*
X3410000Y-2115000D03*
G01*
X3760000Y-2025000D03*
G01*
X1865000Y-650000D03*
G01*
X2465000Y-680000D03*
G01*
X3565000Y-2185000D03*
G01*
X2145000Y-1795000D03*
G01*
X3025000Y-2130000D03*
G01*
X2965000Y-2170000D03*
G01*
X3131980Y-2086300D03*
G01*
X2815000Y-2165000D03*
G01*
X2955000Y-2135000D03*
G01*
X2725000Y-2125000D03*
G01*
X2470000Y-2095000D03*
G01*
X2745000Y-1965000D03*
G01*
X2565000Y-1910000D03*
G01*
X2140000Y-1905000D03*
D17*
G01*
X1940000Y-200000D03*
G01*
X875000Y-1670000D03*
G01*
X890000Y-1595000D03*
G01*
X890000Y-1875000D03*
G01*
X1370000Y-1635000D03*
G01*
X1590000Y-1480000D03*
G01*
X1300000Y-1845000D03*
G01*
X1165000Y-1700000D03*
G01*
X2165000Y-1725000D03*
G01*
X2225000Y-1635000D03*
G01*
X1930000Y-1850000D03*
G01*
X1930000Y-1800000D03*
G01*
X1795000Y-1575000D03*
G01*
X1750000Y-1570000D03*
G01*
X1780000Y-1415000D03*
G01*
X1625000Y-1485000D03*
G01*
X1490000Y-1715000D03*
G01*
X1390000Y-1840000D03*
G01*
X1495000Y-1915000D03*
G01*
X1500000Y-1775000D03*
G01*
X1635000Y-1590000D03*
G01*
X1725000Y-1815000D03*
G01*
X1725000Y-1750000D03*
G01*
X1725000Y-1865000D03*
G01*
X1825000Y-1775000D03*
G01*
X1825000Y-1665000D03*
G01*
X1825000Y-1715000D03*
G01*
X1190000Y-1770000D03*
G01*
X1195000Y-1725000D03*
G01*
X1340339Y-1550000D03*
G01*
X1460000Y-1515000D03*
G01*
X3650000Y15000D03*
G01*
X3525000Y-25000D03*
G01*
X3760000Y170000D03*
G01*
X3580000Y190000D03*
G01*
X3585000Y120000D03*
G01*
X3885000Y90000D03*
G01*
X3605680Y-257010D03*
G01*
X3670000Y-155000D03*
G01*
X3350000Y-135000D03*
G01*
X1820000Y-1915000D03*
D18*
G01*
X870000Y-990000D03*
G01*
X935000Y-1160000D03*
D19*
G01*
X685000Y-960000D03*
D18*
G01*
X475000Y-800000D03*
G01*
X810000Y-1025000D03*
D19*
G01*
X878530Y-1309899D03*
G01*
X875000Y-1420000D03*
G01*
X340000Y-1335000D03*
G01*
X845000Y-1805000D03*
G01*
X840000Y-1770000D03*
G01*
X600000Y-1205000D03*
G01*
X1080540Y-210000D03*
G01*
X1080000Y-255000D03*
G01*
X680000Y-1860000D03*
G01*
X725000Y-1950000D03*
G01*
X845000Y-1955000D03*
G01*
X640000Y-1855000D03*
G01*
X640000Y-1905000D03*
G01*
X640000Y-1955000D03*
G01*
X640000Y-1605000D03*
G01*
X195000Y85000D03*
G01*
X290000Y85000D03*
G01*
X185000Y-35000D03*
G01*
X190000Y20000D03*
G01*
X265000Y-35000D03*
G01*
X190000Y-1215000D03*
G01*
X240000Y-1215000D03*
G01*
X700000Y-1205000D03*
G01*
X650000Y-1205000D03*
G01*
X445000Y-1430000D03*
G01*
X145000Y-1760000D03*
G01*
X190000Y-1655000D03*
G01*
X520000Y-1820000D03*
G01*
X655000Y35000D03*
G01*
X1060000Y205000D03*
G01*
X1065000Y50000D03*
G01*
X610000Y140000D03*
G01*
X360000Y-1425000D03*
G01*
X315000Y-1415000D03*
G01*
X335000Y-1180000D03*
G01*
X335000Y-1145000D03*
G01*
X445000Y-1205000D03*
G01*
X960000Y-1275000D03*
G01*
X820000Y-1170000D03*
G01*
X965000Y-1235000D03*
G01*
X475000Y-1315000D03*
G01*
X600000Y-1415000D03*
G01*
X645000Y-1380000D03*
G01*
X600000Y-1530000D03*
G01*
X340000Y-1560000D03*
G01*
X290000Y-1560000D03*
G01*
X280000Y-1435000D03*
G01*
X240000Y-1430000D03*
G01*
X190000Y-1545000D03*
G01*
X150000Y-1380000D03*
G01*
X845000Y-1735000D03*
G01*
X540000Y-1520000D03*
G01*
X560000Y-1480000D03*
G01*
X800000Y-1525000D03*
G01*
X840000Y-1420000D03*
G01*
X470000Y-1760000D03*
G01*
X315000Y-1720000D03*
G01*
X340000Y-1860000D03*
G01*
X290000Y-1860000D03*
G01*
X245000Y-1555000D03*
D17*
G01*
X790000Y-1570000D03*
G01*
X160000Y-1975000D03*
G01*
X625000Y-2020000D03*
G01*
X465000Y-2125000D03*
G01*
X605000Y-2125000D03*
G01*
X740000Y-2175000D03*
G01*
X675000Y-1930000D03*
G01*
X210000Y-1975000D03*
G01*
X725000Y-2015000D03*
G01*
X870000Y-2075000D03*
G01*
X145000Y-1860000D03*
G01*
X190000Y-1860000D03*
G01*
X240000Y-1860000D03*
G01*
X940000Y-2195000D03*
G01*
X310000Y-2185000D03*
G01*
X1015000Y-2060000D03*
G01*
X1110000Y-2200000D03*
G01*
X1230000Y-2195000D03*
G01*
X160000Y-2185000D03*
G01*
X1370000Y-2185000D03*
G01*
X975000Y-2125000D03*
G01*
X345000Y-2080000D03*
G01*
X2035000Y-1655000D03*
G01*
X1280000Y-1265000D03*
G01*
X3420000Y-1245000D03*
G01*
X3325000Y-610000D03*
D20*
G01*
X1849449Y-2151819D03*
D16*
G01*
X215000Y-2090000D03*
G01*
X1035000Y-1980000D03*
G01*
X3890000Y-595000D03*
G01*
X3860000Y-515000D03*
G01*
X3895000Y-655000D03*
G01*
X551199Y-1984490D03*
G01*
X2435000Y-2130000D03*
G01*
X459589Y-618000D03*
G01*
X125000Y-235000D03*
G01*
X975000Y-795000D03*
G01*
X1020000Y-795000D03*
G01*
X1115000Y-1770000D03*
G01*
X1095000Y-1730000D03*
G01*
X2526890Y-1531289D03*
G01*
X2235000Y-1775000D03*
G01*
X3385000Y-540000D03*
G01*
X1159160Y-1605000D03*
D17*
G01*
X760000Y-1420000D03*
G01*
X1465000Y-1215000D03*
G01*
X1410000Y-1185000D03*
G01*
X1460000Y-1155000D03*
G01*
X1420000Y-1120000D03*
G01*
X1430000Y-1045000D03*
G01*
X1460000Y-1085000D03*
G01*
X1480000Y-1015000D03*
G01*
X1440000Y-985000D03*
G01*
X1250000Y-2050000D03*
G01*
X820000Y-2195000D03*
G01*
X1480000Y-950000D03*
G01*
X1700000Y-905000D03*
D18*
G01*
X715000Y-1730000D03*
D17*
G01*
X2755000Y-10000D03*
G01*
X3895000Y-1415000D03*
G01*
X3895000Y-1115000D03*
G01*
X3905000Y160000D03*
D41*
X3130000Y-735315D02*
G01*
X3130000Y-774684D01*
X3030000Y-735315D02*
G01*
X3030000Y-774684D01*
X2930000Y-735315D02*
G01*
X2930000Y-774684D01*
X2830000Y-735315D02*
G01*
X2830000Y-774684D01*
X2730000Y-735315D02*
G01*
X2730000Y-774684D01*
X2630000Y-735315D02*
G01*
X2630000Y-774684D01*
X2530000Y-735315D02*
G01*
X2530000Y-774684D01*
X2430000Y-735315D02*
G01*
X2430000Y-774684D01*
X2330000Y-735315D02*
G01*
X2330000Y-774684D01*
X2230000Y-735315D02*
G01*
X2230000Y-774684D01*
X2130000Y-735315D02*
G01*
X2130000Y-774684D01*
X2030000Y-735315D02*
G01*
X2030000Y-774684D01*
X1930000Y-735315D02*
G01*
X1930000Y-774684D01*
X1830000Y-735315D02*
G01*
X1830000Y-774684D01*
X1730000Y-735315D02*
G01*
X1730000Y-774684D01*
X1630000Y-735315D02*
G01*
X1630000Y-774684D01*
X1530000Y-735315D02*
G01*
X1530000Y-774684D01*
X1430000Y-735315D02*
G01*
X1430000Y-774684D01*
X1330000Y-735315D02*
G01*
X1330000Y-774684D01*
X1230000Y-735315D02*
G01*
X1230000Y-774684D01*
X3130000Y-1335315D02*
G01*
X3130000Y-1374684D01*
X3030000Y-1335315D02*
G01*
X3030000Y-1374684D01*
X2930000Y-1335315D02*
G01*
X2930000Y-1374684D01*
X2830000Y-1335315D02*
G01*
X2830000Y-1374684D01*
X2730000Y-1335315D02*
G01*
X2730000Y-1374684D01*
X2630000Y-1335315D02*
G01*
X2630000Y-1374684D01*
X2530000Y-1335315D02*
G01*
X2530000Y-1374684D01*
X2430000Y-1335315D02*
G01*
X2430000Y-1374684D01*
X2330000Y-1335315D02*
G01*
X2330000Y-1374684D01*
X2230000Y-1335315D02*
G01*
X2230000Y-1374684D01*
X2130000Y-1335315D02*
G01*
X2130000Y-1374684D01*
X2030000Y-1335315D02*
G01*
X2030000Y-1374684D01*
X1930000Y-1335315D02*
G01*
X1930000Y-1374684D01*
X1830000Y-1335315D02*
G01*
X1830000Y-1374684D01*
X1730000Y-1335315D02*
G01*
X1730000Y-1374684D01*
X1630000Y-1335315D02*
G01*
X1630000Y-1374684D01*
X1530000Y-1335315D02*
G01*
X1530000Y-1374684D01*
X1430000Y-1335315D02*
G01*
X1430000Y-1374684D01*
X1330000Y-1335315D02*
G01*
X1330000Y-1374684D01*
X1230000Y-1335315D02*
G01*
X1230000Y-1374684D01*
M02*
