G04 Layer: BottomSolderMaskLayer*
G04 EasyEDA v6.4.25, 2022-01-21T19:56:56+01:00*
G04 Gerber Generator version 0.2*
G04 Scale: 100 percent, Rotated: No, Reflected: No *
G04 Dimensions in inches *
G04 leading zeros omitted , absolute positions ,3 integer and 6 decimal *
%FSLAX36Y36*%
%MOIN*%

%ADD50C,0.0671*%
%ADD55C,0.0709*%
%ADD58C,0.0820*%
%ADD59C,0.0680*%
%ADD61C,0.0780*%
%ADD67C,0.0830*%
%ADD74C,0.0749*%

%LPD*%
D50*
X3130000Y-735315D02*
G01*
X3130000Y-774684D01*
X3030000Y-735315D02*
G01*
X3030000Y-774684D01*
X2930000Y-735315D02*
G01*
X2930000Y-774684D01*
X2830000Y-735315D02*
G01*
X2830000Y-774684D01*
X2730000Y-735315D02*
G01*
X2730000Y-774684D01*
X2630000Y-735315D02*
G01*
X2630000Y-774684D01*
X2530000Y-735315D02*
G01*
X2530000Y-774684D01*
X2430000Y-735315D02*
G01*
X2430000Y-774684D01*
X2330000Y-735315D02*
G01*
X2330000Y-774684D01*
X2230000Y-735315D02*
G01*
X2230000Y-774684D01*
X2130000Y-735315D02*
G01*
X2130000Y-774684D01*
X2030000Y-735315D02*
G01*
X2030000Y-774684D01*
X1930000Y-735315D02*
G01*
X1930000Y-774684D01*
X1830000Y-735315D02*
G01*
X1830000Y-774684D01*
X1730000Y-735315D02*
G01*
X1730000Y-774684D01*
X1630000Y-735315D02*
G01*
X1630000Y-774684D01*
X1530000Y-735315D02*
G01*
X1530000Y-774684D01*
X1430000Y-735315D02*
G01*
X1430000Y-774684D01*
X1330000Y-735315D02*
G01*
X1330000Y-774684D01*
X1230000Y-735315D02*
G01*
X1230000Y-774684D01*
X3130000Y-1335315D02*
G01*
X3130000Y-1374684D01*
X3030000Y-1335315D02*
G01*
X3030000Y-1374684D01*
X2930000Y-1335315D02*
G01*
X2930000Y-1374684D01*
X2830000Y-1335315D02*
G01*
X2830000Y-1374684D01*
X2730000Y-1335315D02*
G01*
X2730000Y-1374684D01*
X2630000Y-1335315D02*
G01*
X2630000Y-1374684D01*
X2530000Y-1335315D02*
G01*
X2530000Y-1374684D01*
X2430000Y-1335315D02*
G01*
X2430000Y-1374684D01*
X2330000Y-1335315D02*
G01*
X2330000Y-1374684D01*
X2230000Y-1335315D02*
G01*
X2230000Y-1374684D01*
X2130000Y-1335315D02*
G01*
X2130000Y-1374684D01*
X2030000Y-1335315D02*
G01*
X2030000Y-1374684D01*
X1930000Y-1335315D02*
G01*
X1930000Y-1374684D01*
X1830000Y-1335315D02*
G01*
X1830000Y-1374684D01*
X1730000Y-1335315D02*
G01*
X1730000Y-1374684D01*
X1630000Y-1335315D02*
G01*
X1630000Y-1374684D01*
X1530000Y-1335315D02*
G01*
X1530000Y-1374684D01*
X1430000Y-1335315D02*
G01*
X1430000Y-1374684D01*
X1330000Y-1335315D02*
G01*
X1330000Y-1374684D01*
X1230000Y-1335315D02*
G01*
X1230000Y-1374684D01*
G36*
X3874499Y-130500D02*
G01*
X3874499Y-59499D01*
X3945500Y-59499D01*
X3945500Y-130500D01*
G37*
D55*
G01*
X3910000Y-195000D03*
G01*
X3910000Y-295000D03*
G01*
X3910000Y-395000D03*
D58*
G01*
X726999Y209000D03*
G01*
X983000Y209000D03*
G01*
X726999Y30999D03*
G01*
X983000Y30999D03*
G01*
X326999Y209000D03*
G01*
X583000Y209000D03*
G01*
X326999Y30999D03*
G01*
X583000Y30999D03*
D59*
G01*
X2105000Y-2125000D03*
G01*
X2220000Y-2125000D03*
D61*
G01*
X750000Y-105000D03*
G01*
X850000Y-105000D03*
G01*
X950000Y-105000D03*
G01*
X1050000Y-105000D03*
G01*
X1150000Y-105000D03*
G01*
X1250000Y-105000D03*
G01*
X1350000Y-105000D03*
G01*
X1450000Y-105000D03*
G01*
X1550000Y-105000D03*
G01*
X1650000Y-105000D03*
G01*
X1800000Y-105000D03*
G01*
X1900000Y-105000D03*
G01*
X2000000Y-105000D03*
G01*
X2100000Y-105000D03*
G01*
X2200000Y-105000D03*
G01*
X2300000Y-105000D03*
G01*
X2400000Y-105000D03*
G01*
X2500000Y-105000D03*
G01*
X2700000Y-105000D03*
G01*
X2800000Y-105000D03*
G01*
X2900000Y-105000D03*
G01*
X3000000Y-105000D03*
G01*
X3100000Y-105000D03*
G01*
X3200000Y-105000D03*
G01*
X3300000Y-105000D03*
G01*
X3400000Y-105000D03*
G01*
X3800000Y-105000D03*
G01*
X3700000Y-105000D03*
G01*
X3800000Y-205000D03*
G01*
X3800000Y-305000D03*
G01*
X3700000Y-205000D03*
G01*
X3700000Y-305000D03*
G01*
X3700000Y-405000D03*
G01*
X3800000Y-405000D03*
G01*
X3800000Y-505000D03*
G01*
X3700000Y-505000D03*
G01*
X3700000Y-605000D03*
G01*
X3800000Y-605000D03*
G01*
X3700000Y-705000D03*
G01*
X3800000Y-705000D03*
G01*
X3700000Y-805000D03*
G01*
X3800000Y-805000D03*
G01*
X3700000Y-905000D03*
G01*
X3800000Y-905000D03*
G01*
X3700000Y-1005000D03*
G01*
X3800000Y-1005000D03*
G01*
X3700000Y-1105000D03*
G01*
X3800000Y-1105000D03*
G01*
X3800000Y-1205000D03*
G01*
X3700000Y-1205000D03*
G01*
X3700000Y-1305000D03*
G01*
X3800000Y-1305000D03*
G01*
X3800000Y-1405000D03*
G01*
X3700000Y-1405000D03*
G01*
X3700000Y-1505000D03*
G01*
X3800000Y-1505000D03*
G01*
X3800000Y-1605000D03*
G01*
X3700000Y-1605000D03*
G01*
X3700000Y-1705000D03*
G01*
X3800000Y-1705000D03*
G01*
X3800000Y-1805000D03*
G01*
X3700000Y-1805000D03*
G01*
X3600000Y-2005000D03*
G01*
X3500000Y-2005000D03*
G01*
X3400000Y-2005000D03*
G01*
X3300000Y-2005000D03*
G01*
X3200000Y-2005000D03*
G01*
X3100000Y-2005000D03*
G01*
X3000000Y-2005000D03*
G01*
X2900000Y-2005000D03*
G01*
X2700000Y-2005000D03*
G01*
X2600000Y-2005000D03*
G01*
X2500000Y-2005000D03*
G01*
X2400000Y-2005000D03*
G01*
X2300000Y-2005000D03*
G01*
X2200000Y-2005000D03*
G01*
X2100000Y-2005000D03*
G01*
X2000000Y-2005000D03*
G01*
X1800000Y-2005000D03*
G01*
X1700000Y-2005000D03*
G01*
X1600000Y-2005000D03*
G01*
X1500000Y-2005000D03*
G01*
X1400000Y-2005000D03*
G01*
X1300000Y-2005000D03*
G01*
X1200000Y-2005000D03*
G01*
X1100000Y-2005000D03*
G36*
X315399Y-1098499D02*
G01*
X315399Y-1031500D01*
X382399Y-1031500D01*
X382399Y-1098499D01*
G37*
G36*
X177600Y-1098499D02*
G01*
X177600Y-1031500D01*
X244600Y-1031500D01*
X244600Y-1098499D01*
G37*
D67*
G01*
X530000Y-1065000D03*
G01*
X630000Y-1065000D03*
G36*
X2563500Y146300D02*
G01*
X2563500Y221199D01*
X2638400Y221199D01*
X2638400Y146300D01*
G37*
D74*
G01*
X2600950Y83780D03*
G01*
X2600950Y-16219D03*
G01*
X2600950Y-116219D03*
D58*
G01*
X3211999Y209000D03*
G01*
X3468000Y209000D03*
G01*
X3211999Y30999D03*
G01*
X3468000Y30999D03*
G01*
X2811999Y209000D03*
G01*
X3068000Y209000D03*
G01*
X2811999Y30999D03*
G01*
X3068000Y30999D03*
M02*
