G04 Layer: TopSolderMaskLayer*
G04 EasyEDA v6.4.25, 2022-01-21T19:56:56+01:00*
G04 Gerber Generator version 0.2*
G04 Scale: 100 percent, Rotated: No, Reflected: No *
G04 Dimensions in inches *
G04 leading zeros omitted , absolute positions ,3 integer and 6 decimal *
%FSLAX36Y36*%
%MOIN*%

%ADD50C,0.0671*%
%ADD51C,0.0274*%
%ADD52C,0.0276*%
%ADD53C,0.0264*%
%ADD55C,0.0709*%
%ADD58C,0.0820*%
%ADD59C,0.0680*%
%ADD61C,0.0780*%
%ADD67C,0.0830*%
%ADD74C,0.0749*%

%LPD*%
D50*
X3130000Y-735315D02*
G01*
X3130000Y-774684D01*
X3030000Y-735315D02*
G01*
X3030000Y-774684D01*
X2930000Y-735315D02*
G01*
X2930000Y-774684D01*
X2830000Y-735315D02*
G01*
X2830000Y-774684D01*
X2730000Y-735315D02*
G01*
X2730000Y-774684D01*
X2630000Y-735315D02*
G01*
X2630000Y-774684D01*
X2530000Y-735315D02*
G01*
X2530000Y-774684D01*
X2430000Y-735315D02*
G01*
X2430000Y-774684D01*
X2330000Y-735315D02*
G01*
X2330000Y-774684D01*
X2230000Y-735315D02*
G01*
X2230000Y-774684D01*
X2130000Y-735315D02*
G01*
X2130000Y-774684D01*
X2030000Y-735315D02*
G01*
X2030000Y-774684D01*
X1930000Y-735315D02*
G01*
X1930000Y-774684D01*
X1830000Y-735315D02*
G01*
X1830000Y-774684D01*
X1730000Y-735315D02*
G01*
X1730000Y-774684D01*
X1630000Y-735315D02*
G01*
X1630000Y-774684D01*
X1530000Y-735315D02*
G01*
X1530000Y-774684D01*
X1430000Y-735315D02*
G01*
X1430000Y-774684D01*
X1330000Y-735315D02*
G01*
X1330000Y-774684D01*
X1230000Y-735315D02*
G01*
X1230000Y-774684D01*
X3130000Y-1335315D02*
G01*
X3130000Y-1374684D01*
X3030000Y-1335315D02*
G01*
X3030000Y-1374684D01*
X2930000Y-1335315D02*
G01*
X2930000Y-1374684D01*
X2830000Y-1335315D02*
G01*
X2830000Y-1374684D01*
X2730000Y-1335315D02*
G01*
X2730000Y-1374684D01*
X2630000Y-1335315D02*
G01*
X2630000Y-1374684D01*
X2530000Y-1335315D02*
G01*
X2530000Y-1374684D01*
X2430000Y-1335315D02*
G01*
X2430000Y-1374684D01*
X2330000Y-1335315D02*
G01*
X2330000Y-1374684D01*
X2230000Y-1335315D02*
G01*
X2230000Y-1374684D01*
X2130000Y-1335315D02*
G01*
X2130000Y-1374684D01*
X2030000Y-1335315D02*
G01*
X2030000Y-1374684D01*
X1930000Y-1335315D02*
G01*
X1930000Y-1374684D01*
X1830000Y-1335315D02*
G01*
X1830000Y-1374684D01*
X1730000Y-1335315D02*
G01*
X1730000Y-1374684D01*
X1630000Y-1335315D02*
G01*
X1630000Y-1374684D01*
X1530000Y-1335315D02*
G01*
X1530000Y-1374684D01*
X1430000Y-1335315D02*
G01*
X1430000Y-1374684D01*
X1330000Y-1335315D02*
G01*
X1330000Y-1374684D01*
X1230000Y-1335315D02*
G01*
X1230000Y-1374684D01*
D51*
X1855612Y-495000D02*
G01*
X1909647Y-495000D01*
X1855612Y-445000D02*
G01*
X1909647Y-445000D01*
X1855612Y-395000D02*
G01*
X1909647Y-395000D01*
X1855612Y-345000D02*
G01*
X1909647Y-345000D01*
X1855612Y-295000D02*
G01*
X1909647Y-295000D01*
X1855612Y-245000D02*
G01*
X1909647Y-245000D01*
X1855612Y-195000D02*
G01*
X1909647Y-195000D01*
X1640352Y-495000D02*
G01*
X1694387Y-495000D01*
X1640352Y-445000D02*
G01*
X1694387Y-445000D01*
X1640352Y-395000D02*
G01*
X1694387Y-395000D01*
X1640352Y-345000D02*
G01*
X1694387Y-345000D01*
X1640352Y-295000D02*
G01*
X1694387Y-295000D01*
X1640352Y-245000D02*
G01*
X1694387Y-245000D01*
X1640352Y-195000D02*
G01*
X1694387Y-195000D01*
X1525612Y-495000D02*
G01*
X1579647Y-495000D01*
X1525612Y-445000D02*
G01*
X1579647Y-445000D01*
X1525612Y-395000D02*
G01*
X1579647Y-395000D01*
X1525612Y-345000D02*
G01*
X1579647Y-345000D01*
X1525612Y-295000D02*
G01*
X1579647Y-295000D01*
X1525612Y-245000D02*
G01*
X1579647Y-245000D01*
X1525612Y-195000D02*
G01*
X1579647Y-195000D01*
X1310352Y-495000D02*
G01*
X1364387Y-495000D01*
X1310352Y-445000D02*
G01*
X1364387Y-445000D01*
X1310352Y-395000D02*
G01*
X1364387Y-395000D01*
X1310352Y-345000D02*
G01*
X1364387Y-345000D01*
X1310352Y-295000D02*
G01*
X1364387Y-295000D01*
X1310352Y-245000D02*
G01*
X1364387Y-245000D01*
X1310352Y-195000D02*
G01*
X1364387Y-195000D01*
D52*
X1257055Y-560000D02*
G01*
X1217685Y-560000D01*
X1257055Y-510000D02*
G01*
X1217685Y-510000D01*
X1257055Y-460000D02*
G01*
X1217685Y-460000D01*
X1257055Y-410000D02*
G01*
X1217685Y-410000D01*
X1257055Y-360000D02*
G01*
X1217685Y-360000D01*
X1257055Y-310000D02*
G01*
X1217685Y-310000D01*
X1257055Y-260000D02*
G01*
X1217685Y-260000D01*
X1257055Y-210000D02*
G01*
X1217685Y-210000D01*
X1052325Y-560000D02*
G01*
X1012955Y-560000D01*
X1052325Y-510000D02*
G01*
X1012955Y-510000D01*
X1052325Y-460000D02*
G01*
X1012955Y-460000D01*
X1052325Y-410000D02*
G01*
X1012955Y-410000D01*
X1052325Y-360000D02*
G01*
X1012955Y-360000D01*
X1052325Y-310000D02*
G01*
X1012955Y-310000D01*
X1052325Y-260000D02*
G01*
X1012955Y-260000D01*
X1052325Y-210000D02*
G01*
X1012955Y-210000D01*
X2207055Y-560000D02*
G01*
X2167685Y-560000D01*
X2207055Y-510000D02*
G01*
X2167685Y-510000D01*
X2207055Y-460000D02*
G01*
X2167685Y-460000D01*
X2207055Y-410000D02*
G01*
X2167685Y-410000D01*
X2207055Y-360000D02*
G01*
X2167685Y-360000D01*
X2207055Y-310000D02*
G01*
X2167685Y-310000D01*
X2207055Y-260000D02*
G01*
X2167685Y-260000D01*
X2207055Y-210000D02*
G01*
X2167685Y-210000D01*
X2002325Y-560000D02*
G01*
X1962955Y-560000D01*
X2002325Y-510000D02*
G01*
X1962955Y-510000D01*
X2002325Y-460000D02*
G01*
X1962955Y-460000D01*
X2002325Y-410000D02*
G01*
X1962955Y-410000D01*
X2002325Y-360000D02*
G01*
X1962955Y-360000D01*
X2002325Y-310000D02*
G01*
X1962955Y-310000D01*
X2002325Y-260000D02*
G01*
X1962955Y-260000D01*
X2002325Y-210000D02*
G01*
X1962955Y-210000D01*
X3327955Y-1555000D02*
G01*
X3367325Y-1555000D01*
X3327955Y-1605000D02*
G01*
X3367325Y-1605000D01*
X3327955Y-1655000D02*
G01*
X3367325Y-1655000D01*
X3327955Y-1705000D02*
G01*
X3367325Y-1705000D01*
X3327955Y-1755000D02*
G01*
X3367325Y-1755000D01*
X3327955Y-1805000D02*
G01*
X3367325Y-1805000D01*
X3327955Y-1855000D02*
G01*
X3367325Y-1855000D01*
X3327955Y-1905000D02*
G01*
X3367325Y-1905000D01*
X3532685Y-1555000D02*
G01*
X3572055Y-1555000D01*
X3532685Y-1605000D02*
G01*
X3572055Y-1605000D01*
X3532685Y-1655000D02*
G01*
X3572055Y-1655000D01*
X3532685Y-1705000D02*
G01*
X3572055Y-1705000D01*
X3532685Y-1755000D02*
G01*
X3572055Y-1755000D01*
X3532685Y-1805000D02*
G01*
X3572055Y-1805000D01*
X3532685Y-1855000D02*
G01*
X3572055Y-1855000D01*
X3532685Y-1905000D02*
G01*
X3572055Y-1905000D01*
X2387955Y-1555000D02*
G01*
X2427325Y-1555000D01*
X2387955Y-1605000D02*
G01*
X2427325Y-1605000D01*
X2387955Y-1655000D02*
G01*
X2427325Y-1655000D01*
X2387955Y-1705000D02*
G01*
X2427325Y-1705000D01*
X2387955Y-1755000D02*
G01*
X2427325Y-1755000D01*
X2387955Y-1805000D02*
G01*
X2427325Y-1805000D01*
X2387955Y-1855000D02*
G01*
X2427325Y-1855000D01*
X2387955Y-1905000D02*
G01*
X2427325Y-1905000D01*
X2592685Y-1555000D02*
G01*
X2632055Y-1555000D01*
X2592685Y-1605000D02*
G01*
X2632055Y-1605000D01*
X2592685Y-1655000D02*
G01*
X2632055Y-1655000D01*
X2592685Y-1705000D02*
G01*
X2632055Y-1705000D01*
X2592685Y-1755000D02*
G01*
X2632055Y-1755000D01*
X2592685Y-1805000D02*
G01*
X2632055Y-1805000D01*
X2592685Y-1855000D02*
G01*
X2632055Y-1855000D01*
X2592685Y-1905000D02*
G01*
X2632055Y-1905000D01*
D51*
X3059387Y-1615000D02*
G01*
X3005352Y-1615000D01*
X3059387Y-1665000D02*
G01*
X3005352Y-1665000D01*
X3059387Y-1715000D02*
G01*
X3005352Y-1715000D01*
X3059387Y-1765000D02*
G01*
X3005352Y-1765000D01*
X3059387Y-1815000D02*
G01*
X3005352Y-1815000D01*
X3059387Y-1865000D02*
G01*
X3005352Y-1865000D01*
X3059387Y-1915000D02*
G01*
X3005352Y-1915000D01*
X3274647Y-1615000D02*
G01*
X3220612Y-1615000D01*
X3274647Y-1665000D02*
G01*
X3220612Y-1665000D01*
X3274647Y-1715000D02*
G01*
X3220612Y-1715000D01*
X3274647Y-1765000D02*
G01*
X3220612Y-1765000D01*
X3274647Y-1815000D02*
G01*
X3220612Y-1815000D01*
X3274647Y-1865000D02*
G01*
X3220612Y-1865000D01*
X3274647Y-1915000D02*
G01*
X3220612Y-1915000D01*
X2739387Y-1615000D02*
G01*
X2685352Y-1615000D01*
X2739387Y-1665000D02*
G01*
X2685352Y-1665000D01*
X2739387Y-1715000D02*
G01*
X2685352Y-1715000D01*
X2739387Y-1765000D02*
G01*
X2685352Y-1765000D01*
X2739387Y-1815000D02*
G01*
X2685352Y-1815000D01*
X2739387Y-1865000D02*
G01*
X2685352Y-1865000D01*
X2739387Y-1915000D02*
G01*
X2685352Y-1915000D01*
X2954647Y-1615000D02*
G01*
X2900612Y-1615000D01*
X2954647Y-1665000D02*
G01*
X2900612Y-1665000D01*
X2954647Y-1715000D02*
G01*
X2900612Y-1715000D01*
X2954647Y-1765000D02*
G01*
X2900612Y-1765000D01*
X2954647Y-1815000D02*
G01*
X2900612Y-1815000D01*
X2954647Y-1865000D02*
G01*
X2900612Y-1865000D01*
X2954647Y-1915000D02*
G01*
X2900612Y-1915000D01*
X1364387Y-1615000D02*
G01*
X1310352Y-1615000D01*
X1364387Y-1665000D02*
G01*
X1310352Y-1665000D01*
X1364387Y-1715000D02*
G01*
X1310352Y-1715000D01*
X1364387Y-1765000D02*
G01*
X1310352Y-1765000D01*
X1364387Y-1815000D02*
G01*
X1310352Y-1815000D01*
X1364387Y-1865000D02*
G01*
X1310352Y-1865000D01*
X1364387Y-1915000D02*
G01*
X1310352Y-1915000D01*
X1579647Y-1615000D02*
G01*
X1525612Y-1615000D01*
X1579647Y-1665000D02*
G01*
X1525612Y-1665000D01*
X1579647Y-1715000D02*
G01*
X1525612Y-1715000D01*
X1579647Y-1765000D02*
G01*
X1525612Y-1765000D01*
X1579647Y-1815000D02*
G01*
X1525612Y-1815000D01*
X1579647Y-1865000D02*
G01*
X1525612Y-1865000D01*
X1579647Y-1915000D02*
G01*
X1525612Y-1915000D01*
X1694387Y-1615000D02*
G01*
X1640352Y-1615000D01*
X1694387Y-1665000D02*
G01*
X1640352Y-1665000D01*
X1694387Y-1715000D02*
G01*
X1640352Y-1715000D01*
X1694387Y-1765000D02*
G01*
X1640352Y-1765000D01*
X1694387Y-1815000D02*
G01*
X1640352Y-1815000D01*
X1694387Y-1865000D02*
G01*
X1640352Y-1865000D01*
X1694387Y-1915000D02*
G01*
X1640352Y-1915000D01*
X1909647Y-1615000D02*
G01*
X1855612Y-1615000D01*
X1909647Y-1665000D02*
G01*
X1855612Y-1665000D01*
X1909647Y-1715000D02*
G01*
X1855612Y-1715000D01*
X1909647Y-1765000D02*
G01*
X1855612Y-1765000D01*
X1909647Y-1815000D02*
G01*
X1855612Y-1815000D01*
X1909647Y-1865000D02*
G01*
X1855612Y-1865000D01*
X1909647Y-1915000D02*
G01*
X1855612Y-1915000D01*
D52*
X1012955Y-1555000D02*
G01*
X1052325Y-1555000D01*
X1012955Y-1605000D02*
G01*
X1052325Y-1605000D01*
X1012955Y-1655000D02*
G01*
X1052325Y-1655000D01*
X1012955Y-1705000D02*
G01*
X1052325Y-1705000D01*
X1012955Y-1755000D02*
G01*
X1052325Y-1755000D01*
X1012955Y-1805000D02*
G01*
X1052325Y-1805000D01*
X1012955Y-1855000D02*
G01*
X1052325Y-1855000D01*
X1012955Y-1905000D02*
G01*
X1052325Y-1905000D01*
X1217685Y-1555000D02*
G01*
X1257055Y-1555000D01*
X1217685Y-1605000D02*
G01*
X1257055Y-1605000D01*
X1217685Y-1655000D02*
G01*
X1257055Y-1655000D01*
X1217685Y-1705000D02*
G01*
X1257055Y-1705000D01*
X1217685Y-1755000D02*
G01*
X1257055Y-1755000D01*
X1217685Y-1805000D02*
G01*
X1257055Y-1805000D01*
X1217685Y-1855000D02*
G01*
X1257055Y-1855000D01*
X1217685Y-1905000D02*
G01*
X1257055Y-1905000D01*
X1962955Y-1555000D02*
G01*
X2002325Y-1555000D01*
X1962955Y-1605000D02*
G01*
X2002325Y-1605000D01*
X1962955Y-1655000D02*
G01*
X2002325Y-1655000D01*
X1962955Y-1705000D02*
G01*
X2002325Y-1705000D01*
X1962955Y-1755000D02*
G01*
X2002325Y-1755000D01*
X1962955Y-1805000D02*
G01*
X2002325Y-1805000D01*
X1962955Y-1855000D02*
G01*
X2002325Y-1855000D01*
X1962955Y-1905000D02*
G01*
X2002325Y-1905000D01*
X2167685Y-1555000D02*
G01*
X2207055Y-1555000D01*
X2167685Y-1605000D02*
G01*
X2207055Y-1605000D01*
X2167685Y-1655000D02*
G01*
X2207055Y-1655000D01*
X2167685Y-1705000D02*
G01*
X2207055Y-1705000D01*
X2167685Y-1755000D02*
G01*
X2207055Y-1755000D01*
X2167685Y-1805000D02*
G01*
X2207055Y-1805000D01*
X2167685Y-1855000D02*
G01*
X2207055Y-1855000D01*
X2167685Y-1905000D02*
G01*
X2207055Y-1905000D01*
X572955Y-1605000D02*
G01*
X612325Y-1605000D01*
X572955Y-1655000D02*
G01*
X612325Y-1655000D01*
X572955Y-1705000D02*
G01*
X612325Y-1705000D01*
X572955Y-1755000D02*
G01*
X612325Y-1755000D01*
X572955Y-1805000D02*
G01*
X612325Y-1805000D01*
X572955Y-1855000D02*
G01*
X612325Y-1855000D01*
X572955Y-1905000D02*
G01*
X612325Y-1905000D01*
X572955Y-1955000D02*
G01*
X612325Y-1955000D01*
X777685Y-1605000D02*
G01*
X817055Y-1605000D01*
X777685Y-1655000D02*
G01*
X817055Y-1655000D01*
X777685Y-1705000D02*
G01*
X817055Y-1705000D01*
X777685Y-1755000D02*
G01*
X817055Y-1755000D01*
X777685Y-1805000D02*
G01*
X817055Y-1805000D01*
X777685Y-1855000D02*
G01*
X817055Y-1855000D01*
X777685Y-1905000D02*
G01*
X817055Y-1905000D01*
X777685Y-1955000D02*
G01*
X817055Y-1955000D01*
X490000Y-1587955D02*
G01*
X490000Y-1627325D01*
X440000Y-1587955D02*
G01*
X440000Y-1627325D01*
X390000Y-1587955D02*
G01*
X390000Y-1627325D01*
X340000Y-1587955D02*
G01*
X340000Y-1627325D01*
X290000Y-1587955D02*
G01*
X290000Y-1627325D01*
X240000Y-1587955D02*
G01*
X240000Y-1627325D01*
X190000Y-1587955D02*
G01*
X190000Y-1627325D01*
X140000Y-1587955D02*
G01*
X140000Y-1627325D01*
X490000Y-1792685D02*
G01*
X490000Y-1832055D01*
X440000Y-1792685D02*
G01*
X440000Y-1832055D01*
X390000Y-1792685D02*
G01*
X390000Y-1832055D01*
X340000Y-1792685D02*
G01*
X340000Y-1832055D01*
X290000Y-1792685D02*
G01*
X290000Y-1832055D01*
X240000Y-1792685D02*
G01*
X240000Y-1832055D01*
X190000Y-1792685D02*
G01*
X190000Y-1832055D01*
X140000Y-1792685D02*
G01*
X140000Y-1832055D01*
D51*
X440000Y-1299387D02*
G01*
X440000Y-1245351D01*
X390000Y-1299387D02*
G01*
X390000Y-1245351D01*
X340000Y-1299387D02*
G01*
X340000Y-1245351D01*
X290000Y-1299387D02*
G01*
X290000Y-1245351D01*
X240000Y-1299387D02*
G01*
X240000Y-1245351D01*
X190000Y-1299387D02*
G01*
X190000Y-1245351D01*
X140000Y-1299387D02*
G01*
X140000Y-1245351D01*
X440000Y-1514648D02*
G01*
X440000Y-1460612D01*
X390000Y-1514648D02*
G01*
X390000Y-1460612D01*
X340000Y-1514648D02*
G01*
X340000Y-1460612D01*
X290000Y-1514648D02*
G01*
X290000Y-1460612D01*
X240000Y-1514648D02*
G01*
X240000Y-1460612D01*
X190000Y-1514648D02*
G01*
X190000Y-1460612D01*
X140000Y-1514648D02*
G01*
X140000Y-1460612D01*
X900000Y-1284387D02*
G01*
X900000Y-1230351D01*
X850000Y-1284387D02*
G01*
X850000Y-1230351D01*
X800000Y-1284387D02*
G01*
X800000Y-1230351D01*
X750000Y-1284387D02*
G01*
X750000Y-1230351D01*
X700000Y-1284387D02*
G01*
X700000Y-1230351D01*
X650000Y-1284387D02*
G01*
X650000Y-1230351D01*
X600000Y-1284387D02*
G01*
X600000Y-1230351D01*
X900000Y-1499648D02*
G01*
X900000Y-1445612D01*
X850000Y-1499648D02*
G01*
X850000Y-1445612D01*
X800000Y-1499648D02*
G01*
X800000Y-1445612D01*
X750000Y-1499648D02*
G01*
X750000Y-1445612D01*
X700000Y-1499648D02*
G01*
X700000Y-1445612D01*
X650000Y-1499648D02*
G01*
X650000Y-1445612D01*
X600000Y-1499648D02*
G01*
X600000Y-1445612D01*
X2900612Y-495000D02*
G01*
X2954647Y-495000D01*
X2900612Y-445000D02*
G01*
X2954647Y-445000D01*
X2900612Y-395000D02*
G01*
X2954647Y-395000D01*
X2900612Y-345000D02*
G01*
X2954647Y-345000D01*
X2900612Y-295000D02*
G01*
X2954647Y-295000D01*
X2900612Y-245000D02*
G01*
X2954647Y-245000D01*
X2900612Y-195000D02*
G01*
X2954647Y-195000D01*
X2685352Y-495000D02*
G01*
X2739387Y-495000D01*
X2685352Y-445000D02*
G01*
X2739387Y-445000D01*
X2685352Y-395000D02*
G01*
X2739387Y-395000D01*
X2685352Y-345000D02*
G01*
X2739387Y-345000D01*
X2685352Y-295000D02*
G01*
X2739387Y-295000D01*
X2685352Y-245000D02*
G01*
X2739387Y-245000D01*
X2685352Y-195000D02*
G01*
X2739387Y-195000D01*
X3220612Y-495000D02*
G01*
X3274647Y-495000D01*
X3220612Y-445000D02*
G01*
X3274647Y-445000D01*
X3220612Y-395000D02*
G01*
X3274647Y-395000D01*
X3220612Y-345000D02*
G01*
X3274647Y-345000D01*
X3220612Y-295000D02*
G01*
X3274647Y-295000D01*
X3220612Y-245000D02*
G01*
X3274647Y-245000D01*
X3220612Y-195000D02*
G01*
X3274647Y-195000D01*
X3005352Y-495000D02*
G01*
X3059387Y-495000D01*
X3005352Y-445000D02*
G01*
X3059387Y-445000D01*
X3005352Y-395000D02*
G01*
X3059387Y-395000D01*
X3005352Y-345000D02*
G01*
X3059387Y-345000D01*
X3005352Y-295000D02*
G01*
X3059387Y-295000D01*
X3005352Y-245000D02*
G01*
X3059387Y-245000D01*
X3005352Y-195000D02*
G01*
X3059387Y-195000D01*
D52*
X3572055Y-560000D02*
G01*
X3532685Y-560000D01*
X3572055Y-510000D02*
G01*
X3532685Y-510000D01*
X3572055Y-460000D02*
G01*
X3532685Y-460000D01*
X3572055Y-410000D02*
G01*
X3532685Y-410000D01*
X3572055Y-360000D02*
G01*
X3532685Y-360000D01*
X3572055Y-310000D02*
G01*
X3532685Y-310000D01*
X3572055Y-260000D02*
G01*
X3532685Y-260000D01*
X3572055Y-210000D02*
G01*
X3532685Y-210000D01*
X3367325Y-560000D02*
G01*
X3327955Y-560000D01*
X3367325Y-510000D02*
G01*
X3327955Y-510000D01*
X3367325Y-460000D02*
G01*
X3327955Y-460000D01*
X3367325Y-410000D02*
G01*
X3327955Y-410000D01*
X3367325Y-360000D02*
G01*
X3327955Y-360000D01*
X3367325Y-310000D02*
G01*
X3327955Y-310000D01*
X3367325Y-260000D02*
G01*
X3327955Y-260000D01*
X3367325Y-210000D02*
G01*
X3327955Y-210000D01*
X2632055Y-560000D02*
G01*
X2592685Y-560000D01*
X2632055Y-510000D02*
G01*
X2592685Y-510000D01*
X2632055Y-460000D02*
G01*
X2592685Y-460000D01*
X2632055Y-410000D02*
G01*
X2592685Y-410000D01*
X2632055Y-360000D02*
G01*
X2592685Y-360000D01*
X2632055Y-310000D02*
G01*
X2592685Y-310000D01*
X2632055Y-260000D02*
G01*
X2592685Y-260000D01*
X2632055Y-210000D02*
G01*
X2592685Y-210000D01*
X2427325Y-560000D02*
G01*
X2387955Y-560000D01*
X2427325Y-510000D02*
G01*
X2387955Y-510000D01*
X2427325Y-460000D02*
G01*
X2387955Y-460000D01*
X2427325Y-410000D02*
G01*
X2387955Y-410000D01*
X2427325Y-360000D02*
G01*
X2387955Y-360000D01*
X2427325Y-310000D02*
G01*
X2387955Y-310000D01*
X2427325Y-260000D02*
G01*
X2387955Y-260000D01*
X2427325Y-210000D02*
G01*
X2387955Y-210000D01*
D53*
X430700Y-750000D02*
G01*
X376298Y-750000D01*
X430700Y-800000D02*
G01*
X376298Y-800000D01*
X430700Y-850000D02*
G01*
X376298Y-850000D01*
X430700Y-900000D02*
G01*
X376298Y-900000D01*
X643701Y-750000D02*
G01*
X589299Y-750000D01*
X643701Y-800000D02*
G01*
X589299Y-800000D01*
X643701Y-850000D02*
G01*
X589299Y-850000D01*
X643701Y-900000D02*
G01*
X589299Y-900000D01*
D51*
X324387Y-205000D02*
G01*
X270351Y-205000D01*
X324387Y-255000D02*
G01*
X270351Y-255000D01*
X324387Y-305000D02*
G01*
X270351Y-305000D01*
X324387Y-355000D02*
G01*
X270351Y-355000D01*
X324387Y-405000D02*
G01*
X270351Y-405000D01*
X324387Y-455000D02*
G01*
X270351Y-455000D01*
X324387Y-505000D02*
G01*
X270351Y-505000D01*
X539648Y-205000D02*
G01*
X485612Y-205000D01*
X539648Y-255000D02*
G01*
X485612Y-255000D01*
X539648Y-305000D02*
G01*
X485612Y-305000D01*
X539648Y-355000D02*
G01*
X485612Y-355000D01*
X539648Y-405000D02*
G01*
X485612Y-405000D01*
X539648Y-455000D02*
G01*
X485612Y-455000D01*
X539648Y-505000D02*
G01*
X485612Y-505000D01*
X440000Y-1949387D02*
G01*
X440000Y-1895351D01*
X390000Y-1949387D02*
G01*
X390000Y-1895351D01*
X340000Y-1949387D02*
G01*
X340000Y-1895351D01*
X290000Y-1949387D02*
G01*
X290000Y-1895351D01*
X240000Y-1949387D02*
G01*
X240000Y-1895351D01*
X190000Y-1949387D02*
G01*
X190000Y-1895351D01*
X140000Y-1949387D02*
G01*
X140000Y-1895351D01*
X440000Y-2164648D02*
G01*
X440000Y-2110612D01*
X390000Y-2164648D02*
G01*
X390000Y-2110612D01*
X340000Y-2164648D02*
G01*
X340000Y-2110612D01*
X290000Y-2164648D02*
G01*
X290000Y-2110612D01*
X240000Y-2164648D02*
G01*
X240000Y-2110612D01*
X190000Y-2164648D02*
G01*
X190000Y-2110612D01*
X140000Y-2164648D02*
G01*
X140000Y-2110612D01*
X3729387Y-1875000D02*
G01*
X3675352Y-1875000D01*
X3729387Y-1925000D02*
G01*
X3675352Y-1925000D01*
X3729387Y-1975000D02*
G01*
X3675352Y-1975000D01*
X3729387Y-2025000D02*
G01*
X3675352Y-2025000D01*
X3729387Y-2075000D02*
G01*
X3675352Y-2075000D01*
X3729387Y-2125000D02*
G01*
X3675352Y-2125000D01*
X3729387Y-2175000D02*
G01*
X3675352Y-2175000D01*
X3944647Y-1875000D02*
G01*
X3890612Y-1875000D01*
X3944647Y-1925000D02*
G01*
X3890612Y-1925000D01*
X3944647Y-1975000D02*
G01*
X3890612Y-1975000D01*
X3944647Y-2025000D02*
G01*
X3890612Y-2025000D01*
X3944647Y-2075000D02*
G01*
X3890612Y-2075000D01*
X3944647Y-2125000D02*
G01*
X3890612Y-2125000D01*
X3944647Y-2175000D02*
G01*
X3890612Y-2175000D01*
G36*
X3874499Y-130500D02*
G01*
X3874499Y-59499D01*
X3945500Y-59499D01*
X3945500Y-130500D01*
G37*
D55*
G01*
X3910000Y-195000D03*
G01*
X3910000Y-295000D03*
G01*
X3910000Y-395000D03*
G36*
X3877299Y-1396199D02*
G01*
X3877299Y-1360799D01*
X3912700Y-1360799D01*
X3912700Y-1396199D01*
G37*
G36*
X3877299Y-1329200D02*
G01*
X3877299Y-1293800D01*
X3912700Y-1293800D01*
X3912700Y-1329200D01*
G37*
G36*
X3877299Y-1034200D02*
G01*
X3877299Y-998800D01*
X3912700Y-998800D01*
X3912700Y-1034200D01*
G37*
G36*
X3877299Y-1101199D02*
G01*
X3877299Y-1065799D01*
X3912700Y-1065799D01*
X3912700Y-1101199D01*
G37*
G36*
X2697299Y108800D02*
G01*
X2697299Y144200D01*
X2732700Y144200D01*
X2732700Y108800D01*
G37*
G36*
X2697299Y175799D02*
G01*
X2697299Y211199D01*
X2732700Y211199D01*
X2732700Y175799D01*
G37*
G36*
X2696000Y-32500D02*
G01*
X2696000Y3200D01*
X2733999Y3200D01*
X2733999Y-32500D01*
G37*
G36*
X2696000Y26799D02*
G01*
X2696000Y62500D01*
X2733999Y62500D01*
X2733999Y26799D01*
G37*
G36*
X3876000Y-893200D02*
G01*
X3876000Y-857500D01*
X3913999Y-857500D01*
X3913999Y-893200D01*
G37*
G36*
X3876000Y-952500D02*
G01*
X3876000Y-916799D01*
X3913999Y-916799D01*
X3913999Y-952500D01*
G37*
G36*
X3876000Y-1188200D02*
G01*
X3876000Y-1152500D01*
X3913999Y-1152500D01*
X3913999Y-1188200D01*
G37*
G36*
X3876000Y-1247500D02*
G01*
X3876000Y-1211799D01*
X3913999Y-1211799D01*
X3913999Y-1247500D01*
G37*
D58*
G01*
X726999Y209000D03*
G01*
X983000Y209000D03*
G01*
X726999Y30999D03*
G01*
X983000Y30999D03*
G01*
X326999Y209000D03*
G01*
X583000Y209000D03*
G01*
X326999Y30999D03*
G01*
X583000Y30999D03*
D59*
G01*
X2105000Y-2125000D03*
G01*
X2220000Y-2125000D03*
G36*
X3907799Y-708200D02*
G01*
X3907799Y-676599D01*
X3961000Y-676599D01*
X3961000Y-708200D01*
G37*
G36*
X3907799Y-633400D02*
G01*
X3907799Y-601799D01*
X3961000Y-601799D01*
X3961000Y-633400D01*
G37*
G36*
X3828999Y-670799D02*
G01*
X3828999Y-639200D01*
X3882200Y-639200D01*
X3882200Y-670799D01*
G37*
G36*
X3876000Y-773200D02*
G01*
X3876000Y-737500D01*
X3913999Y-737500D01*
X3913999Y-773200D01*
G37*
G36*
X3876000Y-832500D02*
G01*
X3876000Y-796799D01*
X3913999Y-796799D01*
X3913999Y-832500D01*
G37*
G36*
X3871000Y-508200D02*
G01*
X3871000Y-472500D01*
X3908999Y-472500D01*
X3908999Y-508200D01*
G37*
G36*
X3871000Y-567500D02*
G01*
X3871000Y-531799D01*
X3908999Y-531799D01*
X3908999Y-567500D01*
G37*
D61*
G01*
X750000Y-105000D03*
G01*
X850000Y-105000D03*
G01*
X950000Y-105000D03*
G01*
X1050000Y-105000D03*
G01*
X1150000Y-105000D03*
G01*
X1250000Y-105000D03*
G01*
X1350000Y-105000D03*
G01*
X1450000Y-105000D03*
G01*
X1550000Y-105000D03*
G01*
X1650000Y-105000D03*
G01*
X1800000Y-105000D03*
G01*
X1900000Y-105000D03*
G01*
X2000000Y-105000D03*
G01*
X2100000Y-105000D03*
G01*
X2200000Y-105000D03*
G01*
X2300000Y-105000D03*
G01*
X2400000Y-105000D03*
G01*
X2500000Y-105000D03*
G01*
X2700000Y-105000D03*
G01*
X2800000Y-105000D03*
G01*
X2900000Y-105000D03*
G01*
X3000000Y-105000D03*
G01*
X3100000Y-105000D03*
G01*
X3200000Y-105000D03*
G01*
X3300000Y-105000D03*
G01*
X3400000Y-105000D03*
G01*
X3800000Y-105000D03*
G01*
X3700000Y-105000D03*
G01*
X3800000Y-205000D03*
G01*
X3800000Y-305000D03*
G01*
X3700000Y-205000D03*
G01*
X3700000Y-305000D03*
G01*
X3700000Y-405000D03*
G01*
X3800000Y-405000D03*
G01*
X3800000Y-505000D03*
G01*
X3700000Y-505000D03*
G01*
X3700000Y-605000D03*
G01*
X3800000Y-605000D03*
G01*
X3700000Y-705000D03*
G01*
X3800000Y-705000D03*
G01*
X3700000Y-805000D03*
G01*
X3800000Y-805000D03*
G01*
X3700000Y-905000D03*
G01*
X3800000Y-905000D03*
G01*
X3700000Y-1005000D03*
G01*
X3800000Y-1005000D03*
G01*
X3700000Y-1105000D03*
G01*
X3800000Y-1105000D03*
G01*
X3800000Y-1205000D03*
G01*
X3700000Y-1205000D03*
G01*
X3700000Y-1305000D03*
G01*
X3800000Y-1305000D03*
G01*
X3800000Y-1405000D03*
G01*
X3700000Y-1405000D03*
G01*
X3700000Y-1505000D03*
G01*
X3800000Y-1505000D03*
G01*
X3800000Y-1605000D03*
G01*
X3700000Y-1605000D03*
G01*
X3700000Y-1705000D03*
G01*
X3800000Y-1705000D03*
G01*
X3800000Y-1805000D03*
G01*
X3700000Y-1805000D03*
G01*
X3600000Y-2005000D03*
G01*
X3500000Y-2005000D03*
G01*
X3400000Y-2005000D03*
G01*
X3300000Y-2005000D03*
G01*
X3200000Y-2005000D03*
G01*
X3100000Y-2005000D03*
G01*
X3000000Y-2005000D03*
G01*
X2900000Y-2005000D03*
G01*
X2700000Y-2005000D03*
G01*
X2600000Y-2005000D03*
G01*
X2500000Y-2005000D03*
G01*
X2400000Y-2005000D03*
G01*
X2300000Y-2005000D03*
G01*
X2200000Y-2005000D03*
G01*
X2100000Y-2005000D03*
G01*
X2000000Y-2005000D03*
G01*
X1800000Y-2005000D03*
G01*
X1700000Y-2005000D03*
G01*
X1600000Y-2005000D03*
G01*
X1500000Y-2005000D03*
G01*
X1400000Y-2005000D03*
G01*
X1300000Y-2005000D03*
G01*
X1200000Y-2005000D03*
G01*
X1100000Y-2005000D03*
G36*
X117199Y-151799D02*
G01*
X117199Y-118200D01*
X160500Y-118200D01*
X160500Y-151799D01*
G37*
G36*
X209499Y-151799D02*
G01*
X209499Y-118200D01*
X252800Y-118200D01*
X252800Y-151799D01*
G37*
G36*
X478200Y-575500D02*
G01*
X478200Y-532199D01*
X511799Y-532199D01*
X511799Y-575500D01*
G37*
G36*
X478200Y-667800D02*
G01*
X478200Y-624499D01*
X511799Y-624499D01*
X511799Y-667800D01*
G37*
G36*
X312800Y-653200D02*
G01*
X312800Y-621599D01*
X365999Y-621599D01*
X365999Y-653200D01*
G37*
G36*
X312800Y-578400D02*
G01*
X312800Y-546799D01*
X365999Y-546799D01*
X365999Y-578400D01*
G37*
G36*
X234000Y-615799D02*
G01*
X234000Y-584200D01*
X287199Y-584200D01*
X287199Y-615799D01*
G37*
G36*
X347800Y-158200D02*
G01*
X347800Y-126599D01*
X400999Y-126599D01*
X400999Y-158200D01*
G37*
G36*
X347800Y-83400D02*
G01*
X347800Y-51799D01*
X400999Y-51799D01*
X400999Y-83400D01*
G37*
G36*
X269000Y-120799D02*
G01*
X269000Y-89200D01*
X322199Y-89200D01*
X322199Y-120799D01*
G37*
G36*
X3611599Y-82199D02*
G01*
X3611599Y-29000D01*
X3643199Y-29000D01*
X3643199Y-82199D01*
G37*
G36*
X3536800Y-82199D02*
G01*
X3536800Y-29000D01*
X3568400Y-29000D01*
X3568400Y-82199D01*
G37*
G36*
X3574200Y-160999D02*
G01*
X3574200Y-107800D01*
X3605799Y-107800D01*
X3605799Y-160999D01*
G37*
G36*
X3661800Y94000D02*
G01*
X3661800Y147199D01*
X3693400Y147199D01*
X3693400Y94000D01*
G37*
G36*
X3736599Y94000D02*
G01*
X3736599Y147199D01*
X3768199Y147199D01*
X3768199Y94000D01*
G37*
G36*
X3699200Y172800D02*
G01*
X3699200Y225999D01*
X3730799Y225999D01*
X3730799Y172800D01*
G37*
G36*
X3786800Y19000D02*
G01*
X3786800Y72199D01*
X3818400Y72199D01*
X3818400Y19000D01*
G37*
G36*
X3861599Y19000D02*
G01*
X3861599Y72199D01*
X3893199Y72199D01*
X3893199Y19000D01*
G37*
G36*
X3824200Y97800D02*
G01*
X3824200Y150999D01*
X3855799Y150999D01*
X3855799Y97800D01*
G37*
G36*
X201599Y-507199D02*
G01*
X201599Y-454000D01*
X233200Y-454000D01*
X233200Y-507199D01*
G37*
G36*
X126799Y-507199D02*
G01*
X126799Y-454000D01*
X158400Y-454000D01*
X158400Y-507199D01*
G37*
G36*
X164200Y-585999D02*
G01*
X164200Y-532800D01*
X195799Y-532800D01*
X195799Y-585999D01*
G37*
G36*
X562800Y-158200D02*
G01*
X562800Y-126599D01*
X615999Y-126599D01*
X615999Y-158200D01*
G37*
G36*
X562800Y-83400D02*
G01*
X562800Y-51799D01*
X615999Y-51799D01*
X615999Y-83400D01*
G37*
G36*
X484000Y-120799D02*
G01*
X484000Y-89200D01*
X537199Y-89200D01*
X537199Y-120799D01*
G37*
G36*
X3121800Y-2190999D02*
G01*
X3121800Y-2137800D01*
X3153400Y-2137800D01*
X3153400Y-2190999D01*
G37*
G36*
X3196599Y-2190999D02*
G01*
X3196599Y-2137800D01*
X3228199Y-2137800D01*
X3228199Y-2190999D01*
G37*
G36*
X3159200Y-2112199D02*
G01*
X3159200Y-2059000D01*
X3190799Y-2059000D01*
X3190799Y-2112199D01*
G37*
G36*
X2836800Y-2190999D02*
G01*
X2836800Y-2137800D01*
X2868400Y-2137800D01*
X2868400Y-2190999D01*
G37*
G36*
X2911599Y-2190999D02*
G01*
X2911599Y-2137800D01*
X2943199Y-2137800D01*
X2943199Y-2190999D01*
G37*
G36*
X2874200Y-2112199D02*
G01*
X2874200Y-2059000D01*
X2905799Y-2059000D01*
X2905799Y-2112199D01*
G37*
G36*
X186799Y-649000D02*
G01*
X186799Y-610999D01*
X222500Y-610999D01*
X222500Y-649000D01*
G37*
G36*
X127500Y-649000D02*
G01*
X127500Y-610999D01*
X163200Y-610999D01*
X163200Y-649000D01*
G37*
G36*
X137500Y-89000D02*
G01*
X137500Y-50999D01*
X173200Y-50999D01*
X173200Y-89000D01*
G37*
G36*
X196799Y-89000D02*
G01*
X196799Y-50999D01*
X232500Y-50999D01*
X232500Y-89000D01*
G37*
G36*
X420999Y-152500D02*
G01*
X420999Y-116799D01*
X459000Y-116799D01*
X459000Y-152500D01*
G37*
G36*
X420999Y-93200D02*
G01*
X420999Y-57500D01*
X459000Y-57500D01*
X459000Y-93200D01*
G37*
G36*
X2981000Y-2123200D02*
G01*
X2981000Y-2087500D01*
X3018999Y-2087500D01*
X3018999Y-2123200D01*
G37*
G36*
X2981000Y-2182500D02*
G01*
X2981000Y-2146799D01*
X3018999Y-2146799D01*
X3018999Y-2182500D01*
G37*
G36*
X3856800Y165999D02*
G01*
X3856800Y204000D01*
X3892500Y204000D01*
X3892500Y165999D01*
G37*
G36*
X3797500Y165999D02*
G01*
X3797500Y204000D01*
X3833199Y204000D01*
X3833199Y165999D01*
G37*
G36*
X3537500Y135999D02*
G01*
X3537500Y174000D01*
X3573199Y174000D01*
X3573199Y135999D01*
G37*
G36*
X3596800Y135999D02*
G01*
X3596800Y174000D01*
X3632500Y174000D01*
X3632500Y135999D01*
G37*
G36*
X3596800Y-4000D02*
G01*
X3596800Y34000D01*
X3632500Y34000D01*
X3632500Y-4000D01*
G37*
G36*
X3537500Y-4000D02*
G01*
X3537500Y34000D01*
X3573199Y34000D01*
X3573199Y-4000D01*
G37*
G36*
X3466000Y-147500D02*
G01*
X3466000Y-111799D01*
X3503999Y-111799D01*
X3503999Y-147500D01*
G37*
G36*
X3466000Y-88200D02*
G01*
X3466000Y-52500D01*
X3503999Y-52500D01*
X3503999Y-88200D01*
G37*
G36*
X3596800Y65999D02*
G01*
X3596800Y104000D01*
X3632500Y104000D01*
X3632500Y65999D01*
G37*
G36*
X3537500Y65999D02*
G01*
X3537500Y104000D01*
X3573199Y104000D01*
X3573199Y65999D01*
G37*
G36*
X3691000Y-37500D02*
G01*
X3691000Y-1799D01*
X3728999Y-1799D01*
X3728999Y-37500D01*
G37*
G36*
X3691000Y21799D02*
G01*
X3691000Y57500D01*
X3728999Y57500D01*
X3728999Y21799D01*
G37*
G36*
X575999Y-348200D02*
G01*
X575999Y-312500D01*
X614000Y-312500D01*
X614000Y-348200D01*
G37*
G36*
X575999Y-407500D02*
G01*
X575999Y-371799D01*
X614000Y-371799D01*
X614000Y-407500D01*
G37*
G36*
X196799Y-434000D02*
G01*
X196799Y-395999D01*
X232500Y-395999D01*
X232500Y-434000D01*
G37*
G36*
X137500Y-434000D02*
G01*
X137500Y-395999D01*
X173200Y-395999D01*
X173200Y-434000D01*
G37*
G36*
X575999Y-282500D02*
G01*
X575999Y-246799D01*
X614000Y-246799D01*
X614000Y-282500D01*
G37*
G36*
X575999Y-223200D02*
G01*
X575999Y-187500D01*
X614000Y-187500D01*
X614000Y-223200D01*
G37*
G36*
X196799Y-364000D02*
G01*
X196799Y-325999D01*
X232500Y-325999D01*
X232500Y-364000D01*
G37*
G36*
X137500Y-364000D02*
G01*
X137500Y-325999D01*
X173200Y-325999D01*
X173200Y-364000D01*
G37*
G36*
X575999Y-473200D02*
G01*
X575999Y-437500D01*
X614000Y-437500D01*
X614000Y-473200D01*
G37*
G36*
X575999Y-532500D02*
G01*
X575999Y-496799D01*
X614000Y-496799D01*
X614000Y-532500D01*
G37*
G36*
X3051000Y-2182500D02*
G01*
X3051000Y-2146799D01*
X3088999Y-2146799D01*
X3088999Y-2182500D01*
G37*
G36*
X3051000Y-2123200D02*
G01*
X3051000Y-2087500D01*
X3088999Y-2087500D01*
X3088999Y-2123200D01*
G37*
G36*
X2766000Y-2182500D02*
G01*
X2766000Y-2146799D01*
X2803999Y-2146799D01*
X2803999Y-2182500D01*
G37*
G36*
X2766000Y-2123200D02*
G01*
X2766000Y-2087500D01*
X2803999Y-2087500D01*
X2803999Y-2123200D01*
G37*
G36*
X2781000Y-2057500D02*
G01*
X2781000Y-2021799D01*
X2818999Y-2021799D01*
X2818999Y-2057500D01*
G37*
G36*
X2781000Y-1998200D02*
G01*
X2781000Y-1962500D01*
X2818999Y-1962500D01*
X2818999Y-1998200D01*
G37*
G36*
X2481000Y-2118200D02*
G01*
X2481000Y-2082500D01*
X2518999Y-2082500D01*
X2518999Y-2118200D01*
G37*
G36*
X2481000Y-2177500D02*
G01*
X2481000Y-2141799D01*
X2518999Y-2141799D01*
X2518999Y-2177500D01*
G37*
G36*
X2551000Y-2177500D02*
G01*
X2551000Y-2141799D01*
X2588999Y-2141799D01*
X2588999Y-2177500D01*
G37*
G36*
X2551000Y-2118200D02*
G01*
X2551000Y-2082500D01*
X2588999Y-2082500D01*
X2588999Y-2118200D01*
G37*
G36*
X872500Y-224000D02*
G01*
X872500Y-185999D01*
X908199Y-185999D01*
X908199Y-224000D01*
G37*
G36*
X931800Y-224000D02*
G01*
X931800Y-185999D01*
X967500Y-185999D01*
X967500Y-224000D01*
G37*
G36*
X1727500Y-584000D02*
G01*
X1727500Y-545999D01*
X1763199Y-545999D01*
X1763199Y-584000D01*
G37*
G36*
X1786800Y-584000D02*
G01*
X1786800Y-545999D01*
X1822500Y-545999D01*
X1822500Y-584000D01*
G37*
G36*
X1381800Y-584000D02*
G01*
X1381800Y-545999D01*
X1417500Y-545999D01*
X1417500Y-584000D01*
G37*
G36*
X1322500Y-584000D02*
G01*
X1322500Y-545999D01*
X1358199Y-545999D01*
X1358199Y-584000D01*
G37*
G36*
X872500Y-574000D02*
G01*
X872500Y-535999D01*
X908199Y-535999D01*
X908199Y-574000D01*
G37*
G36*
X931800Y-574000D02*
G01*
X931800Y-535999D01*
X967500Y-535999D01*
X967500Y-574000D01*
G37*
G36*
X872500Y-294000D02*
G01*
X872500Y-255999D01*
X908199Y-255999D01*
X908199Y-294000D01*
G37*
G36*
X931800Y-294000D02*
G01*
X931800Y-255999D01*
X967500Y-255999D01*
X967500Y-294000D01*
G37*
G36*
X872500Y-434000D02*
G01*
X872500Y-395999D01*
X908199Y-395999D01*
X908199Y-434000D01*
G37*
G36*
X931800Y-434000D02*
G01*
X931800Y-395999D01*
X967500Y-395999D01*
X967500Y-434000D01*
G37*
G36*
X2906800Y-1569000D02*
G01*
X2906800Y-1530999D01*
X2942500Y-1530999D01*
X2942500Y-1569000D01*
G37*
G36*
X2847500Y-1569000D02*
G01*
X2847500Y-1530999D01*
X2883199Y-1530999D01*
X2883199Y-1569000D01*
G37*
G36*
X3156800Y-1569000D02*
G01*
X3156800Y-1530999D01*
X3192500Y-1530999D01*
X3192500Y-1569000D01*
G37*
G36*
X3097500Y-1569000D02*
G01*
X3097500Y-1530999D01*
X3133199Y-1530999D01*
X3133199Y-1569000D01*
G37*
G36*
X2252500Y-1859000D02*
G01*
X2252500Y-1820999D01*
X2288199Y-1820999D01*
X2288199Y-1859000D01*
G37*
G36*
X2311800Y-1859000D02*
G01*
X2311800Y-1820999D01*
X2347500Y-1820999D01*
X2347500Y-1859000D01*
G37*
G36*
X2252500Y-1929000D02*
G01*
X2252500Y-1890999D01*
X2288199Y-1890999D01*
X2288199Y-1929000D01*
G37*
G36*
X2311800Y-1929000D02*
G01*
X2311800Y-1890999D01*
X2347500Y-1890999D01*
X2347500Y-1929000D01*
G37*
G36*
X2252500Y-1579000D02*
G01*
X2252500Y-1540999D01*
X2288199Y-1540999D01*
X2288199Y-1579000D01*
G37*
G36*
X2311800Y-1579000D02*
G01*
X2311800Y-1540999D01*
X2347500Y-1540999D01*
X2347500Y-1579000D01*
G37*
G36*
X2252500Y-1649000D02*
G01*
X2252500Y-1610999D01*
X2288199Y-1610999D01*
X2288199Y-1649000D01*
G37*
G36*
X2311800Y-1649000D02*
G01*
X2311800Y-1610999D01*
X2347500Y-1610999D01*
X2347500Y-1649000D01*
G37*
G36*
X2252500Y-1719000D02*
G01*
X2252500Y-1680999D01*
X2288199Y-1680999D01*
X2288199Y-1719000D01*
G37*
G36*
X2311800Y-1719000D02*
G01*
X2311800Y-1680999D01*
X2347500Y-1680999D01*
X2347500Y-1719000D01*
G37*
G36*
X2252500Y-1789000D02*
G01*
X2252500Y-1750999D01*
X2288199Y-1750999D01*
X2288199Y-1789000D01*
G37*
G36*
X2311800Y-1789000D02*
G01*
X2311800Y-1750999D01*
X2347500Y-1750999D01*
X2347500Y-1789000D01*
G37*
G36*
X2697500Y-1569000D02*
G01*
X2697500Y-1530999D01*
X2733199Y-1530999D01*
X2733199Y-1569000D01*
G37*
G36*
X2756800Y-1569000D02*
G01*
X2756800Y-1530999D01*
X2792500Y-1530999D01*
X2792500Y-1569000D01*
G37*
G36*
X931800Y-1719000D02*
G01*
X931800Y-1680999D01*
X967500Y-1680999D01*
X967500Y-1719000D01*
G37*
G36*
X872500Y-1719000D02*
G01*
X872500Y-1680999D01*
X908199Y-1680999D01*
X908199Y-1719000D01*
G37*
G36*
X872500Y-1859000D02*
G01*
X872500Y-1820999D01*
X908199Y-1820999D01*
X908199Y-1859000D01*
G37*
G36*
X931800Y-1859000D02*
G01*
X931800Y-1820999D01*
X967500Y-1820999D01*
X967500Y-1859000D01*
G37*
G36*
X872500Y-1789000D02*
G01*
X872500Y-1750999D01*
X908199Y-1750999D01*
X908199Y-1789000D01*
G37*
G36*
X931800Y-1789000D02*
G01*
X931800Y-1750999D01*
X967500Y-1750999D01*
X967500Y-1789000D01*
G37*
G36*
X872500Y-1649000D02*
G01*
X872500Y-1610999D01*
X908199Y-1610999D01*
X908199Y-1649000D01*
G37*
G36*
X931800Y-1649000D02*
G01*
X931800Y-1610999D01*
X967500Y-1610999D01*
X967500Y-1649000D01*
G37*
G36*
X872500Y-1579000D02*
G01*
X872500Y-1540999D01*
X908199Y-1540999D01*
X908199Y-1579000D01*
G37*
G36*
X931800Y-1579000D02*
G01*
X931800Y-1540999D01*
X967500Y-1540999D01*
X967500Y-1579000D01*
G37*
G36*
X872500Y-1999000D02*
G01*
X872500Y-1960999D01*
X908199Y-1960999D01*
X908199Y-1999000D01*
G37*
G36*
X931800Y-1999000D02*
G01*
X931800Y-1960999D01*
X967500Y-1960999D01*
X967500Y-1999000D01*
G37*
G36*
X872500Y-1929000D02*
G01*
X872500Y-1890999D01*
X908199Y-1890999D01*
X908199Y-1929000D01*
G37*
G36*
X931800Y-1929000D02*
G01*
X931800Y-1890999D01*
X967500Y-1890999D01*
X967500Y-1929000D01*
G37*
G36*
X1506800Y-1569000D02*
G01*
X1506800Y-1530999D01*
X1542500Y-1530999D01*
X1542500Y-1569000D01*
G37*
G36*
X1447500Y-1569000D02*
G01*
X1447500Y-1530999D01*
X1483199Y-1530999D01*
X1483199Y-1569000D01*
G37*
G36*
X1381800Y-1569000D02*
G01*
X1381800Y-1530999D01*
X1417500Y-1530999D01*
X1417500Y-1569000D01*
G37*
G36*
X1322500Y-1569000D02*
G01*
X1322500Y-1530999D01*
X1358199Y-1530999D01*
X1358199Y-1569000D01*
G37*
G36*
X140999Y46799D02*
G01*
X140999Y82500D01*
X179000Y82500D01*
X179000Y46799D01*
G37*
G36*
X140999Y-12500D02*
G01*
X140999Y23200D01*
X179000Y23200D01*
X179000Y-12500D01*
G37*
G36*
X140999Y112500D02*
G01*
X140999Y148200D01*
X179000Y148200D01*
X179000Y112500D01*
G37*
G36*
X140999Y171799D02*
G01*
X140999Y207500D01*
X179000Y207500D01*
X179000Y171799D01*
G37*
G36*
X1041000Y131799D02*
G01*
X1041000Y167500D01*
X1078999Y167500D01*
X1078999Y131799D01*
G37*
G36*
X1041000Y72500D02*
G01*
X1041000Y108200D01*
X1078999Y108200D01*
X1078999Y72500D01*
G37*
G36*
X635999Y72500D02*
G01*
X635999Y108200D01*
X674000Y108200D01*
X674000Y72500D01*
G37*
G36*
X635999Y131799D02*
G01*
X635999Y167500D01*
X674000Y167500D01*
X674000Y131799D01*
G37*
G36*
X495999Y-1297500D02*
G01*
X495999Y-1261799D01*
X534000Y-1261799D01*
X534000Y-1297500D01*
G37*
G36*
X495999Y-1238200D02*
G01*
X495999Y-1202500D01*
X534000Y-1202500D01*
X534000Y-1238200D01*
G37*
G36*
X490999Y-1488200D02*
G01*
X490999Y-1452500D01*
X529000Y-1452500D01*
X529000Y-1488200D01*
G37*
G36*
X490999Y-1547500D02*
G01*
X490999Y-1511799D01*
X529000Y-1511799D01*
X529000Y-1547500D01*
G37*
G36*
X220999Y46799D02*
G01*
X220999Y82500D01*
X259000Y82500D01*
X259000Y46799D01*
G37*
G36*
X220999Y-12500D02*
G01*
X220999Y23200D01*
X259000Y23200D01*
X259000Y-12500D01*
G37*
G36*
X212500Y115999D02*
G01*
X212500Y154000D01*
X248200Y154000D01*
X248200Y115999D01*
G37*
G36*
X271799Y115999D02*
G01*
X271799Y154000D01*
X307500Y154000D01*
X307500Y115999D01*
G37*
G36*
X495999Y-1422500D02*
G01*
X495999Y-1386799D01*
X534000Y-1386799D01*
X534000Y-1422500D01*
G37*
G36*
X495999Y-1363200D02*
G01*
X495999Y-1327500D01*
X534000Y-1327500D01*
X534000Y-1363200D01*
G37*
G36*
X315399Y-1098499D02*
G01*
X315399Y-1031500D01*
X382399Y-1031500D01*
X382399Y-1098499D01*
G37*
G36*
X177600Y-1098499D02*
G01*
X177600Y-1031500D01*
X244600Y-1031500D01*
X244600Y-1098499D01*
G37*
D67*
G01*
X530000Y-1065000D03*
G01*
X630000Y-1065000D03*
G36*
X305300Y-870300D02*
G01*
X305300Y-834800D01*
X344699Y-834800D01*
X344699Y-870300D01*
G37*
G36*
X305300Y-815199D02*
G01*
X305300Y-779699D01*
X344699Y-779699D01*
X344699Y-815199D01*
G37*
G36*
X2329700Y-2139699D02*
G01*
X2329700Y-2100300D01*
X2365200Y-2100300D01*
X2365200Y-2139699D01*
G37*
G36*
X2384799Y-2139699D02*
G01*
X2384799Y-2100300D01*
X2420299Y-2100300D01*
X2420299Y-2139699D01*
G37*
G36*
X102199Y-886799D02*
G01*
X102199Y-853200D01*
X145500Y-853200D01*
X145500Y-886799D01*
G37*
G36*
X194499Y-886799D02*
G01*
X194499Y-853200D01*
X237800Y-853200D01*
X237800Y-886799D01*
G37*
G36*
X213699Y-809099D02*
G01*
X213699Y-750900D01*
X262300Y-750900D01*
X262300Y-809099D01*
G37*
G36*
X137699Y-809099D02*
G01*
X137699Y-750900D01*
X186300Y-750900D01*
X186300Y-809099D01*
G37*
G36*
X807399Y-830500D02*
G01*
X807399Y-759499D01*
X858999Y-759499D01*
X858999Y-830500D01*
G37*
G36*
X690999Y-830500D02*
G01*
X690999Y-759499D01*
X742600Y-759499D01*
X742600Y-830500D01*
G37*
G36*
X739499Y-529000D02*
G01*
X739499Y-477399D01*
X810500Y-477399D01*
X810500Y-529000D01*
G37*
G36*
X739499Y-412600D02*
G01*
X739499Y-360999D01*
X810500Y-360999D01*
X810500Y-412600D01*
G37*
G36*
X739499Y-212600D02*
G01*
X739499Y-160999D01*
X810500Y-160999D01*
X810500Y-212600D01*
G37*
G36*
X739499Y-329000D02*
G01*
X739499Y-277399D01*
X810500Y-277399D01*
X810500Y-329000D01*
G37*
G36*
X739499Y-612600D02*
G01*
X739499Y-560999D01*
X810500Y-560999D01*
X810500Y-612600D01*
G37*
G36*
X739499Y-729000D02*
G01*
X739499Y-677399D01*
X810500Y-677399D01*
X810500Y-729000D01*
G37*
G36*
X710999Y-982500D02*
G01*
X710999Y-946799D01*
X749000Y-946799D01*
X749000Y-982500D01*
G37*
G36*
X710999Y-923200D02*
G01*
X710999Y-887500D01*
X749000Y-887500D01*
X749000Y-923200D01*
G37*
G36*
X786000Y-923200D02*
G01*
X786000Y-887500D01*
X823999Y-887500D01*
X823999Y-923200D01*
G37*
G36*
X786000Y-982500D02*
G01*
X786000Y-946799D01*
X823999Y-946799D01*
X823999Y-982500D01*
G37*
G36*
X2252500Y-574000D02*
G01*
X2252500Y-535999D01*
X2288199Y-535999D01*
X2288199Y-574000D01*
G37*
G36*
X2311800Y-574000D02*
G01*
X2311800Y-535999D01*
X2347500Y-535999D01*
X2347500Y-574000D01*
G37*
G36*
X2252500Y-504000D02*
G01*
X2252500Y-465999D01*
X2288199Y-465999D01*
X2288199Y-504000D01*
G37*
G36*
X2311800Y-504000D02*
G01*
X2311800Y-465999D01*
X2347500Y-465999D01*
X2347500Y-504000D01*
G37*
G36*
X2252500Y-434000D02*
G01*
X2252500Y-395999D01*
X2288199Y-395999D01*
X2288199Y-434000D01*
G37*
G36*
X2311800Y-434000D02*
G01*
X2311800Y-395999D01*
X2347500Y-395999D01*
X2347500Y-434000D01*
G37*
G36*
X2252500Y-294000D02*
G01*
X2252500Y-255999D01*
X2288199Y-255999D01*
X2288199Y-294000D01*
G37*
G36*
X2311800Y-294000D02*
G01*
X2311800Y-255999D01*
X2347500Y-255999D01*
X2347500Y-294000D01*
G37*
G36*
X3092500Y-584000D02*
G01*
X3092500Y-545999D01*
X3128199Y-545999D01*
X3128199Y-584000D01*
G37*
G36*
X3151800Y-584000D02*
G01*
X3151800Y-545999D01*
X3187500Y-545999D01*
X3187500Y-584000D01*
G37*
G36*
X2756800Y-584000D02*
G01*
X2756800Y-545999D01*
X2792500Y-545999D01*
X2792500Y-584000D01*
G37*
G36*
X2697500Y-584000D02*
G01*
X2697500Y-545999D01*
X2733199Y-545999D01*
X2733199Y-584000D01*
G37*
G36*
X2252500Y-364000D02*
G01*
X2252500Y-325999D01*
X2288199Y-325999D01*
X2288199Y-364000D01*
G37*
G36*
X2311800Y-364000D02*
G01*
X2311800Y-325999D01*
X2347500Y-325999D01*
X2347500Y-364000D01*
G37*
G36*
X2252500Y-224000D02*
G01*
X2252500Y-185999D01*
X2288199Y-185999D01*
X2288199Y-224000D01*
G37*
G36*
X2311800Y-224000D02*
G01*
X2311800Y-185999D01*
X2347500Y-185999D01*
X2347500Y-224000D01*
G37*
G36*
X2847500Y-584000D02*
G01*
X2847500Y-545999D01*
X2883199Y-545999D01*
X2883199Y-584000D01*
G37*
G36*
X2906800Y-584000D02*
G01*
X2906800Y-545999D01*
X2942500Y-545999D01*
X2942500Y-584000D01*
G37*
G36*
X1472500Y-584000D02*
G01*
X1472500Y-545999D01*
X1508199Y-545999D01*
X1508199Y-584000D01*
G37*
G36*
X1531800Y-584000D02*
G01*
X1531800Y-545999D01*
X1567500Y-545999D01*
X1567500Y-584000D01*
G37*
G36*
X872500Y-364000D02*
G01*
X872500Y-325999D01*
X908199Y-325999D01*
X908199Y-364000D01*
G37*
G36*
X931800Y-364000D02*
G01*
X931800Y-325999D01*
X967500Y-325999D01*
X967500Y-364000D01*
G37*
G36*
X872500Y-504000D02*
G01*
X872500Y-465999D01*
X908199Y-465999D01*
X908199Y-504000D01*
G37*
G36*
X931800Y-504000D02*
G01*
X931800Y-465999D01*
X967500Y-465999D01*
X967500Y-504000D01*
G37*
G36*
X2563500Y146300D02*
G01*
X2563500Y221199D01*
X2638400Y221199D01*
X2638400Y146300D01*
G37*
D74*
G01*
X2600950Y83780D03*
G01*
X2600950Y-16219D03*
G01*
X2600950Y-116219D03*
G36*
X196799Y-224000D02*
G01*
X196799Y-185999D01*
X232500Y-185999D01*
X232500Y-224000D01*
G37*
G36*
X137500Y-224000D02*
G01*
X137500Y-185999D01*
X173200Y-185999D01*
X173200Y-224000D01*
G37*
G36*
X395999Y-647500D02*
G01*
X395999Y-611799D01*
X434000Y-611799D01*
X434000Y-647500D01*
G37*
G36*
X395999Y-588200D02*
G01*
X395999Y-552500D01*
X434000Y-552500D01*
X434000Y-588200D01*
G37*
G36*
X196799Y-294000D02*
G01*
X196799Y-255999D01*
X232500Y-255999D01*
X232500Y-294000D01*
G37*
G36*
X137500Y-294000D02*
G01*
X137500Y-255999D01*
X173200Y-255999D01*
X173200Y-294000D01*
G37*
G36*
X550999Y-657500D02*
G01*
X550999Y-621799D01*
X589000Y-621799D01*
X589000Y-657500D01*
G37*
G36*
X550999Y-598200D02*
G01*
X550999Y-562500D01*
X589000Y-562500D01*
X589000Y-598200D01*
G37*
G36*
X1448199Y-2192800D02*
G01*
X1448199Y-2149499D01*
X1481800Y-2149499D01*
X1481800Y-2192800D01*
G37*
G36*
X1448199Y-2100500D02*
G01*
X1448199Y-2057199D01*
X1481800Y-2057199D01*
X1481800Y-2100500D01*
G37*
G36*
X547199Y-2041799D02*
G01*
X547199Y-2008200D01*
X590500Y-2008200D01*
X590500Y-2041799D01*
G37*
G36*
X639499Y-2041799D02*
G01*
X639499Y-2008200D01*
X682800Y-2008200D01*
X682800Y-2041799D01*
G37*
G36*
X747800Y-2118200D02*
G01*
X747800Y-2086599D01*
X801000Y-2086599D01*
X801000Y-2118200D01*
G37*
G36*
X747800Y-2043400D02*
G01*
X747800Y-2011799D01*
X801000Y-2011799D01*
X801000Y-2043400D01*
G37*
G36*
X669000Y-2080799D02*
G01*
X669000Y-2049200D01*
X722199Y-2049200D01*
X722199Y-2080799D01*
G37*
G36*
X626799Y-2230999D02*
G01*
X626799Y-2177800D01*
X658400Y-2177800D01*
X658400Y-2230999D01*
G37*
G36*
X701599Y-2230999D02*
G01*
X701599Y-2177800D01*
X733200Y-2177800D01*
X733200Y-2230999D01*
G37*
G36*
X664200Y-2152199D02*
G01*
X664200Y-2099000D01*
X695799Y-2099000D01*
X695799Y-2152199D01*
G37*
G36*
X1316800Y-2215999D02*
G01*
X1316800Y-2162800D01*
X1348400Y-2162800D01*
X1348400Y-2215999D01*
G37*
G36*
X1391599Y-2215999D02*
G01*
X1391599Y-2162800D01*
X1423199Y-2162800D01*
X1423199Y-2215999D01*
G37*
G36*
X1354200Y-2137199D02*
G01*
X1354200Y-2084000D01*
X1385799Y-2084000D01*
X1385799Y-2137199D01*
G37*
G36*
X1031599Y-2087199D02*
G01*
X1031599Y-2034000D01*
X1063199Y-2034000D01*
X1063199Y-2087199D01*
G37*
G36*
X956800Y-2087199D02*
G01*
X956800Y-2034000D01*
X988400Y-2034000D01*
X988400Y-2087199D01*
G37*
G36*
X994200Y-2165999D02*
G01*
X994200Y-2112800D01*
X1025799Y-2112800D01*
X1025799Y-2165999D01*
G37*
G36*
X816000Y-2058200D02*
G01*
X816000Y-2022500D01*
X853999Y-2022500D01*
X853999Y-2058200D01*
G37*
G36*
X816000Y-2117500D02*
G01*
X816000Y-2081799D01*
X853999Y-2081799D01*
X853999Y-2117500D01*
G37*
G36*
X762500Y-2184000D02*
G01*
X762500Y-2145999D01*
X798199Y-2145999D01*
X798199Y-2184000D01*
G37*
G36*
X821800Y-2184000D02*
G01*
X821800Y-2145999D01*
X857500Y-2145999D01*
X857500Y-2184000D01*
G37*
G36*
X552500Y-2114000D02*
G01*
X552500Y-2075999D01*
X588200Y-2075999D01*
X588200Y-2114000D01*
G37*
G36*
X611799Y-2114000D02*
G01*
X611799Y-2075999D01*
X647500Y-2075999D01*
X647500Y-2114000D01*
G37*
G36*
X531799Y-2179000D02*
G01*
X531799Y-2140999D01*
X567500Y-2140999D01*
X567500Y-2179000D01*
G37*
G36*
X472500Y-2179000D02*
G01*
X472500Y-2140999D01*
X508200Y-2140999D01*
X508200Y-2179000D01*
G37*
G36*
X1057500Y-2189000D02*
G01*
X1057500Y-2150999D01*
X1093199Y-2150999D01*
X1093199Y-2189000D01*
G37*
G36*
X1116800Y-2189000D02*
G01*
X1116800Y-2150999D01*
X1152500Y-2150999D01*
X1152500Y-2189000D01*
G37*
G36*
X1102500Y-2099000D02*
G01*
X1102500Y-2060999D01*
X1138199Y-2060999D01*
X1138199Y-2099000D01*
G37*
G36*
X1161800Y-2099000D02*
G01*
X1161800Y-2060999D01*
X1197500Y-2060999D01*
X1197500Y-2099000D01*
G37*
G36*
X1286800Y-2099000D02*
G01*
X1286800Y-2060999D01*
X1322500Y-2060999D01*
X1322500Y-2099000D01*
G37*
G36*
X1227500Y-2099000D02*
G01*
X1227500Y-2060999D01*
X1263199Y-2060999D01*
X1263199Y-2099000D01*
G37*
G36*
X485999Y-1928200D02*
G01*
X485999Y-1892500D01*
X524000Y-1892500D01*
X524000Y-1928200D01*
G37*
G36*
X485999Y-1987500D02*
G01*
X485999Y-1951799D01*
X524000Y-1951799D01*
X524000Y-1987500D01*
G37*
G36*
X887500Y-2189000D02*
G01*
X887500Y-2150999D01*
X923199Y-2150999D01*
X923199Y-2189000D01*
G37*
G36*
X946800Y-2189000D02*
G01*
X946800Y-2150999D01*
X982500Y-2150999D01*
X982500Y-2189000D01*
G37*
G36*
X881000Y-2063200D02*
G01*
X881000Y-2027500D01*
X918999Y-2027500D01*
X918999Y-2063200D01*
G37*
G36*
X881000Y-2122500D02*
G01*
X881000Y-2086799D01*
X918999Y-2086799D01*
X918999Y-2122500D01*
G37*
G36*
X485999Y-2053200D02*
G01*
X485999Y-2017500D01*
X524000Y-2017500D01*
X524000Y-2053200D01*
G37*
G36*
X485999Y-2112500D02*
G01*
X485999Y-2076799D01*
X524000Y-2076799D01*
X524000Y-2112500D01*
G37*
G36*
X1246800Y-2189000D02*
G01*
X1246800Y-2150999D01*
X1282500Y-2150999D01*
X1282500Y-2189000D01*
G37*
G36*
X1187500Y-2189000D02*
G01*
X1187500Y-2150999D01*
X1223199Y-2150999D01*
X1223199Y-2189000D01*
G37*
G36*
X3583199Y-2110500D02*
G01*
X3583199Y-2067199D01*
X3616800Y-2067199D01*
X3616800Y-2110500D01*
G37*
G36*
X3583199Y-2202800D02*
G01*
X3583199Y-2159499D01*
X3616800Y-2159499D01*
X3616800Y-2202800D01*
G37*
G36*
X3917799Y-1808200D02*
G01*
X3917799Y-1776599D01*
X3971000Y-1776599D01*
X3971000Y-1808200D01*
G37*
G36*
X3917799Y-1733400D02*
G01*
X3917799Y-1701799D01*
X3971000Y-1701799D01*
X3971000Y-1733400D01*
G37*
G36*
X3838999Y-1770799D02*
G01*
X3838999Y-1739200D01*
X3892200Y-1739200D01*
X3892200Y-1770799D01*
G37*
G36*
X3431800Y-2190999D02*
G01*
X3431800Y-2137800D01*
X3463400Y-2137800D01*
X3463400Y-2190999D01*
G37*
G36*
X3506599Y-2190999D02*
G01*
X3506599Y-2137800D01*
X3538199Y-2137800D01*
X3538199Y-2190999D01*
G37*
G36*
X3469200Y-2112199D02*
G01*
X3469200Y-2059000D01*
X3500799Y-2059000D01*
X3500799Y-2112199D01*
G37*
G36*
X3356000Y-2133200D02*
G01*
X3356000Y-2097500D01*
X3393999Y-2097500D01*
X3393999Y-2133200D01*
G37*
G36*
X3356000Y-2192500D02*
G01*
X3356000Y-2156799D01*
X3393999Y-2156799D01*
X3393999Y-2192500D01*
G37*
G36*
X3847500Y-1674000D02*
G01*
X3847500Y-1635999D01*
X3883199Y-1635999D01*
X3883199Y-1674000D01*
G37*
G36*
X3906800Y-1674000D02*
G01*
X3906800Y-1635999D01*
X3942500Y-1635999D01*
X3942500Y-1674000D01*
G37*
G36*
X3281000Y-2192500D02*
G01*
X3281000Y-2156799D01*
X3318999Y-2156799D01*
X3318999Y-2192500D01*
G37*
G36*
X3281000Y-2133200D02*
G01*
X3281000Y-2097500D01*
X3318999Y-2097500D01*
X3318999Y-2133200D01*
G37*
G36*
X3906800Y-1474000D02*
G01*
X3906800Y-1435999D01*
X3942500Y-1435999D01*
X3942500Y-1474000D01*
G37*
G36*
X3847500Y-1474000D02*
G01*
X3847500Y-1435999D01*
X3883199Y-1435999D01*
X3883199Y-1474000D01*
G37*
G36*
X3906800Y-1574000D02*
G01*
X3906800Y-1535999D01*
X3942500Y-1535999D01*
X3942500Y-1574000D01*
G37*
G36*
X3847500Y-1574000D02*
G01*
X3847500Y-1535999D01*
X3883199Y-1535999D01*
X3883199Y-1574000D01*
G37*
G36*
X2621800Y-2190999D02*
G01*
X2621800Y-2137800D01*
X2653400Y-2137800D01*
X2653400Y-2190999D01*
G37*
G36*
X2696599Y-2190999D02*
G01*
X2696599Y-2137800D01*
X2728199Y-2137800D01*
X2728199Y-2190999D01*
G37*
G36*
X2659200Y-2112199D02*
G01*
X2659200Y-2059000D01*
X2690799Y-2059000D01*
X2690799Y-2112199D01*
G37*
D58*
G01*
X3211999Y209000D03*
G01*
X3468000Y209000D03*
G01*
X3211999Y30999D03*
G01*
X3468000Y30999D03*
G01*
X2811999Y209000D03*
G01*
X3068000Y209000D03*
G01*
X2811999Y30999D03*
G01*
X3068000Y30999D03*
G36*
X735999Y-1195500D02*
G01*
X735999Y-1124499D01*
X787600Y-1124499D01*
X787600Y-1195500D01*
G37*
G36*
X852399Y-1195500D02*
G01*
X852399Y-1124499D01*
X903999Y-1124499D01*
X903999Y-1195500D01*
G37*
G36*
X852399Y-1085500D02*
G01*
X852399Y-1014499D01*
X903999Y-1014499D01*
X903999Y-1085500D01*
G37*
G36*
X735999Y-1085500D02*
G01*
X735999Y-1014499D01*
X787600Y-1014499D01*
X787600Y-1085500D01*
G37*
G36*
X1646999Y-2203099D02*
G01*
X1646999Y-2076900D01*
X1714099Y-2076900D01*
X1714099Y-2203099D01*
G37*
G36*
X1556499Y-2203099D02*
G01*
X1556499Y-2076900D01*
X1623500Y-2076900D01*
X1623500Y-2203099D01*
G37*
M02*
