G04 Layer: TopPasteMaskLayer*
G04 EasyEDA v6.4.25, 2022-01-21T19:56:56+01:00*
G04 Gerber Generator version 0.2*
G04 Scale: 100 percent, Rotated: No, Reflected: No *
G04 Dimensions in inches *
G04 leading zeros omitted , absolute positions ,3 integer and 6 decimal *
%FSLAX36Y36*%
%MOIN*%

%ADD13C,0.0234*%
%ADD14C,0.0236*%
%ADD15C,0.0224*%
%ADD21R,0.0315X0.0315*%
%ADD24R,0.0394X0.0295*%
%ADD25R,0.0295X0.0394*%
%ADD26R,0.0276X0.0492*%
%ADD28R,0.0354X0.0315*%
%ADD29R,0.0315X0.0354*%

%LPD*%
G36*
X2699260Y68160D02*
G01*
X2697280Y66180D01*
X2697280Y32719D01*
X2699260Y30740D01*
X2709100Y30740D01*
X2709100Y42560D01*
X2720899Y42560D01*
X2720899Y30740D01*
X2730740Y30740D01*
X2732720Y32719D01*
X2732720Y66180D01*
X2730740Y68160D01*
G37*
G36*
X2699260Y-740D02*
G01*
X2697280Y-2720D01*
X2697280Y-36180D01*
X2699260Y-38140D01*
X2730740Y-38140D01*
X2732720Y-36180D01*
X2732720Y-2720D01*
X2730740Y-740D01*
X2720899Y-740D01*
X2720899Y-12560D01*
X2709100Y-12560D01*
X2709100Y-740D01*
G37*
G36*
X3879260Y-920740D02*
G01*
X3877280Y-922720D01*
X3877280Y-956180D01*
X3879260Y-958160D01*
X3910740Y-958160D01*
X3912720Y-956180D01*
X3912720Y-922720D01*
X3910740Y-920740D01*
X3900899Y-920740D01*
X3900899Y-932560D01*
X3889100Y-932560D01*
X3889100Y-920740D01*
G37*
G36*
X3879260Y-851860D02*
G01*
X3877280Y-853820D01*
X3877280Y-887280D01*
X3879260Y-889260D01*
X3889100Y-889260D01*
X3889100Y-877440D01*
X3900899Y-877440D01*
X3900899Y-889260D01*
X3910740Y-889260D01*
X3912720Y-887280D01*
X3912720Y-853820D01*
X3910740Y-851860D01*
G37*
G36*
X3879260Y-1215740D02*
G01*
X3877280Y-1217720D01*
X3877280Y-1251180D01*
X3879260Y-1253160D01*
X3910740Y-1253160D01*
X3912720Y-1251180D01*
X3912720Y-1217720D01*
X3910740Y-1215740D01*
X3900899Y-1215740D01*
X3900899Y-1227560D01*
X3889100Y-1227560D01*
X3889100Y-1215740D01*
G37*
G36*
X3879260Y-1146860D02*
G01*
X3877280Y-1148820D01*
X3877280Y-1182280D01*
X3879260Y-1184260D01*
X3889100Y-1184260D01*
X3889100Y-1172440D01*
X3900899Y-1172440D01*
X3900899Y-1184260D01*
X3910740Y-1184260D01*
X3912720Y-1182280D01*
X3912720Y-1148820D01*
X3910740Y-1146860D01*
G37*
G36*
X3879260Y-735980D02*
G01*
X3877280Y-737960D01*
X3877280Y-769440D01*
X3879260Y-771420D01*
X3888220Y-771420D01*
X3888220Y-756840D01*
X3901220Y-756840D01*
X3901220Y-771420D01*
X3910740Y-771420D01*
X3912720Y-769440D01*
X3912720Y-737960D01*
X3910740Y-735980D01*
G37*
G36*
X3879260Y-798980D02*
G01*
X3877280Y-800939D01*
X3877280Y-832039D01*
X3879260Y-834020D01*
X3910740Y-834020D01*
X3912720Y-832039D01*
X3912720Y-800939D01*
X3910740Y-798980D01*
X3901220Y-798980D01*
X3901220Y-813940D01*
X3888220Y-813940D01*
X3888220Y-798980D01*
G37*
G36*
X3874260Y-470980D02*
G01*
X3872280Y-472960D01*
X3872280Y-504440D01*
X3874260Y-506420D01*
X3883220Y-506420D01*
X3883220Y-491840D01*
X3896220Y-491840D01*
X3896220Y-506420D01*
X3905740Y-506420D01*
X3907720Y-504440D01*
X3907720Y-472960D01*
X3905740Y-470980D01*
G37*
G36*
X3874260Y-533980D02*
G01*
X3872280Y-535940D01*
X3872280Y-567040D01*
X3874260Y-569020D01*
X3905740Y-569020D01*
X3907720Y-567040D01*
X3907720Y-535940D01*
X3905740Y-533980D01*
X3896220Y-533980D01*
X3896220Y-548940D01*
X3883220Y-548940D01*
X3883220Y-533980D01*
G37*
G36*
X190560Y-612280D02*
G01*
X188580Y-614260D01*
X188580Y-623220D01*
X203160Y-623220D01*
X203160Y-636220D01*
X188580Y-636220D01*
X188580Y-645740D01*
X190560Y-647720D01*
X222040Y-647720D01*
X224020Y-645740D01*
X224020Y-614260D01*
X222040Y-612280D01*
G37*
G36*
X127960Y-612280D02*
G01*
X125980Y-614260D01*
X125980Y-645740D01*
X127960Y-647720D01*
X159060Y-647720D01*
X161020Y-645740D01*
X161020Y-636220D01*
X146060Y-636220D01*
X146060Y-623220D01*
X161020Y-623220D01*
X161020Y-614260D01*
X159060Y-612280D01*
G37*
G36*
X137960Y-52280D02*
G01*
X135980Y-54260D01*
X135980Y-85740D01*
X137960Y-87720D01*
X169440Y-87720D01*
X171420Y-85740D01*
X171420Y-76780D01*
X156840Y-76780D01*
X156840Y-63780D01*
X171420Y-63780D01*
X171420Y-54260D01*
X169440Y-52280D01*
G37*
G36*
X200940Y-52280D02*
G01*
X198980Y-54260D01*
X198980Y-63780D01*
X213939Y-63780D01*
X213939Y-76780D01*
X198980Y-76780D01*
X198980Y-85740D01*
X200940Y-87720D01*
X232040Y-87720D01*
X234020Y-85740D01*
X234020Y-54260D01*
X232040Y-52280D01*
G37*
G36*
X424260Y-118580D02*
G01*
X422280Y-120559D01*
X422280Y-152040D01*
X424260Y-154020D01*
X455740Y-154020D01*
X457720Y-152040D01*
X457720Y-120559D01*
X455740Y-118580D01*
X446780Y-118580D01*
X446780Y-133160D01*
X433780Y-133160D01*
X433780Y-118580D01*
G37*
G36*
X424260Y-55980D02*
G01*
X422280Y-57960D01*
X422280Y-89060D01*
X424260Y-91020D01*
X433780Y-91020D01*
X433780Y-76060D01*
X446780Y-76060D01*
X446780Y-91020D01*
X455740Y-91020D01*
X457720Y-89060D01*
X457720Y-57960D01*
X455740Y-55980D01*
G37*
G36*
X2984260Y-2085980D02*
G01*
X2982280Y-2087960D01*
X2982280Y-2119440D01*
X2984260Y-2121420D01*
X2993220Y-2121420D01*
X2993220Y-2106840D01*
X3006220Y-2106840D01*
X3006220Y-2121420D01*
X3015740Y-2121420D01*
X3017720Y-2119440D01*
X3017720Y-2087960D01*
X3015740Y-2085980D01*
G37*
G36*
X2984260Y-2148980D02*
G01*
X2982280Y-2150940D01*
X2982280Y-2182040D01*
X2984260Y-2184020D01*
X3015740Y-2184020D01*
X3017720Y-2182040D01*
X3017720Y-2150940D01*
X3015740Y-2148980D01*
X3006220Y-2148980D01*
X3006220Y-2163940D01*
X2993220Y-2163940D01*
X2993220Y-2148980D01*
G37*
G36*
X3860560Y202719D02*
G01*
X3858580Y200740D01*
X3858580Y191780D01*
X3873140Y191780D01*
X3873140Y178780D01*
X3858580Y178780D01*
X3858580Y169259D01*
X3860560Y167280D01*
X3892040Y167280D01*
X3894020Y169259D01*
X3894020Y200740D01*
X3892040Y202719D01*
G37*
G36*
X3797960Y202719D02*
G01*
X3795980Y200740D01*
X3795980Y169259D01*
X3797960Y167280D01*
X3829060Y167280D01*
X3831019Y169259D01*
X3831019Y178780D01*
X3816060Y178780D01*
X3816060Y191780D01*
X3831019Y191780D01*
X3831019Y200740D01*
X3829060Y202719D01*
G37*
G36*
X3537960Y172719D02*
G01*
X3535980Y170740D01*
X3535980Y139260D01*
X3537960Y137280D01*
X3569440Y137280D01*
X3571420Y139260D01*
X3571420Y148220D01*
X3556860Y148220D01*
X3556860Y161220D01*
X3571420Y161220D01*
X3571420Y170740D01*
X3569440Y172719D01*
G37*
G36*
X3600940Y172719D02*
G01*
X3598980Y170740D01*
X3598980Y161220D01*
X3613940Y161220D01*
X3613940Y148220D01*
X3598980Y148220D01*
X3598980Y139260D01*
X3600940Y137280D01*
X3632040Y137280D01*
X3634020Y139260D01*
X3634020Y170740D01*
X3632040Y172719D01*
G37*
G36*
X3600560Y32719D02*
G01*
X3598580Y30740D01*
X3598580Y21780D01*
X3613140Y21780D01*
X3613140Y8780D01*
X3598580Y8780D01*
X3598580Y-740D01*
X3600560Y-2720D01*
X3632040Y-2720D01*
X3634020Y-740D01*
X3634020Y30740D01*
X3632040Y32719D01*
G37*
G36*
X3537960Y32719D02*
G01*
X3535980Y30740D01*
X3535980Y-740D01*
X3537960Y-2720D01*
X3569060Y-2720D01*
X3571019Y-740D01*
X3571019Y8780D01*
X3556060Y8780D01*
X3556060Y21780D01*
X3571019Y21780D01*
X3571019Y30740D01*
X3569060Y32719D01*
G37*
G36*
X3469260Y-113580D02*
G01*
X3467280Y-115559D01*
X3467280Y-147040D01*
X3469260Y-149020D01*
X3500740Y-149020D01*
X3502720Y-147040D01*
X3502720Y-115559D01*
X3500740Y-113580D01*
X3491780Y-113580D01*
X3491780Y-128160D01*
X3478780Y-128160D01*
X3478780Y-113580D01*
G37*
G36*
X3469260Y-50980D02*
G01*
X3467280Y-52960D01*
X3467280Y-84060D01*
X3469260Y-86020D01*
X3478780Y-86020D01*
X3478780Y-71060D01*
X3491780Y-71060D01*
X3491780Y-86020D01*
X3500740Y-86020D01*
X3502720Y-84060D01*
X3502720Y-52960D01*
X3500740Y-50980D01*
G37*
G36*
X3600560Y102720D02*
G01*
X3598580Y100740D01*
X3598580Y91780D01*
X3613140Y91780D01*
X3613140Y78780D01*
X3598580Y78780D01*
X3598580Y69260D01*
X3600560Y67280D01*
X3632040Y67280D01*
X3634020Y69260D01*
X3634020Y100740D01*
X3632040Y102720D01*
G37*
G36*
X3537960Y102720D02*
G01*
X3535980Y100740D01*
X3535980Y69260D01*
X3537960Y67280D01*
X3569060Y67280D01*
X3571019Y69260D01*
X3571019Y78780D01*
X3556060Y78780D01*
X3556060Y91780D01*
X3571019Y91780D01*
X3571019Y100740D01*
X3569060Y102720D01*
G37*
G36*
X3694260Y-3580D02*
G01*
X3692280Y-5560D01*
X3692280Y-37040D01*
X3694260Y-39020D01*
X3725740Y-39020D01*
X3727720Y-37040D01*
X3727720Y-5560D01*
X3725740Y-3580D01*
X3716780Y-3580D01*
X3716780Y-18160D01*
X3703780Y-18160D01*
X3703780Y-3580D01*
G37*
G36*
X3694260Y59020D02*
G01*
X3692280Y57040D01*
X3692280Y25940D01*
X3694260Y23980D01*
X3703780Y23980D01*
X3703780Y38940D01*
X3716780Y38940D01*
X3716780Y23980D01*
X3725740Y23980D01*
X3727720Y25940D01*
X3727720Y57040D01*
X3725740Y59020D01*
G37*
G36*
X579260Y-310980D02*
G01*
X577280Y-312960D01*
X577280Y-344440D01*
X579260Y-346420D01*
X588220Y-346420D01*
X588220Y-331840D01*
X601220Y-331840D01*
X601220Y-346420D01*
X610740Y-346420D01*
X612720Y-344440D01*
X612720Y-312960D01*
X610740Y-310980D01*
G37*
G36*
X579260Y-373980D02*
G01*
X577280Y-375940D01*
X577280Y-407040D01*
X579260Y-409020D01*
X610740Y-409020D01*
X612720Y-407040D01*
X612720Y-375940D01*
X610740Y-373980D01*
X601220Y-373980D01*
X601220Y-388940D01*
X588220Y-388940D01*
X588220Y-373980D01*
G37*
G36*
X200560Y-397280D02*
G01*
X198580Y-399260D01*
X198580Y-408220D01*
X213160Y-408220D01*
X213160Y-421220D01*
X198580Y-421220D01*
X198580Y-430740D01*
X200560Y-432720D01*
X232040Y-432720D01*
X234020Y-430740D01*
X234020Y-399260D01*
X232040Y-397280D01*
G37*
G36*
X137960Y-397280D02*
G01*
X135980Y-399260D01*
X135980Y-430740D01*
X137960Y-432720D01*
X169060Y-432720D01*
X171020Y-430740D01*
X171020Y-421220D01*
X156060Y-421220D01*
X156060Y-408220D01*
X171020Y-408220D01*
X171020Y-399260D01*
X169060Y-397280D01*
G37*
G36*
X579260Y-248580D02*
G01*
X577280Y-250560D01*
X577280Y-282040D01*
X579260Y-284020D01*
X610740Y-284020D01*
X612720Y-282040D01*
X612720Y-250560D01*
X610740Y-248580D01*
X601780Y-248580D01*
X601780Y-263160D01*
X588780Y-263160D01*
X588780Y-248580D01*
G37*
G36*
X579260Y-185980D02*
G01*
X577280Y-187960D01*
X577280Y-219060D01*
X579260Y-221020D01*
X588780Y-221020D01*
X588780Y-206060D01*
X601780Y-206060D01*
X601780Y-221020D01*
X610740Y-221020D01*
X612720Y-219060D01*
X612720Y-187960D01*
X610740Y-185980D01*
G37*
G36*
X200560Y-327280D02*
G01*
X198580Y-329260D01*
X198580Y-338220D01*
X213160Y-338220D01*
X213160Y-351220D01*
X198580Y-351220D01*
X198580Y-360740D01*
X200560Y-362720D01*
X232040Y-362720D01*
X234020Y-360740D01*
X234020Y-329260D01*
X232040Y-327280D01*
G37*
G36*
X137960Y-327280D02*
G01*
X135980Y-329260D01*
X135980Y-360740D01*
X137960Y-362720D01*
X169060Y-362720D01*
X171020Y-360740D01*
X171020Y-351220D01*
X156060Y-351220D01*
X156060Y-338220D01*
X171020Y-338220D01*
X171020Y-329260D01*
X169060Y-327280D01*
G37*
G36*
X579260Y-435980D02*
G01*
X577280Y-437960D01*
X577280Y-469440D01*
X579260Y-471420D01*
X588220Y-471420D01*
X588220Y-456840D01*
X601220Y-456840D01*
X601220Y-471420D01*
X610740Y-471420D01*
X612720Y-469440D01*
X612720Y-437960D01*
X610740Y-435980D01*
G37*
G36*
X579260Y-498980D02*
G01*
X577280Y-500940D01*
X577280Y-532040D01*
X579260Y-534020D01*
X610740Y-534020D01*
X612720Y-532040D01*
X612720Y-500940D01*
X610740Y-498980D01*
X601220Y-498980D01*
X601220Y-513940D01*
X588220Y-513940D01*
X588220Y-498980D01*
G37*
G36*
X3054260Y-2148580D02*
G01*
X3052280Y-2150560D01*
X3052280Y-2182040D01*
X3054260Y-2184020D01*
X3085740Y-2184020D01*
X3087720Y-2182040D01*
X3087720Y-2150560D01*
X3085740Y-2148580D01*
X3076780Y-2148580D01*
X3076780Y-2163160D01*
X3063780Y-2163160D01*
X3063780Y-2148580D01*
G37*
G36*
X3054260Y-2085980D02*
G01*
X3052280Y-2087960D01*
X3052280Y-2119060D01*
X3054260Y-2121020D01*
X3063780Y-2121020D01*
X3063780Y-2106060D01*
X3076780Y-2106060D01*
X3076780Y-2121020D01*
X3085740Y-2121020D01*
X3087720Y-2119060D01*
X3087720Y-2087960D01*
X3085740Y-2085980D01*
G37*
G36*
X2769260Y-2148580D02*
G01*
X2767280Y-2150560D01*
X2767280Y-2182040D01*
X2769260Y-2184020D01*
X2800740Y-2184020D01*
X2802720Y-2182040D01*
X2802720Y-2150560D01*
X2800740Y-2148580D01*
X2791780Y-2148580D01*
X2791780Y-2163160D01*
X2778780Y-2163160D01*
X2778780Y-2148580D01*
G37*
G36*
X2769260Y-2085980D02*
G01*
X2767280Y-2087960D01*
X2767280Y-2119060D01*
X2769260Y-2121020D01*
X2778780Y-2121020D01*
X2778780Y-2106060D01*
X2791780Y-2106060D01*
X2791780Y-2121020D01*
X2800740Y-2121020D01*
X2802720Y-2119060D01*
X2802720Y-2087960D01*
X2800740Y-2085980D01*
G37*
G36*
X2784260Y-2023580D02*
G01*
X2782280Y-2025560D01*
X2782280Y-2057040D01*
X2784260Y-2059019D01*
X2815740Y-2059019D01*
X2817720Y-2057040D01*
X2817720Y-2025560D01*
X2815740Y-2023580D01*
X2806780Y-2023580D01*
X2806780Y-2038160D01*
X2793780Y-2038160D01*
X2793780Y-2023580D01*
G37*
G36*
X2784260Y-1960980D02*
G01*
X2782280Y-1962960D01*
X2782280Y-1994060D01*
X2784260Y-1996020D01*
X2793780Y-1996020D01*
X2793780Y-1981060D01*
X2806780Y-1981060D01*
X2806780Y-1996020D01*
X2815740Y-1996020D01*
X2817720Y-1994060D01*
X2817720Y-1962960D01*
X2815740Y-1960980D01*
G37*
G36*
X2484260Y-2080980D02*
G01*
X2482280Y-2082960D01*
X2482280Y-2114440D01*
X2484260Y-2116420D01*
X2493220Y-2116420D01*
X2493220Y-2101840D01*
X2506220Y-2101840D01*
X2506220Y-2116420D01*
X2515740Y-2116420D01*
X2517720Y-2114440D01*
X2517720Y-2082960D01*
X2515740Y-2080980D01*
G37*
G36*
X2484260Y-2143980D02*
G01*
X2482280Y-2145940D01*
X2482280Y-2177040D01*
X2484260Y-2179020D01*
X2515740Y-2179020D01*
X2517720Y-2177040D01*
X2517720Y-2145940D01*
X2515740Y-2143980D01*
X2506220Y-2143980D01*
X2506220Y-2158940D01*
X2493220Y-2158940D01*
X2493220Y-2143980D01*
G37*
G36*
X2554260Y-2143580D02*
G01*
X2552280Y-2145560D01*
X2552280Y-2177040D01*
X2554260Y-2179020D01*
X2585740Y-2179020D01*
X2587720Y-2177040D01*
X2587720Y-2145560D01*
X2585740Y-2143580D01*
X2576780Y-2143580D01*
X2576780Y-2158160D01*
X2563780Y-2158160D01*
X2563780Y-2143580D01*
G37*
G36*
X2554260Y-2080980D02*
G01*
X2552280Y-2082960D01*
X2552280Y-2114060D01*
X2554260Y-2116020D01*
X2563780Y-2116020D01*
X2563780Y-2101060D01*
X2576780Y-2101060D01*
X2576780Y-2116020D01*
X2585740Y-2116020D01*
X2587720Y-2114060D01*
X2587720Y-2082960D01*
X2585740Y-2080980D01*
G37*
G36*
X872960Y-187280D02*
G01*
X870980Y-189259D01*
X870980Y-220740D01*
X872960Y-222719D01*
X904440Y-222719D01*
X906420Y-220740D01*
X906420Y-211780D01*
X891860Y-211780D01*
X891860Y-198780D01*
X906420Y-198780D01*
X906420Y-189259D01*
X904440Y-187280D01*
G37*
G36*
X935939Y-187280D02*
G01*
X933980Y-189259D01*
X933980Y-198780D01*
X948940Y-198780D01*
X948940Y-211780D01*
X933980Y-211780D01*
X933980Y-220740D01*
X935939Y-222719D01*
X967039Y-222719D01*
X969020Y-220740D01*
X969020Y-189259D01*
X967039Y-187280D01*
G37*
G36*
X1727960Y-547280D02*
G01*
X1725980Y-549260D01*
X1725980Y-580740D01*
X1727960Y-582720D01*
X1759440Y-582720D01*
X1761420Y-580740D01*
X1761420Y-571780D01*
X1746860Y-571780D01*
X1746860Y-558780D01*
X1761420Y-558780D01*
X1761420Y-549260D01*
X1759440Y-547280D01*
G37*
G36*
X1790940Y-547280D02*
G01*
X1788980Y-549260D01*
X1788980Y-558780D01*
X1803940Y-558780D01*
X1803940Y-571780D01*
X1788980Y-571780D01*
X1788980Y-580740D01*
X1790940Y-582720D01*
X1822040Y-582720D01*
X1824019Y-580740D01*
X1824019Y-549260D01*
X1822040Y-547280D01*
G37*
G36*
X1385560Y-547280D02*
G01*
X1383580Y-549260D01*
X1383580Y-558220D01*
X1398140Y-558220D01*
X1398140Y-571220D01*
X1383580Y-571220D01*
X1383580Y-580740D01*
X1385560Y-582720D01*
X1417040Y-582720D01*
X1419019Y-580740D01*
X1419019Y-549260D01*
X1417040Y-547280D01*
G37*
G36*
X1322960Y-547280D02*
G01*
X1320980Y-549260D01*
X1320980Y-580740D01*
X1322960Y-582720D01*
X1354060Y-582720D01*
X1356020Y-580740D01*
X1356020Y-571220D01*
X1341060Y-571220D01*
X1341060Y-558220D01*
X1356020Y-558220D01*
X1356020Y-549260D01*
X1354060Y-547280D01*
G37*
G36*
X872960Y-537280D02*
G01*
X870980Y-539260D01*
X870980Y-570740D01*
X872960Y-572720D01*
X904440Y-572720D01*
X906420Y-570740D01*
X906420Y-561780D01*
X891860Y-561780D01*
X891860Y-548780D01*
X906420Y-548780D01*
X906420Y-539260D01*
X904440Y-537280D01*
G37*
G36*
X935939Y-537280D02*
G01*
X933980Y-539260D01*
X933980Y-548780D01*
X948940Y-548780D01*
X948940Y-561780D01*
X933980Y-561780D01*
X933980Y-570740D01*
X935939Y-572720D01*
X967039Y-572720D01*
X969020Y-570740D01*
X969020Y-539260D01*
X967039Y-537280D01*
G37*
G36*
X872960Y-257280D02*
G01*
X870980Y-259259D01*
X870980Y-290740D01*
X872960Y-292720D01*
X904440Y-292720D01*
X906420Y-290740D01*
X906420Y-281780D01*
X891860Y-281780D01*
X891860Y-268780D01*
X906420Y-268780D01*
X906420Y-259259D01*
X904440Y-257280D01*
G37*
G36*
X935939Y-257280D02*
G01*
X933980Y-259259D01*
X933980Y-268780D01*
X948940Y-268780D01*
X948940Y-281780D01*
X933980Y-281780D01*
X933980Y-290740D01*
X935939Y-292720D01*
X967039Y-292720D01*
X969020Y-290740D01*
X969020Y-259259D01*
X967039Y-257280D01*
G37*
G36*
X872960Y-397280D02*
G01*
X870980Y-399260D01*
X870980Y-430740D01*
X872960Y-432720D01*
X904440Y-432720D01*
X906420Y-430740D01*
X906420Y-421780D01*
X891860Y-421780D01*
X891860Y-408780D01*
X906420Y-408780D01*
X906420Y-399260D01*
X904440Y-397280D01*
G37*
G36*
X935939Y-397280D02*
G01*
X933980Y-399260D01*
X933980Y-408780D01*
X948940Y-408780D01*
X948940Y-421780D01*
X933980Y-421780D01*
X933980Y-430740D01*
X935939Y-432720D01*
X967039Y-432720D01*
X969020Y-430740D01*
X969020Y-399260D01*
X967039Y-397280D01*
G37*
G36*
X2910560Y-1532280D02*
G01*
X2908580Y-1534259D01*
X2908580Y-1543220D01*
X2923140Y-1543220D01*
X2923140Y-1556220D01*
X2908580Y-1556220D01*
X2908580Y-1565740D01*
X2910560Y-1567720D01*
X2942040Y-1567720D01*
X2944020Y-1565740D01*
X2944020Y-1534259D01*
X2942040Y-1532280D01*
G37*
G36*
X2847960Y-1532280D02*
G01*
X2845980Y-1534259D01*
X2845980Y-1565740D01*
X2847960Y-1567720D01*
X2879060Y-1567720D01*
X2881019Y-1565740D01*
X2881019Y-1556220D01*
X2866060Y-1556220D01*
X2866060Y-1543220D01*
X2881019Y-1543220D01*
X2881019Y-1534259D01*
X2879060Y-1532280D01*
G37*
G36*
X3160560Y-1532280D02*
G01*
X3158580Y-1534259D01*
X3158580Y-1543220D01*
X3173140Y-1543220D01*
X3173140Y-1556220D01*
X3158580Y-1556220D01*
X3158580Y-1565740D01*
X3160560Y-1567720D01*
X3192040Y-1567720D01*
X3194020Y-1565740D01*
X3194020Y-1534259D01*
X3192040Y-1532280D01*
G37*
G36*
X3097960Y-1532280D02*
G01*
X3095980Y-1534259D01*
X3095980Y-1565740D01*
X3097960Y-1567720D01*
X3129060Y-1567720D01*
X3131019Y-1565740D01*
X3131019Y-1556220D01*
X3116060Y-1556220D01*
X3116060Y-1543220D01*
X3131019Y-1543220D01*
X3131019Y-1534259D01*
X3129060Y-1532280D01*
G37*
G36*
X2252960Y-1822280D02*
G01*
X2250980Y-1824259D01*
X2250980Y-1855740D01*
X2252960Y-1857720D01*
X2284440Y-1857720D01*
X2286420Y-1855740D01*
X2286420Y-1846780D01*
X2271860Y-1846780D01*
X2271860Y-1833779D01*
X2286420Y-1833779D01*
X2286420Y-1824259D01*
X2284440Y-1822280D01*
G37*
G36*
X2315940Y-1822280D02*
G01*
X2313980Y-1824259D01*
X2313980Y-1833779D01*
X2328940Y-1833779D01*
X2328940Y-1846780D01*
X2313980Y-1846780D01*
X2313980Y-1855740D01*
X2315940Y-1857720D01*
X2347040Y-1857720D01*
X2349020Y-1855740D01*
X2349020Y-1824259D01*
X2347040Y-1822280D01*
G37*
G36*
X2252960Y-1892280D02*
G01*
X2250980Y-1894259D01*
X2250980Y-1925740D01*
X2252960Y-1927720D01*
X2284440Y-1927720D01*
X2286420Y-1925740D01*
X2286420Y-1916780D01*
X2271860Y-1916780D01*
X2271860Y-1903779D01*
X2286420Y-1903779D01*
X2286420Y-1894259D01*
X2284440Y-1892280D01*
G37*
G36*
X2315940Y-1892280D02*
G01*
X2313980Y-1894259D01*
X2313980Y-1903779D01*
X2328940Y-1903779D01*
X2328940Y-1916780D01*
X2313980Y-1916780D01*
X2313980Y-1925740D01*
X2315940Y-1927720D01*
X2347040Y-1927720D01*
X2349020Y-1925740D01*
X2349020Y-1894259D01*
X2347040Y-1892280D01*
G37*
G36*
X2252960Y-1542280D02*
G01*
X2250980Y-1544259D01*
X2250980Y-1575740D01*
X2252960Y-1577720D01*
X2284440Y-1577720D01*
X2286420Y-1575740D01*
X2286420Y-1566780D01*
X2271860Y-1566780D01*
X2271860Y-1553779D01*
X2286420Y-1553779D01*
X2286420Y-1544259D01*
X2284440Y-1542280D01*
G37*
G36*
X2315940Y-1542280D02*
G01*
X2313980Y-1544259D01*
X2313980Y-1553779D01*
X2328940Y-1553779D01*
X2328940Y-1566780D01*
X2313980Y-1566780D01*
X2313980Y-1575740D01*
X2315940Y-1577720D01*
X2347040Y-1577720D01*
X2349020Y-1575740D01*
X2349020Y-1544259D01*
X2347040Y-1542280D01*
G37*
G36*
X2252960Y-1612280D02*
G01*
X2250980Y-1614259D01*
X2250980Y-1645740D01*
X2252960Y-1647720D01*
X2284440Y-1647720D01*
X2286420Y-1645740D01*
X2286420Y-1636780D01*
X2271860Y-1636780D01*
X2271860Y-1623779D01*
X2286420Y-1623779D01*
X2286420Y-1614259D01*
X2284440Y-1612280D01*
G37*
G36*
X2315940Y-1612280D02*
G01*
X2313980Y-1614259D01*
X2313980Y-1623779D01*
X2328940Y-1623779D01*
X2328940Y-1636780D01*
X2313980Y-1636780D01*
X2313980Y-1645740D01*
X2315940Y-1647720D01*
X2347040Y-1647720D01*
X2349020Y-1645740D01*
X2349020Y-1614259D01*
X2347040Y-1612280D01*
G37*
G36*
X2252960Y-1682280D02*
G01*
X2250980Y-1684259D01*
X2250980Y-1715740D01*
X2252960Y-1717720D01*
X2284440Y-1717720D01*
X2286420Y-1715740D01*
X2286420Y-1706780D01*
X2271860Y-1706780D01*
X2271860Y-1693779D01*
X2286420Y-1693779D01*
X2286420Y-1684259D01*
X2284440Y-1682280D01*
G37*
G36*
X2315940Y-1682280D02*
G01*
X2313980Y-1684259D01*
X2313980Y-1693779D01*
X2328940Y-1693779D01*
X2328940Y-1706780D01*
X2313980Y-1706780D01*
X2313980Y-1715740D01*
X2315940Y-1717720D01*
X2347040Y-1717720D01*
X2349020Y-1715740D01*
X2349020Y-1684259D01*
X2347040Y-1682280D01*
G37*
G36*
X2252960Y-1752280D02*
G01*
X2250980Y-1754259D01*
X2250980Y-1785740D01*
X2252960Y-1787720D01*
X2284440Y-1787720D01*
X2286420Y-1785740D01*
X2286420Y-1776780D01*
X2271860Y-1776780D01*
X2271860Y-1763779D01*
X2286420Y-1763779D01*
X2286420Y-1754259D01*
X2284440Y-1752280D01*
G37*
G36*
X2315940Y-1752280D02*
G01*
X2313980Y-1754259D01*
X2313980Y-1763779D01*
X2328940Y-1763779D01*
X2328940Y-1776780D01*
X2313980Y-1776780D01*
X2313980Y-1785740D01*
X2315940Y-1787720D01*
X2347040Y-1787720D01*
X2349020Y-1785740D01*
X2349020Y-1754259D01*
X2347040Y-1752280D01*
G37*
G36*
X2697960Y-1532280D02*
G01*
X2695980Y-1534259D01*
X2695980Y-1565740D01*
X2697960Y-1567720D01*
X2729440Y-1567720D01*
X2731420Y-1565740D01*
X2731420Y-1556780D01*
X2716860Y-1556780D01*
X2716860Y-1543779D01*
X2731420Y-1543779D01*
X2731420Y-1534259D01*
X2729440Y-1532280D01*
G37*
G36*
X2760940Y-1532280D02*
G01*
X2758980Y-1534259D01*
X2758980Y-1543779D01*
X2773940Y-1543779D01*
X2773940Y-1556780D01*
X2758980Y-1556780D01*
X2758980Y-1565740D01*
X2760940Y-1567720D01*
X2792040Y-1567720D01*
X2794020Y-1565740D01*
X2794020Y-1534259D01*
X2792040Y-1532280D01*
G37*
G36*
X935560Y-1682280D02*
G01*
X933580Y-1684259D01*
X933580Y-1693220D01*
X948139Y-1693220D01*
X948139Y-1706220D01*
X933580Y-1706220D01*
X933580Y-1715740D01*
X935560Y-1717720D01*
X967039Y-1717720D01*
X969020Y-1715740D01*
X969020Y-1684259D01*
X967039Y-1682280D01*
G37*
G36*
X872960Y-1682280D02*
G01*
X870980Y-1684259D01*
X870980Y-1715740D01*
X872960Y-1717720D01*
X904060Y-1717720D01*
X906020Y-1715740D01*
X906020Y-1706220D01*
X891060Y-1706220D01*
X891060Y-1693220D01*
X906020Y-1693220D01*
X906020Y-1684259D01*
X904060Y-1682280D01*
G37*
G36*
X872960Y-1822280D02*
G01*
X870980Y-1824259D01*
X870980Y-1855740D01*
X872960Y-1857720D01*
X904440Y-1857720D01*
X906420Y-1855740D01*
X906420Y-1846780D01*
X891860Y-1846780D01*
X891860Y-1833779D01*
X906420Y-1833779D01*
X906420Y-1824259D01*
X904440Y-1822280D01*
G37*
G36*
X935939Y-1822280D02*
G01*
X933980Y-1824259D01*
X933980Y-1833779D01*
X948940Y-1833779D01*
X948940Y-1846780D01*
X933980Y-1846780D01*
X933980Y-1855740D01*
X935939Y-1857720D01*
X967039Y-1857720D01*
X969020Y-1855740D01*
X969020Y-1824259D01*
X967039Y-1822280D01*
G37*
G36*
X872960Y-1752280D02*
G01*
X870980Y-1754259D01*
X870980Y-1785740D01*
X872960Y-1787720D01*
X904440Y-1787720D01*
X906420Y-1785740D01*
X906420Y-1776780D01*
X891860Y-1776780D01*
X891860Y-1763779D01*
X906420Y-1763779D01*
X906420Y-1754259D01*
X904440Y-1752280D01*
G37*
G36*
X935939Y-1752280D02*
G01*
X933980Y-1754259D01*
X933980Y-1763779D01*
X948940Y-1763779D01*
X948940Y-1776780D01*
X933980Y-1776780D01*
X933980Y-1785740D01*
X935939Y-1787720D01*
X967039Y-1787720D01*
X969020Y-1785740D01*
X969020Y-1754259D01*
X967039Y-1752280D01*
G37*
G36*
X872960Y-1612280D02*
G01*
X870980Y-1614259D01*
X870980Y-1645740D01*
X872960Y-1647720D01*
X904440Y-1647720D01*
X906420Y-1645740D01*
X906420Y-1636780D01*
X891860Y-1636780D01*
X891860Y-1623779D01*
X906420Y-1623779D01*
X906420Y-1614259D01*
X904440Y-1612280D01*
G37*
G36*
X935939Y-1612280D02*
G01*
X933980Y-1614259D01*
X933980Y-1623779D01*
X948940Y-1623779D01*
X948940Y-1636780D01*
X933980Y-1636780D01*
X933980Y-1645740D01*
X935939Y-1647720D01*
X967039Y-1647720D01*
X969020Y-1645740D01*
X969020Y-1614259D01*
X967039Y-1612280D01*
G37*
G36*
X872960Y-1542280D02*
G01*
X870980Y-1544259D01*
X870980Y-1575740D01*
X872960Y-1577720D01*
X904440Y-1577720D01*
X906420Y-1575740D01*
X906420Y-1566780D01*
X891860Y-1566780D01*
X891860Y-1553779D01*
X906420Y-1553779D01*
X906420Y-1544259D01*
X904440Y-1542280D01*
G37*
G36*
X935939Y-1542280D02*
G01*
X933980Y-1544259D01*
X933980Y-1553779D01*
X948940Y-1553779D01*
X948940Y-1566780D01*
X933980Y-1566780D01*
X933980Y-1575740D01*
X935939Y-1577720D01*
X967039Y-1577720D01*
X969020Y-1575740D01*
X969020Y-1544259D01*
X967039Y-1542280D01*
G37*
G36*
X872960Y-1962280D02*
G01*
X870980Y-1964259D01*
X870980Y-1995740D01*
X872960Y-1997720D01*
X904440Y-1997720D01*
X906420Y-1995740D01*
X906420Y-1986780D01*
X891860Y-1986780D01*
X891860Y-1973779D01*
X906420Y-1973779D01*
X906420Y-1964259D01*
X904440Y-1962280D01*
G37*
G36*
X935939Y-1962280D02*
G01*
X933980Y-1964259D01*
X933980Y-1973779D01*
X948940Y-1973779D01*
X948940Y-1986780D01*
X933980Y-1986780D01*
X933980Y-1995740D01*
X935939Y-1997720D01*
X967039Y-1997720D01*
X969020Y-1995740D01*
X969020Y-1964259D01*
X967039Y-1962280D01*
G37*
G36*
X872960Y-1892280D02*
G01*
X870980Y-1894259D01*
X870980Y-1925740D01*
X872960Y-1927720D01*
X904440Y-1927720D01*
X906420Y-1925740D01*
X906420Y-1916780D01*
X891860Y-1916780D01*
X891860Y-1903779D01*
X906420Y-1903779D01*
X906420Y-1894259D01*
X904440Y-1892280D01*
G37*
G36*
X935939Y-1892280D02*
G01*
X933980Y-1894259D01*
X933980Y-1903779D01*
X948940Y-1903779D01*
X948940Y-1916780D01*
X933980Y-1916780D01*
X933980Y-1925740D01*
X935939Y-1927720D01*
X967039Y-1927720D01*
X969020Y-1925740D01*
X969020Y-1894259D01*
X967039Y-1892280D01*
G37*
G36*
X1510560Y-1532280D02*
G01*
X1508580Y-1534259D01*
X1508580Y-1543220D01*
X1523140Y-1543220D01*
X1523140Y-1556220D01*
X1508580Y-1556220D01*
X1508580Y-1565740D01*
X1510560Y-1567720D01*
X1542040Y-1567720D01*
X1544019Y-1565740D01*
X1544019Y-1534259D01*
X1542040Y-1532280D01*
G37*
G36*
X1447960Y-1532280D02*
G01*
X1445980Y-1534259D01*
X1445980Y-1565740D01*
X1447960Y-1567720D01*
X1479060Y-1567720D01*
X1481020Y-1565740D01*
X1481020Y-1556220D01*
X1466060Y-1556220D01*
X1466060Y-1543220D01*
X1481020Y-1543220D01*
X1481020Y-1534259D01*
X1479060Y-1532280D01*
G37*
G36*
X1385560Y-1532280D02*
G01*
X1383580Y-1534259D01*
X1383580Y-1543220D01*
X1398140Y-1543220D01*
X1398140Y-1556220D01*
X1383580Y-1556220D01*
X1383580Y-1565740D01*
X1385560Y-1567720D01*
X1417040Y-1567720D01*
X1419019Y-1565740D01*
X1419019Y-1534259D01*
X1417040Y-1532280D01*
G37*
G36*
X1322960Y-1532280D02*
G01*
X1320980Y-1534259D01*
X1320980Y-1565740D01*
X1322960Y-1567720D01*
X1354060Y-1567720D01*
X1356020Y-1565740D01*
X1356020Y-1556220D01*
X1341060Y-1556220D01*
X1341060Y-1543220D01*
X1356020Y-1543220D01*
X1356020Y-1534259D01*
X1354060Y-1532280D01*
G37*
G36*
X144260Y84019D02*
G01*
X142280Y82040D01*
X142280Y50560D01*
X144260Y48580D01*
X153220Y48580D01*
X153220Y63160D01*
X166220Y63160D01*
X166220Y48580D01*
X175740Y48580D01*
X177719Y50560D01*
X177719Y82040D01*
X175740Y84019D01*
G37*
G36*
X144260Y21020D02*
G01*
X142280Y19060D01*
X142280Y-12040D01*
X144260Y-14020D01*
X175740Y-14020D01*
X177719Y-12040D01*
X177719Y19060D01*
X175740Y21020D01*
X166220Y21020D01*
X166220Y6060D01*
X153220Y6060D01*
X153220Y21020D01*
G37*
G36*
X144260Y146420D02*
G01*
X142280Y144440D01*
X142280Y112960D01*
X144260Y110980D01*
X175740Y110980D01*
X177719Y112960D01*
X177719Y144440D01*
X175740Y146420D01*
X166780Y146420D01*
X166780Y131840D01*
X153780Y131840D01*
X153780Y146420D01*
G37*
G36*
X144260Y209020D02*
G01*
X142280Y207040D01*
X142280Y175940D01*
X144260Y173980D01*
X153780Y173980D01*
X153780Y188939D01*
X166780Y188939D01*
X166780Y173980D01*
X175740Y173980D01*
X177719Y175940D01*
X177719Y207040D01*
X175740Y209020D01*
G37*
G36*
X1044260Y169020D02*
G01*
X1042280Y167040D01*
X1042280Y135560D01*
X1044260Y133580D01*
X1053220Y133580D01*
X1053220Y148160D01*
X1066220Y148160D01*
X1066220Y133580D01*
X1075740Y133580D01*
X1077720Y135560D01*
X1077720Y167040D01*
X1075740Y169020D01*
G37*
G36*
X1044260Y106020D02*
G01*
X1042280Y104060D01*
X1042280Y72960D01*
X1044260Y70980D01*
X1075740Y70980D01*
X1077720Y72960D01*
X1077720Y104060D01*
X1075740Y106020D01*
X1066220Y106020D01*
X1066220Y91060D01*
X1053220Y91060D01*
X1053220Y106020D01*
G37*
G36*
X639260Y106420D02*
G01*
X637280Y104440D01*
X637280Y72960D01*
X639260Y70980D01*
X670740Y70980D01*
X672720Y72960D01*
X672720Y104440D01*
X670740Y106420D01*
X661780Y106420D01*
X661780Y91840D01*
X648780Y91840D01*
X648780Y106420D01*
G37*
G36*
X639260Y169020D02*
G01*
X637280Y167040D01*
X637280Y135940D01*
X639260Y133980D01*
X648780Y133980D01*
X648780Y148940D01*
X661780Y148940D01*
X661780Y133980D01*
X670740Y133980D01*
X672720Y135940D01*
X672720Y167040D01*
X670740Y169020D01*
G37*
G36*
X499260Y-1263580D02*
G01*
X497280Y-1265560D01*
X497280Y-1297040D01*
X499260Y-1299019D01*
X530740Y-1299019D01*
X532720Y-1297040D01*
X532720Y-1265560D01*
X530740Y-1263580D01*
X521780Y-1263580D01*
X521780Y-1278160D01*
X508780Y-1278160D01*
X508780Y-1263580D01*
G37*
G36*
X499260Y-1200980D02*
G01*
X497280Y-1202960D01*
X497280Y-1234060D01*
X499260Y-1236020D01*
X508780Y-1236020D01*
X508780Y-1221060D01*
X521780Y-1221060D01*
X521780Y-1236020D01*
X530740Y-1236020D01*
X532720Y-1234060D01*
X532720Y-1202960D01*
X530740Y-1200980D01*
G37*
G36*
X494260Y-1450980D02*
G01*
X492280Y-1452960D01*
X492280Y-1484440D01*
X494260Y-1486420D01*
X503220Y-1486420D01*
X503220Y-1471840D01*
X516220Y-1471840D01*
X516220Y-1486420D01*
X525740Y-1486420D01*
X527720Y-1484440D01*
X527720Y-1452960D01*
X525740Y-1450980D01*
G37*
G36*
X494260Y-1513980D02*
G01*
X492280Y-1515940D01*
X492280Y-1547040D01*
X494260Y-1549019D01*
X525740Y-1549019D01*
X527720Y-1547040D01*
X527720Y-1515940D01*
X525740Y-1513980D01*
X516220Y-1513980D01*
X516220Y-1528940D01*
X503220Y-1528940D01*
X503220Y-1513980D01*
G37*
G36*
X224259Y84019D02*
G01*
X222280Y82040D01*
X222280Y50560D01*
X224259Y48580D01*
X233220Y48580D01*
X233220Y63160D01*
X246220Y63160D01*
X246220Y48580D01*
X255740Y48580D01*
X257719Y50560D01*
X257719Y82040D01*
X255740Y84019D01*
G37*
G36*
X224259Y21020D02*
G01*
X222280Y19060D01*
X222280Y-12040D01*
X224259Y-14020D01*
X255740Y-14020D01*
X257719Y-12040D01*
X257719Y19060D01*
X255740Y21020D01*
X246220Y21020D01*
X246220Y6060D01*
X233220Y6060D01*
X233220Y21020D01*
G37*
G36*
X212960Y152720D02*
G01*
X210980Y150740D01*
X210980Y119260D01*
X212960Y117280D01*
X244440Y117280D01*
X246420Y119260D01*
X246420Y128219D01*
X231840Y128219D01*
X231840Y141220D01*
X246420Y141220D01*
X246420Y150740D01*
X244440Y152720D01*
G37*
G36*
X275940Y152720D02*
G01*
X273980Y150740D01*
X273980Y141220D01*
X288940Y141220D01*
X288940Y128219D01*
X273980Y128219D01*
X273980Y119260D01*
X275940Y117280D01*
X307040Y117280D01*
X309020Y119260D01*
X309020Y150740D01*
X307040Y152720D01*
G37*
G36*
X499260Y-1388580D02*
G01*
X497280Y-1390560D01*
X497280Y-1422040D01*
X499260Y-1424019D01*
X530740Y-1424019D01*
X532720Y-1422040D01*
X532720Y-1390560D01*
X530740Y-1388580D01*
X521780Y-1388580D01*
X521780Y-1403160D01*
X508780Y-1403160D01*
X508780Y-1388580D01*
G37*
G36*
X499260Y-1325980D02*
G01*
X497280Y-1327960D01*
X497280Y-1359060D01*
X499260Y-1361020D01*
X508780Y-1361020D01*
X508780Y-1346060D01*
X521780Y-1346060D01*
X521780Y-1361020D01*
X530740Y-1361020D01*
X532720Y-1359060D01*
X532720Y-1327960D01*
X530740Y-1325980D01*
G37*
G36*
X229340Y-752900D02*
G01*
X214180Y-771320D01*
X214180Y-788680D01*
X229340Y-807099D01*
X256400Y-807099D01*
X260340Y-803160D01*
X260340Y-756820D01*
X256400Y-752900D01*
G37*
G36*
X143600Y-752900D02*
G01*
X139660Y-756820D01*
X139660Y-803160D01*
X143600Y-807099D01*
X170660Y-807099D01*
X185820Y-788680D01*
X185820Y-771320D01*
X170660Y-752900D01*
G37*
G36*
X813379Y-761520D02*
G01*
X809440Y-765460D01*
X809440Y-779680D01*
X813379Y-783620D01*
X821680Y-783620D01*
X825620Y-787560D01*
X825620Y-802440D01*
X821680Y-806380D01*
X813379Y-806380D01*
X809440Y-810320D01*
X809440Y-824539D01*
X813379Y-828480D01*
X853060Y-828480D01*
X856979Y-824539D01*
X856979Y-765460D01*
X853060Y-761520D01*
G37*
G36*
X696940Y-761520D02*
G01*
X693020Y-765460D01*
X693020Y-824539D01*
X696940Y-828480D01*
X736620Y-828480D01*
X740560Y-824539D01*
X740560Y-810320D01*
X736620Y-806380D01*
X728319Y-806380D01*
X724380Y-802440D01*
X724380Y-787560D01*
X728319Y-783620D01*
X736620Y-783620D01*
X740560Y-779680D01*
X740560Y-765460D01*
X736620Y-761520D01*
G37*
G36*
X745460Y-479440D02*
G01*
X741520Y-483380D01*
X741520Y-523060D01*
X745460Y-526980D01*
X804539Y-526980D01*
X808480Y-523060D01*
X808480Y-483380D01*
X804539Y-479440D01*
X790320Y-479440D01*
X786380Y-483380D01*
X786380Y-491680D01*
X782440Y-495620D01*
X767560Y-495620D01*
X763620Y-491680D01*
X763620Y-483380D01*
X759680Y-479440D01*
G37*
G36*
X745460Y-363020D02*
G01*
X741520Y-366940D01*
X741520Y-406620D01*
X745460Y-410560D01*
X759680Y-410560D01*
X763620Y-406620D01*
X763620Y-398320D01*
X767560Y-394380D01*
X782440Y-394380D01*
X786380Y-398320D01*
X786380Y-406620D01*
X790320Y-410560D01*
X804539Y-410560D01*
X808480Y-406620D01*
X808480Y-366940D01*
X804539Y-363020D01*
G37*
G36*
X745460Y-163020D02*
G01*
X741520Y-166940D01*
X741520Y-206620D01*
X745460Y-210560D01*
X759680Y-210560D01*
X763620Y-206620D01*
X763620Y-198320D01*
X767560Y-194380D01*
X782440Y-194380D01*
X786380Y-198320D01*
X786380Y-206620D01*
X790320Y-210560D01*
X804539Y-210560D01*
X808480Y-206620D01*
X808480Y-166940D01*
X804539Y-163020D01*
G37*
G36*
X745460Y-279440D02*
G01*
X741520Y-283380D01*
X741520Y-323060D01*
X745460Y-326980D01*
X804539Y-326980D01*
X808480Y-323060D01*
X808480Y-283380D01*
X804539Y-279440D01*
X790320Y-279440D01*
X786380Y-283380D01*
X786380Y-291680D01*
X782440Y-295620D01*
X767560Y-295620D01*
X763620Y-291680D01*
X763620Y-283380D01*
X759680Y-279440D01*
G37*
G36*
X745460Y-563020D02*
G01*
X741520Y-566940D01*
X741520Y-606620D01*
X745460Y-610560D01*
X759680Y-610560D01*
X763620Y-606620D01*
X763620Y-598320D01*
X767560Y-594380D01*
X782440Y-594380D01*
X786380Y-598320D01*
X786380Y-606620D01*
X790320Y-610560D01*
X804539Y-610560D01*
X808480Y-606620D01*
X808480Y-566940D01*
X804539Y-563020D01*
G37*
G36*
X745460Y-679440D02*
G01*
X741520Y-683379D01*
X741520Y-723060D01*
X745460Y-726979D01*
X804539Y-726979D01*
X808480Y-723060D01*
X808480Y-683379D01*
X804539Y-679440D01*
X790320Y-679440D01*
X786380Y-683379D01*
X786380Y-691680D01*
X782440Y-695620D01*
X767560Y-695620D01*
X763620Y-691680D01*
X763620Y-683379D01*
X759680Y-679440D01*
G37*
G36*
X714260Y-948580D02*
G01*
X712280Y-950560D01*
X712280Y-982039D01*
X714260Y-984020D01*
X745740Y-984020D01*
X747720Y-982039D01*
X747720Y-950560D01*
X745740Y-948580D01*
X736780Y-948580D01*
X736780Y-963160D01*
X723780Y-963160D01*
X723780Y-948580D01*
G37*
G36*
X714260Y-885980D02*
G01*
X712280Y-887960D01*
X712280Y-919060D01*
X714260Y-921020D01*
X723780Y-921020D01*
X723780Y-906060D01*
X736780Y-906060D01*
X736780Y-921020D01*
X745740Y-921020D01*
X747720Y-919060D01*
X747720Y-887960D01*
X745740Y-885980D01*
G37*
G36*
X789260Y-885980D02*
G01*
X787280Y-887960D01*
X787280Y-919440D01*
X789260Y-921420D01*
X798220Y-921420D01*
X798220Y-906840D01*
X811220Y-906840D01*
X811220Y-921420D01*
X820740Y-921420D01*
X822720Y-919440D01*
X822720Y-887960D01*
X820740Y-885980D01*
G37*
G36*
X789260Y-948980D02*
G01*
X787280Y-950939D01*
X787280Y-982039D01*
X789260Y-984020D01*
X820740Y-984020D01*
X822720Y-982039D01*
X822720Y-950939D01*
X820740Y-948980D01*
X811220Y-948980D01*
X811220Y-963940D01*
X798220Y-963940D01*
X798220Y-948980D01*
G37*
G36*
X2252960Y-537280D02*
G01*
X2250980Y-539260D01*
X2250980Y-570740D01*
X2252960Y-572720D01*
X2284440Y-572720D01*
X2286420Y-570740D01*
X2286420Y-561780D01*
X2271860Y-561780D01*
X2271860Y-548780D01*
X2286420Y-548780D01*
X2286420Y-539260D01*
X2284440Y-537280D01*
G37*
G36*
X2315940Y-537280D02*
G01*
X2313980Y-539260D01*
X2313980Y-548780D01*
X2328940Y-548780D01*
X2328940Y-561780D01*
X2313980Y-561780D01*
X2313980Y-570740D01*
X2315940Y-572720D01*
X2347040Y-572720D01*
X2349020Y-570740D01*
X2349020Y-539260D01*
X2347040Y-537280D01*
G37*
G36*
X2252960Y-467280D02*
G01*
X2250980Y-469260D01*
X2250980Y-500740D01*
X2252960Y-502720D01*
X2284440Y-502720D01*
X2286420Y-500740D01*
X2286420Y-491780D01*
X2271860Y-491780D01*
X2271860Y-478780D01*
X2286420Y-478780D01*
X2286420Y-469260D01*
X2284440Y-467280D01*
G37*
G36*
X2315940Y-467280D02*
G01*
X2313980Y-469260D01*
X2313980Y-478780D01*
X2328940Y-478780D01*
X2328940Y-491780D01*
X2313980Y-491780D01*
X2313980Y-500740D01*
X2315940Y-502720D01*
X2347040Y-502720D01*
X2349020Y-500740D01*
X2349020Y-469260D01*
X2347040Y-467280D01*
G37*
G36*
X2252960Y-397280D02*
G01*
X2250980Y-399260D01*
X2250980Y-430740D01*
X2252960Y-432720D01*
X2284440Y-432720D01*
X2286420Y-430740D01*
X2286420Y-421780D01*
X2271860Y-421780D01*
X2271860Y-408780D01*
X2286420Y-408780D01*
X2286420Y-399260D01*
X2284440Y-397280D01*
G37*
G36*
X2315940Y-397280D02*
G01*
X2313980Y-399260D01*
X2313980Y-408780D01*
X2328940Y-408780D01*
X2328940Y-421780D01*
X2313980Y-421780D01*
X2313980Y-430740D01*
X2315940Y-432720D01*
X2347040Y-432720D01*
X2349020Y-430740D01*
X2349020Y-399260D01*
X2347040Y-397280D01*
G37*
G36*
X2252960Y-257280D02*
G01*
X2250980Y-259259D01*
X2250980Y-290740D01*
X2252960Y-292720D01*
X2284440Y-292720D01*
X2286420Y-290740D01*
X2286420Y-281780D01*
X2271860Y-281780D01*
X2271860Y-268780D01*
X2286420Y-268780D01*
X2286420Y-259259D01*
X2284440Y-257280D01*
G37*
G36*
X2315940Y-257280D02*
G01*
X2313980Y-259259D01*
X2313980Y-268780D01*
X2328940Y-268780D01*
X2328940Y-281780D01*
X2313980Y-281780D01*
X2313980Y-290740D01*
X2315940Y-292720D01*
X2347040Y-292720D01*
X2349020Y-290740D01*
X2349020Y-259259D01*
X2347040Y-257280D01*
G37*
G36*
X3092960Y-547280D02*
G01*
X3090980Y-549260D01*
X3090980Y-580740D01*
X3092960Y-582720D01*
X3124440Y-582720D01*
X3126420Y-580740D01*
X3126420Y-571780D01*
X3111860Y-571780D01*
X3111860Y-558780D01*
X3126420Y-558780D01*
X3126420Y-549260D01*
X3124440Y-547280D01*
G37*
G36*
X3155940Y-547280D02*
G01*
X3153980Y-549260D01*
X3153980Y-558780D01*
X3168940Y-558780D01*
X3168940Y-571780D01*
X3153980Y-571780D01*
X3153980Y-580740D01*
X3155940Y-582720D01*
X3187040Y-582720D01*
X3189020Y-580740D01*
X3189020Y-549260D01*
X3187040Y-547280D01*
G37*
G36*
X2760560Y-547280D02*
G01*
X2758580Y-549260D01*
X2758580Y-558220D01*
X2773140Y-558220D01*
X2773140Y-571220D01*
X2758580Y-571220D01*
X2758580Y-580740D01*
X2760560Y-582720D01*
X2792040Y-582720D01*
X2794020Y-580740D01*
X2794020Y-549260D01*
X2792040Y-547280D01*
G37*
G36*
X2697960Y-547280D02*
G01*
X2695980Y-549260D01*
X2695980Y-580740D01*
X2697960Y-582720D01*
X2729060Y-582720D01*
X2731019Y-580740D01*
X2731019Y-571220D01*
X2716060Y-571220D01*
X2716060Y-558220D01*
X2731019Y-558220D01*
X2731019Y-549260D01*
X2729060Y-547280D01*
G37*
G36*
X2252960Y-327280D02*
G01*
X2250980Y-329260D01*
X2250980Y-360740D01*
X2252960Y-362720D01*
X2284440Y-362720D01*
X2286420Y-360740D01*
X2286420Y-351780D01*
X2271860Y-351780D01*
X2271860Y-338780D01*
X2286420Y-338780D01*
X2286420Y-329260D01*
X2284440Y-327280D01*
G37*
G36*
X2315940Y-327280D02*
G01*
X2313980Y-329260D01*
X2313980Y-338780D01*
X2328940Y-338780D01*
X2328940Y-351780D01*
X2313980Y-351780D01*
X2313980Y-360740D01*
X2315940Y-362720D01*
X2347040Y-362720D01*
X2349020Y-360740D01*
X2349020Y-329260D01*
X2347040Y-327280D01*
G37*
G36*
X2252960Y-187280D02*
G01*
X2250980Y-189259D01*
X2250980Y-220740D01*
X2252960Y-222719D01*
X2284440Y-222719D01*
X2286420Y-220740D01*
X2286420Y-211780D01*
X2271860Y-211780D01*
X2271860Y-198780D01*
X2286420Y-198780D01*
X2286420Y-189259D01*
X2284440Y-187280D01*
G37*
G36*
X2315940Y-187280D02*
G01*
X2313980Y-189259D01*
X2313980Y-198780D01*
X2328940Y-198780D01*
X2328940Y-211780D01*
X2313980Y-211780D01*
X2313980Y-220740D01*
X2315940Y-222719D01*
X2347040Y-222719D01*
X2349020Y-220740D01*
X2349020Y-189259D01*
X2347040Y-187280D01*
G37*
G36*
X2847960Y-547280D02*
G01*
X2845980Y-549260D01*
X2845980Y-580740D01*
X2847960Y-582720D01*
X2879440Y-582720D01*
X2881420Y-580740D01*
X2881420Y-571780D01*
X2866860Y-571780D01*
X2866860Y-558780D01*
X2881420Y-558780D01*
X2881420Y-549260D01*
X2879440Y-547280D01*
G37*
G36*
X2910940Y-547280D02*
G01*
X2908980Y-549260D01*
X2908980Y-558780D01*
X2923940Y-558780D01*
X2923940Y-571780D01*
X2908980Y-571780D01*
X2908980Y-580740D01*
X2910940Y-582720D01*
X2942040Y-582720D01*
X2944020Y-580740D01*
X2944020Y-549260D01*
X2942040Y-547280D01*
G37*
G36*
X1472960Y-547280D02*
G01*
X1470980Y-549260D01*
X1470980Y-580740D01*
X1472960Y-582720D01*
X1504440Y-582720D01*
X1506420Y-580740D01*
X1506420Y-571780D01*
X1491860Y-571780D01*
X1491860Y-558780D01*
X1506420Y-558780D01*
X1506420Y-549260D01*
X1504440Y-547280D01*
G37*
G36*
X1535940Y-547280D02*
G01*
X1533980Y-549260D01*
X1533980Y-558780D01*
X1548940Y-558780D01*
X1548940Y-571780D01*
X1533980Y-571780D01*
X1533980Y-580740D01*
X1535940Y-582720D01*
X1567040Y-582720D01*
X1569019Y-580740D01*
X1569019Y-549260D01*
X1567040Y-547280D01*
G37*
G36*
X872960Y-327280D02*
G01*
X870980Y-329260D01*
X870980Y-360740D01*
X872960Y-362720D01*
X904440Y-362720D01*
X906420Y-360740D01*
X906420Y-351780D01*
X891860Y-351780D01*
X891860Y-338780D01*
X906420Y-338780D01*
X906420Y-329260D01*
X904440Y-327280D01*
G37*
G36*
X935939Y-327280D02*
G01*
X933980Y-329260D01*
X933980Y-338780D01*
X948940Y-338780D01*
X948940Y-351780D01*
X933980Y-351780D01*
X933980Y-360740D01*
X935939Y-362720D01*
X967039Y-362720D01*
X969020Y-360740D01*
X969020Y-329260D01*
X967039Y-327280D01*
G37*
G36*
X872960Y-467280D02*
G01*
X870980Y-469260D01*
X870980Y-500740D01*
X872960Y-502720D01*
X904440Y-502720D01*
X906420Y-500740D01*
X906420Y-491780D01*
X891860Y-491780D01*
X891860Y-478780D01*
X906420Y-478780D01*
X906420Y-469260D01*
X904440Y-467280D01*
G37*
G36*
X935939Y-467280D02*
G01*
X933980Y-469260D01*
X933980Y-478780D01*
X948940Y-478780D01*
X948940Y-491780D01*
X933980Y-491780D01*
X933980Y-500740D01*
X935939Y-502720D01*
X967039Y-502720D01*
X969020Y-500740D01*
X969020Y-469260D01*
X967039Y-467280D01*
G37*
G36*
X133820Y-187280D02*
G01*
X131840Y-189259D01*
X131840Y-220740D01*
X133820Y-222719D01*
X167280Y-222719D01*
X169259Y-220740D01*
X169259Y-210900D01*
X157440Y-210900D01*
X157440Y-199100D01*
X169259Y-199100D01*
X169259Y-189259D01*
X167280Y-187280D01*
G37*
G36*
X202719Y-187280D02*
G01*
X200740Y-189259D01*
X200740Y-199100D01*
X212560Y-199100D01*
X212560Y-210900D01*
X200740Y-210900D01*
X200740Y-220740D01*
X202719Y-222719D01*
X236180Y-222719D01*
X238140Y-220740D01*
X238140Y-189259D01*
X236180Y-187280D01*
G37*
G36*
X399260Y-546840D02*
G01*
X397280Y-548820D01*
X397280Y-582280D01*
X399260Y-584260D01*
X409099Y-584260D01*
X409099Y-572440D01*
X420900Y-572440D01*
X420900Y-584260D01*
X430740Y-584260D01*
X432720Y-582280D01*
X432720Y-548820D01*
X430740Y-546840D01*
G37*
G36*
X399260Y-615740D02*
G01*
X397280Y-617720D01*
X397280Y-651180D01*
X399260Y-653139D01*
X430740Y-653139D01*
X432720Y-651180D01*
X432720Y-617720D01*
X430740Y-615740D01*
X420900Y-615740D01*
X420900Y-627560D01*
X409099Y-627560D01*
X409099Y-615740D01*
G37*
G36*
X200560Y-257280D02*
G01*
X198580Y-259259D01*
X198580Y-268220D01*
X213160Y-268220D01*
X213160Y-281220D01*
X198580Y-281220D01*
X198580Y-290740D01*
X200560Y-292720D01*
X232040Y-292720D01*
X234020Y-290740D01*
X234020Y-259259D01*
X232040Y-257280D01*
G37*
G36*
X137960Y-257280D02*
G01*
X135980Y-259259D01*
X135980Y-290740D01*
X137960Y-292720D01*
X169060Y-292720D01*
X171020Y-290740D01*
X171020Y-281220D01*
X156060Y-281220D01*
X156060Y-268220D01*
X171020Y-268220D01*
X171020Y-259259D01*
X169060Y-257280D01*
G37*
G36*
X554260Y-623580D02*
G01*
X552280Y-625560D01*
X552280Y-657039D01*
X554260Y-659020D01*
X585740Y-659020D01*
X587720Y-657039D01*
X587720Y-625560D01*
X585740Y-623580D01*
X576780Y-623580D01*
X576780Y-638160D01*
X563780Y-638160D01*
X563780Y-623580D01*
G37*
G36*
X554260Y-560980D02*
G01*
X552280Y-562960D01*
X552280Y-594060D01*
X554260Y-596020D01*
X563780Y-596020D01*
X563780Y-581060D01*
X576780Y-581060D01*
X576780Y-596020D01*
X585740Y-596020D01*
X587720Y-594060D01*
X587720Y-562960D01*
X585740Y-560980D01*
G37*
G36*
X819260Y-2020980D02*
G01*
X817280Y-2022960D01*
X817280Y-2054440D01*
X819260Y-2056420D01*
X828220Y-2056420D01*
X828220Y-2041840D01*
X841220Y-2041840D01*
X841220Y-2056420D01*
X850740Y-2056420D01*
X852720Y-2054440D01*
X852720Y-2022960D01*
X850740Y-2020980D01*
G37*
G36*
X819260Y-2083980D02*
G01*
X817280Y-2085940D01*
X817280Y-2117040D01*
X819260Y-2119020D01*
X850740Y-2119020D01*
X852720Y-2117040D01*
X852720Y-2085940D01*
X850740Y-2083980D01*
X841220Y-2083980D01*
X841220Y-2098940D01*
X828220Y-2098940D01*
X828220Y-2083980D01*
G37*
G36*
X762960Y-2147280D02*
G01*
X760980Y-2149260D01*
X760980Y-2180740D01*
X762960Y-2182720D01*
X794440Y-2182720D01*
X796420Y-2180740D01*
X796420Y-2171780D01*
X781860Y-2171780D01*
X781860Y-2158780D01*
X796420Y-2158780D01*
X796420Y-2149260D01*
X794440Y-2147280D01*
G37*
G36*
X825939Y-2147280D02*
G01*
X823980Y-2149260D01*
X823980Y-2158780D01*
X838940Y-2158780D01*
X838940Y-2171780D01*
X823980Y-2171780D01*
X823980Y-2180740D01*
X825939Y-2182720D01*
X857039Y-2182720D01*
X859020Y-2180740D01*
X859020Y-2149260D01*
X857039Y-2147280D01*
G37*
G36*
X552960Y-2077280D02*
G01*
X550980Y-2079259D01*
X550980Y-2110740D01*
X552960Y-2112720D01*
X584440Y-2112720D01*
X586420Y-2110740D01*
X586420Y-2101780D01*
X571840Y-2101780D01*
X571840Y-2088779D01*
X586420Y-2088779D01*
X586420Y-2079259D01*
X584440Y-2077280D01*
G37*
G36*
X615940Y-2077280D02*
G01*
X613980Y-2079259D01*
X613980Y-2088779D01*
X628940Y-2088779D01*
X628940Y-2101780D01*
X613980Y-2101780D01*
X613980Y-2110740D01*
X615940Y-2112720D01*
X647039Y-2112720D01*
X649020Y-2110740D01*
X649020Y-2079259D01*
X647039Y-2077280D01*
G37*
G36*
X535560Y-2142280D02*
G01*
X533580Y-2144260D01*
X533580Y-2153220D01*
X548160Y-2153220D01*
X548160Y-2166220D01*
X533580Y-2166220D01*
X533580Y-2175740D01*
X535560Y-2177720D01*
X567040Y-2177720D01*
X569020Y-2175740D01*
X569020Y-2144260D01*
X567040Y-2142280D01*
G37*
G36*
X472960Y-2142280D02*
G01*
X470980Y-2144260D01*
X470980Y-2175740D01*
X472960Y-2177720D01*
X504060Y-2177720D01*
X506019Y-2175740D01*
X506019Y-2166220D01*
X491060Y-2166220D01*
X491060Y-2153220D01*
X506019Y-2153220D01*
X506019Y-2144260D01*
X504060Y-2142280D01*
G37*
G36*
X1057960Y-2152280D02*
G01*
X1055980Y-2154260D01*
X1055980Y-2185740D01*
X1057960Y-2187720D01*
X1089440Y-2187720D01*
X1091420Y-2185740D01*
X1091420Y-2176780D01*
X1076860Y-2176780D01*
X1076860Y-2163780D01*
X1091420Y-2163780D01*
X1091420Y-2154260D01*
X1089440Y-2152280D01*
G37*
G36*
X1120940Y-2152280D02*
G01*
X1118980Y-2154260D01*
X1118980Y-2163780D01*
X1133940Y-2163780D01*
X1133940Y-2176780D01*
X1118980Y-2176780D01*
X1118980Y-2185740D01*
X1120940Y-2187720D01*
X1152040Y-2187720D01*
X1154020Y-2185740D01*
X1154020Y-2154260D01*
X1152040Y-2152280D01*
G37*
G36*
X1102960Y-2062280D02*
G01*
X1100980Y-2064259D01*
X1100980Y-2095740D01*
X1102960Y-2097720D01*
X1134440Y-2097720D01*
X1136420Y-2095740D01*
X1136420Y-2086780D01*
X1121860Y-2086780D01*
X1121860Y-2073779D01*
X1136420Y-2073779D01*
X1136420Y-2064259D01*
X1134440Y-2062280D01*
G37*
G36*
X1165940Y-2062280D02*
G01*
X1163980Y-2064259D01*
X1163980Y-2073779D01*
X1178940Y-2073779D01*
X1178940Y-2086780D01*
X1163980Y-2086780D01*
X1163980Y-2095740D01*
X1165940Y-2097720D01*
X1197040Y-2097720D01*
X1199020Y-2095740D01*
X1199020Y-2064259D01*
X1197040Y-2062280D01*
G37*
G36*
X1290560Y-2062280D02*
G01*
X1288580Y-2064259D01*
X1288580Y-2073220D01*
X1303140Y-2073220D01*
X1303140Y-2086220D01*
X1288580Y-2086220D01*
X1288580Y-2095740D01*
X1290560Y-2097720D01*
X1322040Y-2097720D01*
X1324019Y-2095740D01*
X1324019Y-2064259D01*
X1322040Y-2062280D01*
G37*
G36*
X1227960Y-2062280D02*
G01*
X1225980Y-2064259D01*
X1225980Y-2095740D01*
X1227960Y-2097720D01*
X1259060Y-2097720D01*
X1261020Y-2095740D01*
X1261020Y-2086220D01*
X1246060Y-2086220D01*
X1246060Y-2073220D01*
X1261020Y-2073220D01*
X1261020Y-2064259D01*
X1259060Y-2062280D01*
G37*
G36*
X489260Y-1955740D02*
G01*
X487280Y-1957720D01*
X487280Y-1991180D01*
X489260Y-1993160D01*
X520740Y-1993160D01*
X522720Y-1991180D01*
X522720Y-1957720D01*
X520740Y-1955740D01*
X510900Y-1955740D01*
X510900Y-1967560D01*
X499099Y-1967560D01*
X499099Y-1955740D01*
G37*
G36*
X489260Y-1886860D02*
G01*
X487280Y-1888820D01*
X487280Y-1922280D01*
X489260Y-1924259D01*
X499099Y-1924259D01*
X499099Y-1912440D01*
X510900Y-1912440D01*
X510900Y-1924259D01*
X520740Y-1924259D01*
X522720Y-1922280D01*
X522720Y-1888820D01*
X520740Y-1886860D01*
G37*
G36*
X887960Y-2152280D02*
G01*
X885980Y-2154260D01*
X885980Y-2185740D01*
X887960Y-2187720D01*
X919440Y-2187720D01*
X921420Y-2185740D01*
X921420Y-2176780D01*
X906860Y-2176780D01*
X906860Y-2163780D01*
X921420Y-2163780D01*
X921420Y-2154260D01*
X919440Y-2152280D01*
G37*
G36*
X950939Y-2152280D02*
G01*
X948980Y-2154260D01*
X948980Y-2163780D01*
X963940Y-2163780D01*
X963940Y-2176780D01*
X948980Y-2176780D01*
X948980Y-2185740D01*
X950939Y-2187720D01*
X982039Y-2187720D01*
X984020Y-2185740D01*
X984020Y-2154260D01*
X982039Y-2152280D01*
G37*
G36*
X884260Y-2025980D02*
G01*
X882280Y-2027960D01*
X882280Y-2059440D01*
X884260Y-2061420D01*
X893220Y-2061420D01*
X893220Y-2046840D01*
X906220Y-2046840D01*
X906220Y-2061420D01*
X915740Y-2061420D01*
X917720Y-2059440D01*
X917720Y-2027960D01*
X915740Y-2025980D01*
G37*
G36*
X884260Y-2088980D02*
G01*
X882280Y-2090940D01*
X882280Y-2122040D01*
X884260Y-2124020D01*
X915740Y-2124020D01*
X917720Y-2122040D01*
X917720Y-2090940D01*
X915740Y-2088980D01*
X906220Y-2088980D01*
X906220Y-2103940D01*
X893220Y-2103940D01*
X893220Y-2088980D01*
G37*
G36*
X489260Y-2015980D02*
G01*
X487280Y-2017960D01*
X487280Y-2049440D01*
X489260Y-2051420D01*
X498220Y-2051420D01*
X498220Y-2036840D01*
X511220Y-2036840D01*
X511220Y-2051420D01*
X520740Y-2051420D01*
X522720Y-2049440D01*
X522720Y-2017960D01*
X520740Y-2015980D01*
G37*
G36*
X489260Y-2078980D02*
G01*
X487280Y-2080940D01*
X487280Y-2112040D01*
X489260Y-2114020D01*
X520740Y-2114020D01*
X522720Y-2112040D01*
X522720Y-2080940D01*
X520740Y-2078980D01*
X511220Y-2078980D01*
X511220Y-2093940D01*
X498220Y-2093940D01*
X498220Y-2078980D01*
G37*
G36*
X1183820Y-2152280D02*
G01*
X1181840Y-2154260D01*
X1181840Y-2185740D01*
X1183820Y-2187720D01*
X1217280Y-2187720D01*
X1219260Y-2185740D01*
X1219260Y-2175900D01*
X1207440Y-2175900D01*
X1207440Y-2164100D01*
X1219260Y-2164100D01*
X1219260Y-2154260D01*
X1217280Y-2152280D01*
G37*
G36*
X1252720Y-2152280D02*
G01*
X1250740Y-2154260D01*
X1250740Y-2164100D01*
X1262560Y-2164100D01*
X1262560Y-2175900D01*
X1250740Y-2175900D01*
X1250740Y-2185740D01*
X1252720Y-2187720D01*
X1286180Y-2187720D01*
X1288140Y-2185740D01*
X1288140Y-2154260D01*
X1286180Y-2152280D01*
G37*
G36*
X3359260Y-2095980D02*
G01*
X3357280Y-2097960D01*
X3357280Y-2129440D01*
X3359260Y-2131420D01*
X3368220Y-2131420D01*
X3368220Y-2116840D01*
X3381220Y-2116840D01*
X3381220Y-2131420D01*
X3390740Y-2131420D01*
X3392720Y-2129440D01*
X3392720Y-2097960D01*
X3390740Y-2095980D01*
G37*
G36*
X3359260Y-2158980D02*
G01*
X3357280Y-2160940D01*
X3357280Y-2192040D01*
X3359260Y-2194020D01*
X3390740Y-2194020D01*
X3392720Y-2192040D01*
X3392720Y-2160940D01*
X3390740Y-2158980D01*
X3381220Y-2158980D01*
X3381220Y-2173940D01*
X3368220Y-2173940D01*
X3368220Y-2158980D01*
G37*
G36*
X3847960Y-1637280D02*
G01*
X3845980Y-1639259D01*
X3845980Y-1670740D01*
X3847960Y-1672720D01*
X3879440Y-1672720D01*
X3881420Y-1670740D01*
X3881420Y-1661780D01*
X3866860Y-1661780D01*
X3866860Y-1648779D01*
X3881420Y-1648779D01*
X3881420Y-1639259D01*
X3879440Y-1637280D01*
G37*
G36*
X3910940Y-1637280D02*
G01*
X3908980Y-1639259D01*
X3908980Y-1648779D01*
X3923940Y-1648779D01*
X3923940Y-1661780D01*
X3908980Y-1661780D01*
X3908980Y-1670740D01*
X3910940Y-1672720D01*
X3942040Y-1672720D01*
X3944020Y-1670740D01*
X3944020Y-1639259D01*
X3942040Y-1637280D01*
G37*
G36*
X3284260Y-2158580D02*
G01*
X3282280Y-2160560D01*
X3282280Y-2192040D01*
X3284260Y-2194020D01*
X3315740Y-2194020D01*
X3317720Y-2192040D01*
X3317720Y-2160560D01*
X3315740Y-2158580D01*
X3306780Y-2158580D01*
X3306780Y-2173160D01*
X3293780Y-2173160D01*
X3293780Y-2158580D01*
G37*
G36*
X3284260Y-2095980D02*
G01*
X3282280Y-2097960D01*
X3282280Y-2129060D01*
X3284260Y-2131020D01*
X3293780Y-2131020D01*
X3293780Y-2116060D01*
X3306780Y-2116060D01*
X3306780Y-2131020D01*
X3315740Y-2131020D01*
X3317720Y-2129060D01*
X3317720Y-2097960D01*
X3315740Y-2095980D01*
G37*
G36*
X3910560Y-1437280D02*
G01*
X3908580Y-1439259D01*
X3908580Y-1448220D01*
X3923140Y-1448220D01*
X3923140Y-1461220D01*
X3908580Y-1461220D01*
X3908580Y-1470740D01*
X3910560Y-1472720D01*
X3942040Y-1472720D01*
X3944020Y-1470740D01*
X3944020Y-1439259D01*
X3942040Y-1437280D01*
G37*
G36*
X3847960Y-1437280D02*
G01*
X3845980Y-1439259D01*
X3845980Y-1470740D01*
X3847960Y-1472720D01*
X3879060Y-1472720D01*
X3881019Y-1470740D01*
X3881019Y-1461220D01*
X3866060Y-1461220D01*
X3866060Y-1448220D01*
X3881019Y-1448220D01*
X3881019Y-1439259D01*
X3879060Y-1437280D01*
G37*
G36*
X3910560Y-1537280D02*
G01*
X3908580Y-1539259D01*
X3908580Y-1548220D01*
X3923140Y-1548220D01*
X3923140Y-1561220D01*
X3908580Y-1561220D01*
X3908580Y-1570740D01*
X3910560Y-1572720D01*
X3942040Y-1572720D01*
X3944020Y-1570740D01*
X3944020Y-1539259D01*
X3942040Y-1537280D01*
G37*
G36*
X3847960Y-1537280D02*
G01*
X3845980Y-1539259D01*
X3845980Y-1570740D01*
X3847960Y-1572720D01*
X3879060Y-1572720D01*
X3881019Y-1570740D01*
X3881019Y-1561220D01*
X3866060Y-1561220D01*
X3866060Y-1548220D01*
X3881019Y-1548220D01*
X3881019Y-1539259D01*
X3879060Y-1537280D01*
G37*
G36*
X741940Y-1126520D02*
G01*
X738020Y-1130460D01*
X738020Y-1189540D01*
X741940Y-1193480D01*
X781620Y-1193480D01*
X785560Y-1189540D01*
X785560Y-1175320D01*
X781620Y-1171380D01*
X773319Y-1171380D01*
X769380Y-1167440D01*
X769380Y-1152560D01*
X773319Y-1148620D01*
X781620Y-1148620D01*
X785560Y-1144680D01*
X785560Y-1130460D01*
X781620Y-1126520D01*
G37*
G36*
X858379Y-1126520D02*
G01*
X854440Y-1130460D01*
X854440Y-1144680D01*
X858379Y-1148620D01*
X866680Y-1148620D01*
X870620Y-1152560D01*
X870620Y-1167440D01*
X866680Y-1171380D01*
X858379Y-1171380D01*
X854440Y-1175320D01*
X854440Y-1189540D01*
X858379Y-1193480D01*
X898060Y-1193480D01*
X901979Y-1189540D01*
X901979Y-1130460D01*
X898060Y-1126520D01*
G37*
G36*
X858379Y-1016520D02*
G01*
X854440Y-1020460D01*
X854440Y-1034680D01*
X858379Y-1038620D01*
X866680Y-1038620D01*
X870620Y-1042560D01*
X870620Y-1057440D01*
X866680Y-1061380D01*
X858379Y-1061380D01*
X854440Y-1065320D01*
X854440Y-1079540D01*
X858379Y-1083480D01*
X898060Y-1083480D01*
X901979Y-1079540D01*
X901979Y-1020460D01*
X898060Y-1016520D01*
G37*
G36*
X741940Y-1016520D02*
G01*
X738020Y-1020460D01*
X738020Y-1079540D01*
X741940Y-1083480D01*
X781620Y-1083480D01*
X785560Y-1079540D01*
X785560Y-1065320D01*
X781620Y-1061380D01*
X773319Y-1061380D01*
X769380Y-1057440D01*
X769380Y-1042560D01*
X773319Y-1038620D01*
X781620Y-1038620D01*
X785560Y-1034680D01*
X785560Y-1020460D01*
X781620Y-1016520D01*
G37*
D13*
X1855612Y-495000D02*
G01*
X1909647Y-495000D01*
X1855612Y-445000D02*
G01*
X1909647Y-445000D01*
X1855612Y-395000D02*
G01*
X1909647Y-395000D01*
X1855612Y-345000D02*
G01*
X1909647Y-345000D01*
X1855612Y-295000D02*
G01*
X1909647Y-295000D01*
X1855612Y-245000D02*
G01*
X1909647Y-245000D01*
X1855612Y-195000D02*
G01*
X1909647Y-195000D01*
X1640352Y-495000D02*
G01*
X1694387Y-495000D01*
X1640352Y-445000D02*
G01*
X1694387Y-445000D01*
X1640352Y-395000D02*
G01*
X1694387Y-395000D01*
X1640352Y-345000D02*
G01*
X1694387Y-345000D01*
X1640352Y-295000D02*
G01*
X1694387Y-295000D01*
X1640352Y-245000D02*
G01*
X1694387Y-245000D01*
X1640352Y-195000D02*
G01*
X1694387Y-195000D01*
X1525612Y-495000D02*
G01*
X1579647Y-495000D01*
X1525612Y-445000D02*
G01*
X1579647Y-445000D01*
X1525612Y-395000D02*
G01*
X1579647Y-395000D01*
X1525612Y-345000D02*
G01*
X1579647Y-345000D01*
X1525612Y-295000D02*
G01*
X1579647Y-295000D01*
X1525612Y-245000D02*
G01*
X1579647Y-245000D01*
X1525612Y-195000D02*
G01*
X1579647Y-195000D01*
X1310352Y-495000D02*
G01*
X1364387Y-495000D01*
X1310352Y-445000D02*
G01*
X1364387Y-445000D01*
X1310352Y-395000D02*
G01*
X1364387Y-395000D01*
X1310352Y-345000D02*
G01*
X1364387Y-345000D01*
X1310352Y-295000D02*
G01*
X1364387Y-295000D01*
X1310352Y-245000D02*
G01*
X1364387Y-245000D01*
X1310352Y-195000D02*
G01*
X1364387Y-195000D01*
D14*
X1257055Y-560000D02*
G01*
X1217685Y-560000D01*
X1257055Y-510000D02*
G01*
X1217685Y-510000D01*
X1257055Y-460000D02*
G01*
X1217685Y-460000D01*
X1257055Y-410000D02*
G01*
X1217685Y-410000D01*
X1257055Y-360000D02*
G01*
X1217685Y-360000D01*
X1257055Y-310000D02*
G01*
X1217685Y-310000D01*
X1257055Y-260000D02*
G01*
X1217685Y-260000D01*
X1257055Y-210000D02*
G01*
X1217685Y-210000D01*
X1052325Y-560000D02*
G01*
X1012955Y-560000D01*
X1052325Y-510000D02*
G01*
X1012955Y-510000D01*
X1052325Y-460000D02*
G01*
X1012955Y-460000D01*
X1052325Y-410000D02*
G01*
X1012955Y-410000D01*
X1052325Y-360000D02*
G01*
X1012955Y-360000D01*
X1052325Y-310000D02*
G01*
X1012955Y-310000D01*
X1052325Y-260000D02*
G01*
X1012955Y-260000D01*
X1052325Y-210000D02*
G01*
X1012955Y-210000D01*
X2207055Y-560000D02*
G01*
X2167685Y-560000D01*
X2207055Y-510000D02*
G01*
X2167685Y-510000D01*
X2207055Y-460000D02*
G01*
X2167685Y-460000D01*
X2207055Y-410000D02*
G01*
X2167685Y-410000D01*
X2207055Y-360000D02*
G01*
X2167685Y-360000D01*
X2207055Y-310000D02*
G01*
X2167685Y-310000D01*
X2207055Y-260000D02*
G01*
X2167685Y-260000D01*
X2207055Y-210000D02*
G01*
X2167685Y-210000D01*
X2002325Y-560000D02*
G01*
X1962955Y-560000D01*
X2002325Y-510000D02*
G01*
X1962955Y-510000D01*
X2002325Y-460000D02*
G01*
X1962955Y-460000D01*
X2002325Y-410000D02*
G01*
X1962955Y-410000D01*
X2002325Y-360000D02*
G01*
X1962955Y-360000D01*
X2002325Y-310000D02*
G01*
X1962955Y-310000D01*
X2002325Y-260000D02*
G01*
X1962955Y-260000D01*
X2002325Y-210000D02*
G01*
X1962955Y-210000D01*
X3327955Y-1555000D02*
G01*
X3367325Y-1555000D01*
X3327955Y-1605000D02*
G01*
X3367325Y-1605000D01*
X3327955Y-1655000D02*
G01*
X3367325Y-1655000D01*
X3327955Y-1705000D02*
G01*
X3367325Y-1705000D01*
X3327955Y-1755000D02*
G01*
X3367325Y-1755000D01*
X3327955Y-1805000D02*
G01*
X3367325Y-1805000D01*
X3327955Y-1855000D02*
G01*
X3367325Y-1855000D01*
X3327955Y-1905000D02*
G01*
X3367325Y-1905000D01*
X3532685Y-1555000D02*
G01*
X3572055Y-1555000D01*
X3532685Y-1605000D02*
G01*
X3572055Y-1605000D01*
X3532685Y-1655000D02*
G01*
X3572055Y-1655000D01*
X3532685Y-1705000D02*
G01*
X3572055Y-1705000D01*
X3532685Y-1755000D02*
G01*
X3572055Y-1755000D01*
X3532685Y-1805000D02*
G01*
X3572055Y-1805000D01*
X3532685Y-1855000D02*
G01*
X3572055Y-1855000D01*
X3532685Y-1905000D02*
G01*
X3572055Y-1905000D01*
X2387955Y-1555000D02*
G01*
X2427325Y-1555000D01*
X2387955Y-1605000D02*
G01*
X2427325Y-1605000D01*
X2387955Y-1655000D02*
G01*
X2427325Y-1655000D01*
X2387955Y-1705000D02*
G01*
X2427325Y-1705000D01*
X2387955Y-1755000D02*
G01*
X2427325Y-1755000D01*
X2387955Y-1805000D02*
G01*
X2427325Y-1805000D01*
X2387955Y-1855000D02*
G01*
X2427325Y-1855000D01*
X2387955Y-1905000D02*
G01*
X2427325Y-1905000D01*
X2592685Y-1555000D02*
G01*
X2632055Y-1555000D01*
X2592685Y-1605000D02*
G01*
X2632055Y-1605000D01*
X2592685Y-1655000D02*
G01*
X2632055Y-1655000D01*
X2592685Y-1705000D02*
G01*
X2632055Y-1705000D01*
X2592685Y-1755000D02*
G01*
X2632055Y-1755000D01*
X2592685Y-1805000D02*
G01*
X2632055Y-1805000D01*
X2592685Y-1855000D02*
G01*
X2632055Y-1855000D01*
X2592685Y-1905000D02*
G01*
X2632055Y-1905000D01*
D13*
X3059387Y-1615000D02*
G01*
X3005352Y-1615000D01*
X3059387Y-1665000D02*
G01*
X3005352Y-1665000D01*
X3059387Y-1715000D02*
G01*
X3005352Y-1715000D01*
X3059387Y-1765000D02*
G01*
X3005352Y-1765000D01*
X3059387Y-1815000D02*
G01*
X3005352Y-1815000D01*
X3059387Y-1865000D02*
G01*
X3005352Y-1865000D01*
X3059387Y-1915000D02*
G01*
X3005352Y-1915000D01*
X3274647Y-1615000D02*
G01*
X3220612Y-1615000D01*
X3274647Y-1665000D02*
G01*
X3220612Y-1665000D01*
X3274647Y-1715000D02*
G01*
X3220612Y-1715000D01*
X3274647Y-1765000D02*
G01*
X3220612Y-1765000D01*
X3274647Y-1815000D02*
G01*
X3220612Y-1815000D01*
X3274647Y-1865000D02*
G01*
X3220612Y-1865000D01*
X3274647Y-1915000D02*
G01*
X3220612Y-1915000D01*
X2739387Y-1615000D02*
G01*
X2685352Y-1615000D01*
X2739387Y-1665000D02*
G01*
X2685352Y-1665000D01*
X2739387Y-1715000D02*
G01*
X2685352Y-1715000D01*
X2739387Y-1765000D02*
G01*
X2685352Y-1765000D01*
X2739387Y-1815000D02*
G01*
X2685352Y-1815000D01*
X2739387Y-1865000D02*
G01*
X2685352Y-1865000D01*
X2739387Y-1915000D02*
G01*
X2685352Y-1915000D01*
X2954647Y-1615000D02*
G01*
X2900612Y-1615000D01*
X2954647Y-1665000D02*
G01*
X2900612Y-1665000D01*
X2954647Y-1715000D02*
G01*
X2900612Y-1715000D01*
X2954647Y-1765000D02*
G01*
X2900612Y-1765000D01*
X2954647Y-1815000D02*
G01*
X2900612Y-1815000D01*
X2954647Y-1865000D02*
G01*
X2900612Y-1865000D01*
X2954647Y-1915000D02*
G01*
X2900612Y-1915000D01*
X1364387Y-1615000D02*
G01*
X1310352Y-1615000D01*
X1364387Y-1665000D02*
G01*
X1310352Y-1665000D01*
X1364387Y-1715000D02*
G01*
X1310352Y-1715000D01*
X1364387Y-1765000D02*
G01*
X1310352Y-1765000D01*
X1364387Y-1815000D02*
G01*
X1310352Y-1815000D01*
X1364387Y-1865000D02*
G01*
X1310352Y-1865000D01*
X1364387Y-1915000D02*
G01*
X1310352Y-1915000D01*
X1579647Y-1615000D02*
G01*
X1525612Y-1615000D01*
X1579647Y-1665000D02*
G01*
X1525612Y-1665000D01*
X1579647Y-1715000D02*
G01*
X1525612Y-1715000D01*
X1579647Y-1765000D02*
G01*
X1525612Y-1765000D01*
X1579647Y-1815000D02*
G01*
X1525612Y-1815000D01*
X1579647Y-1865000D02*
G01*
X1525612Y-1865000D01*
X1579647Y-1915000D02*
G01*
X1525612Y-1915000D01*
X1694387Y-1615000D02*
G01*
X1640352Y-1615000D01*
X1694387Y-1665000D02*
G01*
X1640352Y-1665000D01*
X1694387Y-1715000D02*
G01*
X1640352Y-1715000D01*
X1694387Y-1765000D02*
G01*
X1640352Y-1765000D01*
X1694387Y-1815000D02*
G01*
X1640352Y-1815000D01*
X1694387Y-1865000D02*
G01*
X1640352Y-1865000D01*
X1694387Y-1915000D02*
G01*
X1640352Y-1915000D01*
X1909647Y-1615000D02*
G01*
X1855612Y-1615000D01*
X1909647Y-1665000D02*
G01*
X1855612Y-1665000D01*
X1909647Y-1715000D02*
G01*
X1855612Y-1715000D01*
X1909647Y-1765000D02*
G01*
X1855612Y-1765000D01*
X1909647Y-1815000D02*
G01*
X1855612Y-1815000D01*
X1909647Y-1865000D02*
G01*
X1855612Y-1865000D01*
X1909647Y-1915000D02*
G01*
X1855612Y-1915000D01*
D14*
X1012955Y-1555000D02*
G01*
X1052325Y-1555000D01*
X1012955Y-1605000D02*
G01*
X1052325Y-1605000D01*
X1012955Y-1655000D02*
G01*
X1052325Y-1655000D01*
X1012955Y-1705000D02*
G01*
X1052325Y-1705000D01*
X1012955Y-1755000D02*
G01*
X1052325Y-1755000D01*
X1012955Y-1805000D02*
G01*
X1052325Y-1805000D01*
X1012955Y-1855000D02*
G01*
X1052325Y-1855000D01*
X1012955Y-1905000D02*
G01*
X1052325Y-1905000D01*
X1217685Y-1555000D02*
G01*
X1257055Y-1555000D01*
X1217685Y-1605000D02*
G01*
X1257055Y-1605000D01*
X1217685Y-1655000D02*
G01*
X1257055Y-1655000D01*
X1217685Y-1705000D02*
G01*
X1257055Y-1705000D01*
X1217685Y-1755000D02*
G01*
X1257055Y-1755000D01*
X1217685Y-1805000D02*
G01*
X1257055Y-1805000D01*
X1217685Y-1855000D02*
G01*
X1257055Y-1855000D01*
X1217685Y-1905000D02*
G01*
X1257055Y-1905000D01*
X1962955Y-1555000D02*
G01*
X2002325Y-1555000D01*
X1962955Y-1605000D02*
G01*
X2002325Y-1605000D01*
X1962955Y-1655000D02*
G01*
X2002325Y-1655000D01*
X1962955Y-1705000D02*
G01*
X2002325Y-1705000D01*
X1962955Y-1755000D02*
G01*
X2002325Y-1755000D01*
X1962955Y-1805000D02*
G01*
X2002325Y-1805000D01*
X1962955Y-1855000D02*
G01*
X2002325Y-1855000D01*
X1962955Y-1905000D02*
G01*
X2002325Y-1905000D01*
X2167685Y-1555000D02*
G01*
X2207055Y-1555000D01*
X2167685Y-1605000D02*
G01*
X2207055Y-1605000D01*
X2167685Y-1655000D02*
G01*
X2207055Y-1655000D01*
X2167685Y-1705000D02*
G01*
X2207055Y-1705000D01*
X2167685Y-1755000D02*
G01*
X2207055Y-1755000D01*
X2167685Y-1805000D02*
G01*
X2207055Y-1805000D01*
X2167685Y-1855000D02*
G01*
X2207055Y-1855000D01*
X2167685Y-1905000D02*
G01*
X2207055Y-1905000D01*
X572955Y-1605000D02*
G01*
X612325Y-1605000D01*
X572955Y-1655000D02*
G01*
X612325Y-1655000D01*
X572955Y-1705000D02*
G01*
X612325Y-1705000D01*
X572955Y-1755000D02*
G01*
X612325Y-1755000D01*
X572955Y-1805000D02*
G01*
X612325Y-1805000D01*
X572955Y-1855000D02*
G01*
X612325Y-1855000D01*
X572955Y-1905000D02*
G01*
X612325Y-1905000D01*
X572955Y-1955000D02*
G01*
X612325Y-1955000D01*
X777685Y-1605000D02*
G01*
X817055Y-1605000D01*
X777685Y-1655000D02*
G01*
X817055Y-1655000D01*
X777685Y-1705000D02*
G01*
X817055Y-1705000D01*
X777685Y-1755000D02*
G01*
X817055Y-1755000D01*
X777685Y-1805000D02*
G01*
X817055Y-1805000D01*
X777685Y-1855000D02*
G01*
X817055Y-1855000D01*
X777685Y-1905000D02*
G01*
X817055Y-1905000D01*
X777685Y-1955000D02*
G01*
X817055Y-1955000D01*
X490000Y-1587955D02*
G01*
X490000Y-1627325D01*
X440000Y-1587955D02*
G01*
X440000Y-1627325D01*
X390000Y-1587955D02*
G01*
X390000Y-1627325D01*
X340000Y-1587955D02*
G01*
X340000Y-1627325D01*
X290000Y-1587955D02*
G01*
X290000Y-1627325D01*
X240000Y-1587955D02*
G01*
X240000Y-1627325D01*
X190000Y-1587955D02*
G01*
X190000Y-1627325D01*
X140000Y-1587955D02*
G01*
X140000Y-1627325D01*
X490000Y-1792685D02*
G01*
X490000Y-1832055D01*
X440000Y-1792685D02*
G01*
X440000Y-1832055D01*
X390000Y-1792685D02*
G01*
X390000Y-1832055D01*
X340000Y-1792685D02*
G01*
X340000Y-1832055D01*
X290000Y-1792685D02*
G01*
X290000Y-1832055D01*
X240000Y-1792685D02*
G01*
X240000Y-1832055D01*
X190000Y-1792685D02*
G01*
X190000Y-1832055D01*
X140000Y-1792685D02*
G01*
X140000Y-1832055D01*
D13*
X440000Y-1299387D02*
G01*
X440000Y-1245351D01*
X390000Y-1299387D02*
G01*
X390000Y-1245351D01*
X340000Y-1299387D02*
G01*
X340000Y-1245351D01*
X290000Y-1299387D02*
G01*
X290000Y-1245351D01*
X240000Y-1299387D02*
G01*
X240000Y-1245351D01*
X190000Y-1299387D02*
G01*
X190000Y-1245351D01*
X140000Y-1299387D02*
G01*
X140000Y-1245351D01*
X440000Y-1514648D02*
G01*
X440000Y-1460612D01*
X390000Y-1514648D02*
G01*
X390000Y-1460612D01*
X340000Y-1514648D02*
G01*
X340000Y-1460612D01*
X290000Y-1514648D02*
G01*
X290000Y-1460612D01*
X240000Y-1514648D02*
G01*
X240000Y-1460612D01*
X190000Y-1514648D02*
G01*
X190000Y-1460612D01*
X140000Y-1514648D02*
G01*
X140000Y-1460612D01*
X900000Y-1284387D02*
G01*
X900000Y-1230351D01*
X850000Y-1284387D02*
G01*
X850000Y-1230351D01*
X800000Y-1284387D02*
G01*
X800000Y-1230351D01*
X750000Y-1284387D02*
G01*
X750000Y-1230351D01*
X700000Y-1284387D02*
G01*
X700000Y-1230351D01*
X650000Y-1284387D02*
G01*
X650000Y-1230351D01*
X600000Y-1284387D02*
G01*
X600000Y-1230351D01*
X900000Y-1499648D02*
G01*
X900000Y-1445612D01*
X850000Y-1499648D02*
G01*
X850000Y-1445612D01*
X800000Y-1499648D02*
G01*
X800000Y-1445612D01*
X750000Y-1499648D02*
G01*
X750000Y-1445612D01*
X700000Y-1499648D02*
G01*
X700000Y-1445612D01*
X650000Y-1499648D02*
G01*
X650000Y-1445612D01*
X600000Y-1499648D02*
G01*
X600000Y-1445612D01*
X2900612Y-495000D02*
G01*
X2954647Y-495000D01*
X2900612Y-445000D02*
G01*
X2954647Y-445000D01*
X2900612Y-395000D02*
G01*
X2954647Y-395000D01*
X2900612Y-345000D02*
G01*
X2954647Y-345000D01*
X2900612Y-295000D02*
G01*
X2954647Y-295000D01*
X2900612Y-245000D02*
G01*
X2954647Y-245000D01*
X2900612Y-195000D02*
G01*
X2954647Y-195000D01*
X2685352Y-495000D02*
G01*
X2739387Y-495000D01*
X2685352Y-445000D02*
G01*
X2739387Y-445000D01*
X2685352Y-395000D02*
G01*
X2739387Y-395000D01*
X2685352Y-345000D02*
G01*
X2739387Y-345000D01*
X2685352Y-295000D02*
G01*
X2739387Y-295000D01*
X2685352Y-245000D02*
G01*
X2739387Y-245000D01*
X2685352Y-195000D02*
G01*
X2739387Y-195000D01*
X3220612Y-495000D02*
G01*
X3274647Y-495000D01*
X3220612Y-445000D02*
G01*
X3274647Y-445000D01*
X3220612Y-395000D02*
G01*
X3274647Y-395000D01*
X3220612Y-345000D02*
G01*
X3274647Y-345000D01*
X3220612Y-295000D02*
G01*
X3274647Y-295000D01*
X3220612Y-245000D02*
G01*
X3274647Y-245000D01*
X3220612Y-195000D02*
G01*
X3274647Y-195000D01*
X3005352Y-495000D02*
G01*
X3059387Y-495000D01*
X3005352Y-445000D02*
G01*
X3059387Y-445000D01*
X3005352Y-395000D02*
G01*
X3059387Y-395000D01*
X3005352Y-345000D02*
G01*
X3059387Y-345000D01*
X3005352Y-295000D02*
G01*
X3059387Y-295000D01*
X3005352Y-245000D02*
G01*
X3059387Y-245000D01*
X3005352Y-195000D02*
G01*
X3059387Y-195000D01*
D14*
X3572055Y-560000D02*
G01*
X3532685Y-560000D01*
X3572055Y-510000D02*
G01*
X3532685Y-510000D01*
X3572055Y-460000D02*
G01*
X3532685Y-460000D01*
X3572055Y-410000D02*
G01*
X3532685Y-410000D01*
X3572055Y-360000D02*
G01*
X3532685Y-360000D01*
X3572055Y-310000D02*
G01*
X3532685Y-310000D01*
X3572055Y-260000D02*
G01*
X3532685Y-260000D01*
X3572055Y-210000D02*
G01*
X3532685Y-210000D01*
X3367325Y-560000D02*
G01*
X3327955Y-560000D01*
X3367325Y-510000D02*
G01*
X3327955Y-510000D01*
X3367325Y-460000D02*
G01*
X3327955Y-460000D01*
X3367325Y-410000D02*
G01*
X3327955Y-410000D01*
X3367325Y-360000D02*
G01*
X3327955Y-360000D01*
X3367325Y-310000D02*
G01*
X3327955Y-310000D01*
X3367325Y-260000D02*
G01*
X3327955Y-260000D01*
X3367325Y-210000D02*
G01*
X3327955Y-210000D01*
X2632055Y-560000D02*
G01*
X2592685Y-560000D01*
X2632055Y-510000D02*
G01*
X2592685Y-510000D01*
X2632055Y-460000D02*
G01*
X2592685Y-460000D01*
X2632055Y-410000D02*
G01*
X2592685Y-410000D01*
X2632055Y-360000D02*
G01*
X2592685Y-360000D01*
X2632055Y-310000D02*
G01*
X2592685Y-310000D01*
X2632055Y-260000D02*
G01*
X2592685Y-260000D01*
X2632055Y-210000D02*
G01*
X2592685Y-210000D01*
X2427325Y-560000D02*
G01*
X2387955Y-560000D01*
X2427325Y-510000D02*
G01*
X2387955Y-510000D01*
X2427325Y-460000D02*
G01*
X2387955Y-460000D01*
X2427325Y-410000D02*
G01*
X2387955Y-410000D01*
X2427325Y-360000D02*
G01*
X2387955Y-360000D01*
X2427325Y-310000D02*
G01*
X2387955Y-310000D01*
X2427325Y-260000D02*
G01*
X2387955Y-260000D01*
X2427325Y-210000D02*
G01*
X2387955Y-210000D01*
D15*
X430700Y-750000D02*
G01*
X376298Y-750000D01*
X430700Y-800000D02*
G01*
X376298Y-800000D01*
X430700Y-850000D02*
G01*
X376298Y-850000D01*
X430700Y-900000D02*
G01*
X376298Y-900000D01*
X643701Y-750000D02*
G01*
X589299Y-750000D01*
X643701Y-800000D02*
G01*
X589299Y-800000D01*
X643701Y-850000D02*
G01*
X589299Y-850000D01*
X643701Y-900000D02*
G01*
X589299Y-900000D01*
D13*
X324387Y-205000D02*
G01*
X270351Y-205000D01*
X324387Y-255000D02*
G01*
X270351Y-255000D01*
X324387Y-305000D02*
G01*
X270351Y-305000D01*
X324387Y-355000D02*
G01*
X270351Y-355000D01*
X324387Y-405000D02*
G01*
X270351Y-405000D01*
X324387Y-455000D02*
G01*
X270351Y-455000D01*
X324387Y-505000D02*
G01*
X270351Y-505000D01*
X539648Y-205000D02*
G01*
X485612Y-205000D01*
X539648Y-255000D02*
G01*
X485612Y-255000D01*
X539648Y-305000D02*
G01*
X485612Y-305000D01*
X539648Y-355000D02*
G01*
X485612Y-355000D01*
X539648Y-405000D02*
G01*
X485612Y-405000D01*
X539648Y-455000D02*
G01*
X485612Y-455000D01*
X539648Y-505000D02*
G01*
X485612Y-505000D01*
X440000Y-1949387D02*
G01*
X440000Y-1895351D01*
X390000Y-1949387D02*
G01*
X390000Y-1895351D01*
X340000Y-1949387D02*
G01*
X340000Y-1895351D01*
X290000Y-1949387D02*
G01*
X290000Y-1895351D01*
X240000Y-1949387D02*
G01*
X240000Y-1895351D01*
X190000Y-1949387D02*
G01*
X190000Y-1895351D01*
X140000Y-1949387D02*
G01*
X140000Y-1895351D01*
X440000Y-2164648D02*
G01*
X440000Y-2110612D01*
X390000Y-2164648D02*
G01*
X390000Y-2110612D01*
X340000Y-2164648D02*
G01*
X340000Y-2110612D01*
X290000Y-2164648D02*
G01*
X290000Y-2110612D01*
X240000Y-2164648D02*
G01*
X240000Y-2110612D01*
X190000Y-2164648D02*
G01*
X190000Y-2110612D01*
X140000Y-2164648D02*
G01*
X140000Y-2110612D01*
X3729387Y-1875000D02*
G01*
X3675352Y-1875000D01*
X3729387Y-1925000D02*
G01*
X3675352Y-1925000D01*
X3729387Y-1975000D02*
G01*
X3675352Y-1975000D01*
X3729387Y-2025000D02*
G01*
X3675352Y-2025000D01*
X3729387Y-2075000D02*
G01*
X3675352Y-2075000D01*
X3729387Y-2125000D02*
G01*
X3675352Y-2125000D01*
X3729387Y-2175000D02*
G01*
X3675352Y-2175000D01*
X3944647Y-1875000D02*
G01*
X3890612Y-1875000D01*
X3944647Y-1925000D02*
G01*
X3890612Y-1925000D01*
X3944647Y-1975000D02*
G01*
X3890612Y-1975000D01*
X3944647Y-2025000D02*
G01*
X3890612Y-2025000D01*
X3944647Y-2075000D02*
G01*
X3890612Y-2075000D01*
X3944647Y-2125000D02*
G01*
X3890612Y-2125000D01*
X3944647Y-2175000D02*
G01*
X3890612Y-2175000D01*
D21*
G01*
X3895000Y-1378499D03*
G01*
X3895000Y-1311500D03*
G01*
X3895000Y-1016500D03*
G01*
X3895000Y-1083499D03*
G36*
X2699251Y142247D02*
G01*
X2730748Y142247D01*
X2730748Y110752D01*
X2699251Y110752D01*
G37*
G36*
X2699251Y209247D02*
G01*
X2730748Y209247D01*
X2730748Y177752D01*
X2699251Y177752D01*
G37*
G36*
X3909763Y-678620D02*
G01*
X3958976Y-678620D01*
X3958976Y-706179D01*
X3909763Y-706179D01*
G37*
G36*
X3909763Y-603820D02*
G01*
X3958976Y-603820D01*
X3958976Y-631379D01*
X3909763Y-631379D01*
G37*
G36*
X3831023Y-641221D02*
G01*
X3880236Y-641221D01*
X3880236Y-668779D01*
X3831023Y-668779D01*
G37*
D24*
G01*
X138840Y-135000D03*
G01*
X231159Y-135000D03*
D25*
G01*
X495000Y-553840D03*
G01*
X495000Y-646159D03*
G36*
X314764Y-623620D02*
G01*
X363975Y-623620D01*
X363975Y-651179D01*
X314764Y-651179D01*
G37*
G36*
X314764Y-548820D02*
G01*
X363975Y-548820D01*
X363975Y-576379D01*
X314764Y-576379D01*
G37*
G36*
X236024Y-586221D02*
G01*
X285235Y-586221D01*
X285235Y-613779D01*
X236024Y-613779D01*
G37*
G36*
X349764Y-128620D02*
G01*
X398975Y-128620D01*
X398975Y-156179D01*
X349764Y-156179D01*
G37*
G36*
X349764Y-53820D02*
G01*
X398975Y-53820D01*
X398975Y-81379D01*
X349764Y-81379D01*
G37*
G36*
X271024Y-91221D02*
G01*
X320235Y-91221D01*
X320235Y-118779D01*
X271024Y-118779D01*
G37*
D26*
G01*
X3627399Y-55630D03*
G01*
X3552600Y-55630D03*
G01*
X3590000Y-134369D03*
G01*
X3677600Y120630D03*
G01*
X3752399Y120630D03*
G01*
X3715000Y199369D03*
G01*
X3802600Y45630D03*
G01*
X3877399Y45630D03*
G01*
X3840000Y124369D03*
G01*
X217399Y-480630D03*
G01*
X142600Y-480630D03*
G01*
X180000Y-559369D03*
G36*
X564764Y-128620D02*
G01*
X613975Y-128620D01*
X613975Y-156179D01*
X564764Y-156179D01*
G37*
G36*
X564764Y-53820D02*
G01*
X613975Y-53820D01*
X613975Y-81379D01*
X564764Y-81379D01*
G37*
G36*
X486024Y-91221D02*
G01*
X535235Y-91221D01*
X535235Y-118779D01*
X486024Y-118779D01*
G37*
G01*
X3137600Y-2164369D03*
G01*
X3212399Y-2164369D03*
G01*
X3175000Y-2085630D03*
G01*
X2852600Y-2164369D03*
G01*
X2927399Y-2164369D03*
G01*
X2890000Y-2085630D03*
D28*
G01*
X325000Y-852559D03*
G01*
X325000Y-797440D03*
D29*
G01*
X2347439Y-2120000D03*
G01*
X2402560Y-2120000D03*
D24*
G01*
X123840Y-870000D03*
G01*
X216159Y-870000D03*
D25*
G01*
X1465000Y-2171160D03*
G01*
X1465000Y-2078840D03*
D24*
G01*
X568840Y-2025000D03*
G01*
X661159Y-2025000D03*
G36*
X749764Y-2088620D02*
G01*
X798976Y-2088620D01*
X798976Y-2116179D01*
X749764Y-2116179D01*
G37*
G36*
X749764Y-2013820D02*
G01*
X798976Y-2013820D01*
X798976Y-2041379D01*
X749764Y-2041379D01*
G37*
G36*
X671024Y-2051221D02*
G01*
X720235Y-2051221D01*
X720235Y-2078779D01*
X671024Y-2078779D01*
G37*
D26*
G01*
X642600Y-2204369D03*
G01*
X717399Y-2204369D03*
G01*
X680000Y-2125630D03*
G01*
X1332600Y-2189369D03*
G01*
X1407399Y-2189369D03*
G01*
X1370000Y-2110630D03*
G01*
X1047399Y-2060630D03*
G01*
X972600Y-2060630D03*
G01*
X1010000Y-2139369D03*
D25*
G01*
X3600000Y-2088840D03*
G01*
X3600000Y-2181160D03*
G36*
X3919763Y-1778620D02*
G01*
X3968976Y-1778620D01*
X3968976Y-1806179D01*
X3919763Y-1806179D01*
G37*
G36*
X3919763Y-1703820D02*
G01*
X3968976Y-1703820D01*
X3968976Y-1731379D01*
X3919763Y-1731379D01*
G37*
G36*
X3841023Y-1741221D02*
G01*
X3890236Y-1741221D01*
X3890236Y-1768779D01*
X3841023Y-1768779D01*
G37*
D26*
G01*
X3447600Y-2164369D03*
G01*
X3522399Y-2164369D03*
G01*
X3485000Y-2085630D03*
G01*
X2637600Y-2164369D03*
G01*
X2712399Y-2164369D03*
G01*
X2675000Y-2085630D03*
G36*
X1651022Y-2080945D02*
G01*
X1710078Y-2080945D01*
X1710078Y-2199054D01*
X1651022Y-2199054D01*
G37*
G36*
X1560471Y-2080945D02*
G01*
X1619528Y-2080945D01*
X1619528Y-2199054D01*
X1560471Y-2199054D01*
G37*
M02*
