G04 Layer: TopLayer*
G04 EasyEDA v6.4.25, 2022-01-21T19:56:56+01:00*
G04 Gerber Generator version 0.2*
G04 Scale: 100 percent, Rotated: No, Reflected: No *
G04 Dimensions in inches *
G04 leading zeros omitted , absolute positions ,3 integer and 6 decimal *
%FSLAX36Y36*%
%MOIN*%

%ADD10C,0.0100*%
%ADD11C,0.0425*%
%ADD12C,0.0200*%
%ADD13C,0.0234*%
%ADD14C,0.0236*%
%ADD15C,0.0224*%
%ADD16C,0.0244*%
%ADD17C,0.0240*%
%ADD18C,0.0480*%
%ADD19C,0.0240*%
%ADD20C,0.0787*%
%ADD21R,0.0315X0.0315*%
%ADD22R,0.0340X0.0318*%
%ADD24R,0.0394X0.0295*%
%ADD25R,0.0295X0.0394*%
%ADD26R,0.0276X0.0492*%
%ADD28R,0.0354X0.0315*%
%ADD29R,0.0315X0.0354*%
%ADD32R,0.0670X0.0475*%
%ADD34R,0.0669X0.0669*%
%ADD35C,0.0669*%
%ADD36C,0.0740*%
%ADD37C,0.0600*%
%ADD38C,0.0700*%
%ADD39R,0.0591X0.0591*%
%ADD40C,0.0750*%
%ADD41C,0.0591*%

%LPD*%
D10*
X3855630Y-584029D02*
G01*
X3855630Y-655000D01*
X3760000Y-605000D02*
G01*
X3800000Y-605000D01*
X3915000Y125000D02*
G01*
X3840630Y125000D01*
X3960000Y-205000D02*
G01*
X3960000Y80000D01*
X3960000Y-210000D02*
G01*
X3960000Y-205000D01*
X3855000Y-245000D02*
G01*
X3925000Y-245000D01*
X3815000Y-255000D02*
G01*
X3845000Y-255000D01*
X3855000Y-150000D02*
G01*
X3865000Y-150000D01*
X3845000Y-150000D02*
G01*
X3855000Y-150000D01*
X3905000Y160000D02*
G01*
X3885000Y174699D01*
X3815339Y149029D02*
G01*
X3815339Y185000D01*
X3877399Y82399D02*
G01*
X3877399Y45630D01*
X3804732Y5039D02*
G01*
X3804732Y43497D01*
X3710000Y-19659D02*
G01*
X3780033Y-19659D01*
X3860000Y-515000D02*
G01*
X3865339Y-515000D01*
X3815000Y-755000D02*
G01*
X3760000Y-755000D01*
X3825000Y-755000D02*
G01*
X3815000Y-755000D01*
X3895000Y-814659D02*
G01*
X3884660Y-814659D01*
X3840000Y-850000D02*
G01*
X3840000Y-845000D01*
X3895000Y-875340D02*
G01*
X3865339Y-875340D01*
X3855000Y-1110000D02*
G01*
X3855000Y-960000D01*
X3855000Y-1130340D02*
G01*
X3855000Y-1110000D01*
X3750000Y-1425000D02*
G01*
X3750000Y-1355000D01*
X3865339Y-1455000D02*
G01*
X3780000Y-1455000D01*
X3800000Y-905000D02*
G01*
X3815000Y-905000D01*
X2610659Y193499D02*
G01*
X2715000Y193499D01*
X2715000Y44659D02*
G01*
X2715000Y126500D01*
X2755000Y-10000D02*
G01*
X2720299Y-20000D01*
X955000Y-1700000D02*
G01*
X949660Y-1700000D01*
X1000000Y-1655000D02*
G01*
X1032640Y-1655000D01*
D11*
X1780000Y-2140000D02*
G01*
X1837637Y-2140000D01*
D10*
X1170000Y-1555000D02*
G01*
X1135000Y-1555000D01*
X1190000Y-1655000D02*
G01*
X1190000Y-1575000D01*
X1190000Y-1670000D02*
G01*
X1190000Y-1655000D01*
X3131999Y-2086300D02*
G01*
X3175000Y-2085599D01*
X2650000Y-1735000D02*
G01*
X2657929Y-1735000D01*
X2635000Y-1730000D02*
G01*
X2637929Y-1730000D01*
D11*
X1730000Y-2140000D02*
G01*
X1780000Y-2140000D01*
D10*
X3552370Y-250000D02*
G01*
X3552370Y-260000D01*
X3500000Y-225000D02*
G01*
X3532399Y-230000D01*
X3614660Y15000D02*
G01*
X3650000Y15000D01*
X2983495Y-1858494D02*
G01*
X2990000Y-1865000D01*
X2975057Y-1846237D02*
G01*
X2980793Y-1851972D01*
X2980000Y-1825000D02*
G01*
X2973536Y-1818535D01*
X2991463Y-1836464D02*
G01*
X2980000Y-1825000D01*
X195000Y-835000D02*
G01*
X158840Y-835000D01*
X238040Y-780000D02*
G01*
X238040Y-791959D01*
X1190000Y-1845000D02*
G01*
X1183107Y-1851893D01*
X1194393Y-1840607D02*
G01*
X1190000Y-1845000D01*
X555000Y-355000D02*
G01*
X512629Y-355000D01*
X564411Y-485551D02*
G01*
X564411Y-364411D01*
X1336890Y-1585000D02*
G01*
X1330000Y-1585000D01*
X570340Y-2070340D02*
G01*
X570340Y-2095000D01*
X565000Y-2065000D02*
G01*
X695630Y-2065000D01*
X540340Y-2065000D02*
G01*
X565000Y-2065000D01*
X2235000Y-1775000D02*
G01*
X2265339Y-1775000D01*
X2270339Y-1770000D02*
G01*
X2270339Y-1840000D01*
X1155000Y-1655000D02*
G01*
X1155000Y-1690000D01*
X1110000Y-1640000D02*
G01*
X1140000Y-1640000D01*
X1080000Y-1680000D02*
G01*
X1080000Y-1670000D01*
X1032640Y-1705000D02*
G01*
X1055000Y-1705000D01*
X125000Y-235000D02*
G01*
X125340Y-235000D01*
X155340Y-205000D02*
G01*
X155340Y-209659D01*
X2342439Y-2125000D02*
G01*
X2220000Y-2125000D01*
X2425000Y-2120000D02*
G01*
X2402560Y-2120000D01*
X2000000Y-2205000D02*
G01*
X2000000Y-2005000D01*
X1495000Y-1915000D02*
G01*
X1552629Y-1915000D01*
X1350000Y-2155000D02*
G01*
X1375000Y-2155000D01*
X1332600Y-2189369D02*
G01*
X1332600Y-2172399D01*
X1400000Y-2230000D02*
G01*
X1324660Y-2230000D01*
X1445000Y-2230000D02*
G01*
X1400000Y-2230000D01*
X1290000Y-2120000D02*
G01*
X1360630Y-2120000D01*
X1219660Y-2120000D02*
G01*
X1290000Y-2120000D01*
X1385000Y-2065000D02*
G01*
X1319660Y-2065000D01*
X645000Y-70000D02*
G01*
X645000Y-60000D01*
X1250000Y-45000D02*
G01*
X695000Y-45000D01*
X1290000Y-45000D02*
G01*
X1250000Y-45000D01*
X1450000Y-55000D02*
G01*
X1450000Y-65000D01*
X3130000Y30322D02*
G01*
X3130000Y-80000D01*
X3475000Y95000D02*
G01*
X3194677Y95000D01*
X3490000Y95000D02*
G01*
X3475000Y95000D01*
X3630000Y50000D02*
G01*
X3535000Y50000D01*
X3045000Y115000D02*
G01*
X3525339Y115000D01*
X3000000Y-105000D02*
G01*
X3000000Y70000D01*
X2900000Y-105000D02*
G01*
X2900000Y70000D01*
X3120000Y145000D02*
G01*
X2975000Y145000D01*
X3148000Y145000D02*
G01*
X3120000Y145000D01*
X3380000Y-50000D02*
G01*
X3464660Y-50000D01*
X3275000Y-50000D02*
G01*
X3380000Y-50000D01*
X3245000Y-95000D02*
G01*
X3245000Y-80000D01*
X3350000Y-135000D02*
G01*
X3350000Y-150000D01*
X3750000Y-125000D02*
G01*
X3750000Y-135000D01*
X3750000Y-70000D02*
G01*
X3750000Y-125000D01*
X140000Y-1487629D02*
G01*
X140000Y-1390000D01*
X165000Y-1440000D02*
G01*
X165000Y-1540000D01*
X185000Y-1365000D02*
G01*
X185000Y-1420000D01*
X185000Y-1345000D02*
G01*
X185000Y-1365000D01*
X165000Y-1297370D02*
G01*
X165000Y-1325000D01*
X140000Y-1607640D02*
G01*
X140000Y-1755000D01*
X745000Y-2150000D02*
G01*
X720000Y-2150000D01*
X765339Y-2150000D02*
G01*
X745000Y-2150000D01*
X140000Y-1922370D02*
G01*
X140000Y-1955000D01*
X2035000Y-1655000D02*
G01*
X1982640Y-1655000D01*
X737600Y-2027600D02*
G01*
X774369Y-2027600D01*
X215183Y-2137629D02*
G01*
X215183Y-2090183D01*
D11*
X1500000Y-2005000D02*
G01*
X1505000Y-2055000D01*
D10*
X2450000Y-1805000D02*
G01*
X2407600Y-1805000D01*
X340000Y-2137629D02*
G01*
X340000Y-2085000D01*
X1010000Y-2139400D02*
G01*
X1044700Y-2139400D01*
X975000Y-2125000D02*
G01*
X1005630Y-2125000D01*
X1475000Y-2200000D02*
G01*
X1465000Y-2171199D01*
X1370000Y-2185000D02*
G01*
X1407399Y-2189400D01*
X1205339Y-2170000D02*
G01*
X1205339Y-2175340D01*
X1400000Y-2130000D02*
G01*
X1400000Y-2080000D01*
X160000Y-2185000D02*
G01*
X140000Y-2137600D01*
X465000Y-2125000D02*
G01*
X505000Y-2094699D01*
X1110000Y-2200000D02*
G01*
X1115000Y-2189699D01*
X1015000Y-2060000D02*
G01*
X972600Y-2060599D01*
X920000Y-2045000D02*
G01*
X900339Y-2045000D01*
X940000Y-2085000D02*
G01*
X940000Y-2065000D01*
X1040000Y-2100000D02*
G01*
X955000Y-2100000D01*
X1045000Y-2100000D02*
G01*
X1040000Y-2100000D01*
X1115000Y-2120000D02*
G01*
X1065000Y-2120000D01*
X1139660Y-2120000D02*
G01*
X1115000Y-2120000D01*
X1071800Y-2075000D02*
G01*
X1120299Y-2080000D01*
X310000Y-2185000D02*
G01*
X290000Y-2137600D01*
X770000Y-1905000D02*
G01*
X797370Y-1905000D01*
X685000Y-1855000D02*
G01*
X695000Y-1855000D01*
X695000Y-1855000D02*
G01*
X797370Y-1855000D01*
X695000Y-1970000D02*
G01*
X695000Y-1950000D01*
X795000Y-1990000D02*
G01*
X715000Y-1990000D01*
X797370Y-1855000D02*
G01*
X775000Y-1855000D01*
X240000Y-1860000D02*
G01*
X240000Y-1812370D01*
X190000Y-1860000D02*
G01*
X190000Y-1812370D01*
X145000Y-1860000D02*
G01*
X140000Y-1812399D01*
X470000Y-1730000D02*
G01*
X470000Y-1760000D01*
X385000Y-1710000D02*
G01*
X450000Y-1710000D01*
X365000Y-1512629D02*
G01*
X365000Y-1690000D01*
X900000Y-2164699D02*
G01*
X900000Y-2104699D01*
X190000Y-1922370D02*
G01*
X190000Y-1955000D01*
X810000Y-1990000D02*
G01*
X795000Y-1990000D01*
X815291Y-1990000D02*
G01*
X810000Y-1990000D01*
X893788Y-2042766D02*
G01*
X859214Y-2008193D01*
X771024Y-2131658D02*
G01*
X686028Y-2131658D01*
X803001Y-2131658D02*
G01*
X771024Y-2131658D01*
X835000Y-2060000D02*
G01*
X835000Y-2040340D01*
X790000Y-2070000D02*
G01*
X825000Y-2070000D01*
X774369Y-2102399D02*
G01*
X774369Y-2085630D01*
X642600Y-2204369D02*
G01*
X665630Y-2204369D01*
X740000Y-2175000D02*
G01*
X717399Y-2204400D01*
X608775Y-2115884D02*
G01*
X629659Y-2095000D01*
X390000Y-2180000D02*
G01*
X390000Y-2137629D01*
X480000Y-2195000D02*
G01*
X405000Y-2195000D01*
X514659Y-2195000D02*
G01*
X480000Y-2195000D01*
X549659Y-2160000D02*
G01*
X645630Y-2160000D01*
X440000Y-2137600D02*
G01*
X465000Y-2125000D01*
X490340Y-2160000D02*
G01*
X490340Y-2109319D01*
X462370Y-2160000D02*
G01*
X490340Y-2160000D01*
X240000Y-1965000D02*
G01*
X240000Y-1922370D01*
X435000Y-1995000D02*
G01*
X270000Y-1995000D01*
X445000Y-2015000D02*
G01*
X445000Y-2005000D01*
X445000Y-2045000D02*
G01*
X445000Y-2015000D01*
X510000Y-2065000D02*
G01*
X465000Y-2065000D01*
X540340Y-2065000D02*
G01*
X510000Y-2065000D01*
X480000Y-2035000D02*
G01*
X504659Y-2035000D01*
X465000Y-1995000D02*
G01*
X465000Y-2020000D01*
X325000Y-1975000D02*
G01*
X445000Y-1975000D01*
X290000Y-1922370D02*
G01*
X290000Y-1940000D01*
X625000Y-2020000D02*
G01*
X661199Y-2025000D01*
X505000Y-1969659D02*
G01*
X513499Y-1969659D01*
X452029Y-1910340D02*
G01*
X505000Y-1910340D01*
X190000Y-2137629D02*
G01*
X240000Y-2137629D01*
X640000Y-1805000D02*
G01*
X640000Y-1752359D01*
X580000Y-1830000D02*
G01*
X615000Y-1830000D01*
X560000Y-1830000D02*
G01*
X580000Y-1830000D01*
X420000Y-1865000D02*
G01*
X525000Y-1865000D01*
X390000Y-1922370D02*
G01*
X390000Y-1895000D01*
X340000Y-1922370D02*
G01*
X390000Y-1922370D01*
X490000Y-1812370D02*
G01*
X501579Y-1812370D01*
X240000Y-1607640D02*
G01*
X240000Y-1560000D01*
X340000Y-1860000D02*
G01*
X340000Y-1812370D01*
X290000Y-1860000D02*
G01*
X290000Y-1812370D01*
X315000Y-1512600D02*
G01*
X315000Y-1720000D01*
X840000Y-1420000D02*
G01*
X840000Y-1462629D01*
X800000Y-1525000D02*
G01*
X800000Y-1472629D01*
X519659Y-1520000D02*
G01*
X540000Y-1520000D01*
X570000Y-1464645D02*
G01*
X570000Y-1470000D01*
X240000Y-1487629D02*
G01*
X240000Y-1430000D01*
X190000Y-1487629D02*
G01*
X190000Y-1545000D01*
X340000Y-1560000D02*
G01*
X340000Y-1607640D01*
X290000Y-1560000D02*
G01*
X290000Y-1607640D01*
X610000Y-1360000D02*
G01*
X615000Y-1360000D01*
X600000Y-1415000D02*
G01*
X600000Y-1370000D01*
X645000Y-1345000D02*
G01*
X645000Y-1380000D01*
X290000Y-1445000D02*
G01*
X290000Y-1487629D01*
X600000Y-1530000D02*
G01*
X595000Y-1467600D01*
X645000Y-1335000D02*
G01*
X645000Y-1345000D01*
X665000Y-1325000D02*
G01*
X655000Y-1325000D01*
X680000Y-1277370D02*
G01*
X680000Y-1310000D01*
X625000Y-1320000D02*
G01*
X625000Y-1350000D01*
X625000Y-1282370D02*
G01*
X625000Y-1320000D01*
X440000Y-1775000D02*
G01*
X440000Y-1812370D01*
X250000Y-1745000D02*
G01*
X410000Y-1745000D01*
X215000Y-1460000D02*
G01*
X215000Y-1710000D01*
X190000Y-1765000D02*
G01*
X342629Y-1765000D01*
X165000Y-1540000D02*
G01*
X165000Y-1740000D01*
X215000Y-1297370D02*
G01*
X215000Y-1460000D01*
X190000Y-1607640D02*
G01*
X190000Y-1655000D01*
X440000Y-1570000D02*
G01*
X440000Y-1607640D01*
X390000Y-1555000D02*
G01*
X390000Y-1607640D01*
X531705Y-1578294D02*
G01*
X514634Y-1595365D01*
X479659Y-1560000D02*
G01*
X450000Y-1560000D01*
X440945Y-1542049D02*
G01*
X402950Y-1542049D01*
X470000Y-1449659D02*
G01*
X470000Y-1512995D01*
X549393Y-1560607D02*
G01*
X531705Y-1578294D01*
X475000Y-1315000D02*
G01*
X484659Y-1315000D01*
X549366Y-1385686D02*
G01*
X549366Y-1314025D01*
X550000Y-1390000D02*
G01*
X550000Y-1430340D01*
X495000Y-1375000D02*
G01*
X535000Y-1375000D01*
X445000Y-1430000D02*
G01*
X445000Y-1425000D01*
X570000Y-1280000D02*
G01*
X570000Y-1275340D01*
X570000Y-1490000D02*
G01*
X570000Y-1280000D01*
X570000Y-1510857D02*
G01*
X570000Y-1490000D01*
X515000Y-1220340D02*
G01*
X530340Y-1220340D01*
X650000Y-1540000D02*
G01*
X650000Y-1472629D01*
X917629Y-1275000D02*
G01*
X960000Y-1275000D01*
X970000Y-880000D02*
G01*
X970000Y-1230000D01*
X1305000Y-835000D02*
G01*
X1015000Y-835000D01*
X1330000Y-755000D02*
G01*
X1330000Y-810000D01*
X801261Y-1199371D02*
G01*
X812480Y-1188152D01*
X765000Y-1210000D02*
G01*
X775603Y-1210000D01*
X750000Y-1257370D02*
G01*
X750000Y-1225000D01*
X460000Y-1150000D02*
G01*
X335000Y-1145000D01*
X480000Y-1240000D02*
G01*
X480000Y-1170000D01*
X440000Y-1272370D02*
G01*
X447629Y-1272370D01*
X390000Y-1272370D02*
G01*
X390000Y-1260000D01*
X290000Y-1272370D02*
G01*
X290000Y-1225000D01*
X440000Y-1435000D02*
G01*
X440000Y-1487629D01*
X390000Y-1395000D02*
G01*
X335000Y-1395000D01*
X395000Y-1395000D02*
G01*
X390000Y-1395000D01*
X410000Y-1420000D02*
G01*
X410000Y-1410000D01*
X390000Y-1487629D02*
G01*
X390000Y-1440000D01*
X340000Y-1487629D02*
G01*
X340000Y-1450000D01*
X640342Y135000D02*
G01*
X615000Y135000D01*
X1060000Y149652D02*
G01*
X1060000Y205000D01*
X655000Y90347D02*
G01*
X655000Y35000D01*
X133544Y-32755D02*
G01*
X182755Y-32755D01*
X120000Y165000D02*
G01*
X120000Y-19212D01*
X140000Y-1272370D02*
G01*
X140000Y-1136100D01*
X400000Y-280000D02*
G01*
X322370Y-280000D01*
X405000Y-170000D02*
G01*
X330000Y-170000D01*
X425000Y-385000D02*
G01*
X425000Y-190000D01*
X297370Y-405000D02*
G01*
X405000Y-405000D01*
X290000Y134699D02*
G01*
X290000Y85000D01*
X225340Y64659D02*
G01*
X240000Y64659D01*
X164652Y64652D02*
G01*
X160000Y64652D01*
X195000Y85000D02*
G01*
X195000Y95300D01*
X195000Y85000D02*
G01*
X195000Y99699D01*
X265000Y-19659D02*
G01*
X265000Y-35000D01*
X174657Y20000D02*
G01*
X190000Y20000D01*
X144657Y189657D02*
G01*
X160000Y189657D01*
X190000Y-1215000D02*
G01*
X190000Y-1272370D01*
X240000Y-1215000D02*
G01*
X240000Y-1272370D01*
X650000Y-1205000D02*
G01*
X650000Y-1257370D01*
X700000Y-1205000D02*
G01*
X700000Y-1257370D01*
X2875000Y130000D02*
G01*
X2875000Y145999D01*
X3211999Y184000D02*
G01*
X3211999Y209000D01*
X640000Y-1605000D02*
G01*
X592640Y-1605000D01*
X875000Y-1445000D02*
G01*
X875000Y-1420000D01*
X640000Y-1855000D02*
G01*
X592640Y-1855000D01*
X640000Y-1905000D02*
G01*
X592640Y-1905000D01*
X640000Y-1955000D02*
G01*
X592640Y-1955000D01*
X845000Y-1955000D02*
G01*
X797370Y-1955000D01*
X1037640Y-255000D02*
G01*
X1080000Y-255000D01*
X1032640Y-247640D02*
G01*
X1032640Y-260000D01*
X600000Y-1205000D02*
G01*
X600000Y-1257370D01*
X812370Y-1770000D02*
G01*
X840000Y-1770000D01*
X845000Y-1805000D02*
G01*
X797370Y-1805000D01*
X340000Y-1272370D02*
G01*
X340000Y-1335000D01*
X845000Y-1550000D02*
G01*
X845000Y-1607370D01*
X820000Y-1705000D02*
G01*
X797370Y-1705000D01*
X905000Y-1735000D02*
G01*
X850000Y-1735000D01*
X920000Y-1650000D02*
G01*
X920000Y-1720000D01*
X890339Y-1685340D02*
G01*
X890339Y-1700000D01*
X845000Y-1545000D02*
G01*
X845000Y-1550000D01*
X875000Y-1445000D02*
G01*
X875000Y-1515000D01*
X875000Y-1420000D02*
G01*
X900000Y-1420000D01*
X875000Y-1420000D02*
G01*
X915000Y-1420000D01*
X1165000Y-1420000D02*
G01*
X875000Y-1420000D01*
X650000Y-1480000D02*
G01*
X650000Y-1472629D01*
X592640Y-1755000D02*
G01*
X580000Y-1755000D01*
X700000Y-1547640D02*
G01*
X700000Y-1472629D01*
X940000Y-1360000D02*
G01*
X762629Y-1360000D01*
X945000Y-1380000D02*
G01*
X792629Y-1380000D01*
X935000Y-1340000D02*
G01*
X882629Y-1340000D01*
X930000Y-1320000D02*
G01*
X912629Y-1320000D01*
X1065000Y-925000D02*
G01*
X1065000Y-1260000D01*
X1555000Y-915000D02*
G01*
X1075000Y-915000D01*
X1570000Y-915000D02*
G01*
X1555000Y-915000D01*
X1630000Y-830000D02*
G01*
X1630000Y-755000D01*
X1490000Y-895000D02*
G01*
X1565000Y-895000D01*
X1530000Y-810000D02*
G01*
X1530000Y-755000D01*
X1410000Y-875000D02*
G01*
X1465000Y-875000D01*
X1430000Y-800000D02*
G01*
X1430000Y-755000D01*
X1060000Y-895000D02*
G01*
X1490000Y-895000D01*
X1045000Y-1255000D02*
G01*
X1045000Y-910000D01*
X1040000Y-875000D02*
G01*
X1410000Y-875000D01*
X1025000Y-1250000D02*
G01*
X1025000Y-890000D01*
D12*
X761800Y-1050000D02*
G01*
X810000Y-1025000D01*
X413229Y-718112D02*
G01*
X579529Y-718112D01*
X223847Y-718112D02*
G01*
X413229Y-718112D01*
X350000Y-755000D02*
G01*
X398499Y-755000D01*
X263040Y-755000D02*
G01*
X350000Y-755000D01*
X630000Y-1035000D02*
G01*
X630000Y-1065000D01*
X545000Y-890000D02*
G01*
X545000Y-950000D01*
X616500Y-850000D02*
G01*
X585000Y-850000D01*
X840000Y-585000D02*
G01*
X840000Y-410749D01*
X870000Y-610000D02*
G01*
X865000Y-610000D01*
X890000Y-840000D02*
G01*
X890000Y-630000D01*
X745756Y-857917D02*
G01*
X872083Y-857917D01*
X845000Y-680000D02*
G01*
X845000Y-783220D01*
X700000Y-642892D02*
G01*
X807892Y-642892D01*
X775000Y-303220D02*
G01*
X775000Y-386779D01*
X775000Y-544936D02*
G01*
X700371Y-544936D01*
X775000Y-586779D02*
G01*
X775000Y-503220D01*
X700000Y-665000D02*
G01*
X700000Y-261779D01*
X579529Y-718112D02*
G01*
X646887Y-718112D01*
X550000Y-775000D02*
G01*
X550000Y-747640D01*
X616500Y-800000D02*
G01*
X575000Y-800000D01*
X775000Y-795000D02*
G01*
X775000Y-703220D01*
X775000Y-819962D02*
G01*
X775000Y-795000D01*
X625713Y-859214D02*
G01*
X735749Y-859214D01*
X616500Y-750000D02*
G01*
X671779Y-750000D01*
X646779Y-750000D02*
G01*
X616500Y-750000D01*
X785000Y-1010000D02*
G01*
X785000Y-984659D01*
X785000Y-1026779D02*
G01*
X785000Y-1010000D01*
X870000Y-990000D02*
G01*
X878199Y-1050000D01*
X348899Y-1023899D02*
G01*
X348899Y-1065000D01*
X216199Y-870000D02*
G01*
X246199Y-921199D01*
X327559Y-850000D02*
G01*
X403499Y-850000D01*
X475000Y-875000D02*
G01*
X475000Y-800000D01*
X403499Y-900000D02*
G01*
X450000Y-900000D01*
X403499Y-800000D02*
G01*
X475000Y-800000D01*
X327559Y-800000D02*
G01*
X403499Y-800000D01*
X621840Y-905340D02*
G01*
X730000Y-905340D01*
X805000Y-905340D02*
G01*
X730000Y-905340D01*
X689659Y-964659D02*
G01*
X730000Y-964659D01*
X725000Y-1160000D02*
G01*
X761779Y-1160000D01*
X935000Y-1160000D02*
G01*
X878199Y-1160000D01*
D10*
X2805000Y-85000D02*
G01*
X2800000Y-105000D01*
X2875000Y130000D02*
G01*
X2875000Y-15000D01*
X2811999Y209000D02*
G01*
X2821000Y184000D01*
X3320000Y-170000D02*
G01*
X3330000Y-170000D01*
X3695000Y160000D02*
G01*
X3619660Y160000D01*
X3715000Y100000D02*
G01*
X3715000Y140000D01*
X3755000Y25000D02*
G01*
X3755000Y60000D01*
X3693865Y10079D02*
G01*
X3740078Y10079D01*
X3675000Y-40000D02*
G01*
X3675000Y-8787D01*
X3735000Y-55000D02*
G01*
X3690000Y-55000D01*
X3605699Y-256999D02*
G01*
X3815000Y-255000D01*
X3699660Y50000D02*
G01*
X3630000Y50000D01*
X3585000Y120000D02*
G01*
X3585000Y125340D01*
X3614660Y85000D02*
G01*
X3641970Y85000D01*
X3659030Y199369D02*
G01*
X3715000Y199369D01*
X3752399Y120630D02*
G01*
X3752399Y162399D01*
X3555339Y155000D02*
G01*
X3555339Y165340D01*
X3235000Y-105000D02*
G01*
X3200000Y-105000D01*
X3535000Y-120000D02*
G01*
X3535000Y-105952D01*
X3485000Y-129659D02*
G01*
X3525339Y-129659D01*
X3552600Y-52600D02*
G01*
X3552600Y-55630D01*
X3609369Y-55630D02*
G01*
X3627399Y-55630D01*
X3545204Y-95747D02*
G01*
X3569251Y-95747D01*
X3645991Y-17638D02*
G01*
X3587978Y-17638D01*
X3656069Y-85668D02*
G01*
X3656069Y-27716D01*
X3630000Y-100000D02*
G01*
X3641738Y-100000D01*
X3624369Y-100000D02*
G01*
X3630000Y-100000D01*
X3474652Y-166300D02*
G01*
X3558069Y-166300D01*
X3438699Y-166300D02*
G01*
X3474652Y-166300D01*
X3552763Y-183937D02*
G01*
X3683936Y-183937D01*
X3456063Y-183937D02*
G01*
X3552763Y-183937D01*
X145340Y-630000D02*
G01*
X145340Y-665340D01*
X1945000Y-155000D02*
G01*
X1045000Y-155000D01*
X2300000Y-225000D02*
G01*
X2300000Y-180000D01*
X2187370Y-1905000D02*
G01*
X2140000Y-1905000D01*
X2612370Y-1905000D02*
G01*
X2570000Y-1905000D01*
X2193199Y-1945000D02*
G01*
X2540000Y-1945000D01*
X2585000Y-1940000D02*
G01*
X2545000Y-1940000D01*
X2751500Y-1988034D02*
G01*
X2751500Y-1971500D01*
X2751500Y-2009128D02*
G01*
X2751500Y-1988034D01*
X2770000Y-2005000D02*
G01*
X2770000Y-1940543D01*
X2825000Y-2010000D02*
G01*
X2775000Y-2010000D01*
X2650000Y-2110000D02*
G01*
X2650630Y-2110000D01*
X2625000Y-2110000D02*
G01*
X2650000Y-2110000D01*
X2585000Y-2130000D02*
G01*
X2605000Y-2130000D01*
X2529660Y-2130000D02*
G01*
X2585000Y-2130000D01*
X2470000Y-2095000D02*
G01*
X2494660Y-2095000D01*
X2712399Y-2164369D02*
G01*
X2712399Y-2137600D01*
X2570000Y-2159659D02*
G01*
X2632889Y-2159659D01*
X2845659Y-2105340D02*
G01*
X2845659Y-2030659D01*
X2800000Y-1980340D02*
G01*
X2874040Y-1980340D01*
X2755000Y-2120000D02*
G01*
X2755000Y-2084659D01*
X2810000Y-2135000D02*
G01*
X2770000Y-2135000D01*
X2823230Y-2135000D02*
G01*
X2810000Y-2135000D01*
X2927399Y-2164369D02*
G01*
X2927399Y-2162600D01*
X2815000Y-2165000D02*
G01*
X2785339Y-2165000D01*
X2785000Y-2105340D02*
G01*
X2870290Y-2105340D01*
X3137600Y-2164369D02*
G01*
X3070290Y-2164369D01*
X2965000Y-2170000D02*
G01*
X2994660Y-2170000D01*
X3488699Y-2006300D02*
G01*
X3500000Y-2005000D01*
X3414179Y-2058587D02*
G01*
X3436413Y-2058587D01*
X3266413Y-2058587D02*
G01*
X3414179Y-2058587D01*
X3175000Y-2125000D02*
G01*
X3200000Y-2125000D01*
X3089660Y-2125000D02*
G01*
X3175000Y-2125000D01*
X3265000Y-2110000D02*
G01*
X3265000Y-2111770D01*
X2170000Y-1805000D02*
G01*
X2187370Y-1805000D01*
D12*
X3420000Y-2180000D02*
G01*
X3431970Y-2180000D01*
X3399660Y-2150000D02*
G01*
X3405000Y-2150000D01*
X3375000Y-2174659D02*
G01*
X3380339Y-2174659D01*
D10*
X3568834Y-2181165D02*
G01*
X3600000Y-2181165D01*
X3509369Y-2164369D02*
G01*
X3522399Y-2164369D01*
X3702370Y-2025000D02*
G01*
X3760000Y-2025000D01*
X3375000Y-2115340D02*
G01*
X3409660Y-2115340D01*
X3355000Y-2075000D02*
G01*
X3474369Y-2075000D01*
X3336069Y-2149295D02*
G01*
X3336069Y-2093930D01*
X3300000Y-2174659D02*
G01*
X3310706Y-2174659D01*
X3670000Y-2075000D02*
G01*
X3702370Y-2075000D01*
X3610000Y-2125000D02*
G01*
X3620000Y-2125000D01*
X3524369Y-2125000D02*
G01*
X3610000Y-2125000D01*
X3265000Y-2110000D02*
G01*
X3294660Y-2110000D01*
X3702370Y-2125000D02*
G01*
X3702370Y-2175000D01*
X3640000Y-1890000D02*
G01*
X3640000Y-1966300D01*
X3702370Y-1875000D02*
G01*
X3655000Y-1875000D01*
X3522399Y-2177399D02*
G01*
X3522399Y-2164369D01*
X3917629Y-2125000D02*
G01*
X3917629Y-2175000D01*
X3917629Y-2075000D02*
G01*
X3917629Y-2125000D01*
X3917629Y-2025000D02*
G01*
X3917629Y-2075000D01*
X3917629Y-1975000D02*
G01*
X3917629Y-2025000D01*
X3702370Y-1950081D02*
G01*
X3702370Y-1925000D01*
X3702370Y-1975000D02*
G01*
X3702370Y-1950081D01*
X3702370Y-2175000D02*
G01*
X3725000Y-2175000D01*
X3910000Y-2175000D02*
G01*
X3917629Y-2175000D01*
X3917629Y-1975000D02*
G01*
X3945000Y-1975000D01*
X3447600Y-2177600D02*
G01*
X3447600Y-2164369D01*
X3924660Y-1525340D02*
G01*
X3924660Y-1555000D01*
X3920000Y-1455000D02*
G01*
X3924660Y-1455000D01*
X3895000Y-1690000D02*
G01*
X3895000Y-1480000D01*
X3905000Y-1735000D02*
G01*
X3905000Y-1700000D01*
X3905000Y-1753029D02*
G01*
X3905000Y-1735000D01*
X3865630Y-1755000D02*
G01*
X3865630Y-1873000D01*
X3865339Y-1655000D02*
G01*
X3865339Y-1754710D01*
X3917629Y-1875000D02*
G01*
X3945000Y-1875000D01*
X3944369Y-1749369D02*
G01*
X3944369Y-1717600D01*
X3924660Y-1625340D02*
G01*
X3924660Y-1655000D01*
X3865339Y-1555000D02*
G01*
X3865339Y-1655000D01*
X3702370Y-1875000D02*
G01*
X3675000Y-1875000D01*
X3347640Y-1655000D02*
G01*
X3330000Y-1655000D01*
X3395000Y-1665000D02*
G01*
X3395000Y-1590000D01*
X3320000Y-1680000D02*
G01*
X3380000Y-1680000D01*
X3300000Y-1720000D02*
G01*
X3300000Y-1700000D01*
X512629Y-429573D02*
G01*
X512629Y-405000D01*
X512629Y-455000D02*
G01*
X512629Y-429573D01*
X214659Y-205000D02*
G01*
X297370Y-205000D01*
X325000Y-405000D02*
G01*
X297370Y-405000D01*
X295630Y-105000D02*
G01*
X295630Y-135630D01*
X185340Y-100000D02*
G01*
X185340Y-185821D01*
X185340Y-385000D02*
G01*
X185340Y-185821D01*
X265000Y-340000D02*
G01*
X267717Y-342717D01*
X225025Y-300025D02*
G01*
X265000Y-340000D01*
X270000Y-390000D02*
G01*
X276253Y-396253D01*
X232310Y-352310D02*
G01*
X270000Y-390000D01*
X265000Y-455000D02*
G01*
X297399Y-455000D01*
X245000Y-395000D02*
G01*
X245000Y-430000D01*
X205000Y-385000D02*
G01*
X235000Y-385000D01*
X185340Y-385000D02*
G01*
X205000Y-385000D01*
X545340Y-639659D02*
G01*
X570000Y-639659D01*
X480340Y-505000D02*
G01*
X512629Y-505000D01*
X297370Y-520599D02*
G01*
X297370Y-505000D01*
X345000Y-600000D02*
G01*
X340000Y-563200D01*
X140000Y-525000D02*
G01*
X140000Y-483229D01*
X155300Y-345000D02*
G01*
X125000Y-375000D01*
X130000Y-305000D02*
G01*
X155300Y-275000D01*
X260000Y-160000D02*
G01*
X231199Y-135000D01*
X335000Y-70000D02*
G01*
X214659Y-70000D01*
X552600Y-67600D02*
G01*
X589369Y-67600D01*
X335000Y-105000D02*
G01*
X295630Y-105000D01*
X335000Y-70000D02*
G01*
X374400Y-67600D01*
X382109Y-134659D02*
G01*
X440000Y-134659D01*
X495000Y-180000D02*
G01*
X495000Y-187370D01*
X595000Y-175000D02*
G01*
X595000Y-205340D01*
X595000Y-420000D02*
G01*
X595000Y-389659D01*
X564411Y-574751D02*
G01*
X564411Y-485551D01*
X625000Y-215000D02*
G01*
X625000Y-425340D01*
X625000Y-178029D02*
G01*
X625000Y-215000D01*
X440000Y-75340D02*
G01*
X480970Y-75340D01*
X565000Y-205000D02*
G01*
X565000Y-254857D01*
X565000Y-200000D02*
G01*
X565000Y-205000D01*
X510630Y-105000D02*
G01*
X510630Y-145630D01*
X512629Y-255000D02*
G01*
X585340Y-255000D01*
X245000Y-510000D02*
G01*
X245000Y-475000D01*
X245000Y-584369D02*
G01*
X245000Y-510000D01*
X217399Y-480599D02*
G01*
X214699Y-415000D01*
X155340Y-151505D02*
G01*
X155340Y-205000D01*
X510000Y-631165D02*
G01*
X510000Y-615000D01*
X415000Y-629659D02*
G01*
X419175Y-629659D01*
X2677070Y-1690000D02*
G01*
X2720000Y-1690000D01*
X2663536Y-1683535D02*
G01*
X2665000Y-1685000D01*
X1234278Y-601021D02*
G01*
X1234278Y-563090D01*
X1460000Y-625000D02*
G01*
X1258257Y-625000D01*
X1710000Y-630000D02*
G01*
X1775000Y-630000D01*
X1750000Y-605000D02*
G01*
X1730000Y-605000D01*
X1825000Y-605000D02*
G01*
X1750000Y-605000D01*
X1840000Y-660000D02*
G01*
X1840000Y-620000D01*
X1840000Y-665000D02*
G01*
X1840000Y-660000D01*
X1785000Y-750000D02*
G01*
X1785000Y-720000D01*
X2187370Y-460000D02*
G01*
X2175000Y-460000D01*
X3527370Y-385000D02*
G01*
X3495000Y-385000D01*
X3535000Y-460000D02*
G01*
X3552370Y-460000D01*
X3490000Y-456181D02*
G01*
X3490000Y-390000D01*
X3482317Y-360000D02*
G01*
X3552370Y-360000D01*
X2520000Y-265000D02*
G01*
X2520000Y-230000D01*
X2329660Y-294659D02*
G01*
X2329660Y-275000D01*
X2352635Y-305000D02*
G01*
X2340000Y-305000D01*
X1720000Y-1545000D02*
G01*
X1972640Y-1545000D01*
X1665000Y-1470000D02*
G01*
X1665000Y-1490000D01*
X1560000Y-1450000D02*
G01*
X1645000Y-1450000D01*
X1525000Y-1450000D02*
G01*
X1560000Y-1450000D01*
X2040000Y-1605000D02*
G01*
X1982640Y-1605000D01*
X2055000Y-1540000D02*
G01*
X2055000Y-1590000D01*
X1720000Y-1525000D02*
G01*
X2040000Y-1525000D01*
X1685000Y-1470000D02*
G01*
X1685000Y-1490000D01*
X1570000Y-1430000D02*
G01*
X1645000Y-1430000D01*
X1630000Y-1370000D02*
G01*
X1630000Y-1355000D01*
X1705000Y-1475000D02*
G01*
X1705000Y-1445000D01*
X2065000Y-1500000D02*
G01*
X1730000Y-1500000D01*
X1530000Y-1355000D02*
G01*
X1530000Y-1390000D01*
X2055000Y-1705000D02*
G01*
X1982640Y-1705000D01*
X2080000Y-1515000D02*
G01*
X2080000Y-1680000D01*
X2055000Y-1755000D02*
G01*
X1982640Y-1755000D01*
X2100000Y-1490000D02*
G01*
X2100000Y-1710000D01*
X1765000Y-1480000D02*
G01*
X2090000Y-1480000D01*
X1730000Y-1355000D02*
G01*
X1730000Y-1445000D01*
X2120000Y-1480000D02*
G01*
X2120000Y-1687629D01*
X1875000Y-1460000D02*
G01*
X2100000Y-1460000D01*
X1830000Y-1355000D02*
G01*
X1830000Y-1415000D01*
X1210000Y-1805000D02*
G01*
X1237370Y-1805000D01*
X2205000Y-1945000D02*
G01*
X1205000Y-1945000D01*
X2235000Y-1905000D02*
G01*
X2235000Y-1915000D01*
X2235000Y-1902629D02*
G01*
X2235000Y-1905000D01*
X2187370Y-1855000D02*
G01*
X2195000Y-1855000D01*
X2187370Y-1892370D02*
G01*
X2187370Y-1905000D01*
X1935000Y-1880000D02*
G01*
X2175000Y-1880000D01*
X1410000Y-1890000D02*
G01*
X1925000Y-1890000D01*
X1252370Y-1890000D02*
G01*
X1410000Y-1890000D01*
X1520000Y-1475000D02*
G01*
X1524700Y-1550000D01*
X1399660Y-1515340D02*
G01*
X1399660Y-1550000D01*
X1395000Y-1915000D02*
G01*
X1337370Y-1915000D01*
X1080000Y-1905000D02*
G01*
X1032640Y-1905000D01*
X1080000Y-1855000D02*
G01*
X1032600Y-1855000D01*
X1080000Y-1805000D02*
G01*
X1032640Y-1805000D01*
X1982600Y-1805000D02*
G01*
X2030000Y-1800000D01*
X1982640Y-1855000D02*
G01*
X2030000Y-1855000D01*
X2030000Y-1905000D02*
G01*
X1982640Y-1905000D01*
X1930000Y-1415000D02*
G01*
X1930000Y-1355000D01*
X2060000Y-1440000D02*
G01*
X1955000Y-1440000D01*
X2105000Y-1440000D02*
G01*
X2060000Y-1440000D01*
X1980000Y-1390000D02*
G01*
X1980000Y-1305000D01*
X2095000Y-1420000D02*
G01*
X2010000Y-1420000D01*
X2130000Y-1355000D02*
G01*
X2130000Y-1385000D01*
X2140000Y-1670000D02*
G01*
X2140000Y-1655000D01*
X2160000Y-1400000D02*
G01*
X2160000Y-1385000D01*
X2225000Y-1445000D02*
G01*
X2205000Y-1445000D01*
X2140000Y-1655000D02*
G01*
X2140000Y-1475000D01*
X2187370Y-1705000D02*
G01*
X2175000Y-1705000D01*
X2187370Y-1605000D02*
G01*
X2170000Y-1605000D01*
X2185000Y-1525000D02*
G01*
X2185000Y-1552629D01*
X2030000Y-1305000D02*
G01*
X2030000Y-1355000D01*
X2135000Y-1285000D02*
G01*
X2050000Y-1285000D01*
X2180000Y-1375000D02*
G01*
X2180000Y-1330000D01*
X2275000Y-1425000D02*
G01*
X2230000Y-1425000D01*
X2300000Y-1725000D02*
G01*
X2300000Y-1450000D01*
X2245000Y-1735000D02*
G01*
X2290000Y-1735000D01*
X2230000Y-1680000D02*
G01*
X2230000Y-1720000D01*
X2187370Y-1655000D02*
G01*
X2205000Y-1655000D01*
X2235000Y-1555000D02*
G01*
X2235000Y-1455000D01*
X2235000Y-1557370D02*
G01*
X2235000Y-1555000D01*
X2860000Y-1285000D02*
G01*
X2700000Y-1285000D01*
X2880000Y-1400000D02*
G01*
X2880000Y-1305000D01*
X3025000Y-1665000D02*
G01*
X3032370Y-1665000D01*
X3032370Y-1615000D02*
G01*
X3060000Y-1615000D01*
X3110000Y-1690000D02*
G01*
X3110000Y-1675000D01*
X3032370Y-1715000D02*
G01*
X3085000Y-1715000D01*
X3135000Y-1670000D02*
G01*
X3135000Y-1650000D01*
X3165000Y-1655000D02*
G01*
X3165000Y-1635000D01*
X3032370Y-1715000D02*
G01*
X3060000Y-1715000D01*
X3032370Y-1715000D02*
G01*
X3065000Y-1715000D01*
X3050000Y-1615000D02*
G01*
X3032370Y-1615000D01*
X2750000Y-1590000D02*
G01*
X2703972Y-1590000D01*
X2630000Y-1530000D02*
G01*
X2640000Y-1530000D01*
X2605000Y-1530000D02*
G01*
X2630000Y-1530000D01*
X2675000Y-1520000D02*
G01*
X2890000Y-1520000D01*
X2620000Y-1455000D02*
G01*
X2620000Y-1465000D01*
X2570000Y-1445000D02*
G01*
X2610000Y-1445000D01*
X2640000Y-1455000D02*
G01*
X2640000Y-1465000D01*
X2585000Y-1425000D02*
G01*
X2610000Y-1425000D01*
X2510000Y-1490000D02*
G01*
X2565000Y-1490000D01*
X2560000Y-1445000D02*
G01*
X2520000Y-1445000D01*
X2570000Y-1445000D02*
G01*
X2560000Y-1445000D01*
X2530000Y-1380000D02*
G01*
X2530000Y-1355000D01*
X2585000Y-1425000D02*
G01*
X2575000Y-1425000D01*
X2713211Y-1552129D02*
G01*
X2665832Y-1552129D01*
X2430000Y-1370000D02*
G01*
X2430000Y-1355000D01*
X2680000Y-1615000D02*
G01*
X2712370Y-1615000D01*
X2629903Y-1587465D02*
G01*
X2612370Y-1605000D01*
X2690000Y-1580000D02*
G01*
X2693972Y-1580000D01*
X2680000Y-1575000D02*
G01*
X2685000Y-1575000D01*
X2660000Y-1575000D02*
G01*
X2680000Y-1575000D01*
X3347640Y-1605000D02*
G01*
X3380000Y-1605000D01*
X3247629Y-1665000D02*
G01*
X3175000Y-1665000D01*
X3032370Y-1765000D02*
G01*
X3105000Y-1765000D01*
X3080000Y-1550000D02*
G01*
X3115339Y-1550000D01*
X3032370Y-1865000D02*
G01*
X3110000Y-1865000D01*
X3290000Y-1815000D02*
G01*
X3247629Y-1815000D01*
X3335000Y-1780000D02*
G01*
X3325000Y-1780000D01*
X3585000Y-1780000D02*
G01*
X3335000Y-1780000D01*
X3280000Y-1740000D02*
G01*
X3235000Y-1740000D01*
X2927629Y-1865000D02*
G01*
X2880000Y-1865000D01*
X2875000Y-1810000D02*
G01*
X2822677Y-1757678D01*
X2875000Y-1816327D02*
G01*
X2875000Y-1810000D01*
X3000000Y-1545000D02*
G01*
X3000000Y-1540000D01*
X2995000Y-1541799D02*
G01*
X3000000Y-1545000D01*
X2890000Y-1765000D02*
G01*
X2927629Y-1765000D01*
X3247629Y-1715000D02*
G01*
X3180000Y-1715000D01*
X3210000Y-1740000D02*
G01*
X3235000Y-1740000D01*
X3330000Y-1605000D02*
G01*
X3347640Y-1605000D01*
X3075000Y-1840000D02*
G01*
X3110000Y-1840000D01*
X2960000Y-1590000D02*
G01*
X2845045Y-1590000D01*
X2980000Y-1750000D02*
G01*
X2980000Y-1610000D01*
X2980000Y-1762629D02*
G01*
X2980000Y-1750000D01*
X3000000Y-1840000D02*
G01*
X3075000Y-1840000D01*
X2990000Y-1865000D02*
G01*
X3032370Y-1865000D01*
X3295000Y-1270000D02*
G01*
X3295000Y-1335000D01*
X2430000Y-1245000D02*
G01*
X3270000Y-1245000D01*
X2380000Y-1350000D02*
G01*
X2380000Y-1295000D01*
X3250000Y-1280000D02*
G01*
X3250000Y-1340000D01*
X3170000Y-1265000D02*
G01*
X3235000Y-1265000D01*
X2520000Y-1265000D02*
G01*
X3170000Y-1265000D01*
X2480000Y-1355000D02*
G01*
X2480000Y-1305000D01*
X3155000Y-1285000D02*
G01*
X3075000Y-1285000D01*
X3180000Y-1350000D02*
G01*
X3180000Y-1310000D01*
X3555000Y-1380000D02*
G01*
X3210000Y-1380000D01*
X3580000Y-1205000D02*
G01*
X3580000Y-1355000D01*
X3600000Y-1355000D02*
G01*
X3600000Y-1269695D01*
X3225000Y-1400000D02*
G01*
X3555000Y-1400000D01*
X3175000Y-1400000D02*
G01*
X3225000Y-1400000D01*
X2655000Y-1710000D02*
G01*
X2613199Y-1705799D01*
X2770000Y-1765000D02*
G01*
X2712370Y-1765000D01*
X2670000Y-1740000D02*
G01*
X2725000Y-1740000D01*
X2612399Y-1755000D02*
G01*
X2655000Y-1760000D01*
X2780000Y-1740000D02*
G01*
X2725000Y-1740000D01*
X2927629Y-1915000D02*
G01*
X2875000Y-1915000D01*
X3247629Y-1915000D02*
G01*
X3295000Y-1915000D01*
X1257370Y-290000D02*
G01*
X1275000Y-290000D01*
X2187370Y-260000D02*
G01*
X2187370Y-310000D01*
X3552370Y-310000D02*
G01*
X3595000Y-310000D01*
X3347640Y-1805000D02*
G01*
X3395000Y-1805000D01*
X3500000Y-1805000D02*
G01*
X3552370Y-1805000D01*
X2612370Y-1805000D02*
G01*
X2625000Y-1805000D01*
X2585000Y-1855000D02*
G01*
X2612370Y-1855000D01*
X3250000Y-1940000D02*
G01*
X2585000Y-1940000D01*
X3580000Y-1940000D02*
G01*
X3250000Y-1940000D01*
X3605000Y-1885000D02*
G01*
X3605000Y-1915000D01*
X3552370Y-1855000D02*
G01*
X3575000Y-1855000D01*
X3380000Y-1880000D02*
G01*
X3527370Y-1880000D01*
X3310000Y-1880000D02*
G01*
X3380000Y-1880000D01*
X3290000Y-1890000D02*
G01*
X3300000Y-1890000D01*
X2627370Y-1890000D02*
G01*
X2805000Y-1890000D01*
X2712399Y-1815000D02*
G01*
X2765000Y-1820000D01*
X2712370Y-1865000D02*
G01*
X2765000Y-1865000D01*
X2455000Y-1705000D02*
G01*
X2407640Y-1705000D01*
X2407640Y-1755000D02*
G01*
X2460000Y-1755000D01*
X2344660Y-1755000D02*
G01*
X2407640Y-1755000D01*
X2334660Y-1705000D02*
G01*
X2407640Y-1705000D01*
X2455000Y-1655000D02*
G01*
X2407640Y-1655000D01*
X2565000Y-1655000D02*
G01*
X2612370Y-1655000D01*
X2860000Y-1715000D02*
G01*
X2927629Y-1715000D01*
X2720000Y-1690000D02*
G01*
X2835000Y-1690000D01*
X2610000Y-1680000D02*
G01*
X2655000Y-1680000D01*
X2570000Y-1680000D02*
G01*
X2610000Y-1680000D01*
X2407640Y-1605000D02*
G01*
X2495000Y-1605000D01*
X2865000Y-1665000D02*
G01*
X2927629Y-1665000D01*
X2730000Y-1640000D02*
G01*
X2840000Y-1640000D01*
X2845000Y-1595000D02*
G01*
X2845000Y-1570340D01*
X2800000Y-1620000D02*
G01*
X2820000Y-1620000D01*
X2780000Y-1620000D02*
G01*
X2800000Y-1620000D01*
X2665000Y-1640000D02*
G01*
X2730000Y-1640000D01*
X2620000Y-1630000D02*
G01*
X2655000Y-1630000D01*
X2570000Y-1630000D02*
G01*
X2620000Y-1630000D01*
X2407640Y-1555000D02*
G01*
X2495000Y-1555000D01*
X3174660Y-1550000D02*
G01*
X3215000Y-1550000D01*
X2770000Y-1715000D02*
G01*
X2712370Y-1715000D01*
X2712399Y-1665000D02*
G01*
X2790000Y-1665000D01*
X3395000Y-1905000D02*
G01*
X3347640Y-1905000D01*
X3395000Y-1855000D02*
G01*
X3347640Y-1855000D01*
X3552370Y-1605000D02*
G01*
X3555000Y-1605000D01*
X3620000Y-1795000D02*
G01*
X3620000Y-1722629D01*
X3400000Y-1830000D02*
G01*
X3585000Y-1830000D01*
X3315000Y-1830000D02*
G01*
X3400000Y-1830000D01*
X3247629Y-1865000D02*
G01*
X3280000Y-1865000D01*
X3280000Y-1815000D02*
G01*
X3247629Y-1815000D01*
X3600000Y-1745000D02*
G01*
X3600000Y-1765000D01*
X3552370Y-1705000D02*
G01*
X3560000Y-1705000D01*
X2505000Y-1880000D02*
G01*
X2359660Y-1880000D01*
X2545000Y-1795000D02*
G01*
X2545000Y-1840000D01*
X2407640Y-1905000D02*
G01*
X2455000Y-1905000D01*
X2455000Y-1855000D02*
G01*
X2407640Y-1855000D01*
X2545000Y-1780000D02*
G01*
X2545000Y-1795000D01*
X2612370Y-1755000D02*
G01*
X2570000Y-1755000D01*
X2555000Y-1705000D02*
G01*
X2612370Y-1705000D01*
X2525000Y-1760000D02*
G01*
X2525000Y-1735000D01*
X2380000Y-1780000D02*
G01*
X2505000Y-1780000D01*
X2360000Y-1825000D02*
G01*
X2360000Y-1800000D01*
X2329660Y-1840000D02*
G01*
X2345000Y-1840000D01*
X2805000Y-1915000D02*
G01*
X2712399Y-1915000D01*
X3085000Y-1915000D02*
G01*
X3032370Y-1915000D01*
X3555000Y-1520000D02*
G01*
X3552399Y-1555000D01*
X3200000Y-1615000D02*
G01*
X3247629Y-1615000D01*
X2880000Y-1615000D02*
G01*
X2927629Y-1615000D01*
X2960000Y-1550000D02*
G01*
X2924660Y-1550000D01*
X2795000Y-1585000D02*
G01*
X2795000Y-1570340D01*
X2565000Y-1555000D02*
G01*
X2612399Y-1555000D01*
X2354660Y-1605000D02*
G01*
X2407640Y-1605000D01*
X2334660Y-1555000D02*
G01*
X2407640Y-1555000D01*
X1445000Y-305000D02*
G01*
X1445000Y-345000D01*
X1362370Y-270000D02*
G01*
X1410000Y-270000D01*
X1785000Y-784683D02*
G01*
X1785000Y-750000D01*
X2565000Y-560000D02*
G01*
X2612370Y-560000D01*
X1450000Y-195000D02*
G01*
X1552629Y-195000D01*
X3395000Y-1555000D02*
G01*
X3347640Y-1555000D01*
X3395000Y-1705000D02*
G01*
X3347640Y-1705000D01*
X3425000Y-1560000D02*
G01*
X3425000Y-1675000D01*
X2890000Y-1520000D02*
G01*
X3385000Y-1520000D01*
X3425000Y-1755000D02*
G01*
X3347640Y-1755000D01*
X3445000Y-1560000D02*
G01*
X3445000Y-1735000D01*
X2675000Y-1500000D02*
G01*
X3385000Y-1500000D01*
X3465000Y-1510000D02*
G01*
X3465000Y-1667629D01*
X3340000Y-1480000D02*
G01*
X3435000Y-1480000D01*
X2755000Y-1480000D02*
G01*
X3340000Y-1480000D01*
X3485000Y-1500000D02*
G01*
X3485000Y-1637629D01*
X3235000Y-1460000D02*
G01*
X3445000Y-1460000D01*
X2835000Y-1460000D02*
G01*
X3235000Y-1460000D01*
X3525000Y-1655000D02*
G01*
X3552370Y-1655000D01*
X3505000Y-1490000D02*
G01*
X3505000Y-1635000D01*
X2915000Y-1440000D02*
G01*
X3455000Y-1440000D01*
X3570000Y-1605000D02*
G01*
X3552370Y-1605000D01*
X3600000Y-1455000D02*
G01*
X3600000Y-1575000D01*
X3465000Y-1420000D02*
G01*
X3565000Y-1420000D01*
X2995000Y-1420000D02*
G01*
X3465000Y-1420000D01*
X1090000Y-285000D02*
G01*
X1135000Y-285000D01*
X1165000Y-360000D02*
G01*
X1237399Y-360000D01*
X1882629Y-295000D02*
G01*
X1830000Y-295000D01*
X1834333Y-320000D02*
G01*
X1845000Y-320000D01*
X1755000Y-245000D02*
G01*
X1759333Y-245000D01*
X1733546Y-272127D02*
G01*
X1733546Y-266453D01*
X1740318Y-220000D02*
G01*
X1755000Y-220000D01*
X1718428Y-243940D02*
G01*
X1718428Y-241889D01*
X1733546Y-281453D02*
G01*
X1733546Y-272127D01*
X1853284Y-295000D02*
G01*
X1882629Y-295000D01*
X1805000Y-220000D02*
G01*
X1755000Y-220000D01*
X1830000Y-250000D02*
G01*
X1830000Y-245000D01*
X1885000Y-270000D02*
G01*
X1850000Y-270000D01*
X1925000Y-270000D02*
G01*
X1885000Y-270000D01*
X1945000Y-285000D02*
G01*
X1940000Y-285000D01*
X1585000Y-220000D02*
G01*
X1550000Y-220000D01*
X1803661Y-171338D02*
G01*
X1633661Y-171338D01*
X1914964Y-171338D02*
G01*
X1943978Y-171338D01*
X1803661Y-171338D02*
G01*
X1914964Y-171338D01*
X2000000Y-155000D02*
G01*
X1945000Y-155000D01*
X1667370Y-395000D02*
G01*
X1725000Y-395000D01*
X1340339Y-565000D02*
G01*
X1305000Y-565000D01*
X1335000Y-570340D02*
G01*
X1335000Y-595000D01*
X1667370Y-445000D02*
G01*
X1725000Y-445000D01*
X1935000Y-240000D02*
G01*
X1882600Y-245000D01*
X1935000Y-240000D02*
G01*
X1882600Y-245000D01*
X1780000Y-330000D02*
G01*
X1760000Y-275000D01*
X1695000Y-320000D02*
G01*
X1635000Y-320000D01*
X1930000Y-320000D02*
G01*
X1845000Y-320000D01*
X1804660Y-565000D02*
G01*
X1840000Y-565000D01*
X1715000Y-565000D02*
G01*
X1745339Y-565000D01*
X1190000Y-410000D02*
G01*
X1237370Y-410000D01*
X1120000Y-410000D02*
G01*
X1032640Y-410000D01*
X1190000Y-435000D02*
G01*
X1145000Y-435000D01*
X974660Y-510000D02*
G01*
X1032640Y-510000D01*
X1499142Y-220000D02*
G01*
X1550000Y-220000D01*
X1462070Y-242928D02*
G01*
X1475000Y-230000D01*
X1425000Y-250000D02*
G01*
X1445000Y-250000D01*
X1405607Y-230606D02*
G01*
X1425000Y-250000D01*
X1325000Y-220000D02*
G01*
X1380000Y-220000D01*
X1337370Y-195000D02*
G01*
X1395000Y-195000D01*
X1326212Y-345000D02*
G01*
X1337370Y-345000D01*
X1552629Y-345000D02*
G01*
X1605000Y-345000D01*
X1573747Y-486253D02*
G01*
X1585000Y-475000D01*
X2110000Y-290000D02*
G01*
X2110000Y-220000D01*
X2050000Y-310000D02*
G01*
X2090000Y-310000D01*
X2140000Y-215000D02*
G01*
X2140000Y-280000D01*
X2095000Y-195000D02*
G01*
X2120000Y-195000D01*
X2090000Y-195000D02*
G01*
X2095000Y-195000D01*
X2035000Y-285000D02*
G01*
X2045250Y-274749D01*
X1982640Y-310000D02*
G01*
X2050000Y-310000D01*
X2140000Y-280000D02*
G01*
X2140000Y-360000D01*
X2010000Y-285000D02*
G01*
X2035000Y-285000D01*
X1667370Y-195000D02*
G01*
X1720000Y-195000D01*
X1667370Y-345000D02*
G01*
X1720000Y-345000D01*
X1825000Y-490000D02*
G01*
X1877629Y-490000D01*
X1830000Y-345000D02*
G01*
X1882629Y-345000D01*
X1495000Y-295000D02*
G01*
X1552629Y-295000D01*
X1495000Y-245000D02*
G01*
X1552629Y-245000D01*
X1032640Y-510000D02*
G01*
X1080000Y-510000D01*
X1032640Y-460000D02*
G01*
X1080000Y-460000D01*
X1032640Y-310000D02*
G01*
X1075000Y-310000D01*
X2025000Y-260000D02*
G01*
X1982640Y-260000D01*
X2045000Y-215000D02*
G01*
X2045000Y-240000D01*
X2045000Y-200000D02*
G01*
X2045000Y-215000D01*
X1020000Y-235000D02*
G01*
X1015000Y-235000D01*
X1055000Y-285000D02*
G01*
X1090000Y-285000D01*
X1005000Y-285000D02*
G01*
X1055000Y-285000D01*
X975000Y-300000D02*
G01*
X974660Y-300000D01*
X985000Y-312359D02*
G01*
X985000Y-310000D01*
X985000Y-240340D02*
G01*
X985000Y-265000D01*
X1320000Y-220000D02*
G01*
X1325000Y-220000D01*
X1080541Y-210000D02*
G01*
X1032640Y-210000D01*
X1092653Y-210000D02*
G01*
X1080541Y-210000D01*
X1130000Y-210000D02*
G01*
X1092653Y-210000D01*
X1170000Y-235000D02*
G01*
X1155000Y-235000D01*
X1275000Y-235000D02*
G01*
X1170000Y-235000D01*
X1320000Y-220000D02*
G01*
X1290000Y-220000D01*
X1190000Y-210000D02*
G01*
X1237370Y-210000D01*
X1190000Y-260000D02*
G01*
X1237370Y-260000D01*
X1882629Y-445000D02*
G01*
X1910000Y-445000D01*
X1882629Y-395000D02*
G01*
X1910000Y-395000D01*
X1945000Y-285000D02*
G01*
X2010000Y-285000D01*
X1635000Y-245000D02*
G01*
X1667370Y-245000D01*
X1610000Y-305000D02*
G01*
X1610000Y-270000D01*
X1635000Y-320000D02*
G01*
X1625000Y-320000D01*
X2080000Y-335000D02*
G01*
X1945000Y-335000D01*
X2120000Y-435000D02*
G01*
X2120000Y-375000D01*
X2215000Y-385000D02*
G01*
X2165000Y-385000D01*
X2230000Y-490000D02*
G01*
X2230000Y-400000D01*
X2187370Y-510000D02*
G01*
X2210000Y-510000D01*
X2225000Y-360000D02*
G01*
X2187370Y-360000D01*
X2290000Y-380000D02*
G01*
X2245000Y-380000D01*
X2300000Y-575000D02*
G01*
X2300000Y-390000D01*
X2370000Y-595000D02*
G01*
X2320000Y-595000D01*
X1520000Y-555000D02*
G01*
X1520000Y-600000D01*
X1475000Y-505000D02*
G01*
X1475000Y-510000D01*
X1445000Y-480000D02*
G01*
X1450000Y-480000D01*
X1415000Y-435000D02*
G01*
X1415000Y-450000D01*
X1415000Y-340000D02*
G01*
X1415000Y-390000D01*
X1337370Y-295000D02*
G01*
X1370000Y-295000D01*
X1415000Y-435000D02*
G01*
X1415000Y-390000D01*
X1345000Y-245000D02*
G01*
X1337370Y-245000D01*
X1445000Y-425000D02*
G01*
X1445000Y-345000D01*
X1500000Y-495000D02*
G01*
X1500000Y-480000D01*
X1550000Y-520000D02*
G01*
X1525000Y-520000D01*
X1555000Y-520000D02*
G01*
X1550000Y-520000D01*
X1730000Y-605000D02*
G01*
X1640000Y-605000D01*
X1425000Y-520000D02*
G01*
X1300000Y-520000D01*
X1490339Y-565000D02*
G01*
X1470000Y-565000D01*
X1710000Y-630000D02*
G01*
X1550000Y-630000D01*
X1640000Y-525000D02*
G01*
X1967640Y-525000D01*
X1610000Y-452370D02*
G01*
X1610000Y-495000D01*
X1905000Y-825000D02*
G01*
X1825316Y-825000D01*
X1930000Y-755000D02*
G01*
X1930000Y-800000D01*
X2030000Y-755000D02*
G01*
X2030000Y-785000D01*
X1375000Y-445000D02*
G01*
X1337370Y-445000D01*
X1390000Y-395000D02*
G01*
X1390000Y-430000D01*
X1335000Y-370000D02*
G01*
X1365000Y-370000D01*
X1285000Y-370000D02*
G01*
X1335000Y-370000D01*
X1220000Y-385000D02*
G01*
X1270000Y-385000D01*
X1057640Y-385000D02*
G01*
X1220000Y-385000D01*
X1310000Y-395000D02*
G01*
X1337370Y-395000D01*
X1255000Y-435000D02*
G01*
X1270000Y-435000D01*
X1190000Y-435000D02*
G01*
X1255000Y-435000D01*
X1285000Y-495000D02*
G01*
X1285000Y-505000D01*
X1237370Y-460000D02*
G01*
X1250000Y-460000D01*
X1260000Y-535000D02*
G01*
X1275000Y-535000D01*
X1237370Y-510000D02*
G01*
X1237370Y-512370D01*
X1549660Y-599659D02*
G01*
X1549660Y-565000D01*
X1400000Y-565340D02*
G01*
X1400000Y-600000D01*
X1510000Y-370000D02*
G01*
X1972640Y-370000D01*
X1485000Y-405000D02*
G01*
X1485000Y-395000D01*
X1552629Y-445000D02*
G01*
X1525000Y-445000D01*
X2187370Y-237370D02*
G01*
X2187370Y-260000D01*
X2187370Y-210000D02*
G01*
X2187370Y-232629D01*
X1080000Y-560000D02*
G01*
X1032640Y-560000D01*
X1390000Y-495000D02*
G01*
X1337370Y-495000D01*
X1830000Y-195000D02*
G01*
X1882629Y-195000D01*
X1667370Y-495000D02*
G01*
X1720000Y-495000D01*
X890339Y-275000D02*
G01*
X890339Y-205000D01*
X890000Y-310000D02*
G01*
X890000Y-275340D01*
X890339Y-345000D02*
G01*
X890339Y-310340D01*
X890339Y-415000D02*
G01*
X890339Y-345000D01*
X890000Y-450000D02*
G01*
X890000Y-415340D01*
X890339Y-485000D02*
G01*
X890339Y-450340D01*
X890339Y-555000D02*
G01*
X890339Y-485000D01*
X2040000Y-630000D02*
G01*
X2040000Y-567359D01*
X1965000Y-665000D02*
G01*
X2005000Y-665000D01*
X1920000Y-665000D02*
G01*
X1965000Y-665000D01*
X2040000Y-460000D02*
G01*
X1982640Y-460000D01*
X2060000Y-640000D02*
G01*
X2060000Y-480000D01*
X2005000Y-685000D02*
G01*
X2015000Y-685000D01*
X2000000Y-685000D02*
G01*
X2005000Y-685000D01*
X2045000Y-410000D02*
G01*
X1982640Y-410000D01*
X2080000Y-600000D02*
G01*
X2080000Y-445000D01*
X2080000Y-705000D02*
G01*
X2080000Y-600000D01*
X2070000Y-360000D02*
G01*
X1982640Y-360000D01*
X2100000Y-555000D02*
G01*
X2100000Y-390000D01*
X2100000Y-725000D02*
G01*
X2100000Y-555000D01*
X2145000Y-410000D02*
G01*
X2187370Y-410000D01*
X2120000Y-620000D02*
G01*
X2120000Y-435000D01*
X2200000Y-660000D02*
G01*
X2160000Y-660000D01*
X2230000Y-755000D02*
G01*
X2230000Y-690000D01*
X2140000Y-615000D02*
G01*
X2140000Y-557370D01*
X2290000Y-640000D02*
G01*
X2165000Y-640000D01*
X2330000Y-755000D02*
G01*
X2330000Y-680000D01*
X2385000Y-620000D02*
G01*
X2247370Y-620000D01*
X2430000Y-755000D02*
G01*
X2430000Y-665000D01*
X2205000Y-360000D02*
G01*
X2187370Y-360000D01*
X949660Y-275000D02*
G01*
X955000Y-275000D01*
X1020000Y-410000D02*
G01*
X1032640Y-410000D01*
X949660Y-345000D02*
G01*
X955000Y-345000D01*
X990000Y-440000D02*
G01*
X1012640Y-440000D01*
X974660Y-440000D02*
G01*
X990000Y-440000D01*
X1075000Y-590000D02*
G01*
X1207370Y-590000D01*
X984660Y-590000D02*
G01*
X1075000Y-590000D01*
X2935000Y-630000D02*
G01*
X3245000Y-630000D01*
X2960000Y-675000D02*
G01*
X3047227Y-675000D01*
X2340000Y-410000D02*
G01*
X2475000Y-410000D01*
X3490000Y-563816D02*
G01*
X3490000Y-456181D01*
X3490000Y-745000D02*
G01*
X3490000Y-665000D01*
X3490000Y-665000D02*
G01*
X3490000Y-565000D01*
X3470000Y-429998D02*
G01*
X3470000Y-712633D01*
X3450000Y-532500D02*
G01*
X3450000Y-407500D01*
X3450000Y-707500D02*
G01*
X3450000Y-532500D01*
X3430000Y-612500D02*
G01*
X3430000Y-487500D01*
X3410000Y-605000D02*
G01*
X3410000Y-495000D01*
X2895000Y-630000D02*
G01*
X2895000Y-530000D01*
X2865000Y-220000D02*
G01*
X2927600Y-195000D01*
X3032399Y-495000D02*
G01*
X3085000Y-495000D01*
X2712399Y-495000D02*
G01*
X2765000Y-510000D01*
X3385000Y-540000D02*
G01*
X3347600Y-560000D01*
X2455000Y-560000D02*
G01*
X2407600Y-560000D01*
X2612399Y-260000D02*
G01*
X2610000Y-235000D01*
X2270339Y-205000D02*
G01*
X2270339Y-275000D01*
X2270339Y-308398D02*
G01*
X2270339Y-345000D01*
X2270339Y-275000D02*
G01*
X2270339Y-308398D01*
X2270339Y-555000D02*
G01*
X2270339Y-485000D01*
X2270339Y-449398D02*
G01*
X2270339Y-415000D01*
X2270339Y-485000D02*
G01*
X2270339Y-449398D01*
X2612365Y-232635D02*
G01*
X2612365Y-210000D01*
X2270339Y-1560000D02*
G01*
X2270339Y-1630000D01*
X2270339Y-1630000D02*
G01*
X2270339Y-1700000D01*
X2270339Y-1840000D02*
G01*
X2270339Y-1910000D01*
X3110000Y-600000D02*
G01*
X3110299Y-565000D01*
X2924700Y-565000D02*
G01*
X2925000Y-600000D01*
X2775000Y-565300D02*
G01*
X2815000Y-560000D01*
X3600000Y-1275000D02*
G01*
X3600000Y-557635D01*
X3030000Y-1355000D02*
G01*
X3030000Y-1330000D01*
X3580000Y-1205000D02*
G01*
X3580000Y-587635D01*
X3420000Y-360000D02*
G01*
X3347635Y-360000D01*
X3300000Y-575000D02*
G01*
X3300000Y-535000D01*
X3325000Y-510000D02*
G01*
X3347635Y-510000D01*
X2757874Y-630000D02*
G01*
X2660000Y-630000D01*
X2630000Y-660000D02*
G01*
X2630000Y-755000D01*
X2910000Y-650000D02*
G01*
X3380000Y-650000D01*
X3390000Y-460000D02*
G01*
X3347635Y-460000D01*
X2912874Y-675000D02*
G01*
X2960000Y-675000D01*
X3370000Y-410000D02*
G01*
X3347635Y-410000D01*
X3130000Y-755000D02*
G01*
X3412100Y-757899D01*
X3415000Y-780000D02*
G01*
X3390000Y-780000D01*
X3390000Y-780000D02*
G01*
X3255000Y-780000D01*
X3250000Y-780000D02*
G01*
X3230000Y-780000D01*
X3030000Y-755000D02*
G01*
X3030000Y-785000D01*
X3225000Y-780000D02*
G01*
X3230000Y-780000D01*
X3032125Y-860000D02*
G01*
X3105000Y-860000D01*
X3105000Y-860000D02*
G01*
X3185000Y-860000D01*
X3245000Y-800000D02*
G01*
X3295000Y-800000D01*
X3295000Y-800000D02*
G01*
X3450000Y-800000D01*
X3347635Y-360000D02*
G01*
X3325000Y-360000D01*
X2960000Y-445000D02*
G01*
X2927629Y-445000D01*
X2890000Y-395000D02*
G01*
X2927629Y-395000D01*
X3347635Y-360000D02*
G01*
X3335000Y-360000D01*
X3280000Y-470000D02*
G01*
X3245000Y-470000D01*
X3245000Y-470000D02*
G01*
X3160000Y-470000D01*
X3340000Y-335000D02*
G01*
X3325000Y-335000D01*
X3300000Y-450000D02*
G01*
X3300000Y-407635D01*
X3325000Y-335000D02*
G01*
X3322070Y-335000D01*
X3307929Y-342071D02*
G01*
X3305000Y-345000D01*
X3305000Y-345000D02*
G01*
X3302070Y-347928D01*
X3291463Y-373535D02*
G01*
X3285000Y-380000D01*
X3248787Y-395000D02*
G01*
X3247629Y-395000D01*
X3410000Y-620000D02*
G01*
X3410000Y-605000D01*
X3430000Y-612500D02*
G01*
X3430000Y-625000D01*
X3410000Y-495000D02*
G01*
X3410000Y-480000D01*
X3430000Y-487500D02*
G01*
X3430000Y-455000D01*
X3385000Y-410000D02*
G01*
X3347635Y-410000D01*
X3450000Y-407500D02*
G01*
X3450000Y-390000D01*
X3450000Y-720000D02*
G01*
X3450000Y-707500D01*
X3536181Y-410000D02*
G01*
X3552365Y-410000D01*
X3539998Y-360000D02*
G01*
X3552365Y-360000D01*
X3340000Y-335000D02*
G01*
X3450000Y-335000D01*
X3470000Y-355000D02*
G01*
X3470000Y-429998D01*
X3470000Y-712633D02*
G01*
X3470000Y-725000D01*
X3490000Y-745000D02*
G01*
X3490000Y-760000D01*
X3552365Y-510000D02*
G01*
X3595000Y-510000D01*
X3630000Y-475000D02*
G01*
X3630000Y-325000D01*
X3590000Y-285000D02*
G01*
X3460000Y-285000D01*
X3410000Y-235000D02*
G01*
X3325000Y-235000D01*
X3325000Y-235000D02*
G01*
X3305000Y-235000D01*
X3290000Y-220000D02*
G01*
X3250000Y-220000D01*
X3075000Y-295000D02*
G01*
X3032370Y-295000D01*
X3552365Y-560000D02*
G01*
X3545000Y-560000D01*
X3525000Y-485000D02*
G01*
X3590000Y-485000D01*
X3610000Y-465000D02*
G01*
X3610000Y-365000D01*
X3580000Y-335000D02*
G01*
X3545000Y-335000D01*
X3545000Y-335000D02*
G01*
X3500000Y-335000D01*
X3400000Y-285000D02*
G01*
X3360000Y-285000D01*
X3285000Y-320000D02*
G01*
X3245000Y-320000D01*
X3245000Y-320000D02*
G01*
X3205000Y-320000D01*
X3215000Y-445000D02*
G01*
X3247629Y-445000D01*
X3395000Y-210000D02*
G01*
X3347635Y-210000D01*
X3395000Y-260000D02*
G01*
X3347635Y-260000D01*
X3395000Y-310000D02*
G01*
X3347600Y-310000D01*
X3400000Y-285000D02*
G01*
X3405001Y-285000D01*
X3432500Y-312498D02*
G01*
X3452501Y-312498D01*
X3452501Y-312498D02*
G01*
X3477498Y-312498D01*
X3075000Y-295000D02*
G01*
X3110000Y-295000D01*
X2885000Y-520000D02*
G01*
X2850000Y-520000D01*
X2835000Y-505000D02*
G01*
X2835000Y-420000D01*
X2860000Y-395000D02*
G01*
X2927629Y-395000D01*
X2465000Y-325000D02*
G01*
X2407600Y-310000D01*
X2455000Y-260000D02*
G01*
X2407635Y-260000D01*
X2455000Y-210000D02*
G01*
X2407635Y-210000D01*
X2354660Y-180000D02*
G01*
X2410000Y-180000D01*
X2550000Y-360000D02*
G01*
X2612365Y-360000D01*
X2560000Y-280000D02*
G01*
X2612399Y-310000D01*
X3032370Y-445000D02*
G01*
X3085000Y-445000D01*
X3120000Y-480000D02*
G01*
X3120000Y-490000D01*
X3169660Y-539659D02*
G01*
X3169660Y-565000D01*
X2612365Y-510000D02*
G01*
X2640000Y-510000D01*
X3090000Y-215000D02*
G01*
X3032399Y-195000D01*
X3032370Y-245000D02*
G01*
X3085000Y-245000D01*
X3190000Y-295000D02*
G01*
X3247629Y-295000D01*
X2675000Y-580000D02*
G01*
X2715299Y-565000D01*
X2715339Y-565000D02*
G01*
X2695000Y-565000D01*
X2885000Y-495000D02*
G01*
X2927629Y-495000D01*
X2329660Y-275000D02*
G01*
X2330000Y-275000D01*
X2329660Y-345000D02*
G01*
X2330000Y-345000D01*
X2370000Y-385000D02*
G01*
X2425000Y-385000D01*
X2425000Y-385000D02*
G01*
X2555000Y-385000D01*
X2555000Y-385000D02*
G01*
X2587365Y-385000D01*
X2354660Y-460000D02*
G01*
X2407635Y-460000D01*
X2374700Y-510000D02*
G01*
X2455000Y-510000D01*
X2612365Y-510000D02*
G01*
X2625000Y-510000D01*
X2680000Y-565000D02*
G01*
X2715339Y-565000D01*
X2432635Y-435000D02*
G01*
X2605000Y-435000D01*
X2820339Y-610000D02*
G01*
X2760000Y-610000D01*
X2760000Y-610000D02*
G01*
X2555000Y-610000D01*
X2525000Y-580000D02*
G01*
X2525000Y-505000D01*
X2570000Y-460000D02*
G01*
X2612365Y-460000D01*
X2605000Y-435000D02*
G01*
X2650000Y-435000D01*
X2665000Y-420000D02*
G01*
X2705000Y-420000D01*
X2705000Y-420000D02*
G01*
X2795000Y-420000D01*
X2865000Y-245000D02*
G01*
X2927629Y-245000D01*
X2860000Y-305000D02*
G01*
X2927600Y-295000D01*
X2980000Y-320000D02*
G01*
X2927600Y-345000D01*
X2820000Y-210000D02*
G01*
X2712399Y-195000D01*
X2712370Y-245000D02*
G01*
X2775000Y-245000D01*
X2712399Y-295000D02*
G01*
X2665000Y-280000D01*
X2717370Y-390000D02*
G01*
X2780000Y-390000D01*
X2712370Y-445000D02*
G01*
X2770000Y-445000D01*
X2407635Y-360000D02*
G01*
X2480000Y-360000D01*
X3165000Y-325000D02*
G01*
X3155000Y-270000D01*
X3170000Y-255000D02*
G01*
X3237629Y-255000D01*
X2730000Y-695000D02*
G01*
X2730000Y-755000D01*
X2660000Y-230000D02*
G01*
X2660000Y-190000D01*
X2680000Y-170000D02*
G01*
X2720000Y-170000D01*
X2576701Y-385000D02*
G01*
X2565000Y-385000D01*
X2612365Y-410000D02*
G01*
X2625000Y-410000D01*
X2820000Y-395000D02*
G01*
X2820000Y-385000D01*
X2775000Y-340000D02*
G01*
X2775000Y-335000D01*
X2775000Y-335000D02*
G01*
X2775000Y-290000D01*
X2795000Y-270000D02*
G01*
X2800000Y-270000D01*
X2825000Y-245000D02*
G01*
X2865000Y-245000D01*
X2980000Y-270000D02*
G01*
X2860000Y-270000D01*
X2860000Y-270000D02*
G01*
X2840000Y-270000D01*
X2805000Y-305000D02*
G01*
X2800000Y-305000D01*
X3047200Y-675000D02*
G01*
X3380000Y-675000D01*
X3250000Y-220000D02*
G01*
X3185000Y-220000D01*
X3320000Y-285000D02*
G01*
X3360000Y-285000D01*
X3525000Y-485000D02*
G01*
X3520000Y-485000D01*
X3552365Y-560000D02*
G01*
X3550000Y-560000D01*
X2935000Y-630000D02*
G01*
X2895352Y-630000D01*
X2757874Y-630000D02*
G01*
X2895352Y-630000D01*
X2775000Y-650000D02*
G01*
X2910000Y-650000D01*
X3507407Y-497591D02*
G01*
X3507407Y-519056D01*
X3507407Y-519056D02*
G01*
X3507407Y-539214D01*
X3528194Y-560000D02*
G01*
X3552365Y-560000D01*
X2595000Y-335000D02*
G01*
X2702370Y-335000D01*
X2520000Y-330000D02*
G01*
X2505000Y-330000D01*
X2495000Y-320000D02*
G01*
X2495000Y-265000D01*
X2495000Y-265000D02*
G01*
X2495000Y-209927D01*
X2595000Y-335000D02*
G01*
X2570000Y-335000D01*
X2540000Y-305000D02*
G01*
X2535000Y-305000D01*
X2520000Y-290000D02*
G01*
X2520000Y-265000D01*
X2465072Y-180000D02*
G01*
X2410000Y-180000D01*
X3085000Y-840000D02*
G01*
X3165000Y-840000D01*
X2980000Y-425000D02*
G01*
X2980000Y-390000D01*
X3032370Y-395000D02*
G01*
X3065000Y-395000D01*
X3245000Y-497629D02*
G01*
X3245000Y-525000D01*
X3145000Y-455000D02*
G01*
X3145000Y-435000D01*
X3080000Y-370000D02*
G01*
X3000000Y-370000D01*
X3090000Y-345000D02*
G01*
X3032370Y-345000D01*
X3175000Y-350000D02*
G01*
X3170000Y-350000D01*
X3160000Y-360000D02*
G01*
X3160000Y-375000D01*
X3175000Y-390000D02*
G01*
X3175000Y-405000D01*
X3175000Y-405000D02*
G01*
X3175000Y-410000D01*
X3180000Y-415000D02*
G01*
X3185000Y-415000D01*
X3225000Y-345000D02*
G01*
X3247629Y-345000D01*
X2805000Y-1890000D02*
G01*
X3290000Y-1890000D01*
X3600000Y-2005000D02*
G01*
X3600000Y-2088800D01*
X3155000Y-195000D02*
G01*
X3247629Y-195000D01*
X2387640Y-240000D02*
G01*
X2335000Y-240000D01*
X2335000Y-240000D02*
G01*
X2315000Y-240000D01*
X2285000Y-165000D02*
G01*
X2028518Y-165000D01*
X2400000Y-310000D02*
G01*
X2407640Y-310000D01*
X1950000Y-210000D02*
G01*
X1982640Y-210000D01*
X212060Y-637399D02*
G01*
X339369Y-637399D01*
X512629Y-305000D02*
G01*
X569659Y-305000D01*
X185000Y-670000D02*
G01*
X345000Y-670000D01*
X345000Y-670000D02*
G01*
X360000Y-670000D01*
X380000Y-650000D02*
G01*
X380000Y-515000D01*
X395000Y-500000D02*
G01*
X405000Y-500000D01*
X445000Y-460000D02*
G01*
X445000Y-330000D01*
X470000Y-305000D02*
G01*
X512629Y-305000D01*
X175000Y-564400D02*
G01*
X175000Y-660000D01*
X170000Y-690000D02*
G01*
X585000Y-690000D01*
X645000Y-369659D02*
G01*
X645000Y-325000D01*
X645000Y-325000D02*
G01*
X645000Y-70000D01*
X1450000Y-65000D02*
G01*
X1450000Y-105000D01*
X665000Y-75000D02*
G01*
X665000Y-515000D01*
X2700000Y-2005000D02*
G01*
X2688699Y-2006300D01*
X2645000Y-2050000D02*
G01*
X2645000Y-2060000D01*
X2625000Y-2080000D02*
G01*
X2590339Y-2080000D01*
X949660Y-1560000D02*
G01*
X1027640Y-1560000D01*
X949660Y-1770000D02*
G01*
X955000Y-1770000D01*
X1020000Y-1705000D02*
G01*
X1032640Y-1705000D01*
X949660Y-1910000D02*
G01*
X949660Y-1882471D01*
X960002Y-1872130D02*
G01*
X967870Y-1872130D01*
X1010704Y-1829295D02*
G01*
X1048190Y-1829295D01*
X949660Y-1840000D02*
G01*
X949660Y-1815340D01*
X960000Y-1805000D02*
G01*
X970000Y-1805000D01*
X1020000Y-1755000D02*
G01*
X1032640Y-1755000D01*
X967870Y-1872130D02*
G01*
X972870Y-1872130D01*
X985000Y-1860000D02*
G01*
X985000Y-1855000D01*
X949660Y-1980000D02*
G01*
X950000Y-1980000D01*
X985000Y-1945000D02*
G01*
X985000Y-1905000D01*
X1048190Y-1829295D02*
G01*
X1125704Y-1829295D01*
X1145000Y-1810000D02*
G01*
X1145000Y-1795000D01*
X1215000Y-1725000D02*
G01*
X1217370Y-1725000D01*
X890339Y-1695340D02*
G01*
X890339Y-1700000D01*
X890000Y-1560340D02*
G01*
X890000Y-1595000D01*
X890000Y-1595000D02*
G01*
X890000Y-1629659D01*
X890339Y-1840000D02*
G01*
X890339Y-1874659D01*
X890339Y-1875340D02*
G01*
X890339Y-1910000D01*
X890339Y-1840000D02*
G01*
X890339Y-1770000D01*
X890339Y-1910000D02*
G01*
X890339Y-1980000D01*
X1340339Y-1550000D02*
G01*
X1310000Y-1550000D01*
X1255000Y-1605000D02*
G01*
X1237370Y-1605000D01*
X1237370Y-1605000D02*
G01*
X1237370Y-1602629D01*
X1260000Y-1580000D02*
G01*
X1275000Y-1580000D01*
X1305000Y-1550000D02*
G01*
X1310000Y-1550000D01*
X1330000Y-1585000D02*
G01*
X1320000Y-1585000D01*
X1250000Y-1655000D02*
G01*
X1237370Y-1655000D01*
X1337370Y-1665000D02*
G01*
X1365000Y-1665000D01*
X1420000Y-1610000D02*
G01*
X1445000Y-1610000D01*
X1525000Y-1615000D02*
G01*
X1552629Y-1615000D01*
X1552600Y-1615000D02*
G01*
X1510000Y-1635000D01*
X1337370Y-1715000D02*
G01*
X1400000Y-1715000D01*
X1337370Y-1585479D02*
G01*
X1419520Y-1585479D01*
X1425000Y-1690000D02*
G01*
X1425000Y-1650000D01*
X1445000Y-1630000D02*
G01*
X1465000Y-1630000D01*
X1480803Y-1623454D02*
G01*
X1501734Y-1602523D01*
X1455000Y-1550000D02*
G01*
X1465339Y-1550000D01*
X1460000Y-1595000D02*
G01*
X1460000Y-1590000D01*
X1470000Y-1580000D02*
G01*
X1485000Y-1580000D01*
X1495000Y-1570000D02*
G01*
X1495000Y-1468544D01*
X1516853Y-1587404D02*
G01*
X1537011Y-1587404D01*
X1537011Y-1587404D02*
G01*
X1557595Y-1587404D01*
X1575000Y-1570000D02*
G01*
X1590000Y-1480000D01*
X1552629Y-1665000D02*
G01*
X1495000Y-1665000D01*
X1420000Y-1740000D02*
G01*
X1345000Y-1740000D01*
X1345000Y-1740000D02*
G01*
X1305000Y-1740000D01*
X1285000Y-1720000D02*
G01*
X1285000Y-1695000D01*
X1270000Y-1680000D02*
G01*
X1200000Y-1680000D01*
X1135000Y-1555000D02*
G01*
X1032640Y-1555000D01*
X1200000Y-1805000D02*
G01*
X1237370Y-1805000D01*
X1165000Y-1827370D02*
G01*
X1165000Y-1835000D01*
X1010000Y-1880000D02*
G01*
X1095000Y-1880000D01*
X1105000Y-1870000D02*
G01*
X1105000Y-1865000D01*
X1115000Y-1855000D02*
G01*
X1145000Y-1855000D01*
X1190000Y-1930000D02*
G01*
X1190000Y-1910000D01*
X1190000Y-1910000D02*
G01*
X1190000Y-1890000D01*
X1200000Y-1880000D02*
G01*
X1212370Y-1880000D01*
X1337370Y-1815000D02*
G01*
X1290000Y-1815000D01*
X1275000Y-1830000D02*
G01*
X1245000Y-1830000D01*
X1245000Y-1830000D02*
G01*
X1220000Y-1830000D01*
X1160000Y-1890000D02*
G01*
X1155000Y-1890000D01*
X1155000Y-1890000D02*
G01*
X1150000Y-1890000D01*
X1100000Y-1940000D02*
G01*
X1065000Y-1940000D01*
X1065000Y-1940000D02*
G01*
X1040000Y-1940000D01*
X1005000Y-1975000D02*
G01*
X1005000Y-1980000D01*
X970000Y-2015000D02*
G01*
X940000Y-2015000D01*
X920000Y-1995000D02*
G01*
X920000Y-1869659D01*
X1320000Y-1865000D02*
G01*
X1337370Y-1865000D01*
X2187370Y-1655000D02*
G01*
X2205000Y-1655000D01*
X1882629Y-1815000D02*
G01*
X1910000Y-1815000D01*
X1882629Y-1865000D02*
G01*
X1915000Y-1865000D01*
X1667370Y-1665000D02*
G01*
X1710000Y-1665000D01*
X1755000Y-1620000D02*
G01*
X1755000Y-1575000D01*
X1667370Y-1715000D02*
G01*
X1715000Y-1715000D01*
X1775000Y-1655000D02*
G01*
X1775000Y-1595000D01*
X1755000Y-1583751D02*
G01*
X1755000Y-1575000D01*
X1780000Y-1415000D02*
G01*
X1780000Y-1315000D01*
X1810000Y-1285000D02*
G01*
X1960000Y-1285000D01*
X1552629Y-1815000D02*
G01*
X1575000Y-1815000D01*
X1610000Y-1780000D02*
G01*
X1610000Y-1500000D01*
X1552629Y-1865000D02*
G01*
X1600000Y-1865000D01*
X1625000Y-1840000D02*
G01*
X1680000Y-1840000D01*
X1680000Y-1840000D02*
G01*
X1740000Y-1840000D01*
X1790000Y-1790000D02*
G01*
X1790000Y-1775000D01*
X1825000Y-1740000D02*
G01*
X1930000Y-1740000D01*
X1965000Y-1705000D02*
G01*
X1982640Y-1705000D01*
X1505000Y-1720000D02*
G01*
X1547629Y-1720000D01*
X1510000Y-1765000D02*
G01*
X1552629Y-1765000D01*
X1337370Y-1765000D02*
G01*
X1370000Y-1765000D01*
X1667370Y-1915000D02*
G01*
X1725000Y-1915000D01*
X1667370Y-1615000D02*
G01*
X1705000Y-1615000D01*
X1900000Y-1585000D02*
G01*
X1882600Y-1615000D01*
X1825000Y-1665000D02*
G01*
X1882629Y-1665000D01*
X1835000Y-1765000D02*
G01*
X1882629Y-1765000D01*
X1667399Y-1765000D02*
G01*
X1725000Y-1750000D01*
X1667370Y-1815000D02*
G01*
X1725000Y-1815000D01*
X1667370Y-1865000D02*
G01*
X1725000Y-1865000D01*
X1390000Y-1785000D02*
G01*
X1390000Y-1840000D01*
X1825000Y-1715000D02*
G01*
X1882629Y-1715000D01*
X1465339Y-1550000D02*
G01*
X1465339Y-1520340D01*
X1660000Y-1615000D02*
G01*
X1667370Y-1615000D01*
X645000Y-369659D02*
G01*
X645000Y-464659D01*
X665000Y-515000D02*
G01*
X665000Y-610000D01*
X3670000Y-155000D02*
G01*
X3730000Y-155000D01*
X2720000Y-170000D02*
G01*
X3320000Y-170000D01*
X1005000Y-880000D02*
G01*
X1005000Y-1245000D01*
X1375000Y-855000D02*
G01*
X1030000Y-855000D01*
X1170000Y-1515000D02*
G01*
X1135000Y-1515000D01*
X993467Y-1515000D02*
G01*
X945000Y-1515000D01*
X1135000Y-1515000D02*
G01*
X993467Y-1515000D01*
X920000Y-1540000D02*
G01*
X920000Y-1650000D01*
X700000Y-1547640D02*
G01*
X700000Y-1630000D01*
X675000Y-1655000D02*
G01*
X592640Y-1655000D01*
X650000Y-1540000D02*
G01*
X650000Y-1570000D01*
X675000Y-1595000D02*
G01*
X675000Y-1620000D01*
X665000Y-1630000D02*
G01*
X620000Y-1630000D01*
X620000Y-1630000D02*
G01*
X570000Y-1630000D01*
X545000Y-1655000D02*
G01*
X545000Y-1720000D01*
X732534Y-1372465D02*
G01*
X690000Y-1415000D01*
X690000Y-1415000D02*
G01*
X662465Y-1442534D01*
X876037Y-1339737D02*
G01*
X765990Y-1339737D01*
X705000Y-1365000D02*
G01*
X653535Y-1416464D01*
X625000Y-1440000D02*
G01*
X625000Y-1445000D01*
X625000Y-1445000D02*
G01*
X625000Y-1565000D01*
X615000Y-1575000D02*
G01*
X580000Y-1575000D01*
X580000Y-1575000D02*
G01*
X579142Y-1575000D01*
X525000Y-1657426D02*
G01*
X525000Y-1670000D01*
X525000Y-1670000D02*
G01*
X525000Y-1726716D01*
X545000Y-1775000D02*
G01*
X562527Y-1792527D01*
X900000Y-1472629D02*
G01*
X900000Y-1536678D01*
X790000Y-1570000D02*
G01*
X790000Y-1587206D01*
X1882629Y-1915000D02*
G01*
X1820000Y-1915000D01*
X680000Y-25000D02*
G01*
X1420000Y-25000D01*
X1445000Y-2230000D02*
G01*
X1975000Y-2230000D01*
X2960000Y-1840000D02*
G01*
X2898671Y-1840000D01*
X2927629Y-1815000D02*
G01*
X2965000Y-1815000D01*
D11*
X1680600Y-2140000D02*
G01*
X1730000Y-2140000D01*
D10*
X2635000Y-1730000D02*
G01*
X2555000Y-1730000D01*
X974700Y-1605000D02*
G01*
X1165000Y-1605000D01*
X750000Y-1472629D02*
G01*
X750000Y-1430000D01*
X1245339Y-2054659D02*
G01*
X1245339Y-2080000D01*
X839660Y-2175340D02*
G01*
X839660Y-2165000D01*
X1230000Y-1530000D02*
G01*
X1230000Y-1547629D01*
X1060000Y90340D02*
G01*
X1060000Y55000D01*
D12*
X1465000Y-2078840D02*
G01*
X1481159Y-2078840D01*
D10*
X3895000Y-1115000D02*
G01*
X3895000Y-1083501D01*
X3895000Y-1415000D02*
G01*
X3895000Y-1378501D01*
X3895000Y-1229661D02*
G01*
X3895000Y-1311498D01*
X3895000Y-934661D02*
G01*
X3895000Y-1016498D01*
X3895000Y-655000D02*
G01*
X3855630Y-655000D01*
X3895000Y-755300D02*
G01*
X3900000Y-726799D01*
X3890000Y-595000D02*
G01*
X3934399Y-617600D01*
X3750000Y-745000D02*
G01*
X3750000Y-615000D01*
D13*
X1855612Y-495000D02*
G01*
X1909647Y-495000D01*
X1855612Y-445000D02*
G01*
X1909647Y-445000D01*
X1855612Y-395000D02*
G01*
X1909647Y-395000D01*
X1855612Y-345000D02*
G01*
X1909647Y-345000D01*
X1855612Y-295000D02*
G01*
X1909647Y-295000D01*
X1855612Y-245000D02*
G01*
X1909647Y-245000D01*
X1855612Y-195000D02*
G01*
X1909647Y-195000D01*
X1640352Y-495000D02*
G01*
X1694387Y-495000D01*
X1640352Y-445000D02*
G01*
X1694387Y-445000D01*
X1640352Y-395000D02*
G01*
X1694387Y-395000D01*
X1640352Y-345000D02*
G01*
X1694387Y-345000D01*
X1640352Y-295000D02*
G01*
X1694387Y-295000D01*
X1640352Y-245000D02*
G01*
X1694387Y-245000D01*
X1640352Y-195000D02*
G01*
X1694387Y-195000D01*
X1525612Y-495000D02*
G01*
X1579647Y-495000D01*
X1525612Y-445000D02*
G01*
X1579647Y-445000D01*
X1525612Y-395000D02*
G01*
X1579647Y-395000D01*
X1525612Y-345000D02*
G01*
X1579647Y-345000D01*
X1525612Y-295000D02*
G01*
X1579647Y-295000D01*
X1525612Y-245000D02*
G01*
X1579647Y-245000D01*
X1525612Y-195000D02*
G01*
X1579647Y-195000D01*
X1310352Y-495000D02*
G01*
X1364387Y-495000D01*
X1310352Y-445000D02*
G01*
X1364387Y-445000D01*
X1310352Y-395000D02*
G01*
X1364387Y-395000D01*
X1310352Y-345000D02*
G01*
X1364387Y-345000D01*
X1310352Y-295000D02*
G01*
X1364387Y-295000D01*
X1310352Y-245000D02*
G01*
X1364387Y-245000D01*
X1310352Y-195000D02*
G01*
X1364387Y-195000D01*
D14*
X1257055Y-560000D02*
G01*
X1217685Y-560000D01*
X1257055Y-510000D02*
G01*
X1217685Y-510000D01*
X1257055Y-460000D02*
G01*
X1217685Y-460000D01*
X1257055Y-410000D02*
G01*
X1217685Y-410000D01*
X1257055Y-360000D02*
G01*
X1217685Y-360000D01*
X1257055Y-310000D02*
G01*
X1217685Y-310000D01*
X1257055Y-260000D02*
G01*
X1217685Y-260000D01*
X1257055Y-210000D02*
G01*
X1217685Y-210000D01*
X1052325Y-560000D02*
G01*
X1012955Y-560000D01*
X1052325Y-510000D02*
G01*
X1012955Y-510000D01*
X1052325Y-460000D02*
G01*
X1012955Y-460000D01*
X1052325Y-410000D02*
G01*
X1012955Y-410000D01*
X1052325Y-360000D02*
G01*
X1012955Y-360000D01*
X1052325Y-310000D02*
G01*
X1012955Y-310000D01*
X1052325Y-260000D02*
G01*
X1012955Y-260000D01*
X1052325Y-210000D02*
G01*
X1012955Y-210000D01*
X2207055Y-560000D02*
G01*
X2167685Y-560000D01*
X2207055Y-510000D02*
G01*
X2167685Y-510000D01*
X2207055Y-460000D02*
G01*
X2167685Y-460000D01*
X2207055Y-410000D02*
G01*
X2167685Y-410000D01*
X2207055Y-360000D02*
G01*
X2167685Y-360000D01*
X2207055Y-310000D02*
G01*
X2167685Y-310000D01*
X2207055Y-260000D02*
G01*
X2167685Y-260000D01*
X2207055Y-210000D02*
G01*
X2167685Y-210000D01*
X2002325Y-560000D02*
G01*
X1962955Y-560000D01*
X2002325Y-510000D02*
G01*
X1962955Y-510000D01*
X2002325Y-460000D02*
G01*
X1962955Y-460000D01*
X2002325Y-410000D02*
G01*
X1962955Y-410000D01*
X2002325Y-360000D02*
G01*
X1962955Y-360000D01*
X2002325Y-310000D02*
G01*
X1962955Y-310000D01*
X2002325Y-260000D02*
G01*
X1962955Y-260000D01*
X2002325Y-210000D02*
G01*
X1962955Y-210000D01*
X3327955Y-1555000D02*
G01*
X3367325Y-1555000D01*
X3327955Y-1605000D02*
G01*
X3367325Y-1605000D01*
X3327955Y-1655000D02*
G01*
X3367325Y-1655000D01*
X3327955Y-1705000D02*
G01*
X3367325Y-1705000D01*
X3327955Y-1755000D02*
G01*
X3367325Y-1755000D01*
X3327955Y-1805000D02*
G01*
X3367325Y-1805000D01*
X3327955Y-1855000D02*
G01*
X3367325Y-1855000D01*
X3327955Y-1905000D02*
G01*
X3367325Y-1905000D01*
X3532685Y-1555000D02*
G01*
X3572055Y-1555000D01*
X3532685Y-1605000D02*
G01*
X3572055Y-1605000D01*
X3532685Y-1655000D02*
G01*
X3572055Y-1655000D01*
X3532685Y-1705000D02*
G01*
X3572055Y-1705000D01*
X3532685Y-1755000D02*
G01*
X3572055Y-1755000D01*
X3532685Y-1805000D02*
G01*
X3572055Y-1805000D01*
X3532685Y-1855000D02*
G01*
X3572055Y-1855000D01*
X3532685Y-1905000D02*
G01*
X3572055Y-1905000D01*
X2387955Y-1555000D02*
G01*
X2427325Y-1555000D01*
X2387955Y-1605000D02*
G01*
X2427325Y-1605000D01*
X2387955Y-1655000D02*
G01*
X2427325Y-1655000D01*
X2387955Y-1705000D02*
G01*
X2427325Y-1705000D01*
X2387955Y-1755000D02*
G01*
X2427325Y-1755000D01*
X2387955Y-1805000D02*
G01*
X2427325Y-1805000D01*
X2387955Y-1855000D02*
G01*
X2427325Y-1855000D01*
X2387955Y-1905000D02*
G01*
X2427325Y-1905000D01*
X2592685Y-1555000D02*
G01*
X2632055Y-1555000D01*
X2592685Y-1605000D02*
G01*
X2632055Y-1605000D01*
X2592685Y-1655000D02*
G01*
X2632055Y-1655000D01*
X2592685Y-1705000D02*
G01*
X2632055Y-1705000D01*
X2592685Y-1755000D02*
G01*
X2632055Y-1755000D01*
X2592685Y-1805000D02*
G01*
X2632055Y-1805000D01*
X2592685Y-1855000D02*
G01*
X2632055Y-1855000D01*
X2592685Y-1905000D02*
G01*
X2632055Y-1905000D01*
D13*
X3059387Y-1615000D02*
G01*
X3005352Y-1615000D01*
X3059387Y-1665000D02*
G01*
X3005352Y-1665000D01*
X3059387Y-1715000D02*
G01*
X3005352Y-1715000D01*
X3059387Y-1765000D02*
G01*
X3005352Y-1765000D01*
X3059387Y-1815000D02*
G01*
X3005352Y-1815000D01*
X3059387Y-1865000D02*
G01*
X3005352Y-1865000D01*
X3059387Y-1915000D02*
G01*
X3005352Y-1915000D01*
X3274647Y-1615000D02*
G01*
X3220612Y-1615000D01*
X3274647Y-1665000D02*
G01*
X3220612Y-1665000D01*
X3274647Y-1715000D02*
G01*
X3220612Y-1715000D01*
X3274647Y-1765000D02*
G01*
X3220612Y-1765000D01*
X3274647Y-1815000D02*
G01*
X3220612Y-1815000D01*
X3274647Y-1865000D02*
G01*
X3220612Y-1865000D01*
X3274647Y-1915000D02*
G01*
X3220612Y-1915000D01*
X2739387Y-1615000D02*
G01*
X2685352Y-1615000D01*
X2739387Y-1665000D02*
G01*
X2685352Y-1665000D01*
X2739387Y-1715000D02*
G01*
X2685352Y-1715000D01*
X2739387Y-1765000D02*
G01*
X2685352Y-1765000D01*
X2739387Y-1815000D02*
G01*
X2685352Y-1815000D01*
X2739387Y-1865000D02*
G01*
X2685352Y-1865000D01*
X2739387Y-1915000D02*
G01*
X2685352Y-1915000D01*
X2954647Y-1615000D02*
G01*
X2900612Y-1615000D01*
X2954647Y-1665000D02*
G01*
X2900612Y-1665000D01*
X2954647Y-1715000D02*
G01*
X2900612Y-1715000D01*
X2954647Y-1765000D02*
G01*
X2900612Y-1765000D01*
X2954647Y-1815000D02*
G01*
X2900612Y-1815000D01*
X2954647Y-1865000D02*
G01*
X2900612Y-1865000D01*
X2954647Y-1915000D02*
G01*
X2900612Y-1915000D01*
X1364387Y-1615000D02*
G01*
X1310352Y-1615000D01*
X1364387Y-1665000D02*
G01*
X1310352Y-1665000D01*
X1364387Y-1715000D02*
G01*
X1310352Y-1715000D01*
X1364387Y-1765000D02*
G01*
X1310352Y-1765000D01*
X1364387Y-1815000D02*
G01*
X1310352Y-1815000D01*
X1364387Y-1865000D02*
G01*
X1310352Y-1865000D01*
X1364387Y-1915000D02*
G01*
X1310352Y-1915000D01*
X1579647Y-1615000D02*
G01*
X1525612Y-1615000D01*
X1579647Y-1665000D02*
G01*
X1525612Y-1665000D01*
X1579647Y-1715000D02*
G01*
X1525612Y-1715000D01*
X1579647Y-1765000D02*
G01*
X1525612Y-1765000D01*
X1579647Y-1815000D02*
G01*
X1525612Y-1815000D01*
X1579647Y-1865000D02*
G01*
X1525612Y-1865000D01*
X1579647Y-1915000D02*
G01*
X1525612Y-1915000D01*
X1694387Y-1615000D02*
G01*
X1640352Y-1615000D01*
X1694387Y-1665000D02*
G01*
X1640352Y-1665000D01*
X1694387Y-1715000D02*
G01*
X1640352Y-1715000D01*
X1694387Y-1765000D02*
G01*
X1640352Y-1765000D01*
X1694387Y-1815000D02*
G01*
X1640352Y-1815000D01*
X1694387Y-1865000D02*
G01*
X1640352Y-1865000D01*
X1694387Y-1915000D02*
G01*
X1640352Y-1915000D01*
X1909647Y-1615000D02*
G01*
X1855612Y-1615000D01*
X1909647Y-1665000D02*
G01*
X1855612Y-1665000D01*
X1909647Y-1715000D02*
G01*
X1855612Y-1715000D01*
X1909647Y-1765000D02*
G01*
X1855612Y-1765000D01*
X1909647Y-1815000D02*
G01*
X1855612Y-1815000D01*
X1909647Y-1865000D02*
G01*
X1855612Y-1865000D01*
X1909647Y-1915000D02*
G01*
X1855612Y-1915000D01*
D14*
X1012955Y-1555000D02*
G01*
X1052325Y-1555000D01*
X1012955Y-1605000D02*
G01*
X1052325Y-1605000D01*
X1012955Y-1655000D02*
G01*
X1052325Y-1655000D01*
X1012955Y-1705000D02*
G01*
X1052325Y-1705000D01*
X1012955Y-1755000D02*
G01*
X1052325Y-1755000D01*
X1012955Y-1805000D02*
G01*
X1052325Y-1805000D01*
X1012955Y-1855000D02*
G01*
X1052325Y-1855000D01*
X1012955Y-1905000D02*
G01*
X1052325Y-1905000D01*
X1217685Y-1555000D02*
G01*
X1257055Y-1555000D01*
X1217685Y-1605000D02*
G01*
X1257055Y-1605000D01*
X1217685Y-1655000D02*
G01*
X1257055Y-1655000D01*
X1217685Y-1705000D02*
G01*
X1257055Y-1705000D01*
X1217685Y-1755000D02*
G01*
X1257055Y-1755000D01*
X1217685Y-1805000D02*
G01*
X1257055Y-1805000D01*
X1217685Y-1855000D02*
G01*
X1257055Y-1855000D01*
X1217685Y-1905000D02*
G01*
X1257055Y-1905000D01*
X1962955Y-1555000D02*
G01*
X2002325Y-1555000D01*
X1962955Y-1605000D02*
G01*
X2002325Y-1605000D01*
X1962955Y-1655000D02*
G01*
X2002325Y-1655000D01*
X1962955Y-1705000D02*
G01*
X2002325Y-1705000D01*
X1962955Y-1755000D02*
G01*
X2002325Y-1755000D01*
X1962955Y-1805000D02*
G01*
X2002325Y-1805000D01*
X1962955Y-1855000D02*
G01*
X2002325Y-1855000D01*
X1962955Y-1905000D02*
G01*
X2002325Y-1905000D01*
X2167685Y-1555000D02*
G01*
X2207055Y-1555000D01*
X2167685Y-1605000D02*
G01*
X2207055Y-1605000D01*
X2167685Y-1655000D02*
G01*
X2207055Y-1655000D01*
X2167685Y-1705000D02*
G01*
X2207055Y-1705000D01*
X2167685Y-1755000D02*
G01*
X2207055Y-1755000D01*
X2167685Y-1805000D02*
G01*
X2207055Y-1805000D01*
X2167685Y-1855000D02*
G01*
X2207055Y-1855000D01*
X2167685Y-1905000D02*
G01*
X2207055Y-1905000D01*
X572955Y-1605000D02*
G01*
X612325Y-1605000D01*
X572955Y-1655000D02*
G01*
X612325Y-1655000D01*
X572955Y-1705000D02*
G01*
X612325Y-1705000D01*
X572955Y-1755000D02*
G01*
X612325Y-1755000D01*
X572955Y-1805000D02*
G01*
X612325Y-1805000D01*
X572955Y-1855000D02*
G01*
X612325Y-1855000D01*
X572955Y-1905000D02*
G01*
X612325Y-1905000D01*
X572955Y-1955000D02*
G01*
X612325Y-1955000D01*
X777685Y-1605000D02*
G01*
X817055Y-1605000D01*
X777685Y-1655000D02*
G01*
X817055Y-1655000D01*
X777685Y-1705000D02*
G01*
X817055Y-1705000D01*
X777685Y-1755000D02*
G01*
X817055Y-1755000D01*
X777685Y-1805000D02*
G01*
X817055Y-1805000D01*
X777685Y-1855000D02*
G01*
X817055Y-1855000D01*
X777685Y-1905000D02*
G01*
X817055Y-1905000D01*
X777685Y-1955000D02*
G01*
X817055Y-1955000D01*
X490000Y-1587955D02*
G01*
X490000Y-1627325D01*
X440000Y-1587955D02*
G01*
X440000Y-1627325D01*
X390000Y-1587955D02*
G01*
X390000Y-1627325D01*
X340000Y-1587955D02*
G01*
X340000Y-1627325D01*
X290000Y-1587955D02*
G01*
X290000Y-1627325D01*
X240000Y-1587955D02*
G01*
X240000Y-1627325D01*
X190000Y-1587955D02*
G01*
X190000Y-1627325D01*
X140000Y-1587955D02*
G01*
X140000Y-1627325D01*
X490000Y-1792685D02*
G01*
X490000Y-1832055D01*
X440000Y-1792685D02*
G01*
X440000Y-1832055D01*
X390000Y-1792685D02*
G01*
X390000Y-1832055D01*
X340000Y-1792685D02*
G01*
X340000Y-1832055D01*
X290000Y-1792685D02*
G01*
X290000Y-1832055D01*
X240000Y-1792685D02*
G01*
X240000Y-1832055D01*
X190000Y-1792685D02*
G01*
X190000Y-1832055D01*
X140000Y-1792685D02*
G01*
X140000Y-1832055D01*
D13*
X440000Y-1299387D02*
G01*
X440000Y-1245351D01*
X390000Y-1299387D02*
G01*
X390000Y-1245351D01*
X340000Y-1299387D02*
G01*
X340000Y-1245351D01*
X290000Y-1299387D02*
G01*
X290000Y-1245351D01*
X240000Y-1299387D02*
G01*
X240000Y-1245351D01*
X190000Y-1299387D02*
G01*
X190000Y-1245351D01*
X140000Y-1299387D02*
G01*
X140000Y-1245351D01*
X440000Y-1514648D02*
G01*
X440000Y-1460612D01*
X390000Y-1514648D02*
G01*
X390000Y-1460612D01*
X340000Y-1514648D02*
G01*
X340000Y-1460612D01*
X290000Y-1514648D02*
G01*
X290000Y-1460612D01*
X240000Y-1514648D02*
G01*
X240000Y-1460612D01*
X190000Y-1514648D02*
G01*
X190000Y-1460612D01*
X140000Y-1514648D02*
G01*
X140000Y-1460612D01*
X900000Y-1284387D02*
G01*
X900000Y-1230351D01*
X850000Y-1284387D02*
G01*
X850000Y-1230351D01*
X800000Y-1284387D02*
G01*
X800000Y-1230351D01*
X750000Y-1284387D02*
G01*
X750000Y-1230351D01*
X700000Y-1284387D02*
G01*
X700000Y-1230351D01*
X650000Y-1284387D02*
G01*
X650000Y-1230351D01*
X600000Y-1284387D02*
G01*
X600000Y-1230351D01*
X900000Y-1499648D02*
G01*
X900000Y-1445612D01*
X850000Y-1499648D02*
G01*
X850000Y-1445612D01*
X800000Y-1499648D02*
G01*
X800000Y-1445612D01*
X750000Y-1499648D02*
G01*
X750000Y-1445612D01*
X700000Y-1499648D02*
G01*
X700000Y-1445612D01*
X650000Y-1499648D02*
G01*
X650000Y-1445612D01*
X600000Y-1499648D02*
G01*
X600000Y-1445612D01*
X2900612Y-495000D02*
G01*
X2954647Y-495000D01*
X2900612Y-445000D02*
G01*
X2954647Y-445000D01*
X2900612Y-395000D02*
G01*
X2954647Y-395000D01*
X2900612Y-345000D02*
G01*
X2954647Y-345000D01*
X2900612Y-295000D02*
G01*
X2954647Y-295000D01*
X2900612Y-245000D02*
G01*
X2954647Y-245000D01*
X2900612Y-195000D02*
G01*
X2954647Y-195000D01*
X2685352Y-495000D02*
G01*
X2739387Y-495000D01*
X2685352Y-445000D02*
G01*
X2739387Y-445000D01*
X2685352Y-395000D02*
G01*
X2739387Y-395000D01*
X2685352Y-345000D02*
G01*
X2739387Y-345000D01*
X2685352Y-295000D02*
G01*
X2739387Y-295000D01*
X2685352Y-245000D02*
G01*
X2739387Y-245000D01*
X2685352Y-195000D02*
G01*
X2739387Y-195000D01*
X3220612Y-495000D02*
G01*
X3274647Y-495000D01*
X3220612Y-445000D02*
G01*
X3274647Y-445000D01*
X3220612Y-395000D02*
G01*
X3274647Y-395000D01*
X3220612Y-345000D02*
G01*
X3274647Y-345000D01*
X3220612Y-295000D02*
G01*
X3274647Y-295000D01*
X3220612Y-245000D02*
G01*
X3274647Y-245000D01*
X3220612Y-195000D02*
G01*
X3274647Y-195000D01*
X3005352Y-495000D02*
G01*
X3059387Y-495000D01*
X3005352Y-445000D02*
G01*
X3059387Y-445000D01*
X3005352Y-395000D02*
G01*
X3059387Y-395000D01*
X3005352Y-345000D02*
G01*
X3059387Y-345000D01*
X3005352Y-295000D02*
G01*
X3059387Y-295000D01*
X3005352Y-245000D02*
G01*
X3059387Y-245000D01*
X3005352Y-195000D02*
G01*
X3059387Y-195000D01*
D14*
X3572055Y-560000D02*
G01*
X3532685Y-560000D01*
X3572055Y-510000D02*
G01*
X3532685Y-510000D01*
X3572055Y-460000D02*
G01*
X3532685Y-460000D01*
X3572055Y-410000D02*
G01*
X3532685Y-410000D01*
X3572055Y-360000D02*
G01*
X3532685Y-360000D01*
X3572055Y-310000D02*
G01*
X3532685Y-310000D01*
X3572055Y-260000D02*
G01*
X3532685Y-260000D01*
X3572055Y-210000D02*
G01*
X3532685Y-210000D01*
X3367325Y-560000D02*
G01*
X3327955Y-560000D01*
X3367325Y-510000D02*
G01*
X3327955Y-510000D01*
X3367325Y-460000D02*
G01*
X3327955Y-460000D01*
X3367325Y-410000D02*
G01*
X3327955Y-410000D01*
X3367325Y-360000D02*
G01*
X3327955Y-360000D01*
X3367325Y-310000D02*
G01*
X3327955Y-310000D01*
X3367325Y-260000D02*
G01*
X3327955Y-260000D01*
X3367325Y-210000D02*
G01*
X3327955Y-210000D01*
X2632055Y-560000D02*
G01*
X2592685Y-560000D01*
X2632055Y-510000D02*
G01*
X2592685Y-510000D01*
X2632055Y-460000D02*
G01*
X2592685Y-460000D01*
X2632055Y-410000D02*
G01*
X2592685Y-410000D01*
X2632055Y-360000D02*
G01*
X2592685Y-360000D01*
X2632055Y-310000D02*
G01*
X2592685Y-310000D01*
X2632055Y-260000D02*
G01*
X2592685Y-260000D01*
X2632055Y-210000D02*
G01*
X2592685Y-210000D01*
X2427325Y-560000D02*
G01*
X2387955Y-560000D01*
X2427325Y-510000D02*
G01*
X2387955Y-510000D01*
X2427325Y-460000D02*
G01*
X2387955Y-460000D01*
X2427325Y-410000D02*
G01*
X2387955Y-410000D01*
X2427325Y-360000D02*
G01*
X2387955Y-360000D01*
X2427325Y-310000D02*
G01*
X2387955Y-310000D01*
X2427325Y-260000D02*
G01*
X2387955Y-260000D01*
X2427325Y-210000D02*
G01*
X2387955Y-210000D01*
D15*
X430700Y-750000D02*
G01*
X376298Y-750000D01*
X430700Y-800000D02*
G01*
X376298Y-800000D01*
X430700Y-850000D02*
G01*
X376298Y-850000D01*
X430700Y-900000D02*
G01*
X376298Y-900000D01*
X643701Y-750000D02*
G01*
X589299Y-750000D01*
X643701Y-800000D02*
G01*
X589299Y-800000D01*
X643701Y-850000D02*
G01*
X589299Y-850000D01*
X643701Y-900000D02*
G01*
X589299Y-900000D01*
D13*
X324387Y-205000D02*
G01*
X270351Y-205000D01*
X324387Y-255000D02*
G01*
X270351Y-255000D01*
X324387Y-305000D02*
G01*
X270351Y-305000D01*
X324387Y-355000D02*
G01*
X270351Y-355000D01*
X324387Y-405000D02*
G01*
X270351Y-405000D01*
X324387Y-455000D02*
G01*
X270351Y-455000D01*
X324387Y-505000D02*
G01*
X270351Y-505000D01*
X539648Y-205000D02*
G01*
X485612Y-205000D01*
X539648Y-255000D02*
G01*
X485612Y-255000D01*
X539648Y-305000D02*
G01*
X485612Y-305000D01*
X539648Y-355000D02*
G01*
X485612Y-355000D01*
X539648Y-405000D02*
G01*
X485612Y-405000D01*
X539648Y-455000D02*
G01*
X485612Y-455000D01*
X539648Y-505000D02*
G01*
X485612Y-505000D01*
X440000Y-1949387D02*
G01*
X440000Y-1895351D01*
X390000Y-1949387D02*
G01*
X390000Y-1895351D01*
X340000Y-1949387D02*
G01*
X340000Y-1895351D01*
X290000Y-1949387D02*
G01*
X290000Y-1895351D01*
X240000Y-1949387D02*
G01*
X240000Y-1895351D01*
X190000Y-1949387D02*
G01*
X190000Y-1895351D01*
X140000Y-1949387D02*
G01*
X140000Y-1895351D01*
X440000Y-2164648D02*
G01*
X440000Y-2110612D01*
X390000Y-2164648D02*
G01*
X390000Y-2110612D01*
X340000Y-2164648D02*
G01*
X340000Y-2110612D01*
X290000Y-2164648D02*
G01*
X290000Y-2110612D01*
X240000Y-2164648D02*
G01*
X240000Y-2110612D01*
X190000Y-2164648D02*
G01*
X190000Y-2110612D01*
X140000Y-2164648D02*
G01*
X140000Y-2110612D01*
X3729387Y-1875000D02*
G01*
X3675352Y-1875000D01*
X3729387Y-1925000D02*
G01*
X3675352Y-1925000D01*
X3729387Y-1975000D02*
G01*
X3675352Y-1975000D01*
X3729387Y-2025000D02*
G01*
X3675352Y-2025000D01*
X3729387Y-2075000D02*
G01*
X3675352Y-2075000D01*
X3729387Y-2125000D02*
G01*
X3675352Y-2125000D01*
X3729387Y-2175000D02*
G01*
X3675352Y-2175000D01*
X3944647Y-1875000D02*
G01*
X3890612Y-1875000D01*
X3944647Y-1925000D02*
G01*
X3890612Y-1925000D01*
X3944647Y-1975000D02*
G01*
X3890612Y-1975000D01*
X3944647Y-2025000D02*
G01*
X3890612Y-2025000D01*
X3944647Y-2075000D02*
G01*
X3890612Y-2075000D01*
X3944647Y-2125000D02*
G01*
X3890612Y-2125000D01*
X3944647Y-2175000D02*
G01*
X3890612Y-2175000D01*
D21*
G01*
X3895000Y-1378499D03*
G01*
X3895000Y-1311500D03*
G01*
X3895000Y-1016500D03*
G01*
X3895000Y-1083499D03*
G36*
X2699251Y142247D02*
G01*
X2730748Y142247D01*
X2730748Y110752D01*
X2699251Y110752D01*
G37*
G36*
X2699251Y209247D02*
G01*
X2730748Y209247D01*
X2730748Y177752D01*
X2699251Y177752D01*
G37*
G36*
X2697992Y1219D02*
G01*
X2732007Y1219D01*
X2732007Y-30531D01*
X2697992Y-30531D01*
G37*
D22*
G01*
X2715000Y44659D03*
G36*
X3912007Y-891219D02*
G01*
X3877992Y-891219D01*
X3877992Y-859468D01*
X3912007Y-859468D01*
G37*
G01*
X3895000Y-934659D03*
G36*
X3912007Y-1186219D02*
G01*
X3877992Y-1186219D01*
X3877992Y-1154468D01*
X3912007Y-1154468D01*
G37*
G01*
X3895000Y-1229659D03*
G36*
X3909763Y-678620D02*
G01*
X3958976Y-678620D01*
X3958976Y-706179D01*
X3909763Y-706179D01*
G37*
G36*
X3909763Y-603820D02*
G01*
X3958976Y-603820D01*
X3958976Y-631379D01*
X3909763Y-631379D01*
G37*
G36*
X3831023Y-641221D02*
G01*
X3880236Y-641221D01*
X3880236Y-668780D01*
X3831023Y-668780D01*
G37*
G36*
X3912007Y-771219D02*
G01*
X3877992Y-771219D01*
X3877992Y-739468D01*
X3912007Y-739468D01*
G37*
G01*
X3895000Y-814659D03*
G36*
X3907007Y-506219D02*
G01*
X3872992Y-506219D01*
X3872992Y-474468D01*
X3907007Y-474468D01*
G37*
G01*
X3890000Y-549659D03*
D24*
G01*
X138840Y-135000D03*
G01*
X231159Y-135000D03*
D25*
G01*
X495000Y-553840D03*
G01*
X495000Y-646159D03*
G36*
X314764Y-623620D02*
G01*
X363975Y-623620D01*
X363975Y-651179D01*
X314764Y-651179D01*
G37*
G36*
X314764Y-548820D02*
G01*
X363975Y-548820D01*
X363975Y-576379D01*
X314764Y-576379D01*
G37*
G36*
X236024Y-586221D02*
G01*
X285235Y-586221D01*
X285235Y-613780D01*
X236024Y-613780D01*
G37*
G36*
X349764Y-128620D02*
G01*
X398975Y-128620D01*
X398975Y-156179D01*
X349764Y-156179D01*
G37*
G36*
X349764Y-53820D02*
G01*
X398975Y-53820D01*
X398975Y-81379D01*
X349764Y-81379D01*
G37*
G36*
X271024Y-91221D02*
G01*
X320235Y-91221D01*
X320235Y-118780D01*
X271024Y-118780D01*
G37*
D26*
G01*
X3627399Y-55630D03*
G01*
X3552600Y-55630D03*
G01*
X3590000Y-134369D03*
G01*
X3677600Y120630D03*
G01*
X3752399Y120630D03*
G01*
X3715000Y199369D03*
G01*
X3802600Y45630D03*
G01*
X3877399Y45630D03*
G01*
X3840000Y124369D03*
G01*
X217399Y-480630D03*
G01*
X142600Y-480630D03*
G01*
X180000Y-559369D03*
G36*
X564764Y-128620D02*
G01*
X613975Y-128620D01*
X613975Y-156179D01*
X564764Y-156179D01*
G37*
G36*
X564764Y-53820D02*
G01*
X613975Y-53820D01*
X613975Y-81379D01*
X564764Y-81379D01*
G37*
G36*
X486024Y-91221D02*
G01*
X535235Y-91221D01*
X535235Y-118780D01*
X486024Y-118780D01*
G37*
G01*
X3137600Y-2164369D03*
G01*
X3212399Y-2164369D03*
G01*
X3175000Y-2085630D03*
G01*
X2852600Y-2164369D03*
G01*
X2927399Y-2164369D03*
G01*
X2890000Y-2085630D03*
G36*
X188780Y-647008D02*
G01*
X188780Y-612991D01*
X220531Y-612991D01*
X220531Y-647008D01*
G37*
G36*
X161219Y-647008D02*
G01*
X161219Y-612991D01*
X129468Y-612991D01*
X129468Y-647008D01*
G37*
G36*
X171219Y-52991D02*
G01*
X171219Y-87008D01*
X139468Y-87008D01*
X139468Y-52991D01*
G37*
G36*
X198780Y-52991D02*
G01*
X198780Y-87008D01*
X230531Y-87008D01*
X230531Y-52991D01*
G37*
G36*
X422991Y-118780D02*
G01*
X457008Y-118780D01*
X457008Y-150531D01*
X422991Y-150531D01*
G37*
D22*
G01*
X440000Y-75340D03*
G36*
X3017007Y-2121219D02*
G01*
X2982992Y-2121219D01*
X2982992Y-2089468D01*
X3017007Y-2089468D01*
G37*
G01*
X3000000Y-2164659D03*
G36*
X3858779Y167991D02*
G01*
X3858779Y202008D01*
X3890531Y202008D01*
X3890531Y167991D01*
G37*
G36*
X3831220Y167991D02*
G01*
X3831220Y202008D01*
X3799468Y202008D01*
X3799468Y167991D01*
G37*
G36*
X3571220Y172008D02*
G01*
X3571220Y137991D01*
X3539468Y137991D01*
X3539468Y172008D01*
G37*
G36*
X3598779Y172008D02*
G01*
X3598779Y137991D01*
X3630531Y137991D01*
X3630531Y172008D01*
G37*
G36*
X3598779Y-2008D02*
G01*
X3598779Y32008D01*
X3630531Y32008D01*
X3630531Y-2008D01*
G37*
G36*
X3571220Y-2008D02*
G01*
X3571220Y32008D01*
X3539468Y32008D01*
X3539468Y-2008D01*
G37*
G36*
X3467992Y-113780D02*
G01*
X3502007Y-113780D01*
X3502007Y-145531D01*
X3467992Y-145531D01*
G37*
G01*
X3485000Y-70340D03*
G36*
X3598779Y67991D02*
G01*
X3598779Y102008D01*
X3630531Y102008D01*
X3630531Y67991D01*
G37*
G36*
X3571220Y67991D02*
G01*
X3571220Y102008D01*
X3539468Y102008D01*
X3539468Y67991D01*
G37*
G36*
X3692992Y-3780D02*
G01*
X3727007Y-3780D01*
X3727007Y-35531D01*
X3692992Y-35531D01*
G37*
G01*
X3710000Y39659D03*
G36*
X612008Y-346219D02*
G01*
X577991Y-346219D01*
X577991Y-314468D01*
X612008Y-314468D01*
G37*
G01*
X595000Y-389659D03*
G36*
X198780Y-432008D02*
G01*
X198780Y-397991D01*
X230531Y-397991D01*
X230531Y-432008D01*
G37*
G36*
X171219Y-432008D02*
G01*
X171219Y-397991D01*
X139468Y-397991D01*
X139468Y-432008D01*
G37*
G36*
X577991Y-248780D02*
G01*
X612008Y-248780D01*
X612008Y-280531D01*
X577991Y-280531D01*
G37*
G01*
X595000Y-205340D03*
G36*
X198780Y-362008D02*
G01*
X198780Y-327991D01*
X230531Y-327991D01*
X230531Y-362008D01*
G37*
G36*
X171219Y-362008D02*
G01*
X171219Y-327991D01*
X139468Y-327991D01*
X139468Y-362008D01*
G37*
G36*
X612008Y-471219D02*
G01*
X577991Y-471219D01*
X577991Y-439468D01*
X612008Y-439468D01*
G37*
G01*
X595000Y-514659D03*
G36*
X3052992Y-2148780D02*
G01*
X3087007Y-2148780D01*
X3087007Y-2180531D01*
X3052992Y-2180531D01*
G37*
G01*
X3070000Y-2105340D03*
G36*
X2767992Y-2148780D02*
G01*
X2802007Y-2148780D01*
X2802007Y-2180531D01*
X2767992Y-2180531D01*
G37*
G01*
X2785000Y-2105340D03*
G36*
X2782992Y-2023780D02*
G01*
X2817007Y-2023780D01*
X2817007Y-2055531D01*
X2782992Y-2055531D01*
G37*
G01*
X2800000Y-1980340D03*
G36*
X2517007Y-2116219D02*
G01*
X2482992Y-2116219D01*
X2482992Y-2084468D01*
X2517007Y-2084468D01*
G37*
G01*
X2500000Y-2159659D03*
G36*
X2552992Y-2143780D02*
G01*
X2587007Y-2143780D01*
X2587007Y-2175531D01*
X2552992Y-2175531D01*
G37*
G01*
X2570000Y-2100340D03*
G36*
X906220Y-187991D02*
G01*
X906220Y-222008D01*
X874468Y-222008D01*
X874468Y-187991D01*
G37*
G36*
X933779Y-187991D02*
G01*
X933779Y-222008D01*
X965531Y-222008D01*
X965531Y-187991D01*
G37*
G36*
X1761220Y-547991D02*
G01*
X1761220Y-582008D01*
X1729468Y-582008D01*
X1729468Y-547991D01*
G37*
G36*
X1788779Y-547991D02*
G01*
X1788779Y-582008D01*
X1820531Y-582008D01*
X1820531Y-547991D01*
G37*
G36*
X1383779Y-582008D02*
G01*
X1383779Y-547991D01*
X1415531Y-547991D01*
X1415531Y-582008D01*
G37*
G36*
X1356220Y-582008D02*
G01*
X1356220Y-547991D01*
X1324468Y-547991D01*
X1324468Y-582008D01*
G37*
G36*
X906220Y-537991D02*
G01*
X906220Y-572008D01*
X874468Y-572008D01*
X874468Y-537991D01*
G37*
G36*
X933779Y-537991D02*
G01*
X933779Y-572008D01*
X965531Y-572008D01*
X965531Y-537991D01*
G37*
G36*
X906220Y-257991D02*
G01*
X906220Y-292008D01*
X874468Y-292008D01*
X874468Y-257991D01*
G37*
G36*
X933779Y-257991D02*
G01*
X933779Y-292008D01*
X965531Y-292008D01*
X965531Y-257991D01*
G37*
G36*
X906220Y-397991D02*
G01*
X906220Y-432008D01*
X874468Y-432008D01*
X874468Y-397991D01*
G37*
G36*
X933779Y-397991D02*
G01*
X933779Y-432008D01*
X965531Y-432008D01*
X965531Y-397991D01*
G37*
G36*
X2908779Y-1567008D02*
G01*
X2908779Y-1532991D01*
X2940531Y-1532991D01*
X2940531Y-1567008D01*
G37*
G36*
X2881220Y-1567008D02*
G01*
X2881220Y-1532991D01*
X2849468Y-1532991D01*
X2849468Y-1567008D01*
G37*
G36*
X3158779Y-1567008D02*
G01*
X3158779Y-1532991D01*
X3190531Y-1532991D01*
X3190531Y-1567008D01*
G37*
G36*
X3131220Y-1567008D02*
G01*
X3131220Y-1532991D01*
X3099468Y-1532991D01*
X3099468Y-1567008D01*
G37*
G36*
X2286220Y-1822991D02*
G01*
X2286220Y-1857008D01*
X2254468Y-1857008D01*
X2254468Y-1822991D01*
G37*
G36*
X2313779Y-1822991D02*
G01*
X2313779Y-1857008D01*
X2345531Y-1857008D01*
X2345531Y-1822991D01*
G37*
G36*
X2286220Y-1892991D02*
G01*
X2286220Y-1927008D01*
X2254468Y-1927008D01*
X2254468Y-1892991D01*
G37*
G36*
X2313779Y-1892991D02*
G01*
X2313779Y-1927008D01*
X2345531Y-1927008D01*
X2345531Y-1892991D01*
G37*
G36*
X2286220Y-1542991D02*
G01*
X2286220Y-1577008D01*
X2254468Y-1577008D01*
X2254468Y-1542991D01*
G37*
G36*
X2313779Y-1542991D02*
G01*
X2313779Y-1577008D01*
X2345531Y-1577008D01*
X2345531Y-1542991D01*
G37*
G36*
X2286220Y-1612991D02*
G01*
X2286220Y-1647008D01*
X2254468Y-1647008D01*
X2254468Y-1612991D01*
G37*
G36*
X2313779Y-1612991D02*
G01*
X2313779Y-1647008D01*
X2345531Y-1647008D01*
X2345531Y-1612991D01*
G37*
G36*
X2286220Y-1682991D02*
G01*
X2286220Y-1717008D01*
X2254468Y-1717008D01*
X2254468Y-1682991D01*
G37*
G36*
X2313779Y-1682991D02*
G01*
X2313779Y-1717008D01*
X2345531Y-1717008D01*
X2345531Y-1682991D01*
G37*
G36*
X2286220Y-1752991D02*
G01*
X2286220Y-1787008D01*
X2254468Y-1787008D01*
X2254468Y-1752991D01*
G37*
G36*
X2313779Y-1752991D02*
G01*
X2313779Y-1787008D01*
X2345531Y-1787008D01*
X2345531Y-1752991D01*
G37*
G36*
X2731220Y-1532991D02*
G01*
X2731220Y-1567008D01*
X2699468Y-1567008D01*
X2699468Y-1532991D01*
G37*
G36*
X2758779Y-1532991D02*
G01*
X2758779Y-1567008D01*
X2790531Y-1567008D01*
X2790531Y-1532991D01*
G37*
G36*
X933779Y-1717008D02*
G01*
X933779Y-1682991D01*
X965531Y-1682991D01*
X965531Y-1717008D01*
G37*
G36*
X906220Y-1717008D02*
G01*
X906220Y-1682991D01*
X874468Y-1682991D01*
X874468Y-1717008D01*
G37*
G36*
X906220Y-1822991D02*
G01*
X906220Y-1857008D01*
X874468Y-1857008D01*
X874468Y-1822991D01*
G37*
G36*
X933779Y-1822991D02*
G01*
X933779Y-1857008D01*
X965531Y-1857008D01*
X965531Y-1822991D01*
G37*
G36*
X906220Y-1752991D02*
G01*
X906220Y-1787008D01*
X874468Y-1787008D01*
X874468Y-1752991D01*
G37*
G36*
X933779Y-1752991D02*
G01*
X933779Y-1787008D01*
X965531Y-1787008D01*
X965531Y-1752991D01*
G37*
G36*
X906220Y-1612991D02*
G01*
X906220Y-1647008D01*
X874468Y-1647008D01*
X874468Y-1612991D01*
G37*
G36*
X933779Y-1612991D02*
G01*
X933779Y-1647008D01*
X965531Y-1647008D01*
X965531Y-1612991D01*
G37*
G36*
X906220Y-1542991D02*
G01*
X906220Y-1577008D01*
X874468Y-1577008D01*
X874468Y-1542991D01*
G37*
G36*
X933779Y-1542991D02*
G01*
X933779Y-1577008D01*
X965531Y-1577008D01*
X965531Y-1542991D01*
G37*
G36*
X906220Y-1962991D02*
G01*
X906220Y-1997008D01*
X874468Y-1997008D01*
X874468Y-1962991D01*
G37*
G36*
X933779Y-1962991D02*
G01*
X933779Y-1997008D01*
X965531Y-1997008D01*
X965531Y-1962991D01*
G37*
G36*
X906220Y-1892991D02*
G01*
X906220Y-1927008D01*
X874468Y-1927008D01*
X874468Y-1892991D01*
G37*
G36*
X933779Y-1892991D02*
G01*
X933779Y-1927008D01*
X965531Y-1927008D01*
X965531Y-1892991D01*
G37*
G36*
X1508779Y-1567008D02*
G01*
X1508779Y-1532991D01*
X1540531Y-1532991D01*
X1540531Y-1567008D01*
G37*
G36*
X1481220Y-1567008D02*
G01*
X1481220Y-1532991D01*
X1449468Y-1532991D01*
X1449468Y-1567008D01*
G37*
G36*
X1383779Y-1567008D02*
G01*
X1383779Y-1532991D01*
X1415531Y-1532991D01*
X1415531Y-1567008D01*
G37*
G36*
X1356220Y-1567008D02*
G01*
X1356220Y-1532991D01*
X1324468Y-1532991D01*
X1324468Y-1567008D01*
G37*
G36*
X177008Y48780D02*
G01*
X142991Y48780D01*
X142991Y80531D01*
X177008Y80531D01*
G37*
G01*
X160000Y5340D03*
G36*
X142991Y146219D02*
G01*
X177008Y146219D01*
X177008Y114468D01*
X142991Y114468D01*
G37*
G01*
X160000Y189659D03*
G36*
X1077007Y133780D02*
G01*
X1042992Y133780D01*
X1042992Y165531D01*
X1077007Y165531D01*
G37*
G01*
X1060000Y90340D03*
G36*
X637991Y106219D02*
G01*
X672008Y106219D01*
X672008Y74468D01*
X637991Y74468D01*
G37*
G01*
X655000Y149659D03*
G36*
X497991Y-1263780D02*
G01*
X532008Y-1263780D01*
X532008Y-1295531D01*
X497991Y-1295531D01*
G37*
G01*
X515000Y-1220340D03*
G36*
X527008Y-1486219D02*
G01*
X492991Y-1486219D01*
X492991Y-1454468D01*
X527008Y-1454468D01*
G37*
G01*
X510000Y-1529659D03*
G36*
X257008Y48780D02*
G01*
X222991Y48780D01*
X222991Y80531D01*
X257008Y80531D01*
G37*
G01*
X240000Y5340D03*
G36*
X246219Y152008D02*
G01*
X246219Y117991D01*
X214468Y117991D01*
X214468Y152008D01*
G37*
G36*
X273780Y152008D02*
G01*
X273780Y117991D01*
X305531Y117991D01*
X305531Y152008D01*
G37*
G36*
X497991Y-1388780D02*
G01*
X532008Y-1388780D01*
X532008Y-1420531D01*
X497991Y-1420531D01*
G37*
G01*
X515000Y-1345340D03*
D28*
G01*
X325000Y-852559D03*
G01*
X325000Y-797440D03*
D29*
G01*
X2347439Y-2120000D03*
G01*
X2402560Y-2120000D03*
D24*
G01*
X123840Y-870000D03*
G01*
X216159Y-870000D03*
G36*
X215747Y-752892D02*
G01*
X215747Y-807103D01*
X260336Y-807103D01*
X260336Y-752892D01*
G37*
G36*
X184252Y-752892D02*
G01*
X184252Y-807103D01*
X139663Y-807103D01*
X139663Y-752892D01*
G37*
G36*
X809449Y-828483D02*
G01*
X809449Y-761516D01*
X856989Y-761516D01*
X856989Y-828483D01*
G37*
G36*
X740551Y-828483D02*
G01*
X740551Y-761516D01*
X693011Y-761516D01*
X693011Y-828483D01*
G37*
G36*
X741516Y-479448D02*
G01*
X808483Y-479448D01*
X808483Y-526988D01*
X741516Y-526988D01*
G37*
D32*
G01*
X775000Y-386779D03*
G36*
X808483Y-210551D02*
G01*
X741516Y-210551D01*
X741516Y-163011D01*
X808483Y-163011D01*
G37*
G01*
X775000Y-303220D03*
G36*
X808483Y-610551D02*
G01*
X741516Y-610551D01*
X741516Y-563011D01*
X808483Y-563011D01*
G37*
G01*
X775000Y-703220D03*
G36*
X712991Y-948780D02*
G01*
X747008Y-948780D01*
X747008Y-980531D01*
X712991Y-980531D01*
G37*
D22*
G01*
X730000Y-905340D03*
G36*
X822007Y-921219D02*
G01*
X787992Y-921219D01*
X787992Y-889468D01*
X822007Y-889468D01*
G37*
G01*
X805000Y-964659D03*
G36*
X2286220Y-537991D02*
G01*
X2286220Y-572008D01*
X2254468Y-572008D01*
X2254468Y-537991D01*
G37*
G36*
X2313779Y-537991D02*
G01*
X2313779Y-572008D01*
X2345531Y-572008D01*
X2345531Y-537991D01*
G37*
G36*
X2286220Y-467991D02*
G01*
X2286220Y-502008D01*
X2254468Y-502008D01*
X2254468Y-467991D01*
G37*
G36*
X2313779Y-467991D02*
G01*
X2313779Y-502008D01*
X2345531Y-502008D01*
X2345531Y-467991D01*
G37*
G36*
X2286220Y-397991D02*
G01*
X2286220Y-432008D01*
X2254468Y-432008D01*
X2254468Y-397991D01*
G37*
G36*
X2313779Y-397991D02*
G01*
X2313779Y-432008D01*
X2345531Y-432008D01*
X2345531Y-397991D01*
G37*
G36*
X2286220Y-257991D02*
G01*
X2286220Y-292008D01*
X2254468Y-292008D01*
X2254468Y-257991D01*
G37*
G36*
X2313779Y-257991D02*
G01*
X2313779Y-292008D01*
X2345531Y-292008D01*
X2345531Y-257991D01*
G37*
G36*
X3126220Y-547991D02*
G01*
X3126220Y-582008D01*
X3094468Y-582008D01*
X3094468Y-547991D01*
G37*
G36*
X3153779Y-547991D02*
G01*
X3153779Y-582008D01*
X3185531Y-582008D01*
X3185531Y-547991D01*
G37*
G36*
X2758779Y-582008D02*
G01*
X2758779Y-547991D01*
X2790531Y-547991D01*
X2790531Y-582008D01*
G37*
G36*
X2731220Y-582008D02*
G01*
X2731220Y-547991D01*
X2699468Y-547991D01*
X2699468Y-582008D01*
G37*
G36*
X2286220Y-327991D02*
G01*
X2286220Y-362008D01*
X2254468Y-362008D01*
X2254468Y-327991D01*
G37*
G36*
X2313779Y-327991D02*
G01*
X2313779Y-362008D01*
X2345531Y-362008D01*
X2345531Y-327991D01*
G37*
G36*
X2286220Y-187991D02*
G01*
X2286220Y-222008D01*
X2254468Y-222008D01*
X2254468Y-187991D01*
G37*
G36*
X2313779Y-187991D02*
G01*
X2313779Y-222008D01*
X2345531Y-222008D01*
X2345531Y-187991D01*
G37*
G36*
X2881220Y-547991D02*
G01*
X2881220Y-582008D01*
X2849468Y-582008D01*
X2849468Y-547991D01*
G37*
G36*
X2908779Y-547991D02*
G01*
X2908779Y-582008D01*
X2940531Y-582008D01*
X2940531Y-547991D01*
G37*
G36*
X1506220Y-547991D02*
G01*
X1506220Y-582008D01*
X1474468Y-582008D01*
X1474468Y-547991D01*
G37*
G36*
X1533779Y-547991D02*
G01*
X1533779Y-582008D01*
X1565531Y-582008D01*
X1565531Y-547991D01*
G37*
G36*
X906220Y-327991D02*
G01*
X906220Y-362008D01*
X874468Y-362008D01*
X874468Y-327991D01*
G37*
G36*
X933779Y-327991D02*
G01*
X933779Y-362008D01*
X965531Y-362008D01*
X965531Y-327991D01*
G37*
G36*
X906220Y-467991D02*
G01*
X906220Y-502008D01*
X874468Y-502008D01*
X874468Y-467991D01*
G37*
G36*
X933779Y-467991D02*
G01*
X933779Y-502008D01*
X965531Y-502008D01*
X965531Y-467991D01*
G37*
G36*
X198780Y-222008D02*
G01*
X198780Y-187991D01*
X230531Y-187991D01*
X230531Y-222008D01*
G37*
G36*
X171219Y-222008D02*
G01*
X171219Y-187991D01*
X139468Y-187991D01*
X139468Y-222008D01*
G37*
G36*
X397991Y-613780D02*
G01*
X432008Y-613780D01*
X432008Y-645531D01*
X397991Y-645531D01*
G37*
G01*
X415000Y-570340D03*
G36*
X198780Y-292008D02*
G01*
X198780Y-257991D01*
X230531Y-257991D01*
X230531Y-292008D01*
G37*
G36*
X171219Y-292008D02*
G01*
X171219Y-257991D01*
X139468Y-257991D01*
X139468Y-292008D01*
G37*
G36*
X552991Y-623780D02*
G01*
X587008Y-623780D01*
X587008Y-655531D01*
X552991Y-655531D01*
G37*
G01*
X570000Y-580340D03*
D25*
G01*
X1465000Y-2171160D03*
G01*
X1465000Y-2078840D03*
D24*
G01*
X568840Y-2025000D03*
G01*
X661159Y-2025000D03*
G36*
X749764Y-2088620D02*
G01*
X798976Y-2088620D01*
X798976Y-2116179D01*
X749764Y-2116179D01*
G37*
G36*
X749764Y-2013820D02*
G01*
X798976Y-2013820D01*
X798976Y-2041379D01*
X749764Y-2041379D01*
G37*
G36*
X671024Y-2051221D02*
G01*
X720235Y-2051221D01*
X720235Y-2078780D01*
X671024Y-2078780D01*
G37*
D26*
G01*
X642600Y-2204369D03*
G01*
X717399Y-2204369D03*
G01*
X680000Y-2125630D03*
G01*
X1332600Y-2189369D03*
G01*
X1407399Y-2189369D03*
G01*
X1370000Y-2110630D03*
G01*
X1047399Y-2060630D03*
G01*
X972600Y-2060630D03*
G01*
X1010000Y-2139369D03*
G36*
X852007Y-2056219D02*
G01*
X817992Y-2056219D01*
X817992Y-2024468D01*
X852007Y-2024468D01*
G37*
D22*
G01*
X835000Y-2099659D03*
G36*
X796220Y-2147991D02*
G01*
X796220Y-2182008D01*
X764468Y-2182008D01*
X764468Y-2147991D01*
G37*
G36*
X823779Y-2147991D02*
G01*
X823779Y-2182008D01*
X855531Y-2182008D01*
X855531Y-2147991D01*
G37*
G36*
X586219Y-2077991D02*
G01*
X586219Y-2112008D01*
X554468Y-2112008D01*
X554468Y-2077991D01*
G37*
G36*
X613780Y-2077991D02*
G01*
X613780Y-2112008D01*
X645531Y-2112008D01*
X645531Y-2077991D01*
G37*
G36*
X533780Y-2177008D02*
G01*
X533780Y-2142991D01*
X565531Y-2142991D01*
X565531Y-2177008D01*
G37*
G36*
X506219Y-2177008D02*
G01*
X506219Y-2142991D01*
X474468Y-2142991D01*
X474468Y-2177008D01*
G37*
G36*
X1091220Y-2152991D02*
G01*
X1091220Y-2187008D01*
X1059468Y-2187008D01*
X1059468Y-2152991D01*
G37*
G36*
X1118779Y-2152991D02*
G01*
X1118779Y-2187008D01*
X1150531Y-2187008D01*
X1150531Y-2152991D01*
G37*
G36*
X1136220Y-2062991D02*
G01*
X1136220Y-2097008D01*
X1104468Y-2097008D01*
X1104468Y-2062991D01*
G37*
G36*
X1163779Y-2062991D02*
G01*
X1163779Y-2097008D01*
X1195531Y-2097008D01*
X1195531Y-2062991D01*
G37*
G36*
X1288779Y-2097008D02*
G01*
X1288779Y-2062991D01*
X1320531Y-2062991D01*
X1320531Y-2097008D01*
G37*
G36*
X1261220Y-2097008D02*
G01*
X1261220Y-2062991D01*
X1229468Y-2062991D01*
X1229468Y-2097008D01*
G37*
G36*
X522008Y-1926219D02*
G01*
X487991Y-1926219D01*
X487991Y-1894468D01*
X522008Y-1894468D01*
G37*
G01*
X505000Y-1969659D03*
G36*
X921220Y-2152991D02*
G01*
X921220Y-2187008D01*
X889468Y-2187008D01*
X889468Y-2152991D01*
G37*
G36*
X948779Y-2152991D02*
G01*
X948779Y-2187008D01*
X980531Y-2187008D01*
X980531Y-2152991D01*
G37*
G36*
X917007Y-2061219D02*
G01*
X882992Y-2061219D01*
X882992Y-2029468D01*
X917007Y-2029468D01*
G37*
G01*
X900000Y-2104659D03*
G36*
X522008Y-2051219D02*
G01*
X487991Y-2051219D01*
X487991Y-2019468D01*
X522008Y-2019468D01*
G37*
G01*
X505000Y-2094659D03*
G36*
X1248779Y-2187008D02*
G01*
X1248779Y-2152991D01*
X1280531Y-2152991D01*
X1280531Y-2187008D01*
G37*
G36*
X1221220Y-2187008D02*
G01*
X1221220Y-2152991D01*
X1189468Y-2152991D01*
X1189468Y-2187008D01*
G37*
D25*
G01*
X3600000Y-2088840D03*
G01*
X3600000Y-2181160D03*
G36*
X3919763Y-1778620D02*
G01*
X3968976Y-1778620D01*
X3968976Y-1806179D01*
X3919763Y-1806179D01*
G37*
G36*
X3919763Y-1703820D02*
G01*
X3968976Y-1703820D01*
X3968976Y-1731379D01*
X3919763Y-1731379D01*
G37*
G36*
X3841023Y-1741221D02*
G01*
X3890236Y-1741221D01*
X3890236Y-1768780D01*
X3841023Y-1768780D01*
G37*
D26*
G01*
X3447600Y-2164369D03*
G01*
X3522399Y-2164369D03*
G01*
X3485000Y-2085630D03*
G36*
X3392007Y-2131219D02*
G01*
X3357992Y-2131219D01*
X3357992Y-2099468D01*
X3392007Y-2099468D01*
G37*
D22*
G01*
X3375000Y-2174659D03*
G36*
X3881220Y-1637991D02*
G01*
X3881220Y-1672008D01*
X3849468Y-1672008D01*
X3849468Y-1637991D01*
G37*
G36*
X3908779Y-1637991D02*
G01*
X3908779Y-1672008D01*
X3940531Y-1672008D01*
X3940531Y-1637991D01*
G37*
G36*
X3282992Y-2158780D02*
G01*
X3317007Y-2158780D01*
X3317007Y-2190531D01*
X3282992Y-2190531D01*
G37*
G01*
X3300000Y-2115340D03*
G36*
X3908779Y-1472008D02*
G01*
X3908779Y-1437991D01*
X3940531Y-1437991D01*
X3940531Y-1472008D01*
G37*
G36*
X3881220Y-1472008D02*
G01*
X3881220Y-1437991D01*
X3849468Y-1437991D01*
X3849468Y-1472008D01*
G37*
G36*
X3908779Y-1572008D02*
G01*
X3908779Y-1537991D01*
X3940531Y-1537991D01*
X3940531Y-1572008D01*
G37*
G36*
X3881220Y-1572008D02*
G01*
X3881220Y-1537991D01*
X3849468Y-1537991D01*
X3849468Y-1572008D01*
G37*
D26*
G01*
X2637600Y-2164369D03*
G01*
X2712399Y-2164369D03*
G01*
X2675000Y-2085630D03*
G36*
X785550Y-1126516D02*
G01*
X785550Y-1193483D01*
X738011Y-1193483D01*
X738011Y-1126516D01*
G37*
G36*
X854449Y-1126516D02*
G01*
X854449Y-1193483D01*
X901989Y-1193483D01*
X901989Y-1126516D01*
G37*
G36*
X854449Y-1083483D02*
G01*
X854449Y-1016516D01*
X901989Y-1016516D01*
X901989Y-1083483D01*
G37*
G36*
X785550Y-1083483D02*
G01*
X785550Y-1016516D01*
X738011Y-1016516D01*
X738011Y-1083483D01*
G37*
G36*
X1651022Y-2080945D02*
G01*
X1710078Y-2080945D01*
X1710078Y-2199054D01*
X1651022Y-2199054D01*
G37*
G36*
X1560471Y-2080945D02*
G01*
X1619528Y-2080945D01*
X1619528Y-2199054D01*
X1560471Y-2199054D01*
G37*
D10*
G75*
G01*
X3890000Y-549660D02*
G03*
X3855630Y-584030I0J-34370D01*
G75*
G01*
X3750000Y-615000D02*
G02*
X3760000Y-605000I10000J0D01*
G75*
G01*
X3840630Y125000D02*
G03*
X3840000Y124370I0J-630D01*
G75*
G01*
X3960000Y80000D02*
G03*
X3915000Y125000I-45000J0D01*
G75*
G01*
X3925000Y-245000D02*
G03*
X3960000Y-210000I0J35000D01*
G75*
G01*
X3850000Y-250000D02*
G02*
X3855000Y-245000I5000J0D01*
G75*
G01*
X3845000Y-255000D02*
G03*
X3850000Y-250000I0J5000D01*
G75*
G01*
X3865000Y-150000D02*
G02*
X3910000Y-195000I0J-45000D01*
G75*
G01*
X3800000Y-105000D02*
G03*
X3845000Y-150000I45000J0D01*
G75*
G01*
X3885000Y174660D02*
G03*
X3874660Y185000I-10340J0D01*
G75*
G01*
X3840000Y124370D02*
G02*
X3815340Y149030I0J24660D01*
G75*
G01*
X3885000Y90000D02*
G03*
X3877400Y82400I0J-7600D01*
G75*
G01*
X3804732Y43498D02*
G03*
X3802600Y45630I-2132J0D01*
G75*
G01*
X3780033Y-19660D02*
G03*
X3804732Y5039I0J24699D01*
G75*
G01*
X3865340Y-515000D02*
G03*
X3890000Y-490340I0J24660D01*
G75*
G01*
X3760000Y-755000D02*
G02*
X3750000Y-745000I0J10000D01*
G75*
G01*
X3855000Y-785000D02*
G03*
X3825000Y-755000I-30000J0D01*
G75*
G01*
X3884660Y-814660D02*
G02*
X3855000Y-785000I0J29660D01*
G75*
G01*
X3840000Y-845000D02*
G03*
X3800000Y-805000I-40000J0D01*
G75*
G01*
X3865340Y-875340D02*
G02*
X3840000Y-850000I0J25340D01*
G75*
G01*
X3855000Y-960000D02*
G03*
X3800000Y-905000I-55000J0D01*
G75*
G01*
X3895000Y-1170340D02*
G02*
X3855000Y-1130340I0J40000D01*
G75*
G01*
X3750000Y-1355000D02*
G02*
X3800000Y-1305000I50000J0D01*
G75*
G01*
X3780000Y-1455000D02*
G02*
X3750000Y-1425000I0J30000D01*
G75*
G01*
X3800000Y-805000D02*
G02*
X3814660Y-790340I14660J0D01*
G75*
G01*
X2600940Y183780D02*
G02*
X2610660Y193500I9720J0D01*
G75*
G01*
X2720340Y-20000D02*
G02*
X2715000Y-14660I0J5340D01*
G75*
G01*
X980000Y-1675000D02*
G02*
X955000Y-1700000I-25000J0D01*
G75*
G01*
X980000Y-1675000D02*
G02*
X1000000Y-1655000I20000J0D01*
D11*
G75*
G01*
X1837637Y-2140000D02*
G02*
X1849452Y-2151815I0J-11815D01*
D10*
G75*
G01*
X1190000Y-1575000D02*
G03*
X1170000Y-1555000I-20000J0D01*
G75*
G01*
X1200000Y-1680000D02*
G02*
X1190000Y-1670000I0J10000D01*
G75*
G01*
X2657929Y-1735000D02*
G02*
X2670000Y-1740000I0J-17071D01*
G75*
G01*
X2637929Y-1730000D02*
G02*
X2650000Y-1735000I0J-17071D01*
G75*
G01*
X3532370Y-230000D02*
G02*
X3552370Y-250000I0J-20000D01*
G75*
G01*
X3532370Y-230000D02*
G03*
X3552370Y-210000I0J20000D01*
G75*
G01*
X2980793Y-1851972D02*
G03*
X2983495Y-1858495I9225J0D01*
G75*
G01*
X2960000Y-1840000D02*
G02*
X2975058Y-1846237I0J-21296D01*
G75*
G01*
X2973536Y-1818536D02*
G03*
X2965000Y-1815000I-8536J-8535D01*
G75*
G01*
X3000000Y-1840000D02*
G02*
X2991464Y-1836464I0J12071D01*
G75*
G01*
X158840Y-835000D02*
G03*
X123840Y-870000I0J-35000D01*
G75*
G01*
X238040Y-791960D02*
G02*
X195000Y-835000I-43040J0D01*
G75*
G01*
X1183107Y-1851893D02*
G03*
X1172500Y-1877500I25606J-25607D01*
G75*
G01*
X1220000Y-1830000D02*
G03*
X1194393Y-1840607I0J-36213D01*
G75*
G01*
X564411Y-364411D02*
G03*
X555000Y-355000I-9411J0D01*
G75*
G01*
X1337370Y-1585480D02*
G03*
X1336890Y-1585000I-480J0D01*
G75*
G01*
X565000Y-2065000D02*
G02*
X570340Y-2070340I0J-5340D01*
G75*
G01*
X1350000Y-1615000D02*
G02*
X1370000Y-1635000I0J-20000D01*
G75*
G01*
X2265340Y-1775000D02*
G03*
X2270340Y-1770000I0J5000D01*
G75*
G01*
X2120000Y-1687630D02*
G03*
X2187370Y-1755000I67370J0D01*
G75*
G01*
X1125705Y-1829295D02*
G03*
X1145000Y-1810000I0J19295D01*
G75*
G01*
X1155000Y-1690000D02*
G03*
X1165000Y-1700000I10000J0D01*
G75*
G01*
X1140000Y-1640000D02*
G02*
X1155000Y-1655000I0J-15000D01*
G75*
G01*
X1080000Y-1670000D02*
G02*
X1110000Y-1640000I30000J0D01*
G75*
G01*
X1055000Y-1705000D02*
G03*
X1080000Y-1680000I0J25000D01*
G75*
G01*
X125340Y-235000D02*
G03*
X155340Y-205000I0J30000D01*
G75*
G01*
X2347440Y-2120000D02*
G02*
X2342440Y-2125000I-5000J0D01*
G75*
G01*
X2435000Y-2130000D02*
G03*
X2425000Y-2120000I-10000J0D01*
G75*
G01*
X1975000Y-2230000D02*
G03*
X2000000Y-2205000I0J25000D01*
G75*
G01*
X1375000Y-2155000D02*
G03*
X1400000Y-2130000I0J25000D01*
G75*
G01*
X1332600Y-2172400D02*
G02*
X1350000Y-2155000I17400J0D01*
G75*
G01*
X1324660Y-2230000D02*
G02*
X1264660Y-2170000I0J60000D01*
G75*
G01*
X1475000Y-2200000D02*
G02*
X1445000Y-2230000I-30000J0D01*
G75*
G01*
X1360630Y-2120000D02*
G03*
X1370000Y-2110630I0J9370D01*
G75*
G01*
X1179660Y-2080000D02*
G03*
X1219660Y-2120000I40000J0D01*
G75*
G01*
X1319660Y-2065000D02*
G03*
X1304660Y-2080000I0J-15000D01*
G75*
G01*
X3855000Y-654370D02*
G03*
X3855630Y-655000I630J0D01*
G75*
G01*
X3900000Y-726770D02*
G02*
X3934370Y-692400I34370J0D01*
G75*
G01*
X645000Y-60000D02*
G02*
X680000Y-25000I35000J0D01*
G75*
G01*
X695000Y-45000D02*
G03*
X665000Y-75000I0J-30000D01*
G75*
G01*
X1350000Y-105000D02*
G03*
X1290000Y-45000I-60000J0D01*
G75*
G01*
X1420000Y-25000D02*
G02*
X1450000Y-55000I0J-30000D01*
G75*
G01*
X3194677Y95000D02*
G03*
X3130000Y30323I0J-64677D01*
G75*
G01*
X3515000Y70000D02*
G03*
X3490000Y95000I-25000J0D01*
G75*
G01*
X3535000Y50000D02*
G02*
X3515000Y70000I0J20000D01*
G75*
G01*
X3525340Y115000D02*
G02*
X3555340Y85000I0J-30000D01*
G75*
G01*
X3000000Y70000D02*
G02*
X3045000Y115000I45000J0D01*
G75*
G01*
X2900000Y70000D02*
G02*
X2975000Y145000I75000J0D01*
G75*
G01*
X3212000Y209000D02*
G02*
X3148000Y145000I-64000J0D01*
G75*
G01*
X3245000Y-80000D02*
G02*
X3275000Y-50000I30000J0D01*
G75*
G01*
X3235000Y-105000D02*
G03*
X3245000Y-95000I0J10000D01*
G75*
G01*
X3350000Y-150000D02*
G02*
X3330000Y-170000I-20000J0D01*
G75*
G01*
X3750000Y-135000D02*
G02*
X3730000Y-155000I-20000J0D01*
G75*
G01*
X3735000Y-55000D02*
G02*
X3750000Y-70000I0J-15000D01*
G75*
G01*
X1237370Y-310000D02*
G02*
X1257370Y-290000I20000J0D01*
G75*
G01*
X140000Y-1390000D02*
G02*
X150000Y-1380000I10000J0D01*
G75*
G01*
X175000Y-1430000D02*
G03*
X165000Y-1440000I0J-10000D01*
G75*
G01*
X185000Y-1420000D02*
G02*
X175000Y-1430000I-10000J0D01*
G75*
G01*
X175000Y-1335000D02*
G02*
X185000Y-1345000I0J-10000D01*
G75*
G01*
X165000Y-1325000D02*
G03*
X175000Y-1335000I10000J0D01*
G75*
G01*
X140000Y-1755000D02*
G03*
X145000Y-1760000I5000J0D01*
G75*
G01*
X940000Y-2195000D02*
G03*
X964660Y-2170340I0J24660D01*
G75*
G01*
X665630Y-2204370D02*
G03*
X685000Y-2185000I0J19370D01*
G75*
G01*
X720000Y-2150000D02*
G03*
X705000Y-2165000I0J-15000D01*
G75*
G01*
X780340Y-2165000D02*
G03*
X765340Y-2150000I-15000J0D01*
G75*
G01*
X140000Y-1955000D02*
G03*
X160000Y-1975000I20000J0D01*
G75*
G01*
X725000Y-2015000D02*
G03*
X737600Y-2027600I12600J0D01*
G75*
G01*
X215184Y-2090184D02*
G03*
X215000Y-2090000I-184J0D01*
D11*
G75*
G01*
X1505000Y-2055000D02*
G03*
X1590000Y-2140000I85000J0D01*
D10*
G75*
G01*
X340000Y-2085000D02*
G02*
X345000Y-2080000I5000J0D01*
G75*
G01*
X1005630Y-2125000D02*
G02*
X1020000Y-2139370I0J-14370D01*
G75*
G01*
X1401770Y-2185000D02*
G03*
X1402400Y-2184370I0J630D01*
G75*
G01*
X1205340Y-2175340D02*
G03*
X1230000Y-2200000I24660J0D01*
G75*
G01*
X1400000Y-2080000D02*
G03*
X1385000Y-2065000I-15000J0D01*
G75*
G01*
X1115000Y-2189660D02*
G02*
X1134660Y-2170000I19660J0D01*
G75*
G01*
X983230Y-2060000D02*
G03*
X982600Y-2060630I0J-630D01*
G75*
G01*
X900340Y-2045000D02*
G03*
X900000Y-2045340I0J-340D01*
G75*
G01*
X940000Y-2065000D02*
G03*
X920000Y-2045000I-20000J0D01*
G75*
G01*
X955000Y-2100000D02*
G02*
X940000Y-2085000I0J15000D01*
G75*
G01*
X1060000Y-2115000D02*
G03*
X1045000Y-2100000I-15000J0D01*
G75*
G01*
X1065000Y-2120000D02*
G02*
X1060000Y-2115000I0J5000D01*
G75*
G01*
X1184660Y-2075000D02*
G02*
X1139660Y-2120000I-45000J0D01*
G75*
G01*
X1057400Y-2060630D02*
G03*
X1071770Y-2075000I14370J0D01*
G75*
G01*
X1044710Y-2139370D02*
G02*
X1075340Y-2170000I0J-30630D01*
G75*
G01*
X725000Y-1950000D02*
G02*
X770000Y-1905000I45000J0D01*
G75*
G01*
X680000Y-1860000D02*
G02*
X685000Y-1855000I5000J0D01*
G75*
G01*
X695000Y-1950000D02*
G03*
X675000Y-1930000I-20000J0D01*
G75*
G01*
X715000Y-1990000D02*
G02*
X695000Y-1970000I0J20000D01*
G75*
G01*
X450000Y-1710000D02*
G02*
X470000Y-1730000I0J-20000D01*
G75*
G01*
X365000Y-1690000D02*
G03*
X385000Y-1710000I20000J0D01*
G75*
G01*
X870000Y-2075000D02*
G03*
X899660Y-2104660I29660J0D01*
G75*
G01*
X905340Y-2170000D02*
G02*
X900000Y-2164660I0J5340D01*
G75*
G01*
X190000Y-1955000D02*
G03*
X210000Y-1975000I20000J0D01*
G75*
G01*
X859214Y-2008193D02*
G03*
X815292Y-1990000I-43922J-43922D01*
G75*
G01*
X900000Y-2045340D02*
G02*
X893788Y-2042767I0J8785D01*
G75*
G01*
X900000Y-2164660D02*
G03*
X905340Y-2170000I5340J0D01*
G75*
G01*
X686028Y-2131658D02*
G02*
X680000Y-2125630I0J6028D01*
G75*
G01*
X835000Y-2099660D02*
G02*
X803002Y-2131658I-31998J0D01*
G75*
G01*
X825000Y-2070000D02*
G03*
X835000Y-2060000I0J10000D01*
G75*
G01*
X774370Y-2085630D02*
G02*
X790000Y-2070000I15630J0D01*
G75*
G01*
X685000Y-2185000D02*
G02*
X705000Y-2165000I20000J0D01*
G75*
G01*
X605000Y-2125000D02*
G02*
X608776Y-2115884I12892J0D01*
G75*
G01*
X405000Y-2195000D02*
G02*
X390000Y-2180000I0J15000D01*
G75*
G01*
X549660Y-2160000D02*
G02*
X514660Y-2195000I-35000J0D01*
G75*
G01*
X645630Y-2160000D02*
G03*
X680000Y-2125630I0J34370D01*
G75*
G01*
X462370Y-2137630D02*
G03*
X465000Y-2135000I0J2630D01*
G75*
G01*
X490340Y-2109320D02*
G02*
X505000Y-2094660I14660J0D01*
G75*
G01*
X440000Y-2137630D02*
G03*
X462370Y-2160000I22370J0D01*
G75*
G01*
X695630Y-2065000D02*
G03*
X690630Y-2060000I-5000J0D01*
G75*
G01*
X270000Y-1995000D02*
G02*
X240000Y-1965000I0J30000D01*
G75*
G01*
X445000Y-2005000D02*
G03*
X435000Y-1995000I-10000J0D01*
G75*
G01*
X465000Y-2065000D02*
G02*
X445000Y-2045000I0J20000D01*
G75*
G01*
X504660Y-2035000D02*
G02*
X505000Y-2035340I0J-340D01*
G75*
G01*
X465000Y-2020000D02*
G03*
X480000Y-2035000I15000J0D01*
G75*
G01*
X445000Y-1975000D02*
G02*
X465000Y-1995000I0J-20000D01*
G75*
G01*
X290000Y-1940000D02*
G03*
X325000Y-1975000I35000J0D01*
G75*
G01*
X513500Y-1969660D02*
G02*
X568840Y-2025000I0J-55340D01*
G75*
G01*
X440000Y-1922370D02*
G02*
X452030Y-1910340I12030J0D01*
G75*
G01*
X640000Y-1752360D02*
G03*
X592640Y-1705000I-47360J0D01*
G75*
G01*
X615000Y-1830000D02*
G03*
X640000Y-1805000I0J25000D01*
G75*
G01*
X540000Y-1850000D02*
G02*
X560000Y-1830000I20000J0D01*
G75*
G01*
X525000Y-1865000D02*
G03*
X540000Y-1850000I0J15000D01*
G75*
G01*
X390000Y-1895000D02*
G02*
X420000Y-1865000I30000J0D01*
G75*
G01*
X501580Y-1812370D02*
G02*
X520000Y-1820000I0J-26050D01*
G75*
G01*
X240000Y-1560000D02*
G02*
X245000Y-1555000I5000J0D01*
G75*
G01*
X390000Y-1487630D02*
G03*
X365000Y-1512630I0J-25000D01*
G75*
G01*
X340000Y-1487630D02*
G03*
X315000Y-1512630I0J-25000D01*
G75*
G01*
X840000Y-1462630D02*
G03*
X850000Y-1472630I10000J0D01*
G75*
G01*
X510000Y-1529660D02*
G02*
X519660Y-1520000I9660J0D01*
G75*
G01*
X570000Y-1470000D02*
G02*
X560000Y-1480000I-10000J0D01*
G75*
G01*
X615000Y-1360000D02*
G03*
X625000Y-1350000I0J10000D01*
G75*
G01*
X600000Y-1370000D02*
G02*
X610000Y-1360000I10000J0D01*
G75*
G01*
X280000Y-1435000D02*
G02*
X290000Y-1445000I0J-10000D01*
G75*
G01*
X595000Y-1467630D02*
G03*
X600000Y-1472630I5000J0D01*
G75*
G01*
X655000Y-1325000D02*
G03*
X645000Y-1335000I0J-10000D01*
G75*
G01*
X680000Y-1310000D02*
G02*
X665000Y-1325000I-15000J0D01*
G75*
G01*
X700000Y-1257370D02*
G03*
X680000Y-1277370I0J-20000D01*
G75*
G01*
X650000Y-1257370D02*
G03*
X625000Y-1282370I0J-25000D01*
G75*
G01*
X410000Y-1745000D02*
G02*
X440000Y-1775000I0J-30000D01*
G75*
G01*
X215000Y-1710000D02*
G03*
X250000Y-1745000I35000J0D01*
G75*
G01*
X342630Y-1765000D02*
G02*
X390000Y-1812370I0J-47370D01*
G75*
G01*
X165000Y-1740000D02*
G03*
X190000Y-1765000I25000J0D01*
G75*
G01*
X240000Y-1272370D02*
G03*
X215000Y-1297370I0J-25000D01*
G75*
G01*
X450000Y-1560000D02*
G03*
X440000Y-1570000I0J-10000D01*
G75*
G01*
X402950Y-1542050D02*
G03*
X390000Y-1555000I0J-12950D01*
G75*
G01*
X190000Y-1272370D02*
G03*
X165000Y-1297370I0J-25000D01*
G75*
G01*
X514635Y-1595365D02*
G02*
X485000Y-1607640I-29635J29636D01*
G75*
G01*
X510000Y-1529660D02*
G02*
X479660Y-1560000I-30340J0D01*
G75*
G01*
X470000Y-1512996D02*
G02*
X440946Y-1542050I-29054J0D01*
G75*
G01*
X484660Y-1315000D02*
G02*
X515000Y-1345340I0J-30340D01*
G75*
G01*
X549366Y-1314026D02*
G03*
X515000Y-1279660I-34366J0D01*
G75*
G01*
X550000Y-1430340D02*
G02*
X510000Y-1470340I-40000J0D01*
G75*
G01*
X535000Y-1375000D02*
G02*
X550000Y-1390000I0J-15000D01*
G75*
G01*
X445000Y-1425000D02*
G02*
X495000Y-1375000I50000J0D01*
G75*
G01*
X570000Y-1275340D02*
G03*
X515000Y-1220340I-55000J0D01*
G75*
G01*
X549393Y-1560607D02*
G03*
X570000Y-1510857I-49750J49750D01*
G75*
G01*
X470000Y-1449660D02*
G02*
X515000Y-1404660I45000J0D01*
G75*
G01*
X900000Y-1257370D02*
G03*
X917630Y-1275000I17630J0D01*
G75*
G01*
X970000Y-1230000D02*
G02*
X965000Y-1235000I-5000J0D01*
G75*
G01*
X1015000Y-835000D02*
G03*
X970000Y-880000I0J-45000D01*
G75*
G01*
X1330000Y-810000D02*
G02*
X1305000Y-835000I-25000J0D01*
G75*
G01*
X812481Y-1188152D02*
G03*
X820000Y-1170000I-18151J18152D01*
G75*
G01*
X775603Y-1210000D02*
G03*
X801261Y-1199372I0J36286D01*
G75*
G01*
X750000Y-1225000D02*
G02*
X765000Y-1210000I15000J0D01*
G75*
G01*
X480000Y-1170000D02*
G03*
X460000Y-1150000I-20000J0D01*
G75*
G01*
X447630Y-1272370D02*
G03*
X480000Y-1240000I0J32370D01*
G75*
G01*
X390000Y-1260000D02*
G02*
X445000Y-1205000I55000J0D01*
G75*
G01*
X290000Y-1225000D02*
G02*
X335000Y-1180000I45000J0D01*
G75*
G01*
X445000Y-1430000D02*
G03*
X440000Y-1435000I0J-5000D01*
G75*
G01*
X335000Y-1395000D02*
G03*
X315000Y-1415000I0J-20000D01*
G75*
G01*
X410000Y-1410000D02*
G03*
X395000Y-1395000I-15000J0D01*
G75*
G01*
X400000Y-1430000D02*
G03*
X410000Y-1420000I0J10000D01*
G75*
G01*
X390000Y-1440000D02*
G02*
X400000Y-1430000I10000J0D01*
G75*
G01*
X340000Y-1450000D02*
G02*
X365000Y-1425000I25000J0D01*
G75*
G01*
X615000Y135000D02*
G02*
X610000Y140000I0J5000D01*
G75*
G01*
X640342Y135000D02*
G03*
X655000Y149658I0J14658D01*
G75*
G01*
X1050342Y100000D02*
G02*
X1060000Y90342I0J-9658D01*
G75*
G01*
X182756Y-32756D02*
G02*
X185000Y-35000I0J-2244D01*
G75*
G01*
X120000Y-19212D02*
G03*
X133544Y-32756I13544J0D01*
G75*
G01*
X140000Y-1136100D02*
G02*
X211100Y-1065000I71100J0D01*
G75*
G01*
X297370Y-305000D02*
G02*
X322370Y-280000I25000J0D01*
G75*
G01*
X322370Y-280000D02*
G02*
X297370Y-255000I0J25000D01*
G75*
G01*
X425000Y-190000D02*
G03*
X405000Y-170000I-20000J0D01*
G75*
G01*
X405000Y-405000D02*
G03*
X425000Y-385000I0J20000D01*
G75*
G01*
X289660Y135000D02*
G02*
X290000Y134660I0J-340D01*
G75*
G01*
X195000Y95000D02*
G03*
X225340Y64660I30340J0D01*
G75*
G01*
X195000Y95000D02*
G02*
X164652Y64652I-30348J0D01*
G75*
G01*
X195000Y95348D02*
G03*
X160000Y130348I-35000J0D01*
G75*
G01*
X195000Y99660D02*
G02*
X230340Y135000I35340J0D01*
G75*
G01*
X240000Y5340D02*
G02*
X265000Y-19660I0J-25000D01*
G75*
G01*
X160000Y5342D02*
G02*
X174658Y20000I14658J0D01*
G75*
G01*
X120000Y165000D02*
G02*
X144658Y189658I24658J0D01*
G75*
G01*
X195000Y95000D02*
G03*
X194493Y94493I0J-507D01*
G75*
G01*
X2875000Y146000D02*
G03*
X2812000Y209000I-63000J0D01*
G75*
G01*
X1032640Y-260000D02*
G02*
X1037640Y-255000I5000J0D01*
G75*
G01*
X797370Y-1755000D02*
G03*
X812370Y-1770000I15000J0D01*
G75*
G01*
X845000Y-1607370D02*
G02*
X797370Y-1655000I-47630J0D01*
G75*
G01*
X840000Y-1725000D02*
G03*
X820000Y-1705000I-20000J0D01*
G75*
G01*
X850000Y-1735000D02*
G02*
X840000Y-1725000I0J10000D01*
G75*
G01*
X920000Y-1720000D02*
G02*
X905000Y-1735000I-15000J0D01*
G75*
G01*
X945000Y-1515000D02*
G03*
X920000Y-1540000I0J-25000D01*
G75*
G01*
X1330000Y-1355000D02*
G02*
X1170000Y-1515000I-160000J0D01*
G75*
G01*
X875000Y-1670000D02*
G02*
X890340Y-1685340I0J-15340D01*
G75*
G01*
X860000Y-1530000D02*
G03*
X845000Y-1545000I0J-15000D01*
G75*
G01*
X875000Y-1515000D02*
G02*
X860000Y-1530000I-15000J0D01*
G75*
G01*
X1230000Y-1355000D02*
G02*
X1165000Y-1420000I-65000J0D01*
G75*
G01*
X580000Y-1755000D02*
G02*
X545000Y-1720000I0J35000D01*
G75*
G01*
X792630Y-1380000D02*
G03*
X700000Y-1472630I0J-92630D01*
G75*
G01*
X882630Y-1340000D02*
G02*
X800000Y-1257370I0J82630D01*
G75*
G01*
X912630Y-1320000D02*
G02*
X850000Y-1257370I0J62630D01*
G75*
G01*
X1065000Y-1260000D02*
G02*
X945000Y-1380000I-120000J0D01*
G75*
G01*
X1075000Y-915000D02*
G03*
X1065000Y-925000I0J-10000D01*
G75*
G01*
X1730000Y-755000D02*
G02*
X1570000Y-915000I-160000J0D01*
G75*
G01*
X1565000Y-895000D02*
G03*
X1630000Y-830000I0J65000D01*
G75*
G01*
X1465000Y-875000D02*
G03*
X1530000Y-810000I0J65000D01*
G75*
G01*
X1375000Y-855000D02*
G03*
X1430000Y-800000I0J55000D01*
G75*
G01*
X1030000Y-855000D02*
G03*
X1005000Y-880000I0J-25000D01*
G75*
G01*
X1005000Y-1245000D02*
G02*
X930000Y-1320000I-75000J0D01*
G75*
G01*
X1045000Y-910000D02*
G02*
X1060000Y-895000I15000J0D01*
G75*
G01*
X940000Y-1360000D02*
G03*
X1045000Y-1255000I0J105000D01*
G75*
G01*
X1025000Y-890000D02*
G02*
X1040000Y-875000I15000J0D01*
G75*
G01*
X935000Y-1340000D02*
G03*
X1025000Y-1250000I0J90000D01*
D12*
G75*
G01*
X161960Y-780000D02*
G02*
X223848Y-718112I61888J0D01*
G75*
G01*
X398500Y-755000D02*
G03*
X403500Y-750000I0J5000D01*
G75*
G01*
X238040Y-780000D02*
G02*
X263040Y-755000I25000J0D01*
G75*
G01*
X350000Y-1066100D02*
G03*
X348900Y-1065000I-1100J0D01*
G75*
G01*
X580000Y-985000D02*
G02*
X630000Y-1035000I0J-50000D01*
G75*
G01*
X545000Y-950000D02*
G03*
X580000Y-985000I35000J0D01*
G75*
G01*
X585000Y-850000D02*
G03*
X545000Y-890000I0J-40000D01*
G75*
G01*
X840000Y-410750D02*
G03*
X775000Y-345750I-65000J0D01*
G75*
G01*
X865000Y-610000D02*
G02*
X840000Y-585000I0J25000D01*
G75*
G01*
X890000Y-630000D02*
G03*
X870000Y-610000I-20000J0D01*
G75*
G01*
X872083Y-857917D02*
G03*
X890000Y-840000I0J17917D01*
G75*
G01*
X845000Y-783220D02*
G02*
X833220Y-795000I-11780J0D01*
G75*
G01*
X807892Y-642892D02*
G02*
X845000Y-680000I0J-37108D01*
G75*
G01*
X700371Y-544937D02*
G03*
X700000Y-545308I0J-371D01*
G75*
G01*
X700000Y-261780D02*
G02*
X775000Y-186780I75000J0D01*
G75*
G01*
X646888Y-718112D02*
G03*
X700000Y-665000I0J53112D01*
G75*
G01*
X550000Y-747641D02*
G02*
X579529Y-718112I29529J0D01*
G75*
G01*
X575000Y-800000D02*
G02*
X550000Y-775000I0J25000D01*
G75*
G01*
X735749Y-859214D02*
G03*
X775000Y-819963I0J39251D01*
G75*
G01*
X616500Y-850000D02*
G03*
X625714Y-859214I9214J0D01*
G75*
G01*
X671780Y-750000D02*
G02*
X716780Y-795000I0J-45000D01*
G75*
G01*
X785000Y-984660D02*
G02*
X805000Y-964660I20000J0D01*
G75*
G01*
X761780Y-1050000D02*
G03*
X785000Y-1026780I0J23220D01*
G75*
G01*
X305000Y-980000D02*
G02*
X348900Y-1023900I0J-43900D01*
G75*
G01*
X246160Y-921160D02*
G03*
X305000Y-980000I58840J0D01*
G75*
G01*
X325000Y-852560D02*
G02*
X327560Y-850000I2560J0D01*
G75*
G01*
X450000Y-900000D02*
G03*
X475000Y-875000I0J25000D01*
G75*
G01*
X325000Y-797440D02*
G03*
X327560Y-800000I2560J0D01*
G75*
G01*
X616500Y-900000D02*
G03*
X621840Y-905340I5340J0D01*
G75*
G01*
X685000Y-960000D02*
G03*
X689660Y-964660I4660J0D01*
G75*
G01*
X630000Y-1065000D02*
G03*
X725000Y-1160000I95000J0D01*
D10*
G75*
G01*
X2840000Y-50000D02*
G03*
X2805000Y-85000I0J-35000D01*
G75*
G01*
X2875000Y-15000D02*
G02*
X2840000Y-50000I-35000J0D01*
G75*
G01*
X3619660Y160000D02*
G03*
X3614660Y155000I0J-5000D01*
G75*
G01*
X3715000Y140000D02*
G03*
X3695000Y160000I-20000J0D01*
G75*
G01*
X3735000Y80000D02*
G02*
X3715000Y100000I0J20000D01*
G75*
G01*
X3755000Y60000D02*
G03*
X3735000Y80000I-20000J0D01*
G75*
G01*
X3740079Y10079D02*
G03*
X3755000Y25000I0J14921D01*
G75*
G01*
X3675000Y-8787D02*
G02*
X3693866Y10079I18866J0D01*
G75*
G01*
X3690000Y-55000D02*
G02*
X3675000Y-40000I0J15000D01*
G75*
G01*
X3130000Y-80000D02*
G02*
X3105000Y-105000I-25000J0D01*
G75*
G01*
X3710000Y39660D02*
G03*
X3699660Y50000I-10340J0D01*
G75*
G01*
X3585000Y125340D02*
G02*
X3614660Y155000I29660J0D01*
G75*
G01*
X3641970Y85000D02*
G03*
X3677600Y120630I0J35630D01*
G75*
G01*
X3614660Y155000D02*
G02*
X3659030Y199370I44370J0D01*
G75*
G01*
X3752400Y162400D02*
G02*
X3760000Y170000I7600J0D01*
G75*
G01*
X3555340Y165340D02*
G02*
X3580000Y190000I24660J0D01*
G75*
G01*
X3485000Y-70340D02*
G03*
X3464660Y-50000I-20340J0D01*
G75*
G01*
X3535000Y-105952D02*
G02*
X3545204Y-95748I10204J0D01*
G75*
G01*
X3525340Y-129660D02*
G03*
X3535000Y-120000I0J9660D01*
G75*
G01*
X3525000Y-25000D02*
G02*
X3552600Y-52600I0J-27600D01*
G75*
G01*
X3580000Y-85000D02*
G02*
X3609370Y-55630I29370J0D01*
G75*
G01*
X3569252Y-95748D02*
G03*
X3580000Y-85000I0J10748D01*
G75*
G01*
X3587978Y-17638D02*
G02*
X3555340Y15000I0J32638D01*
G75*
G01*
X3656070Y-27717D02*
G03*
X3645991Y-17638I-10079J0D01*
G75*
G01*
X3641739Y-100000D02*
G03*
X3656070Y-85669I0J14331D01*
G75*
G01*
X3590000Y-134370D02*
G02*
X3624370Y-100000I34370J0D01*
G75*
G01*
X3558070Y-166300D02*
G03*
X3590000Y-134370I0J31930D01*
G75*
G01*
X3395000Y-210000D02*
G02*
X3438700Y-166300I43700J0D01*
G75*
G01*
X3683937Y-183937D02*
G02*
X3705000Y-205000I0J-21063D01*
G75*
G01*
X3430000Y-210000D02*
G02*
X3456063Y-183937I26063J0D01*
G75*
G01*
X2570000Y-1905000D02*
G03*
X2565000Y-1910000I0J-5000D01*
G75*
G01*
X2612370Y-1855000D02*
G03*
X2522939Y-1944431I0J-89431D01*
G75*
G01*
X2545000Y-1940000D02*
G03*
X2540000Y-1945000I0J-5000D01*
G75*
G01*
X2751501Y-1971501D02*
G03*
X2745000Y-1965000I-6501J0D01*
G75*
G01*
X2675000Y-2085630D02*
G03*
X2751501Y-2009129I0J76501D01*
G75*
G01*
X2770000Y-1940544D02*
G02*
X2770544Y-1940000I544J0D01*
G75*
G01*
X2775000Y-2010000D02*
G02*
X2770000Y-2005000I0J5000D01*
G75*
G01*
X2650630Y-2110000D02*
G03*
X2675000Y-2085630I0J24370D01*
G75*
G01*
X2615000Y-2120000D02*
G02*
X2625000Y-2110000I10000J0D01*
G75*
G01*
X2605000Y-2130000D02*
G03*
X2615000Y-2120000I0J10000D01*
G75*
G01*
X2500000Y-2159660D02*
G02*
X2529660Y-2130000I29660J0D01*
G75*
G01*
X2494660Y-2095000D02*
G02*
X2500000Y-2100340I0J-5340D01*
G75*
G01*
X2712400Y-2137600D02*
G02*
X2725000Y-2125000I12600J0D01*
G75*
G01*
X2632890Y-2159660D02*
G02*
X2637600Y-2164370I0J-4710D01*
G75*
G01*
X2765000Y-1940363D02*
G02*
X2765363Y-1940000I363J0D01*
G75*
G01*
X2845660Y-2030660D02*
G03*
X2825000Y-2010000I-20660J0D01*
G75*
G01*
X2874040Y-1980340D02*
G02*
X2900000Y-2006300I0J-25960D01*
G75*
G01*
X2755000Y-2084660D02*
G02*
X2800000Y-2039660I45000J0D01*
G75*
G01*
X2770000Y-2135000D02*
G02*
X2755000Y-2120000I0J15000D01*
G75*
G01*
X2852600Y-2164370D02*
G03*
X2823230Y-2135000I-29370J0D01*
G75*
G01*
X2927400Y-2162600D02*
G02*
X2955000Y-2135000I27600J0D01*
G75*
G01*
X2785340Y-2165000D02*
G02*
X2785000Y-2164660I0J340D01*
G75*
G01*
X2870290Y-2105340D02*
G03*
X2890000Y-2085630I0J19710D01*
G75*
G01*
X3070290Y-2164370D02*
G03*
X3070000Y-2164660I0J-290D01*
G75*
G01*
X2994660Y-2170000D02*
G03*
X3000000Y-2164660I0J5340D01*
G75*
G01*
X3455000Y-2040000D02*
G02*
X3488700Y-2006300I33700J0D01*
G75*
G01*
X3436413Y-2058587D02*
G03*
X3455000Y-2040000I0J18587D01*
G75*
G01*
X3230000Y-2095000D02*
G02*
X3266413Y-2058587I36413J0D01*
G75*
G01*
X3200000Y-2125000D02*
G03*
X3230000Y-2095000I0J30000D01*
G75*
G01*
X3070000Y-2105340D02*
G03*
X3089660Y-2125000I19660J0D01*
G75*
G01*
X3000000Y-2105340D02*
G03*
X3024660Y-2130000I24660J0D01*
G75*
G01*
X3265000Y-2111770D02*
G02*
X3212400Y-2164370I-52600J0D01*
G75*
G01*
X2150000Y-1785000D02*
G03*
X2170000Y-1805000I20000J0D01*
D12*
G75*
G01*
X3431970Y-2180000D02*
G03*
X3447600Y-2164370I0J15630D01*
G75*
G01*
X3375000Y-2174660D02*
G02*
X3399660Y-2150000I24660J0D01*
D10*
G75*
G01*
X3565000Y-2185000D02*
G02*
X3568835Y-2181165I3835J0D01*
G75*
G01*
X3485000Y-2140000D02*
G03*
X3509370Y-2164370I24370J0D01*
G75*
G01*
X3409660Y-2115340D02*
G03*
X3410000Y-2115000I0J340D01*
G75*
G01*
X3474370Y-2075000D02*
G02*
X3485000Y-2085630I0J-10630D01*
G75*
G01*
X3336070Y-2093930D02*
G02*
X3355000Y-2075000I18930J0D01*
G75*
G01*
X3310706Y-2174660D02*
G03*
X3336070Y-2149296I0J25364D01*
G75*
G01*
X3645000Y-2100000D02*
G02*
X3670000Y-2075000I25000J0D01*
G75*
G01*
X3620000Y-2125000D02*
G03*
X3645000Y-2100000I0J25000D01*
G75*
G01*
X3485000Y-2085630D02*
G03*
X3524370Y-2125000I39370J0D01*
G75*
G01*
X3294660Y-2110000D02*
G02*
X3300000Y-2115340I0J-5340D01*
G75*
G01*
X3640000Y-1966300D02*
G02*
X3600000Y-2006300I-40000J0D01*
G75*
G01*
X3655000Y-1875000D02*
G03*
X3640000Y-1890000I0J-15000D01*
G75*
G01*
X3725000Y-2175000D02*
G02*
X3745000Y-2195000I0J-20000D01*
G75*
G01*
X3885000Y-2200000D02*
G02*
X3910000Y-2175000I25000J0D01*
G75*
G01*
X3925000Y-1525000D02*
G03*
X3924660Y-1525340I0J-340D01*
G75*
G01*
X3895000Y-1480000D02*
G02*
X3920000Y-1455000I25000J0D01*
G75*
G01*
X3900000Y-1695000D02*
G02*
X3895000Y-1690000I0J5000D01*
G75*
G01*
X3905000Y-1700000D02*
G03*
X3900000Y-1695000I-5000J0D01*
G75*
G01*
X3944370Y-1792400D02*
G02*
X3905000Y-1753030I0J39370D01*
G75*
G01*
X3865630Y-1873000D02*
G03*
X3917630Y-1925000I52000J0D01*
G75*
G01*
X3865340Y-1754710D02*
G03*
X3865630Y-1755000I290J0D01*
G75*
G01*
X3945000Y-1875000D02*
G02*
X3960000Y-1890000I0J-15000D01*
G75*
G01*
X3945000Y-1750000D02*
G02*
X3944370Y-1749370I0J630D01*
G75*
G01*
X3925000Y-1625000D02*
G03*
X3924660Y-1625340I0J-340D01*
G75*
G01*
X3330000Y-1655000D02*
G02*
X3305000Y-1630000I0J25000D01*
G75*
G01*
X3380000Y-1680000D02*
G03*
X3395000Y-1665000I0J15000D01*
G75*
G01*
X3300000Y-1700000D02*
G02*
X3320000Y-1680000I20000J0D01*
G75*
G01*
X295630Y-135630D02*
G03*
X330000Y-170000I34370J0D01*
G75*
G01*
X155340Y-70000D02*
G02*
X185340Y-100000I0J-30000D01*
G75*
G01*
X267718Y-342718D02*
G03*
X297370Y-355000I29652J29653D01*
G75*
G01*
X214660Y-275000D02*
G03*
X225026Y-300026I35392J0D01*
G75*
G01*
X276253Y-396253D02*
G03*
X297370Y-405000I21117J21117D01*
G75*
G01*
X214660Y-345000D02*
G02*
X232311Y-352311I0J-24963D01*
G75*
G01*
X245000Y-430000D02*
G03*
X270000Y-455000I25000J0D01*
G75*
G01*
X235000Y-385000D02*
G02*
X245000Y-395000I0J-10000D01*
G75*
G01*
X155340Y-415000D02*
G02*
X185340Y-385000I30000J0D01*
G75*
G01*
X535000Y-650000D02*
G02*
X545340Y-639660I10340J0D01*
G75*
G01*
X415000Y-570340D02*
G02*
X480340Y-505000I65340J0D01*
G75*
G01*
X339370Y-562600D02*
G02*
X297370Y-520600I0J42000D01*
G75*
G01*
X340000Y-563230D02*
G03*
X339370Y-562600I-630J0D01*
G75*
G01*
X140000Y-483230D02*
G02*
X142600Y-480630I2600J0D01*
G75*
G01*
X550000Y-65000D02*
G03*
X552600Y-67600I2600J0D01*
G75*
G01*
X374370Y-142400D02*
G02*
X382110Y-134660I7740J0D01*
G75*
G01*
X495000Y-187370D02*
G03*
X512630Y-205000I17630J0D01*
G75*
G01*
X570000Y-580340D02*
G02*
X564411Y-574751I0J5589D01*
G75*
G01*
X589370Y-142400D02*
G02*
X625000Y-178030I0J-35630D01*
G75*
G01*
X480970Y-75340D02*
G02*
X510630Y-105000I0J-29660D01*
G75*
G01*
X565000Y-254858D02*
G02*
X564858Y-255000I-142J0D01*
G75*
G01*
X535000Y-170000D02*
G02*
X565000Y-200000I0J-30000D01*
G75*
G01*
X510630Y-145630D02*
G03*
X535000Y-170000I24370J0D01*
G75*
G01*
X585340Y-255000D02*
G02*
X595000Y-264660I0J-9660D01*
G75*
G01*
X245000Y-475000D02*
G02*
X265000Y-455000I20000J0D01*
G75*
G01*
X260630Y-600000D02*
G02*
X245000Y-584370I0J15630D01*
G75*
G01*
X222400Y-480630D02*
G02*
X214660Y-472890I0J7740D01*
G75*
G01*
X138835Y-135000D02*
G02*
X155340Y-151505I0J-16505D01*
G75*
G01*
X495000Y-646165D02*
G03*
X510000Y-631165I0J15000D01*
G75*
G01*
X419175Y-629660D02*
G03*
X495000Y-553835I0J75825D01*
G75*
G01*
X2665000Y-1685000D02*
G03*
X2677071Y-1690000I12071J12071D01*
G75*
G01*
X2655000Y-1680000D02*
G02*
X2663536Y-1683536I0J-12071D01*
G75*
G01*
X1234279Y-563091D02*
G02*
X1237370Y-560000I3091J0D01*
G75*
G01*
X1258257Y-625000D02*
G02*
X1234279Y-601022I0J23978D01*
G75*
G01*
X1775000Y-630000D02*
G02*
X1800000Y-655000I0J-25000D01*
G75*
G01*
X1840000Y-620000D02*
G03*
X1825000Y-605000I-15000J0D01*
G75*
G01*
X1820000Y-685000D02*
G03*
X1840000Y-665000I0J20000D01*
G75*
G01*
X1785000Y-720000D02*
G02*
X1820000Y-685000I35000J0D01*
G75*
G01*
X3552370Y-410000D02*
G03*
X3527370Y-385000I-25000J0D01*
G75*
G01*
X3515000Y-440000D02*
G03*
X3535000Y-460000I20000J0D01*
G75*
G01*
X3490000Y-390000D02*
G02*
X3495000Y-385000I5000J0D01*
G75*
G01*
X3467324Y-345006D02*
G03*
X3482318Y-360000I14994J0D01*
G75*
G01*
X2520000Y-230000D02*
G02*
X2525000Y-225000I5000J0D01*
G75*
G01*
X2340000Y-305000D02*
G02*
X2329660Y-294660I0J10340D01*
G75*
G01*
X2360000Y-312365D02*
G03*
X2352635Y-305000I-7365J0D01*
G75*
G01*
X2380000Y-290000D02*
G03*
X2400000Y-310000I20000J0D01*
G75*
G01*
X1943979Y-171339D02*
G02*
X1982640Y-210000I0J-38661D01*
G75*
G01*
X1972640Y-1545000D02*
G02*
X1982640Y-1555000I0J-10000D01*
G75*
G01*
X1665000Y-1490000D02*
G03*
X1720000Y-1545000I55000J0D01*
G75*
G01*
X1645000Y-1450000D02*
G02*
X1665000Y-1470000I0J-20000D01*
G75*
G01*
X1430000Y-1355000D02*
G03*
X1525000Y-1450000I95000J0D01*
G75*
G01*
X2055000Y-1590000D02*
G02*
X2040000Y-1605000I-15000J0D01*
G75*
G01*
X2040000Y-1525000D02*
G02*
X2055000Y-1540000I0J-15000D01*
G75*
G01*
X1685000Y-1490000D02*
G03*
X1720000Y-1525000I35000J0D01*
G75*
G01*
X1645000Y-1430000D02*
G02*
X1685000Y-1470000I0J-40000D01*
G75*
G01*
X1675000Y-1415000D02*
G02*
X1630000Y-1370000I0J45000D01*
G75*
G01*
X1705000Y-1445000D02*
G03*
X1675000Y-1415000I-30000J0D01*
G75*
G01*
X1730000Y-1500000D02*
G02*
X1705000Y-1475000I0J25000D01*
G75*
G01*
X1530000Y-1390000D02*
G03*
X1570000Y-1430000I40000J0D01*
G75*
G01*
X2080000Y-1680000D02*
G02*
X2055000Y-1705000I-25000J0D01*
G75*
G01*
X2065000Y-1500000D02*
G02*
X2080000Y-1515000I0J-15000D01*
G75*
G01*
X2100000Y-1710000D02*
G02*
X2055000Y-1755000I-45000J0D01*
G75*
G01*
X2090000Y-1480000D02*
G02*
X2100000Y-1490000I0J-10000D01*
G75*
G01*
X1730000Y-1445000D02*
G03*
X1765000Y-1480000I35000J0D01*
G75*
G01*
X2100000Y-1460000D02*
G02*
X2120000Y-1480000I0J-20000D01*
G75*
G01*
X1830000Y-1415000D02*
G03*
X1875000Y-1460000I45000J0D01*
G75*
G01*
X2235000Y-1915000D02*
G02*
X2205000Y-1945000I-30000J0D01*
G75*
G01*
X2187370Y-1855000D02*
G02*
X2235000Y-1902630I0J-47630D01*
G75*
G01*
X2175000Y-1880000D02*
G02*
X2187370Y-1892370I0J-12370D01*
G75*
G01*
X1930000Y-1885000D02*
G02*
X1935000Y-1880000I5000J0D01*
G75*
G01*
X1925000Y-1890000D02*
G03*
X1930000Y-1885000I0J5000D01*
G75*
G01*
X1237370Y-1905000D02*
G02*
X1252370Y-1890000I15000J0D01*
G75*
G01*
X1400000Y-1515000D02*
G03*
X1399660Y-1515340I0J-340D01*
G75*
G01*
X1955000Y-1440000D02*
G02*
X1930000Y-1415000I0J25000D01*
G75*
G01*
X2140000Y-1475000D02*
G03*
X2105000Y-1440000I-35000J0D01*
G75*
G01*
X2010000Y-1420000D02*
G02*
X1980000Y-1390000I0J30000D01*
G75*
G01*
X2130000Y-1385000D02*
G02*
X2095000Y-1420000I-35000J0D01*
G75*
G01*
X2160000Y-1385000D02*
G03*
X2130000Y-1355000I-30000J0D01*
G75*
G01*
X2205000Y-1445000D02*
G02*
X2160000Y-1400000I0J45000D01*
G75*
G01*
X2175000Y-1705000D02*
G02*
X2140000Y-1670000I0J35000D01*
G75*
G01*
X2185000Y-1552630D02*
G03*
X2187370Y-1555000I2370J0D01*
G75*
G01*
X2235000Y-1455000D02*
G03*
X2225000Y-1445000I-10000J0D01*
G75*
G01*
X2050000Y-1285000D02*
G03*
X2030000Y-1305000I0J-20000D01*
G75*
G01*
X2180000Y-1330000D02*
G03*
X2135000Y-1285000I-45000J0D01*
G75*
G01*
X2230000Y-1425000D02*
G02*
X2180000Y-1375000I0J50000D01*
G75*
G01*
X2300000Y-1450000D02*
G03*
X2275000Y-1425000I-25000J0D01*
G75*
G01*
X2290000Y-1735000D02*
G03*
X2300000Y-1725000I0J10000D01*
G75*
G01*
X2230000Y-1720000D02*
G03*
X2245000Y-1735000I15000J0D01*
G75*
G01*
X2205000Y-1655000D02*
G02*
X2230000Y-1680000I0J-25000D01*
G75*
G01*
X2187370Y-1605000D02*
G03*
X2235000Y-1557370I0J47630D01*
G75*
G01*
X2700000Y-1285000D02*
G03*
X2630000Y-1355000I0J-70000D01*
G75*
G01*
X2880000Y-1305000D02*
G03*
X2860000Y-1285000I-20000J0D01*
G75*
G01*
X3005000Y-1685000D02*
G02*
X3025000Y-1665000I20000J0D01*
G75*
G01*
X3060000Y-1615000D02*
G02*
X3085000Y-1640000I0J-25000D01*
G75*
G01*
X3085000Y-1715000D02*
G03*
X3110000Y-1690000I0J25000D01*
G75*
G01*
X3180000Y-1715000D02*
G02*
X3135000Y-1670000I0J45000D01*
G75*
G01*
X3175000Y-1665000D02*
G02*
X3165000Y-1655000I0J10000D01*
G75*
G01*
X2655000Y-1545000D02*
G03*
X2662129Y-1552129I7129J0D01*
G75*
G01*
X2640000Y-1530000D02*
G02*
X2655000Y-1545000I0J-15000D01*
G75*
G01*
X2585000Y-1510000D02*
G03*
X2605000Y-1530000I20000J0D01*
G75*
G01*
X2620000Y-1465000D02*
G03*
X2675000Y-1520000I55000J0D01*
G75*
G01*
X2610000Y-1445000D02*
G02*
X2620000Y-1455000I0J-10000D01*
G75*
G01*
X2640000Y-1465000D02*
G03*
X2675000Y-1500000I35000J0D01*
G75*
G01*
X2610000Y-1425000D02*
G02*
X2640000Y-1455000I0J-30000D01*
G75*
G01*
X2565000Y-1490000D02*
G02*
X2585000Y-1510000I0J-20000D01*
G75*
G01*
X2520000Y-1445000D02*
G02*
X2430000Y-1355000I0J90000D01*
G75*
G01*
X2575000Y-1425000D02*
G02*
X2530000Y-1380000I0J45000D01*
G75*
G01*
X2715340Y-1550000D02*
G02*
X2713211Y-1552129I-2129J0D01*
G75*
G01*
X2665000Y-1600000D02*
G03*
X2680000Y-1615000I15000J0D01*
G75*
G01*
X2660000Y-1575000D02*
G03*
X2629904Y-1587466I0J-42563D01*
G75*
G01*
X2693973Y-1580000D02*
G02*
X2703973Y-1590000I0J-10000D01*
G75*
G01*
X2685000Y-1575000D02*
G02*
X2690000Y-1580000I0J-5000D01*
G75*
G01*
X3380000Y-1605000D02*
G03*
X3395000Y-1590000I0J15000D01*
G75*
G01*
X3105000Y-1765000D02*
G03*
X3110000Y-1760000I0J5000D01*
G75*
G01*
X3110000Y-1865000D02*
G03*
X3190000Y-1785000I0J80000D01*
G75*
G01*
X3300000Y-1805000D02*
G02*
X3290000Y-1815000I-10000J0D01*
G75*
G01*
X3325000Y-1780000D02*
G03*
X3300000Y-1805000I0J-25000D01*
G75*
G01*
X3300000Y-1720000D02*
G02*
X3280000Y-1740000I-20000J0D01*
G75*
G01*
X2880000Y-1865000D02*
G02*
X2855000Y-1840000I0J25000D01*
G75*
G01*
X2822678Y-1757678D02*
G03*
X2780000Y-1740000I-42678J-42677D01*
G75*
G01*
X2898672Y-1840000D02*
G02*
X2875000Y-1816328I0J23672D01*
G75*
G01*
X3000000Y-1540000D02*
G03*
X2980000Y-1520000I-20000J0D01*
G75*
G01*
X2875000Y-1750000D02*
G03*
X2890000Y-1765000I15000J0D01*
G75*
G01*
X3150000Y-1800000D02*
G02*
X3210000Y-1740000I60000J0D01*
G75*
G01*
X3110000Y-1840000D02*
G03*
X3150000Y-1800000I0J40000D01*
G75*
G01*
X2845045Y-1590000D02*
G02*
X2845000Y-1589955I0J45D01*
G75*
G01*
X2980000Y-1610000D02*
G03*
X2960000Y-1590000I-20000J0D01*
G75*
G01*
X3032370Y-1815000D02*
G02*
X2980000Y-1762630I0J52370D01*
G75*
G01*
X3270000Y-1245000D02*
G02*
X3295000Y-1270000I0J-25000D01*
G75*
G01*
X2380000Y-1295000D02*
G02*
X2430000Y-1245000I50000J0D01*
G75*
G01*
X3235000Y-1265000D02*
G02*
X3250000Y-1280000I0J-15000D01*
G75*
G01*
X2480000Y-1305000D02*
G02*
X2520000Y-1265000I40000J0D01*
G75*
G01*
X3180000Y-1310000D02*
G03*
X3155000Y-1285000I-25000J0D01*
G75*
G01*
X3210000Y-1380000D02*
G02*
X3180000Y-1350000I0J30000D01*
G75*
G01*
X3580000Y-1355000D02*
G02*
X3555000Y-1380000I-25000J0D01*
G75*
G01*
X3555000Y-1400000D02*
G03*
X3600000Y-1355000I0J45000D01*
G75*
G01*
X3130000Y-1355000D02*
G03*
X3175000Y-1400000I45000J0D01*
G75*
G01*
X2613200Y-1705830D02*
G02*
X2612370Y-1705000I0J830D01*
G75*
G01*
X2645000Y-1755000D02*
G02*
X2650000Y-1760000I0J-5000D01*
G75*
G01*
X2625000Y-1805000D02*
G02*
X2660000Y-1840000I0J-35000D01*
G75*
G01*
X3600000Y-1920000D02*
G02*
X3580000Y-1940000I-20000J0D01*
G75*
G01*
X3605000Y-1915000D02*
G02*
X3600000Y-1920000I-5000J0D01*
G75*
G01*
X3575000Y-1855000D02*
G02*
X3605000Y-1885000I0J-30000D01*
G75*
G01*
X3527370Y-1880000D02*
G02*
X3552370Y-1905000I0J-25000D01*
G75*
G01*
X3305000Y-1885000D02*
G02*
X3310000Y-1880000I5000J0D01*
G75*
G01*
X3300000Y-1890000D02*
G03*
X3305000Y-1885000I0J5000D01*
G75*
G01*
X2612370Y-1905000D02*
G02*
X2627370Y-1890000I15000J0D01*
G75*
G01*
X2329660Y-1770000D02*
G02*
X2344660Y-1755000I15000J0D01*
G75*
G01*
X2329660Y-1700000D02*
G03*
X2334660Y-1705000I5000J0D01*
G75*
G01*
X2845000Y-1700000D02*
G03*
X2860000Y-1715000I15000J0D01*
G75*
G01*
X2835000Y-1690000D02*
G02*
X2845000Y-1700000I0J-10000D01*
G75*
G01*
X2520000Y-1630000D02*
G03*
X2570000Y-1680000I50000J0D01*
G75*
G01*
X2495000Y-1605000D02*
G02*
X2520000Y-1630000I0J-25000D01*
G75*
G01*
X2855000Y-1655000D02*
G03*
X2865000Y-1665000I10000J0D01*
G75*
G01*
X2840000Y-1640000D02*
G02*
X2855000Y-1655000I0J-15000D01*
G75*
G01*
X2820000Y-1620000D02*
G03*
X2845000Y-1595000I0J25000D01*
G75*
G01*
X2770000Y-1610000D02*
G03*
X2780000Y-1620000I10000J0D01*
G75*
G01*
X2660000Y-1635000D02*
G03*
X2665000Y-1640000I5000J0D01*
G75*
G01*
X2655000Y-1630000D02*
G02*
X2660000Y-1635000I0J-5000D01*
G75*
G01*
X2540000Y-1600000D02*
G03*
X2570000Y-1630000I30000J0D01*
G75*
G01*
X2495000Y-1555000D02*
G02*
X2540000Y-1600000I0J-45000D01*
G75*
G01*
X2750000Y-1590000D02*
G02*
X2770000Y-1610000I0J-20000D01*
G75*
G01*
X2865340Y-1550000D02*
G03*
X2845000Y-1570340I0J-20340D01*
G75*
G01*
X3620000Y-1722630D02*
G03*
X3552370Y-1655000I-67630J0D01*
G75*
G01*
X3585000Y-1830000D02*
G03*
X3620000Y-1795000I0J35000D01*
G75*
G01*
X3295000Y-1850000D02*
G02*
X3315000Y-1830000I20000J0D01*
G75*
G01*
X3280000Y-1865000D02*
G03*
X3295000Y-1850000I0J15000D01*
G75*
G01*
X3600000Y-1765000D02*
G02*
X3585000Y-1780000I-15000J0D01*
G75*
G01*
X3560000Y-1705000D02*
G02*
X3600000Y-1745000I0J-40000D01*
G75*
G01*
X2359660Y-1880000D02*
G03*
X2329660Y-1910000I0J-30000D01*
G75*
G01*
X2545000Y-1840000D02*
G02*
X2505000Y-1880000I-40000J0D01*
G75*
G01*
X2570000Y-1755000D02*
G03*
X2545000Y-1780000I0J-25000D01*
G75*
G01*
X2525000Y-1735000D02*
G02*
X2555000Y-1705000I30000J0D01*
G75*
G01*
X2505000Y-1780000D02*
G03*
X2525000Y-1760000I0J20000D01*
G75*
G01*
X2360000Y-1800000D02*
G02*
X2380000Y-1780000I20000J0D01*
G75*
G01*
X2345000Y-1840000D02*
G03*
X2360000Y-1825000I0J15000D01*
G75*
G01*
X3555000Y-1530000D02*
G03*
X3552370Y-1532630I0J-2630D01*
G75*
G01*
X3195000Y-1620000D02*
G02*
X3200000Y-1615000I5000J0D01*
G75*
G01*
X2875000Y-1620000D02*
G02*
X2880000Y-1615000I5000J0D01*
G75*
G01*
X2795000Y-1570340D02*
G03*
X2774660Y-1550000I-20340J0D01*
G75*
G01*
X2407640Y-1905000D02*
G03*
X2410000Y-1902640I0J2360D01*
G75*
G01*
X2407640Y-1855000D02*
G02*
X2410000Y-1857360I0J-2360D01*
G75*
G01*
X2329660Y-1770000D02*
G02*
X2344660Y-1755000I15000J0D01*
G75*
G01*
X2329660Y-1700000D02*
G03*
X2334660Y-1705000I5000J0D01*
G75*
G01*
X2329660Y-1630000D02*
G02*
X2354660Y-1605000I25000J0D01*
G75*
G01*
X2329660Y-1560000D02*
G02*
X2334660Y-1555000I5000J0D01*
G75*
G01*
X1410000Y-270000D02*
G02*
X1445000Y-305000I0J-35000D01*
G75*
G01*
X1337370Y-245000D02*
G03*
X1362370Y-270000I25000J0D01*
G75*
G01*
X1825317Y-825000D02*
G02*
X1785000Y-784683I0J40317D01*
G75*
G01*
X1430000Y-215000D02*
G02*
X1450000Y-195000I20000J0D01*
G75*
G01*
X3425000Y-1675000D02*
G02*
X3395000Y-1705000I-30000J0D01*
G75*
G01*
X3385000Y-1520000D02*
G02*
X3425000Y-1560000I0J-40000D01*
G75*
G01*
X3445000Y-1735000D02*
G02*
X3425000Y-1755000I-20000J0D01*
G75*
G01*
X3385000Y-1500000D02*
G02*
X3445000Y-1560000I0J-60000D01*
G75*
G01*
X3465000Y-1667630D02*
G03*
X3552370Y-1755000I87370J0D01*
G75*
G01*
X3435000Y-1480000D02*
G02*
X3465000Y-1510000I0J-30000D01*
G75*
G01*
X2630000Y-1355000D02*
G03*
X2755000Y-1480000I125000J0D01*
G75*
G01*
X3485000Y-1637630D02*
G03*
X3552370Y-1705000I67370J0D01*
G75*
G01*
X3445000Y-1460000D02*
G02*
X3485000Y-1500000I0J-40000D01*
G75*
G01*
X2730000Y-1355000D02*
G03*
X2835000Y-1460000I105000J0D01*
G75*
G01*
X3505000Y-1635000D02*
G03*
X3525000Y-1655000I20000J0D01*
G75*
G01*
X3455000Y-1440000D02*
G02*
X3505000Y-1490000I0J-50000D01*
G75*
G01*
X2830000Y-1355000D02*
G03*
X2915000Y-1440000I85000J0D01*
G75*
G01*
X3600000Y-1575000D02*
G02*
X3570000Y-1605000I-30000J0D01*
G75*
G01*
X3565000Y-1420000D02*
G02*
X3600000Y-1455000I0J-35000D01*
G75*
G01*
X2930000Y-1355000D02*
G03*
X2995000Y-1420000I65000J0D01*
G75*
G01*
X1135000Y-285000D02*
G02*
X1170000Y-320000I0J-35000D01*
G75*
G01*
X1170000Y-320000D02*
G03*
X1210000Y-360000I40000J0D01*
G75*
G01*
X1830000Y-295000D02*
G02*
X1810000Y-275000I0J20000D01*
G75*
G01*
X1783941Y-269607D02*
G03*
X1834334Y-320000I50393J0D01*
G75*
G01*
X1759334Y-245000D02*
G02*
X1783941Y-269607I0J-24607D01*
G75*
G01*
X1733547Y-266453D02*
G02*
X1755000Y-245000I21453J0D01*
G75*
G01*
X1718429Y-241890D02*
G02*
X1740319Y-220000I21890J0D01*
G75*
G01*
X1692370Y-270000D02*
G03*
X1718429Y-243941I0J26059D01*
G75*
G01*
X1695000Y-320000D02*
G03*
X1733547Y-281453I0J38547D01*
G75*
G01*
X1830000Y-245000D02*
G03*
X1805000Y-220000I-25000J0D01*
G75*
G01*
X1850000Y-270000D02*
G02*
X1830000Y-250000I0J20000D01*
G75*
G01*
X1930000Y-275000D02*
G03*
X1925000Y-270000I-5000J0D01*
G75*
G01*
X1940000Y-285000D02*
G02*
X1930000Y-275000I0J10000D01*
G75*
G01*
X1610000Y-195000D02*
G02*
X1585000Y-220000I-25000J0D01*
G75*
G01*
X1633661Y-171339D02*
G03*
X1610000Y-195000I0J-23661D01*
G75*
G01*
X1045000Y-155000D02*
G03*
X990000Y-210000I0J-55000D01*
G75*
G01*
X2045000Y-200000D02*
G03*
X2000000Y-155000I-45000J0D01*
G75*
G01*
X1340340Y-565000D02*
G03*
X1335000Y-570340I0J-5340D01*
G75*
G01*
X1795000Y-345000D02*
G02*
X1780000Y-330000I0J15000D01*
G75*
G01*
X1130000Y-420000D02*
G03*
X1120000Y-410000I-10000J0D01*
G75*
G01*
X1145000Y-435000D02*
G02*
X1130000Y-420000I0J15000D01*
G75*
G01*
X1475000Y-230000D02*
G02*
X1499142Y-220000I24142J-24142D01*
G75*
G01*
X1445000Y-250000D02*
G03*
X1462071Y-242929I0J24142D01*
G75*
G01*
X1380000Y-220000D02*
G02*
X1405607Y-230607I0J-36213D01*
G75*
G01*
X1290000Y-330000D02*
G03*
X1326213Y-345000I36213J36213D01*
G75*
G01*
X1552630Y-495000D02*
G03*
X1573747Y-486253I0J29864D01*
G75*
G01*
X2090000Y-310000D02*
G03*
X2110000Y-290000I0J20000D01*
G75*
G01*
X2120000Y-195000D02*
G02*
X2140000Y-215000I0J-20000D01*
G75*
G01*
X2070000Y-215000D02*
G02*
X2090000Y-195000I20000J0D01*
G75*
G01*
X2045251Y-274749D02*
G03*
X2070000Y-215000I-59748J59749D01*
G75*
G01*
X1877630Y-490000D02*
G02*
X1882630Y-495000I0J-5000D01*
G75*
G01*
X1075000Y-310000D02*
G02*
X1080000Y-315000I0J-5000D01*
G75*
G01*
X2045000Y-240000D02*
G02*
X2025000Y-260000I-20000J0D01*
G75*
G01*
X1015000Y-235000D02*
G02*
X990000Y-210000I0J25000D01*
G75*
G01*
X1032640Y-247640D02*
G03*
X1020000Y-235000I-12640J0D01*
G75*
G01*
X1090000Y-285000D02*
G02*
X1125000Y-320000I0J-35000D01*
G75*
G01*
X985000Y-265000D02*
G03*
X1005000Y-285000I20000J0D01*
G75*
G01*
X974660Y-300000D02*
G02*
X949660Y-275000I0J25000D01*
G75*
G01*
X985000Y-310000D02*
G03*
X975000Y-300000I-10000J0D01*
G75*
G01*
X979660Y-235000D02*
G02*
X985000Y-240340I0J-5340D01*
G75*
G01*
X1145000Y-225000D02*
G03*
X1130000Y-210000I-15000J0D01*
G75*
G01*
X1155000Y-235000D02*
G02*
X1145000Y-225000I0J10000D01*
G75*
G01*
X1280000Y-230000D02*
G02*
X1275000Y-235000I-5000J0D01*
G75*
G01*
X1290000Y-220000D02*
G03*
X1280000Y-230000I0J-10000D01*
G75*
G01*
X1910000Y-445000D02*
G02*
X1930000Y-465000I0J-20000D01*
G75*
G01*
X2201446Y-598614D02*
G03*
X2215000Y-585060I0J13554D01*
G75*
G01*
X1910000Y-395000D02*
G02*
X1925000Y-410000I0J-15000D01*
G75*
G01*
X1667370Y-295000D02*
G02*
X1692370Y-270000I25000J0D01*
G75*
G01*
X1610000Y-270000D02*
G02*
X1635000Y-245000I25000J0D01*
G75*
G01*
X1625000Y-320000D02*
G02*
X1610000Y-305000I0J15000D01*
G75*
G01*
X1935000Y-325000D02*
G03*
X1930000Y-320000I-5000J0D01*
G75*
G01*
X1945000Y-335000D02*
G02*
X1935000Y-325000I0J10000D01*
G75*
G01*
X2120000Y-375000D02*
G03*
X2080000Y-335000I-40000J0D01*
G75*
G01*
X2165000Y-385000D02*
G02*
X2140000Y-360000I0J25000D01*
G75*
G01*
X2230000Y-400000D02*
G03*
X2215000Y-385000I-15000J0D01*
G75*
G01*
X2210000Y-510000D02*
G03*
X2230000Y-490000I0J20000D01*
G75*
G01*
X2235000Y-370000D02*
G03*
X2225000Y-360000I-10000J0D01*
G75*
G01*
X2245000Y-380000D02*
G02*
X2235000Y-370000I0J10000D01*
G75*
G01*
X2300000Y-390000D02*
G03*
X2290000Y-380000I-10000J0D01*
G75*
G01*
X2320000Y-595000D02*
G02*
X2300000Y-575000I0J20000D01*
G75*
G01*
X1495000Y-530000D02*
G02*
X1520000Y-555000I0J-25000D01*
G75*
G01*
X1475000Y-510000D02*
G03*
X1495000Y-530000I20000J0D01*
G75*
G01*
X1450000Y-480000D02*
G02*
X1475000Y-505000I0J-25000D01*
G75*
G01*
X1415000Y-450000D02*
G03*
X1445000Y-480000I30000J0D01*
G75*
G01*
X1370000Y-295000D02*
G02*
X1415000Y-340000I0J-45000D01*
G75*
G01*
X1460000Y-440000D02*
G02*
X1445000Y-425000I0J15000D01*
G75*
G01*
X1500000Y-480000D02*
G03*
X1460000Y-440000I-40000J0D01*
G75*
G01*
X1525000Y-520000D02*
G02*
X1500000Y-495000I0J25000D01*
G75*
G01*
X1595000Y-560000D02*
G03*
X1555000Y-520000I-40000J0D01*
G75*
G01*
X1640000Y-605000D02*
G02*
X1595000Y-560000I0J45000D01*
G75*
G01*
X1450000Y-545000D02*
G03*
X1425000Y-520000I-25000J0D01*
G75*
G01*
X1470000Y-565000D02*
G02*
X1450000Y-545000I0J20000D01*
G75*
G01*
X1550000Y-630000D02*
G02*
X1520000Y-600000I0J30000D01*
G75*
G01*
X1967640Y-525000D02*
G03*
X1982640Y-510000I0J15000D01*
G75*
G01*
X1610000Y-495000D02*
G03*
X1640000Y-525000I30000J0D01*
G75*
G01*
X1930000Y-800000D02*
G02*
X1905000Y-825000I-25000J0D01*
G75*
G01*
X1390000Y-430000D02*
G02*
X1375000Y-445000I-15000J0D01*
G75*
G01*
X1365000Y-370000D02*
G02*
X1390000Y-395000I0J-25000D01*
G75*
G01*
X1280000Y-375000D02*
G02*
X1285000Y-370000I5000J0D01*
G75*
G01*
X1270000Y-385000D02*
G03*
X1280000Y-375000I0J10000D01*
G75*
G01*
X1032640Y-360000D02*
G03*
X1057640Y-385000I25000J0D01*
G75*
G01*
X1285000Y-420000D02*
G02*
X1310000Y-395000I25000J0D01*
G75*
G01*
X1270000Y-435000D02*
G03*
X1285000Y-420000I0J15000D01*
G75*
G01*
X1285000Y-505000D02*
G03*
X1300000Y-520000I15000J0D01*
G75*
G01*
X1250000Y-460000D02*
G02*
X1285000Y-495000I0J-35000D01*
G75*
G01*
X1290000Y-550000D02*
G03*
X1305000Y-565000I15000J0D01*
G75*
G01*
X1275000Y-535000D02*
G02*
X1290000Y-550000I0J-15000D01*
G75*
G01*
X1237370Y-512370D02*
G03*
X1260000Y-535000I22630J0D01*
G75*
G01*
X1550000Y-600000D02*
G02*
X1549660Y-599660I0J340D01*
G75*
G01*
X1399660Y-565000D02*
G02*
X1400000Y-565340I0J-340D01*
G75*
G01*
X1972640Y-370000D02*
G03*
X1982640Y-360000I0J10000D01*
G75*
G01*
X1485000Y-395000D02*
G02*
X1510000Y-370000I25000J0D01*
G75*
G01*
X1525000Y-445000D02*
G02*
X1485000Y-405000I0J40000D01*
G75*
G01*
X1610000Y-452370D02*
G03*
X1552630Y-395000I-57370J0D01*
G75*
G01*
X2185000Y-235000D02*
G02*
X2187370Y-237370I0J-2370D01*
G75*
G01*
X2187370Y-232630D02*
G02*
X2185000Y-235000I-2370J0D01*
G75*
G01*
X890000Y-275340D02*
G02*
X890340Y-275000I340J0D01*
G75*
G01*
X890340Y-310340D02*
G03*
X890000Y-310000I-340J0D01*
G75*
G01*
X890000Y-415340D02*
G02*
X890340Y-415000I340J0D01*
G75*
G01*
X890340Y-450340D02*
G03*
X890000Y-450000I-340J0D01*
G75*
G01*
X2040000Y-567360D02*
G03*
X1982640Y-510000I-57360J0D01*
G75*
G01*
X2005000Y-665000D02*
G03*
X2040000Y-630000I0J35000D01*
G75*
G01*
X1830000Y-755000D02*
G02*
X1920000Y-665000I90000J0D01*
G75*
G01*
X2060000Y-480000D02*
G03*
X2040000Y-460000I-20000J0D01*
G75*
G01*
X2015000Y-685000D02*
G03*
X2060000Y-640000I0J45000D01*
G75*
G01*
X1930000Y-755000D02*
G02*
X2000000Y-685000I70000J0D01*
G75*
G01*
X2080000Y-445000D02*
G03*
X2045000Y-410000I-35000J0D01*
G75*
G01*
X2030000Y-755000D02*
G03*
X2080000Y-705000I0J50000D01*
G75*
G01*
X2100000Y-390000D02*
G03*
X2070000Y-360000I-30000J0D01*
G75*
G01*
X2130000Y-755000D02*
G02*
X2100000Y-725000I0J30000D01*
G75*
G01*
X2120000Y-435000D02*
G02*
X2145000Y-410000I25000J0D01*
G75*
G01*
X2160000Y-660000D02*
G02*
X2120000Y-620000I0J40000D01*
G75*
G01*
X2230000Y-690000D02*
G03*
X2200000Y-660000I-30000J0D01*
G75*
G01*
X2140000Y-557370D02*
G02*
X2187370Y-510000I47370J0D01*
G75*
G01*
X2165000Y-640000D02*
G02*
X2140000Y-615000I0J25000D01*
G75*
G01*
X2330000Y-680000D02*
G03*
X2290000Y-640000I-40000J0D01*
G75*
G01*
X2247370Y-620000D02*
G02*
X2187370Y-560000I0J60000D01*
G75*
G01*
X2430000Y-665000D02*
G03*
X2385000Y-620000I-45000J0D01*
G75*
G01*
X2530000Y-755000D02*
G03*
X2370000Y-595000I-160000J0D01*
G75*
G01*
X1125000Y-320000D02*
G03*
X1165000Y-360000I40000J0D01*
G75*
G01*
X949660Y-205000D02*
G03*
X979660Y-235000I30000J0D01*
G75*
G01*
X985000Y-312360D02*
G03*
X1032640Y-360000I47640J0D01*
G75*
G01*
X990000Y-380000D02*
G03*
X1020000Y-410000I30000J0D01*
G75*
G01*
X955000Y-345000D02*
G02*
X990000Y-380000I0J-35000D01*
G75*
G01*
X1012640Y-440000D02*
G02*
X1032640Y-460000I0J-20000D01*
G75*
G01*
X949660Y-415000D02*
G03*
X974660Y-440000I25000J0D01*
G75*
G01*
X949660Y-485000D02*
G03*
X974660Y-510000I25000J0D01*
G75*
G01*
X1207370Y-590000D02*
G03*
X1237370Y-560000I0J30000D01*
G75*
G01*
X949660Y-555000D02*
G03*
X984660Y-590000I35000J0D01*
G75*
G01*
X2610000Y-235000D02*
G03*
X2612365Y-232635I0J2365D01*
G75*
G01*
X2774660Y-565000D02*
G02*
X2775000Y-565340I0J-340D01*
G75*
G01*
X3600000Y-557635D02*
G03*
X3552365Y-510000I-47635J0D01*
G75*
G01*
X3030000Y-1330000D02*
G02*
X3075000Y-1285000I45000J0D01*
G75*
G01*
X3580000Y-587635D02*
G03*
X3552365Y-560000I-27635J0D01*
G75*
G01*
X3245000Y-630000D02*
G03*
X3300000Y-575000I0J55000D01*
G75*
G01*
X3300000Y-535000D02*
G02*
X3325000Y-510000I25000J0D01*
G75*
G01*
X2660000Y-630000D02*
G03*
X2630000Y-660000I0J-30000D01*
G75*
G01*
X3030000Y-785000D02*
G03*
X3085000Y-840000I55000J0D01*
G75*
G01*
X3165000Y-840000D02*
G03*
X3190000Y-815000I0J25000D01*
G75*
G01*
X3190000Y-815000D02*
G02*
X3225000Y-780000I35000J0D01*
G75*
G01*
X2930000Y-757874D02*
G03*
X3032126Y-860000I102126J0D01*
G75*
G01*
X3185000Y-860000D02*
G03*
X3215000Y-830000I0J30000D01*
G75*
G01*
X3215000Y-830000D02*
G02*
X3245000Y-800000I30000J0D01*
G75*
G01*
X2980000Y-425000D02*
G02*
X2960000Y-445000I-20000J0D01*
G75*
G01*
X2895353Y-630000D02*
G02*
X2895000Y-629647I0J353D01*
G75*
G01*
X2895000Y-530000D02*
G03*
X2885000Y-520000I-10000J0D01*
G75*
G01*
X3300000Y-450000D02*
G02*
X3280000Y-470000I-20000J0D01*
G75*
G01*
X3300000Y-407635D02*
G02*
X3347635Y-360000I47635J0D01*
G75*
G01*
X3325000Y-335000D02*
G03*
X3307929Y-342071I0J-24142D01*
G75*
G01*
X3302071Y-347929D02*
G03*
X3295000Y-365000I17071J-17071D01*
G75*
G01*
X3295000Y-365000D02*
G02*
X3291464Y-373536I-12071J0D01*
G75*
G01*
X3285000Y-380000D02*
G02*
X3248787Y-395000I-36213J36213D01*
G75*
G01*
X3380000Y-650000D02*
G03*
X3410000Y-620000I0J30000D01*
G75*
G01*
X3430000Y-625000D02*
G02*
X3380000Y-675000I-50000J0D01*
G75*
G01*
X3410000Y-480000D02*
G03*
X3390000Y-460000I-20000J0D01*
G75*
G01*
X3430000Y-455000D02*
G03*
X3385000Y-410000I-45000J0D01*
G75*
G01*
X3450000Y-390000D02*
G03*
X3420000Y-360000I-30000J0D01*
G75*
G01*
X3412126Y-757874D02*
G03*
X3450000Y-720000I0J37874D01*
G75*
G01*
X3450000Y-335000D02*
G02*
X3470000Y-355000I0J-20000D01*
G75*
G01*
X3470000Y-725000D02*
G02*
X3415000Y-780000I-55000J0D01*
G75*
G01*
X3490000Y-760000D02*
G02*
X3450000Y-800000I-40000J0D01*
G75*
G01*
X3595000Y-510000D02*
G03*
X3630000Y-475000I0J35000D01*
G75*
G01*
X3630000Y-325000D02*
G03*
X3590000Y-285000I-40000J0D01*
G75*
G01*
X3440000Y-265000D02*
G03*
X3410000Y-235000I-30000J0D01*
G75*
G01*
X3305000Y-235000D02*
G02*
X3300000Y-230000I0J5000D01*
G75*
G01*
X3300000Y-230000D02*
G03*
X3290000Y-220000I-10000J0D01*
G75*
G01*
X3590000Y-485000D02*
G03*
X3610000Y-465000I0J20000D01*
G75*
G01*
X3610000Y-365000D02*
G03*
X3580000Y-335000I-30000J0D01*
G75*
G01*
X3500000Y-335000D02*
G02*
X3495000Y-330000I0J5000D01*
G75*
G01*
X3305000Y-300000D02*
G02*
X3285000Y-320000I-20000J0D01*
G75*
G01*
X3205000Y-320000D02*
G03*
X3190000Y-335000I0J-15000D01*
G75*
G01*
X3190000Y-420000D02*
G03*
X3215000Y-445000I25000J0D01*
G75*
G01*
X3432500Y-312499D02*
G02*
X3417500Y-297499I0J15000D01*
G75*
G01*
X3405001Y-285000D02*
G02*
X3417500Y-297499I0J-12499D01*
G75*
G01*
X3477499Y-312499D02*
G02*
X3495000Y-330000I0J-17501D01*
G75*
G01*
X3110000Y-295000D02*
G03*
X3135000Y-270000I0J25000D01*
G75*
G01*
X3160000Y-470000D02*
G02*
X3145000Y-455000I0J15000D01*
G75*
G01*
X2850000Y-520000D02*
G02*
X2835000Y-505000I0J15000D01*
G75*
G01*
X2835000Y-420000D02*
G02*
X2860000Y-395000I25000J0D01*
G75*
G01*
X2329660Y-205000D02*
G02*
X2354660Y-180000I25000J0D01*
G75*
G01*
X2535000Y-345000D02*
G03*
X2550000Y-360000I15000J0D01*
G75*
G01*
X3085000Y-445000D02*
G02*
X3120000Y-480000I0J-35000D01*
G75*
G01*
X3120000Y-490000D02*
G03*
X3150000Y-520000I30000J0D01*
G75*
G01*
X3150000Y-520000D02*
G02*
X3169660Y-539660I0J-19660D01*
G75*
G01*
X2875000Y-485000D02*
G03*
X2885000Y-495000I10000J0D01*
G75*
G01*
X2360000Y-312365D02*
G03*
X2407635Y-360000I47635J0D01*
G75*
G01*
X2330000Y-345000D02*
G02*
X2355000Y-370000I0J-25000D01*
G75*
G01*
X2355000Y-370000D02*
G03*
X2370000Y-385000I15000J0D01*
G75*
G01*
X2587365Y-385000D02*
G02*
X2612365Y-410000I0J-25000D01*
G75*
G01*
X2329660Y-415000D02*
G02*
X2334660Y-410000I5000J0D01*
G75*
G01*
X2329660Y-485000D02*
G02*
X2354660Y-460000I25000J0D01*
G75*
G01*
X2329660Y-555000D02*
G02*
X2374660Y-510000I45000J0D01*
G75*
G01*
X2625000Y-510000D02*
G02*
X2660000Y-545000I0J-35000D01*
G75*
G01*
X2660000Y-545000D02*
G03*
X2680000Y-565000I20000J0D01*
G75*
G01*
X2407635Y-460000D02*
G02*
X2432635Y-435000I25000J0D01*
G75*
G01*
X2865340Y-565000D02*
G02*
X2820340Y-610000I-45000J0D01*
G75*
G01*
X2555000Y-610000D02*
G02*
X2525000Y-580000I0J30000D01*
G75*
G01*
X2525000Y-505000D02*
G02*
X2570000Y-460000I45000J0D01*
G75*
G01*
X2650000Y-435000D02*
G03*
X2655000Y-430000I0J5000D01*
G75*
G01*
X2655000Y-430000D02*
G02*
X2665000Y-420000I10000J0D01*
G75*
G01*
X2795000Y-420000D02*
G03*
X2820000Y-395000I0J25000D01*
G75*
G01*
X2712370Y-395000D02*
G02*
X2717370Y-390000I5000J0D01*
G75*
G01*
X2770000Y-445000D02*
G02*
X2775000Y-450000I0J-5000D01*
G75*
G01*
X3460000Y-285000D02*
G02*
X3440000Y-265000I0J20000D01*
G75*
G01*
X3155000Y-270000D02*
G02*
X3170000Y-255000I15000J0D01*
G75*
G01*
X3237630Y-255000D02*
G03*
X3247630Y-245000I0J10000D01*
G75*
G01*
X2655000Y-235000D02*
G03*
X2660000Y-230000I0J5000D01*
G75*
G01*
X2655000Y-235000D02*
G03*
X2660000Y-230000I0J5000D01*
G75*
G01*
X2660000Y-190000D02*
G02*
X2680000Y-170000I20000J0D01*
G75*
G01*
X2625000Y-410000D02*
G03*
X2650000Y-385000I0J25000D01*
G75*
G01*
X2820000Y-385000D02*
G03*
X2795000Y-360000I-25000J0D01*
G75*
G01*
X2795000Y-360000D02*
G02*
X2775000Y-340000I0J20000D01*
G75*
G01*
X2775000Y-290000D02*
G02*
X2795000Y-270000I20000J0D01*
G75*
G01*
X2800000Y-270000D02*
G03*
X2810000Y-260000I0J10000D01*
G75*
G01*
X2810000Y-260000D02*
G02*
X2825000Y-245000I15000J0D01*
G75*
G01*
X2840000Y-270000D02*
G03*
X2830000Y-280000I0J-10000D01*
G75*
G01*
X2830000Y-280000D02*
G02*
X2805000Y-305000I-25000J0D01*
G75*
G01*
X3185000Y-220000D02*
G03*
X3135000Y-270000I0J-50000D01*
G75*
G01*
X3305000Y-300000D02*
G02*
X3320000Y-285000I15000J0D01*
G75*
G01*
X2775000Y-650000D02*
G03*
X2730000Y-695000I0J-45000D01*
G75*
G01*
X2825628Y-650000D02*
G03*
X2825000Y-650628I0J-628D01*
G75*
G01*
X2825000Y-655000D02*
G02*
X2830000Y-650000I5000J0D01*
G75*
G01*
X3140000Y-210000D02*
G02*
X3155000Y-195000I15000J0D01*
G75*
G01*
X3520000Y-485000D02*
G03*
X3507408Y-497592I0J-12592D01*
G75*
G01*
X3507408Y-539214D02*
G03*
X3528194Y-560000I20786J0D01*
G75*
G01*
X2830000Y-757874D02*
G02*
X2912874Y-675000I82874J0D01*
G75*
G01*
X2702370Y-335000D02*
G02*
X2712370Y-345000I0J-10000D01*
G75*
G01*
X2535000Y-345000D02*
G03*
X2520000Y-330000I-15000J0D01*
G75*
G01*
X2505000Y-330000D02*
G02*
X2495000Y-320000I0J10000D01*
G75*
G01*
X2495000Y-209928D02*
G03*
X2465072Y-180000I-29928J0D01*
G75*
G01*
X2570000Y-335000D02*
G02*
X2555000Y-320000I0J15000D01*
G75*
G01*
X2555000Y-320000D02*
G03*
X2540000Y-305000I-15000J0D01*
G75*
G01*
X2535000Y-305000D02*
G02*
X2520000Y-290000I0J15000D01*
G75*
G01*
X2980000Y-390000D02*
G02*
X3000000Y-370000I20000J0D01*
G75*
G01*
X3065000Y-395000D02*
G02*
X3080000Y-410000I0J-15000D01*
G75*
G01*
X3247630Y-495000D02*
G03*
X3245000Y-497630I0J-2630D01*
G75*
G01*
X3145000Y-435000D02*
G03*
X3130000Y-420000I-15000J0D01*
G75*
G01*
X3130000Y-420000D02*
G02*
X3110000Y-400000I0J20000D01*
G75*
G01*
X3110000Y-400000D02*
G03*
X3080000Y-370000I-30000J0D01*
G75*
G01*
X3140000Y-395000D02*
G03*
X3090000Y-345000I-50000J0D01*
G75*
G01*
X3190000Y-335000D02*
G02*
X3175000Y-350000I-15000J0D01*
G75*
G01*
X3170000Y-350000D02*
G03*
X3160000Y-360000I0J-10000D01*
G75*
G01*
X3160000Y-375000D02*
G03*
X3165000Y-380000I5000J0D01*
G75*
G01*
X3165000Y-380000D02*
G02*
X3175000Y-390000I0J-10000D01*
G75*
G01*
X3175000Y-410000D02*
G03*
X3180000Y-415000I5000J0D01*
G75*
G01*
X3185000Y-415000D02*
G02*
X3190000Y-420000I0J-5000D01*
G75*
G01*
X3205000Y-365000D02*
G02*
X3225000Y-345000I20000J0D01*
G75*
G01*
X2750000Y-169832D02*
G03*
X2750168Y-170000I168J0D01*
G75*
G01*
X3398085Y-202552D02*
G03*
X3395000Y-210000I7448J-7448D01*
G75*
G01*
X2407640Y-260000D02*
G03*
X2387640Y-240000I-20000J0D01*
G75*
G01*
X2315000Y-240000D02*
G02*
X2300000Y-225000I0J15000D01*
G75*
G01*
X2300000Y-180000D02*
G03*
X2285000Y-165000I-15000J0D01*
G75*
G01*
X2028519Y-165000D02*
G03*
X2028414Y-165105I0J-105D01*
G75*
G01*
X2380000Y-290000D02*
G03*
X2400000Y-310000I20000J0D01*
G75*
G01*
X1940000Y-200000D02*
G03*
X1950000Y-210000I10000J0D01*
G75*
G01*
X204660Y-630000D02*
G03*
X212060Y-637400I7400J0D01*
G75*
G01*
X569660Y-305000D02*
G02*
X595000Y-330340I0J-25340D01*
G75*
G01*
X175000Y-660000D02*
G03*
X185000Y-670000I10000J0D01*
G75*
G01*
X360000Y-670000D02*
G03*
X380000Y-650000I0J20000D01*
G75*
G01*
X380000Y-515000D02*
G02*
X395000Y-500000I15000J0D01*
G75*
G01*
X405000Y-500000D02*
G03*
X445000Y-460000I0J40000D01*
G75*
G01*
X445000Y-330000D02*
G02*
X470000Y-305000I25000J0D01*
G75*
G01*
X180000Y-559370D02*
G03*
X175000Y-564370I0J-5000D01*
G75*
G01*
X145340Y-665340D02*
G03*
X170000Y-690000I24660J0D01*
G75*
G01*
X2688700Y-2006300D02*
G03*
X2645000Y-2050000I0J-43700D01*
G75*
G01*
X2645000Y-2060000D02*
G02*
X2625000Y-2080000I-20000J0D01*
G75*
G01*
X2590340Y-2080000D02*
G03*
X2570000Y-2100340I0J-20340D01*
G75*
G01*
X1027640Y-1560000D02*
G03*
X1032640Y-1555000I0J5000D01*
G75*
G01*
X949660Y-1630000D02*
G02*
X974660Y-1605000I25000J0D01*
G75*
G01*
X955000Y-1770000D02*
G03*
X985000Y-1740000I0J30000D01*
G75*
G01*
X985000Y-1740000D02*
G02*
X1020000Y-1705000I35000J0D01*
G75*
G01*
X949660Y-1882472D02*
G02*
X960002Y-1872130I10342J0D01*
G75*
G01*
X949660Y-1815340D02*
G02*
X960000Y-1805000I10340J0D01*
G75*
G01*
X970000Y-1805000D02*
G03*
X990000Y-1785000I0J20000D01*
G75*
G01*
X990000Y-1785000D02*
G02*
X1020000Y-1755000I30000J0D01*
G75*
G01*
X972870Y-1872130D02*
G03*
X985000Y-1860000I0J12130D01*
G75*
G01*
X985000Y-1855000D02*
G02*
X1010705Y-1829295I25705J0D01*
G75*
G01*
X950000Y-1980000D02*
G03*
X985000Y-1945000I0J35000D01*
G75*
G01*
X985000Y-1905000D02*
G02*
X1010000Y-1880000I25000J0D01*
G75*
G01*
X1165000Y-1827370D02*
G02*
X1237370Y-1755000I72370J0D01*
G75*
G01*
X1145000Y-1795000D02*
G02*
X1215000Y-1725000I70000J0D01*
G75*
G01*
X1217370Y-1725000D02*
G03*
X1237370Y-1705000I0J20000D01*
G75*
G01*
X890340Y-1560000D02*
G03*
X890000Y-1560340I0J-340D01*
G75*
G01*
X890000Y-1629660D02*
G03*
X890340Y-1630000I340J0D01*
G75*
G01*
X890340Y-1874660D02*
G02*
X890000Y-1875000I-340J0D01*
G75*
G01*
X890000Y-1875000D02*
G02*
X890340Y-1875340I0J-340D01*
G75*
G01*
X1237370Y-1602630D02*
G02*
X1260000Y-1580000I22630J0D01*
G75*
G01*
X1275000Y-1580000D02*
G03*
X1290000Y-1565000I0J15000D01*
G75*
G01*
X1290000Y-1565000D02*
G02*
X1305000Y-1550000I15000J0D01*
G75*
G01*
X1320000Y-1585000D02*
G03*
X1280000Y-1625000I0J-40000D01*
G75*
G01*
X1280000Y-1625000D02*
G02*
X1250000Y-1655000I-30000J0D01*
G75*
G01*
X1365000Y-1665000D02*
G03*
X1395000Y-1635000I0J30000D01*
G75*
G01*
X1395000Y-1635000D02*
G02*
X1420000Y-1610000I25000J0D01*
G75*
G01*
X1400000Y-1715000D02*
G03*
X1425000Y-1690000I0J25000D01*
G75*
G01*
X1419520Y-1585480D02*
G03*
X1435000Y-1570000I0J15480D01*
G75*
G01*
X1460000Y-1595000D02*
G02*
X1445000Y-1610000I-15000J0D01*
G75*
G01*
X1425000Y-1650000D02*
G02*
X1445000Y-1630000I20000J0D01*
G75*
G01*
X1465000Y-1630000D02*
G03*
X1480804Y-1623454I0J22351D01*
G75*
G01*
X1460000Y-1590000D02*
G02*
X1470000Y-1580000I10000J0D01*
G75*
G01*
X1485000Y-1580000D02*
G03*
X1495000Y-1570000I0J10000D01*
G75*
G01*
X1495000Y-1468545D02*
G02*
X1514165Y-1449380I19165J0D01*
G75*
G01*
X1501735Y-1602523D02*
G02*
X1516853Y-1587405I15118J0D01*
G75*
G01*
X1557595Y-1587405D02*
G03*
X1575000Y-1570000I0J17405D01*
G75*
G01*
X1495000Y-1665000D02*
G03*
X1460000Y-1700000I0J-35000D01*
G75*
G01*
X1460000Y-1700000D02*
G02*
X1420000Y-1740000I-40000J0D01*
G75*
G01*
X1305000Y-1740000D02*
G02*
X1285000Y-1720000I0J20000D01*
G75*
G01*
X1285000Y-1695000D02*
G03*
X1270000Y-1680000I-15000J0D01*
G75*
G01*
X1195000Y-1810000D02*
G02*
X1200000Y-1805000I5000J0D01*
G75*
G01*
X1095000Y-1880000D02*
G03*
X1105000Y-1870000I0J10000D01*
G75*
G01*
X1105000Y-1865000D02*
G02*
X1115000Y-1855000I10000J0D01*
G75*
G01*
X1145000Y-1855000D02*
G03*
X1165000Y-1835000I0J20000D01*
G75*
G01*
X1205000Y-1945000D02*
G02*
X1190000Y-1930000I0J15000D01*
G75*
G01*
X1190000Y-1890000D02*
G02*
X1200000Y-1880000I10000J0D01*
G75*
G01*
X1212370Y-1880000D02*
G03*
X1237370Y-1855000I0J25000D01*
G75*
G01*
X1290000Y-1815000D02*
G03*
X1285000Y-1820000I0J-5000D01*
G75*
G01*
X1285000Y-1820000D02*
G02*
X1275000Y-1830000I-10000J0D01*
G75*
G01*
X1172500Y-1877500D02*
G02*
X1160000Y-1890000I-12500J0D01*
G75*
G01*
X1150000Y-1890000D02*
G03*
X1130000Y-1910000I0J-20000D01*
G75*
G01*
X1130000Y-1910000D02*
G02*
X1100000Y-1940000I-30000J0D01*
G75*
G01*
X1040000Y-1940000D02*
G03*
X1005000Y-1975000I0J-35000D01*
G75*
G01*
X1005000Y-1980000D02*
G02*
X970000Y-2015000I-35000J0D01*
G75*
G01*
X940000Y-2015000D02*
G02*
X920000Y-1995000I0J20000D01*
G75*
G01*
X920000Y-1869660D02*
G02*
X949660Y-1840000I29660J0D01*
G75*
G01*
X1300000Y-1845000D02*
G03*
X1320000Y-1865000I20000J0D01*
G75*
G01*
X2205000Y-1655000D02*
G03*
X2225000Y-1635000I0J20000D01*
G75*
G01*
X2165000Y-1725000D02*
G02*
X2185000Y-1705000I20000J0D01*
G75*
G01*
X1710000Y-1665000D02*
G03*
X1755000Y-1620000I0J45000D01*
G75*
G01*
X1715000Y-1715000D02*
G03*
X1775000Y-1655000I0J60000D01*
G75*
G01*
X1775000Y-1595000D02*
G02*
X1795000Y-1575000I20000J0D01*
G75*
G01*
X1755000Y-1575000D02*
G03*
X1750000Y-1570000I-5000J0D01*
G75*
G01*
X2175000Y-460000D02*
G03*
X2145000Y-490000I0J-30000D01*
G75*
G01*
X1780000Y-1315000D02*
G02*
X1810000Y-1285000I30000J0D01*
G75*
G01*
X1960000Y-1285000D02*
G02*
X1980000Y-1305000I0J-20000D01*
G75*
G01*
X1575000Y-1815000D02*
G03*
X1610000Y-1780000I0J35000D01*
G75*
G01*
X1610000Y-1500000D02*
G02*
X1625000Y-1485000I15000J0D01*
G75*
G01*
X1600000Y-1865000D02*
G03*
X1605000Y-1860000I0J5000D01*
G75*
G01*
X1605000Y-1860000D02*
G02*
X1625000Y-1840000I20000J0D01*
G75*
G01*
X1740000Y-1840000D02*
G03*
X1790000Y-1790000I0J50000D01*
G75*
G01*
X1790000Y-1775000D02*
G02*
X1825000Y-1740000I35000J0D01*
G75*
G01*
X1930000Y-1740000D02*
G03*
X1940000Y-1730000I0J10000D01*
G75*
G01*
X1940000Y-1730000D02*
G02*
X1965000Y-1705000I25000J0D01*
G75*
G01*
X1547630Y-1720000D02*
G03*
X1552630Y-1715000I0J5000D01*
G75*
G01*
X1500000Y-1775000D02*
G02*
X1510000Y-1765000I10000J0D01*
G75*
G01*
X1370000Y-1765000D02*
G02*
X1390000Y-1785000I0J-20000D01*
G75*
G01*
X1825000Y-1775000D02*
G02*
X1835000Y-1765000I10000J0D01*
G75*
G01*
X1465340Y-1520340D02*
G03*
X1460000Y-1515000I-5340J0D01*
G75*
G01*
X1635000Y-1590000D02*
G03*
X1660000Y-1615000I25000J0D01*
G75*
G01*
X1435000Y-1570000D02*
G02*
X1455000Y-1550000I20000J0D01*
G75*
G01*
X625000Y-425340D02*
G02*
X595000Y-455340I-30000J0D01*
G75*
G01*
X645000Y-464660D02*
G02*
X595000Y-514660I-50000J0D01*
G75*
G01*
X665000Y-610000D02*
G02*
X585000Y-690000I-80000J0D01*
G75*
G01*
X1915000Y-1865000D02*
G03*
X1930000Y-1850000I0J15000D01*
G75*
G01*
X1910000Y-1815000D02*
G03*
X1930000Y-1795000I0J20000D01*
G75*
G01*
X700000Y-1630000D02*
G02*
X675000Y-1655000I-25000J0D01*
G75*
G01*
X650000Y-1570000D02*
G03*
X660000Y-1580000I10000J0D01*
G75*
G01*
X660000Y-1580000D02*
G02*
X675000Y-1595000I0J-15000D01*
G75*
G01*
X675000Y-1620000D02*
G02*
X665000Y-1630000I-10000J0D01*
G75*
G01*
X570000Y-1630000D02*
G03*
X545000Y-1655000I0J-25000D01*
G75*
G01*
X762630Y-1360000D02*
G03*
X732534Y-1372466I0J-42563D01*
G75*
G01*
X662466Y-1442534D02*
G03*
X650000Y-1472630I30097J-30096D01*
G75*
G01*
X765990Y-1339737D02*
G03*
X705000Y-1365000I0J-86253D01*
G75*
G01*
X653536Y-1416464D02*
G02*
X645000Y-1420000I-8536J8535D01*
G75*
G01*
X645000Y-1420000D02*
G03*
X625000Y-1440000I0J-20000D01*
G75*
G01*
X625000Y-1565000D02*
G02*
X615000Y-1575000I-10000J0D01*
G75*
G01*
X579142Y-1575000D02*
G03*
X555000Y-1585000I0J-34142D01*
G75*
G01*
X555000Y-1585000D02*
G03*
X525000Y-1657426I72426J-72426D01*
G75*
G01*
X525000Y-1726716D02*
G03*
X545000Y-1775000I68284J0D01*
G75*
G01*
X562527Y-1792527D02*
G03*
X592640Y-1805000I30113J30114D01*
G75*
G01*
X900000Y-1536679D02*
G02*
X890340Y-1560000I-32981J0D01*
G75*
G01*
X790000Y-1587207D02*
G03*
X797370Y-1605000I25163J0D01*
G75*
G01*
X750000Y-1430000D02*
G02*
X760000Y-1420000I10000J0D01*
G75*
G01*
X1250000Y-2050000D02*
G03*
X1245340Y-2054660I0J-4660D01*
G75*
G01*
X820000Y-2195000D02*
G03*
X839660Y-2175340I0J19660D01*
G75*
G01*
X1230000Y-1547630D02*
G03*
X1237370Y-1555000I7370J0D01*
G75*
G01*
X1060000Y55000D02*
G03*
X1065000Y50000I5000J0D01*
D12*
G75*
G01*
X1481160Y-2078840D02*
G03*
X1505000Y-2055000I0J23840D01*
D34*
G01*
X3910000Y-95000D03*
D35*
G01*
X3910000Y-195000D03*
G01*
X3910000Y-295000D03*
G01*
X3910000Y-395000D03*
D36*
G01*
X726999Y209000D03*
G01*
X983000Y209000D03*
G01*
X726999Y30999D03*
G01*
X983000Y30999D03*
G01*
X326999Y209000D03*
G01*
X583000Y209000D03*
G01*
X326999Y30999D03*
G01*
X583000Y30999D03*
D37*
G01*
X2105000Y-2125000D03*
G01*
X2220000Y-2125000D03*
D38*
G01*
X750000Y-105000D03*
G01*
X850000Y-105000D03*
G01*
X950000Y-105000D03*
G01*
X1050000Y-105000D03*
G01*
X1150000Y-105000D03*
G01*
X1250000Y-105000D03*
G01*
X1350000Y-105000D03*
G01*
X1450000Y-105000D03*
G01*
X1550000Y-105000D03*
G01*
X1650000Y-105000D03*
G01*
X1800000Y-105000D03*
G01*
X1900000Y-105000D03*
G01*
X2000000Y-105000D03*
G01*
X2100000Y-105000D03*
G01*
X2200000Y-105000D03*
G01*
X2300000Y-105000D03*
G01*
X2400000Y-105000D03*
G01*
X2500000Y-105000D03*
G01*
X2700000Y-105000D03*
G01*
X2800000Y-105000D03*
G01*
X2900000Y-105000D03*
G01*
X3000000Y-105000D03*
G01*
X3100000Y-105000D03*
G01*
X3200000Y-105000D03*
G01*
X3300000Y-105000D03*
G01*
X3400000Y-105000D03*
G01*
X3800000Y-105000D03*
G01*
X3700000Y-105000D03*
G01*
X3800000Y-205000D03*
G01*
X3800000Y-305000D03*
G01*
X3700000Y-205000D03*
G01*
X3700000Y-305000D03*
G01*
X3700000Y-405000D03*
G01*
X3800000Y-405000D03*
G01*
X3800000Y-505000D03*
G01*
X3700000Y-505000D03*
G01*
X3700000Y-605000D03*
G01*
X3800000Y-605000D03*
G01*
X3700000Y-705000D03*
G01*
X3800000Y-705000D03*
G01*
X3700000Y-805000D03*
G01*
X3800000Y-805000D03*
G01*
X3700000Y-905000D03*
G01*
X3800000Y-905000D03*
G01*
X3700000Y-1005000D03*
G01*
X3800000Y-1005000D03*
G01*
X3700000Y-1105000D03*
G01*
X3800000Y-1105000D03*
G01*
X3800000Y-1205000D03*
G01*
X3700000Y-1205000D03*
G01*
X3700000Y-1305000D03*
G01*
X3800000Y-1305000D03*
G01*
X3800000Y-1405000D03*
G01*
X3700000Y-1405000D03*
G01*
X3700000Y-1505000D03*
G01*
X3800000Y-1505000D03*
G01*
X3800000Y-1605000D03*
G01*
X3700000Y-1605000D03*
G01*
X3700000Y-1705000D03*
G01*
X3800000Y-1705000D03*
G01*
X3800000Y-1805000D03*
G01*
X3700000Y-1805000D03*
G01*
X3600000Y-2005000D03*
G01*
X3500000Y-2005000D03*
G01*
X3400000Y-2005000D03*
G01*
X3300000Y-2005000D03*
G01*
X3200000Y-2005000D03*
G01*
X3100000Y-2005000D03*
G01*
X3000000Y-2005000D03*
G01*
X2900000Y-2005000D03*
G01*
X2700000Y-2005000D03*
G01*
X2600000Y-2005000D03*
G01*
X2500000Y-2005000D03*
G01*
X2400000Y-2005000D03*
G01*
X2300000Y-2005000D03*
G01*
X2200000Y-2005000D03*
G01*
X2100000Y-2005000D03*
G01*
X2000000Y-2005000D03*
G01*
X1800000Y-2005000D03*
G01*
X1700000Y-2005000D03*
G01*
X1600000Y-2005000D03*
G01*
X1500000Y-2005000D03*
G01*
X1400000Y-2005000D03*
G01*
X1300000Y-2005000D03*
G01*
X1200000Y-2005000D03*
G01*
X1100000Y-2005000D03*
D39*
G01*
X348899Y-1065000D03*
G01*
X211100Y-1065000D03*
D40*
G01*
X530000Y-1065000D03*
G01*
X630000Y-1065000D03*
D34*
G01*
X2600940Y183780D03*
D35*
G01*
X2600950Y83780D03*
G01*
X2600950Y-16219D03*
G01*
X2600950Y-116219D03*
D36*
G01*
X3211999Y209000D03*
G01*
X3468000Y209000D03*
G01*
X3211999Y30999D03*
G01*
X3468000Y30999D03*
G01*
X2811999Y209000D03*
G01*
X3068000Y209000D03*
G01*
X2811999Y30999D03*
G01*
X3068000Y30999D03*
D16*
G01*
X3500000Y-225000D03*
G01*
X3140000Y-210000D03*
G01*
X2865000Y-220000D03*
G01*
X3085000Y-495000D03*
G01*
X2765000Y-510000D03*
G01*
X2455000Y-560000D03*
G01*
X2610000Y-235000D03*
G01*
X2270000Y-1665000D03*
G01*
X2815000Y-560000D03*
G01*
X2925000Y-600000D03*
G01*
X3110000Y-600000D03*
G01*
X3495000Y-385000D03*
G01*
X3515000Y-440000D03*
G01*
X3395000Y-210000D03*
G01*
X3395000Y-260000D03*
G01*
X3395000Y-310000D03*
G01*
X2455000Y-210000D03*
G01*
X2455000Y-260000D03*
G01*
X2465000Y-325000D03*
G01*
X2560000Y-280000D03*
G01*
X3090000Y-215000D03*
G01*
X3085000Y-245000D03*
G01*
X3190000Y-295000D03*
G01*
X3165000Y-325000D03*
G01*
X2675000Y-580000D03*
G01*
X2875000Y-485000D03*
G01*
X3095550Y-446630D03*
G01*
X3080000Y-410000D03*
G01*
X3140000Y-395000D03*
G01*
X2455000Y-510000D03*
G01*
X2860000Y-305000D03*
G01*
X2980000Y-320000D03*
G01*
X2820000Y-210000D03*
G01*
X2775000Y-245000D03*
G01*
X2665000Y-280000D03*
G01*
X2525000Y-225000D03*
G01*
X2780000Y-390000D03*
G01*
X2480000Y-360000D03*
G01*
X2775000Y-450000D03*
G01*
X2475000Y-410000D03*
G01*
X2558450Y-360000D03*
G01*
X3430000Y-210000D03*
G01*
X2655000Y-235000D03*
G01*
X2650000Y-385000D03*
G01*
X2980000Y-270000D03*
G01*
X2800000Y-305000D03*
G01*
X3047229Y-675000D03*
G01*
X2825000Y-655000D03*
G01*
X3245000Y-525000D03*
G01*
X3205000Y-365000D03*
G01*
X1080000Y-560000D03*
G01*
X890000Y-310000D03*
G01*
X890000Y-450000D03*
G01*
X2270339Y-449400D03*
G01*
X2270339Y-308400D03*
G01*
X2185000Y-235000D03*
G01*
X1982640Y-560000D03*
G01*
X1720000Y-495000D03*
G01*
X1830000Y-195000D03*
G01*
X1430000Y-215000D03*
G01*
X1390000Y-495000D03*
G01*
X1400000Y-600000D03*
G01*
X1550000Y-600000D03*
G01*
X2232070Y-362930D03*
G01*
X1925000Y-410000D03*
G01*
X2215000Y-585000D03*
G01*
X1930000Y-465000D03*
G01*
X1190000Y-210000D03*
G01*
X1190000Y-260000D03*
G01*
X2110000Y-220000D03*
G01*
X1080000Y-315000D03*
G01*
X1080000Y-460000D03*
G01*
X1080000Y-510000D03*
G01*
X1495000Y-245000D03*
G01*
X1495000Y-295000D03*
G01*
X1830000Y-345000D03*
G01*
X1825000Y-490000D03*
G01*
X1720000Y-345000D03*
G01*
X1720000Y-195000D03*
G01*
X1585000Y-475000D03*
G01*
X1605000Y-345000D03*
G01*
X1290000Y-330000D03*
G01*
X1395000Y-195000D03*
G01*
X1190000Y-410000D03*
G01*
X1715000Y-565000D03*
G01*
X1840000Y-565000D03*
G01*
X1795000Y-345000D03*
G01*
X1760000Y-275000D03*
G01*
X1935000Y-240000D03*
G01*
X1460000Y-625000D03*
G01*
X1725000Y-445000D03*
G01*
X1335000Y-595000D03*
G01*
X1725000Y-395000D03*
G01*
X1810000Y-275000D03*
G01*
X1170000Y-320000D03*
G01*
X3395000Y-1555000D03*
G01*
X3395000Y-1590000D03*
G01*
X2565000Y-560000D03*
G01*
X1800000Y-655000D03*
G01*
X2565000Y-1555000D03*
G01*
X2795000Y-1585000D03*
G01*
X2960000Y-1550000D03*
G01*
X3215000Y-1550000D03*
G01*
X2875000Y-1620000D03*
G01*
X3195000Y-1620000D03*
G01*
X3555000Y-1520000D03*
G01*
X3085000Y-1915000D03*
G01*
X2805000Y-1915000D03*
G01*
X2455000Y-1855000D03*
G01*
X2455000Y-1905000D03*
G01*
X3395000Y-1855000D03*
G01*
X3395000Y-1905000D03*
G01*
X2790000Y-1665000D03*
G01*
X2770000Y-1715000D03*
G01*
X2565000Y-1655000D03*
G01*
X2510000Y-1490000D03*
G01*
X2455000Y-1655000D03*
G01*
X2455000Y-1705000D03*
G01*
X2460000Y-1755000D03*
G01*
X2765000Y-1865000D03*
G01*
X2765000Y-1820000D03*
G01*
X2660000Y-1840000D03*
G01*
X3500000Y-1805000D03*
G01*
X3110000Y-1760000D03*
G01*
X3295000Y-1765000D03*
G01*
X3085000Y-1640000D03*
G01*
X3295000Y-1915000D03*
G01*
X2770000Y-1765000D03*
G01*
X2875000Y-1915000D03*
G01*
X2875000Y-1750000D03*
G01*
X2665000Y-1600000D03*
G01*
X3395000Y-1805000D03*
G01*
X3595000Y-310000D03*
G01*
X1275000Y-290000D03*
G01*
X2450000Y-1805000D03*
G01*
X2555000Y-1730000D03*
G01*
X2655000Y-1760000D03*
G01*
X2655000Y-1710000D03*
G01*
X2380000Y-1350000D03*
G01*
X2480000Y-1355000D03*
G01*
X3295000Y-1335000D03*
G01*
X3250000Y-1340000D03*
G01*
X3165000Y-1635000D03*
G01*
X3135000Y-1650000D03*
G01*
X3000000Y-1545000D03*
G01*
X2855000Y-1840000D03*
G01*
X3190000Y-1785000D03*
G01*
X3080000Y-1550000D03*
G01*
X3110000Y-1675000D03*
G01*
X3005000Y-1685000D03*
G01*
X2880000Y-1400000D03*
G01*
X2185000Y-1525000D03*
G01*
X2030000Y-1800000D03*
G01*
X2030000Y-1855000D03*
G01*
X2030000Y-1905000D03*
G01*
X1725000Y-1915000D03*
G01*
X1900000Y-1585000D03*
G01*
X1510000Y-1635000D03*
G01*
X1395000Y-1915000D03*
G01*
X1230000Y-1530000D03*
G01*
X1080000Y-1905000D03*
G01*
X1080000Y-1855000D03*
G01*
X1080000Y-1805000D03*
G01*
X1400000Y-1515000D03*
G01*
X1520000Y-1475000D03*
G01*
X1195000Y-1810000D03*
G01*
X2380000Y-290000D03*
G01*
X2145000Y-490000D03*
G01*
X510000Y-615000D03*
G01*
X595000Y-420000D03*
G01*
X595000Y-175000D03*
G01*
X495000Y-180000D03*
G01*
X335000Y-70000D03*
G01*
X335000Y-105000D03*
G01*
X550000Y-65000D03*
G01*
X260000Y-160000D03*
G01*
X130000Y-305000D03*
G01*
X125000Y-375000D03*
G01*
X140000Y-525000D03*
G01*
X345000Y-600000D03*
G01*
X535000Y-650000D03*
G01*
X400000Y-280000D03*
G01*
X512629Y-429569D03*
G01*
X3305000Y-1630000D03*
G01*
X3925000Y-1625000D03*
G01*
X3945000Y-1750000D03*
G01*
X3960000Y-1895000D03*
G01*
X3925000Y-1525000D03*
G01*
X3420000Y-2180000D03*
G01*
X3885000Y-2200000D03*
G01*
X3745000Y-2195000D03*
G01*
X3702370Y-1950079D03*
G01*
X3485000Y-2140000D03*
G01*
X3265000Y-2110000D03*
G01*
X3405000Y-2150000D03*
G01*
X3410000Y-2115000D03*
G01*
X3760000Y-2025000D03*
G01*
X1865000Y-650000D03*
G01*
X2465000Y-680000D03*
G01*
X3565000Y-2185000D03*
G01*
X2145000Y-1795000D03*
G01*
X3025000Y-2130000D03*
G01*
X2965000Y-2170000D03*
G01*
X3131980Y-2086300D03*
G01*
X2815000Y-2165000D03*
G01*
X2955000Y-2135000D03*
G01*
X2725000Y-2125000D03*
G01*
X2470000Y-2095000D03*
G01*
X2745000Y-1965000D03*
G01*
X2565000Y-1910000D03*
G01*
X2140000Y-1905000D03*
D17*
G01*
X1940000Y-200000D03*
G01*
X875000Y-1670000D03*
G01*
X890000Y-1595000D03*
G01*
X890000Y-1875000D03*
G01*
X1370000Y-1635000D03*
G01*
X1590000Y-1480000D03*
G01*
X1300000Y-1845000D03*
G01*
X1165000Y-1700000D03*
G01*
X2165000Y-1725000D03*
G01*
X2225000Y-1635000D03*
G01*
X1930000Y-1850000D03*
G01*
X1930000Y-1800000D03*
G01*
X1795000Y-1575000D03*
G01*
X1750000Y-1570000D03*
G01*
X1780000Y-1415000D03*
G01*
X1625000Y-1485000D03*
G01*
X1490000Y-1715000D03*
G01*
X1390000Y-1840000D03*
G01*
X1495000Y-1915000D03*
G01*
X1500000Y-1775000D03*
G01*
X1635000Y-1590000D03*
G01*
X1725000Y-1815000D03*
G01*
X1725000Y-1750000D03*
G01*
X1725000Y-1865000D03*
G01*
X1825000Y-1775000D03*
G01*
X1825000Y-1665000D03*
G01*
X1825000Y-1715000D03*
G01*
X1190000Y-1770000D03*
G01*
X1195000Y-1725000D03*
G01*
X1340339Y-1550000D03*
G01*
X1460000Y-1515000D03*
G01*
X3650000Y15000D03*
G01*
X3525000Y-25000D03*
G01*
X3760000Y170000D03*
G01*
X3580000Y190000D03*
G01*
X3585000Y120000D03*
G01*
X3885000Y90000D03*
G01*
X3605680Y-257010D03*
G01*
X3670000Y-155000D03*
G01*
X3350000Y-135000D03*
G01*
X1820000Y-1915000D03*
D18*
G01*
X870000Y-990000D03*
G01*
X935000Y-1160000D03*
D19*
G01*
X685000Y-960000D03*
D18*
G01*
X475000Y-800000D03*
G01*
X810000Y-1025000D03*
D19*
G01*
X878530Y-1309899D03*
G01*
X875000Y-1420000D03*
G01*
X340000Y-1335000D03*
G01*
X845000Y-1805000D03*
G01*
X840000Y-1770000D03*
G01*
X600000Y-1205000D03*
G01*
X1080540Y-210000D03*
G01*
X1080000Y-255000D03*
G01*
X680000Y-1860000D03*
G01*
X725000Y-1950000D03*
G01*
X845000Y-1955000D03*
G01*
X640000Y-1855000D03*
G01*
X640000Y-1905000D03*
G01*
X640000Y-1955000D03*
G01*
X640000Y-1605000D03*
G01*
X195000Y85000D03*
G01*
X290000Y85000D03*
G01*
X185000Y-35000D03*
G01*
X190000Y20000D03*
G01*
X265000Y-35000D03*
G01*
X190000Y-1215000D03*
G01*
X240000Y-1215000D03*
G01*
X700000Y-1205000D03*
G01*
X650000Y-1205000D03*
G01*
X445000Y-1430000D03*
G01*
X145000Y-1760000D03*
G01*
X190000Y-1655000D03*
G01*
X520000Y-1820000D03*
G01*
X655000Y35000D03*
G01*
X1060000Y205000D03*
G01*
X1065000Y50000D03*
G01*
X610000Y140000D03*
G01*
X360000Y-1425000D03*
G01*
X315000Y-1415000D03*
G01*
X335000Y-1180000D03*
G01*
X335000Y-1145000D03*
G01*
X445000Y-1205000D03*
G01*
X960000Y-1275000D03*
G01*
X820000Y-1170000D03*
G01*
X965000Y-1235000D03*
G01*
X475000Y-1315000D03*
G01*
X600000Y-1415000D03*
G01*
X645000Y-1380000D03*
G01*
X600000Y-1530000D03*
G01*
X340000Y-1560000D03*
G01*
X290000Y-1560000D03*
G01*
X280000Y-1435000D03*
G01*
X240000Y-1430000D03*
G01*
X190000Y-1545000D03*
G01*
X150000Y-1380000D03*
G01*
X845000Y-1735000D03*
G01*
X540000Y-1520000D03*
G01*
X560000Y-1480000D03*
G01*
X800000Y-1525000D03*
G01*
X840000Y-1420000D03*
G01*
X470000Y-1760000D03*
G01*
X315000Y-1720000D03*
G01*
X340000Y-1860000D03*
G01*
X290000Y-1860000D03*
G01*
X245000Y-1555000D03*
D17*
G01*
X790000Y-1570000D03*
G01*
X160000Y-1975000D03*
G01*
X625000Y-2020000D03*
G01*
X465000Y-2125000D03*
G01*
X605000Y-2125000D03*
G01*
X740000Y-2175000D03*
G01*
X675000Y-1930000D03*
G01*
X210000Y-1975000D03*
G01*
X725000Y-2015000D03*
G01*
X870000Y-2075000D03*
G01*
X145000Y-1860000D03*
G01*
X190000Y-1860000D03*
G01*
X240000Y-1860000D03*
G01*
X940000Y-2195000D03*
G01*
X310000Y-2185000D03*
G01*
X1015000Y-2060000D03*
G01*
X1110000Y-2200000D03*
G01*
X1230000Y-2195000D03*
G01*
X160000Y-2185000D03*
G01*
X1370000Y-2185000D03*
G01*
X975000Y-2125000D03*
G01*
X345000Y-2080000D03*
G01*
X2035000Y-1655000D03*
G01*
X1280000Y-1265000D03*
G01*
X3420000Y-1245000D03*
G01*
X3325000Y-610000D03*
D20*
G01*
X1849449Y-2151819D03*
D16*
G01*
X215000Y-2090000D03*
G01*
X1035000Y-1980000D03*
G01*
X3890000Y-595000D03*
G01*
X3860000Y-515000D03*
G01*
X3895000Y-655000D03*
G01*
X551199Y-1984490D03*
G01*
X2435000Y-2130000D03*
G01*
X459589Y-618000D03*
G01*
X125000Y-235000D03*
G01*
X975000Y-795000D03*
G01*
X1020000Y-795000D03*
G01*
X1115000Y-1770000D03*
G01*
X1095000Y-1730000D03*
G01*
X2526890Y-1531289D03*
G01*
X2235000Y-1775000D03*
G01*
X3385000Y-540000D03*
G01*
X1159160Y-1605000D03*
D17*
G01*
X760000Y-1420000D03*
G01*
X1465000Y-1215000D03*
G01*
X1410000Y-1185000D03*
G01*
X1460000Y-1155000D03*
G01*
X1420000Y-1120000D03*
G01*
X1430000Y-1045000D03*
G01*
X1460000Y-1085000D03*
G01*
X1480000Y-1015000D03*
G01*
X1440000Y-985000D03*
G01*
X1250000Y-2050000D03*
G01*
X820000Y-2195000D03*
G01*
X1480000Y-950000D03*
G01*
X1700000Y-905000D03*
D18*
G01*
X715000Y-1730000D03*
D17*
G01*
X2755000Y-10000D03*
G01*
X3895000Y-1415000D03*
G01*
X3895000Y-1115000D03*
G01*
X3905000Y160000D03*
D41*
X3130000Y-735315D02*
G01*
X3130000Y-774684D01*
X3030000Y-735315D02*
G01*
X3030000Y-774684D01*
X2930000Y-735315D02*
G01*
X2930000Y-774684D01*
X2830000Y-735315D02*
G01*
X2830000Y-774684D01*
X2730000Y-735315D02*
G01*
X2730000Y-774684D01*
X2630000Y-735315D02*
G01*
X2630000Y-774684D01*
X2530000Y-735315D02*
G01*
X2530000Y-774684D01*
X2430000Y-735315D02*
G01*
X2430000Y-774684D01*
X2330000Y-735315D02*
G01*
X2330000Y-774684D01*
X2230000Y-735315D02*
G01*
X2230000Y-774684D01*
X2130000Y-735315D02*
G01*
X2130000Y-774684D01*
X2030000Y-735315D02*
G01*
X2030000Y-774684D01*
X1930000Y-735315D02*
G01*
X1930000Y-774684D01*
X1830000Y-735315D02*
G01*
X1830000Y-774684D01*
X1730000Y-735315D02*
G01*
X1730000Y-774684D01*
X1630000Y-735315D02*
G01*
X1630000Y-774684D01*
X1530000Y-735315D02*
G01*
X1530000Y-774684D01*
X1430000Y-735315D02*
G01*
X1430000Y-774684D01*
X1330000Y-735315D02*
G01*
X1330000Y-774684D01*
X1230000Y-735315D02*
G01*
X1230000Y-774684D01*
X3130000Y-1335315D02*
G01*
X3130000Y-1374684D01*
X3030000Y-1335315D02*
G01*
X3030000Y-1374684D01*
X2930000Y-1335315D02*
G01*
X2930000Y-1374684D01*
X2830000Y-1335315D02*
G01*
X2830000Y-1374684D01*
X2730000Y-1335315D02*
G01*
X2730000Y-1374684D01*
X2630000Y-1335315D02*
G01*
X2630000Y-1374684D01*
X2530000Y-1335315D02*
G01*
X2530000Y-1374684D01*
X2430000Y-1335315D02*
G01*
X2430000Y-1374684D01*
X2330000Y-1335315D02*
G01*
X2330000Y-1374684D01*
X2230000Y-1335315D02*
G01*
X2230000Y-1374684D01*
X2130000Y-1335315D02*
G01*
X2130000Y-1374684D01*
X2030000Y-1335315D02*
G01*
X2030000Y-1374684D01*
X1930000Y-1335315D02*
G01*
X1930000Y-1374684D01*
X1830000Y-1335315D02*
G01*
X1830000Y-1374684D01*
X1730000Y-1335315D02*
G01*
X1730000Y-1374684D01*
X1630000Y-1335315D02*
G01*
X1630000Y-1374684D01*
X1530000Y-1335315D02*
G01*
X1530000Y-1374684D01*
X1430000Y-1335315D02*
G01*
X1430000Y-1374684D01*
X1330000Y-1335315D02*
G01*
X1330000Y-1374684D01*
X1230000Y-1335315D02*
G01*
X1230000Y-1374684D01*
M02*
